%TF.GenerationSoftware,KiCad,Pcbnew,(6.0.2)*%
%TF.CreationDate,2022-03-14T15:32:47-04:00*%
%TF.ProjectId,23XX-Adapter,32335858-2d41-4646-9170-7465722e6b69,2*%
%TF.SameCoordinates,Original*%
%TF.FileFunction,Legend,Top*%
%TF.FilePolarity,Positive*%
%FSLAX46Y46*%
G04 Gerber Fmt 4.6, Leading zero omitted, Abs format (unit mm)*
G04 Created by KiCad (PCBNEW (6.0.2)) date 2022-03-14 15:32:47*
%MOMM*%
%LPD*%
G01*
G04 APERTURE LIST*
G04 Aperture macros list*
%AMRoundRect*
0 Rectangle with rounded corners*
0 $1 Rounding radius*
0 $2 $3 $4 $5 $6 $7 $8 $9 X,Y pos of 4 corners*
0 Add a 4 corners polygon primitive as box body*
4,1,4,$2,$3,$4,$5,$6,$7,$8,$9,$2,$3,0*
0 Add four circle primitives for the rounded corners*
1,1,$1+$1,$2,$3*
1,1,$1+$1,$4,$5*
1,1,$1+$1,$6,$7*
1,1,$1+$1,$8,$9*
0 Add four rect primitives between the rounded corners*
20,1,$1+$1,$2,$3,$4,$5,0*
20,1,$1+$1,$4,$5,$6,$7,0*
20,1,$1+$1,$6,$7,$8,$9,0*
20,1,$1+$1,$8,$9,$2,$3,0*%
%AMFreePoly0*
4,1,22,0.500000,-0.750000,0.000000,-0.750000,0.000000,-0.745033,-0.079941,-0.743568,-0.215256,-0.701293,-0.333266,-0.622738,-0.424486,-0.514219,-0.481581,-0.384460,-0.499164,-0.250000,-0.500000,-0.250000,-0.500000,0.250000,-0.499164,0.250000,-0.499963,0.256109,-0.478152,0.396186,-0.417904,0.524511,-0.324060,0.630769,-0.204165,0.706417,-0.067858,0.745374,0.000000,0.744959,0.000000,0.750000,
0.500000,0.750000,0.500000,-0.750000,0.500000,-0.750000,$1*%
%AMFreePoly1*
4,1,20,0.000000,0.744959,0.073905,0.744508,0.209726,0.703889,0.328688,0.626782,0.421226,0.519385,0.479903,0.390333,0.500000,0.250000,0.500000,-0.250000,0.499851,-0.262216,0.476331,-0.402017,0.414519,-0.529596,0.319384,-0.634700,0.198574,-0.708877,0.061801,-0.746166,0.000000,-0.745033,0.000000,-0.750000,-0.500000,-0.750000,-0.500000,0.750000,0.000000,0.750000,0.000000,0.744959,
0.000000,0.744959,$1*%
G04 Aperture macros list end*
%ADD10C,0.152400*%
%ADD11C,0.062500*%
%ADD12C,0.120000*%
%ADD13C,0.100000*%
%ADD14RoundRect,0.200000X0.275000X-0.200000X0.275000X0.200000X-0.275000X0.200000X-0.275000X-0.200000X0*%
%ADD15RoundRect,0.200000X-0.275000X0.200000X-0.275000X-0.200000X0.275000X-0.200000X0.275000X0.200000X0*%
%ADD16C,1.600000*%
%ADD17O,1.600000X1.600000*%
%ADD18O,1.000000X1.000000*%
%ADD19R,1.000000X1.000000*%
%ADD20FreePoly0,180.000000*%
%ADD21FreePoly1,180.000000*%
%ADD22RoundRect,0.150000X-0.825000X-0.150000X0.825000X-0.150000X0.825000X0.150000X-0.825000X0.150000X0*%
G04 APERTURE END LIST*
D10*
X143904000Y-79470000D02*
G75*
G03*
X144412000Y-78962000I-1J508001D01*
G01*
X141935000Y-79770000D02*
X141610000Y-79470000D01*
X141610000Y-79470000D02*
X141935000Y-79170000D01*
X141935000Y-79170000D02*
X141935000Y-79770000D01*
G36*
X141935000Y-79770000D02*
G01*
X141610000Y-79470000D01*
X141935000Y-79170000D01*
X141935000Y-79770000D01*
G37*
X141935000Y-79770000D02*
X141610000Y-79470000D01*
X141935000Y-79170000D01*
X141935000Y-79770000D01*
X143904000Y-79470000D02*
X141935000Y-79470000D01*
X146761000Y-74537500D02*
X144920000Y-74537500D01*
X144920000Y-74537500D02*
G75*
G03*
X144412000Y-75045500I1J-508001D01*
G01*
X144412000Y-78962000D02*
X144412000Y-75045500D01*
X146952104Y-74905195D02*
X146952104Y-74092395D01*
X147145628Y-74092395D01*
X147261742Y-74131100D01*
X147339152Y-74208509D01*
X147377857Y-74285919D01*
X147416561Y-74440738D01*
X147416561Y-74556852D01*
X147377857Y-74711671D01*
X147339152Y-74789080D01*
X147261742Y-74866490D01*
X147145628Y-74905195D01*
X146952104Y-74905195D01*
X147764904Y-74905195D02*
X147764904Y-74092395D01*
X148151952Y-74905195D02*
X148151952Y-74092395D01*
X148461590Y-74092395D01*
X148539000Y-74131100D01*
X148577704Y-74169804D01*
X148616409Y-74247214D01*
X148616409Y-74363328D01*
X148577704Y-74440738D01*
X148539000Y-74479442D01*
X148461590Y-74518147D01*
X148151952Y-74518147D01*
X148926047Y-74169804D02*
X148964752Y-74131100D01*
X149042161Y-74092395D01*
X149235685Y-74092395D01*
X149313095Y-74131100D01*
X149351800Y-74169804D01*
X149390504Y-74247214D01*
X149390504Y-74324623D01*
X149351800Y-74440738D01*
X148887342Y-74905195D01*
X149390504Y-74905195D01*
X149854961Y-74440738D02*
X149777552Y-74402033D01*
X149738847Y-74363328D01*
X149700142Y-74285919D01*
X149700142Y-74247214D01*
X149738847Y-74169804D01*
X149777552Y-74131100D01*
X149854961Y-74092395D01*
X150009780Y-74092395D01*
X150087190Y-74131100D01*
X150125895Y-74169804D01*
X150164600Y-74247214D01*
X150164600Y-74285919D01*
X150125895Y-74363328D01*
X150087190Y-74402033D01*
X150009780Y-74440738D01*
X149854961Y-74440738D01*
X149777552Y-74479442D01*
X149738847Y-74518147D01*
X149700142Y-74595557D01*
X149700142Y-74750376D01*
X149738847Y-74827785D01*
X149777552Y-74866490D01*
X149854961Y-74905195D01*
X150009780Y-74905195D01*
X150087190Y-74866490D01*
X150125895Y-74827785D01*
X150164600Y-74750376D01*
X150164600Y-74595557D01*
X150125895Y-74518147D01*
X150087190Y-74479442D01*
X150009780Y-74440738D01*
X144732023Y-85420908D02*
X144770728Y-85382204D01*
X144848138Y-85343499D01*
X145041661Y-85343499D01*
X145119071Y-85382204D01*
X145157776Y-85420908D01*
X145196480Y-85498318D01*
X145196480Y-85575727D01*
X145157776Y-85691842D01*
X144693319Y-86156299D01*
X145196480Y-86156299D01*
X145467414Y-85343499D02*
X145970576Y-85343499D01*
X145699642Y-85653137D01*
X145815757Y-85653137D01*
X145893166Y-85691842D01*
X145931871Y-85730546D01*
X145970576Y-85807956D01*
X145970576Y-86001480D01*
X145931871Y-86078889D01*
X145893166Y-86117594D01*
X145815757Y-86156299D01*
X145583528Y-86156299D01*
X145506119Y-86117594D01*
X145467414Y-86078889D01*
X146241509Y-86156299D02*
X146667261Y-85614432D01*
X146241509Y-85614432D02*
X146667261Y-86156299D01*
X146899490Y-86156299D02*
X147325242Y-85614432D01*
X146899490Y-85614432D02*
X147325242Y-86156299D01*
X148215452Y-85924070D02*
X148602500Y-85924070D01*
X148138042Y-86156299D02*
X148408976Y-85343499D01*
X148679909Y-86156299D01*
X149299185Y-86156299D02*
X149299185Y-85343499D01*
X149299185Y-86117594D02*
X149221776Y-86156299D01*
X149066957Y-86156299D01*
X148989547Y-86117594D01*
X148950842Y-86078889D01*
X148912138Y-86001480D01*
X148912138Y-85769251D01*
X148950842Y-85691842D01*
X148989547Y-85653137D01*
X149066957Y-85614432D01*
X149221776Y-85614432D01*
X149299185Y-85653137D01*
X150034576Y-86156299D02*
X150034576Y-85730546D01*
X149995871Y-85653137D01*
X149918461Y-85614432D01*
X149763642Y-85614432D01*
X149686233Y-85653137D01*
X150034576Y-86117594D02*
X149957166Y-86156299D01*
X149763642Y-86156299D01*
X149686233Y-86117594D01*
X149647528Y-86040184D01*
X149647528Y-85962775D01*
X149686233Y-85885365D01*
X149763642Y-85846661D01*
X149957166Y-85846661D01*
X150034576Y-85807956D01*
X150421623Y-85614432D02*
X150421623Y-86427232D01*
X150421623Y-85653137D02*
X150499033Y-85614432D01*
X150653852Y-85614432D01*
X150731261Y-85653137D01*
X150769966Y-85691842D01*
X150808671Y-85769251D01*
X150808671Y-86001480D01*
X150769966Y-86078889D01*
X150731261Y-86117594D01*
X150653852Y-86156299D01*
X150499033Y-86156299D01*
X150421623Y-86117594D01*
X151040900Y-85614432D02*
X151350538Y-85614432D01*
X151157014Y-85343499D02*
X151157014Y-86040184D01*
X151195719Y-86117594D01*
X151273128Y-86156299D01*
X151350538Y-86156299D01*
X151931109Y-86117594D02*
X151853700Y-86156299D01*
X151698880Y-86156299D01*
X151621471Y-86117594D01*
X151582766Y-86040184D01*
X151582766Y-85730546D01*
X151621471Y-85653137D01*
X151698880Y-85614432D01*
X151853700Y-85614432D01*
X151931109Y-85653137D01*
X151969814Y-85730546D01*
X151969814Y-85807956D01*
X151582766Y-85885365D01*
X152318157Y-86156299D02*
X152318157Y-85614432D01*
X152318157Y-85769251D02*
X152356861Y-85691842D01*
X152395566Y-85653137D01*
X152472976Y-85614432D01*
X152550385Y-85614432D01*
X146047985Y-87464907D02*
X145777052Y-87077859D01*
X145583528Y-87464907D02*
X145583528Y-86652107D01*
X145893166Y-86652107D01*
X145970576Y-86690812D01*
X146009280Y-86729516D01*
X146047985Y-86806926D01*
X146047985Y-86923040D01*
X146009280Y-87000450D01*
X145970576Y-87039154D01*
X145893166Y-87077859D01*
X145583528Y-87077859D01*
X146705966Y-87426202D02*
X146628557Y-87464907D01*
X146473738Y-87464907D01*
X146396328Y-87426202D01*
X146357623Y-87348792D01*
X146357623Y-87039154D01*
X146396328Y-86961745D01*
X146473738Y-86923040D01*
X146628557Y-86923040D01*
X146705966Y-86961745D01*
X146744671Y-87039154D01*
X146744671Y-87116564D01*
X146357623Y-87193973D01*
X147015604Y-86923040D02*
X147209128Y-87464907D01*
X147402652Y-86923040D01*
X147712290Y-87464907D02*
X147712290Y-86923040D01*
X147712290Y-86652107D02*
X147673585Y-86690812D01*
X147712290Y-86729516D01*
X147750995Y-86690812D01*
X147712290Y-86652107D01*
X147712290Y-86729516D01*
X148060633Y-87426202D02*
X148138042Y-87464907D01*
X148292861Y-87464907D01*
X148370271Y-87426202D01*
X148408976Y-87348792D01*
X148408976Y-87310088D01*
X148370271Y-87232678D01*
X148292861Y-87193973D01*
X148176747Y-87193973D01*
X148099338Y-87155269D01*
X148060633Y-87077859D01*
X148060633Y-87039154D01*
X148099338Y-86961745D01*
X148176747Y-86923040D01*
X148292861Y-86923040D01*
X148370271Y-86961745D01*
X148757319Y-87464907D02*
X148757319Y-86923040D01*
X148757319Y-86652107D02*
X148718614Y-86690812D01*
X148757319Y-86729516D01*
X148796023Y-86690812D01*
X148757319Y-86652107D01*
X148757319Y-86729516D01*
X149260480Y-87464907D02*
X149183071Y-87426202D01*
X149144366Y-87387497D01*
X149105661Y-87310088D01*
X149105661Y-87077859D01*
X149144366Y-87000450D01*
X149183071Y-86961745D01*
X149260480Y-86923040D01*
X149376595Y-86923040D01*
X149454004Y-86961745D01*
X149492709Y-87000450D01*
X149531414Y-87077859D01*
X149531414Y-87310088D01*
X149492709Y-87387497D01*
X149454004Y-87426202D01*
X149376595Y-87464907D01*
X149260480Y-87464907D01*
X149879757Y-86923040D02*
X149879757Y-87464907D01*
X149879757Y-87000450D02*
X149918461Y-86961745D01*
X149995871Y-86923040D01*
X150111985Y-86923040D01*
X150189395Y-86961745D01*
X150228100Y-87039154D01*
X150228100Y-87464907D01*
X151195719Y-86729516D02*
X151234423Y-86690812D01*
X151311833Y-86652107D01*
X151505357Y-86652107D01*
X151582766Y-86690812D01*
X151621471Y-86729516D01*
X151660176Y-86806926D01*
X151660176Y-86884335D01*
X151621471Y-87000450D01*
X151157014Y-87464907D01*
X151660176Y-87464907D01*
X148172395Y-103529362D02*
X148752966Y-103529362D01*
X148869080Y-103568067D01*
X148946490Y-103645477D01*
X148985195Y-103761591D01*
X148985195Y-103839001D01*
X148985195Y-102755267D02*
X148985195Y-103142315D01*
X148172395Y-103142315D01*
X148907785Y-102019877D02*
X148946490Y-102058581D01*
X148985195Y-102174696D01*
X148985195Y-102252105D01*
X148946490Y-102368220D01*
X148869080Y-102445629D01*
X148791671Y-102484334D01*
X148636852Y-102523039D01*
X148520738Y-102523039D01*
X148365919Y-102484334D01*
X148288509Y-102445629D01*
X148211100Y-102368220D01*
X148172395Y-102252105D01*
X148172395Y-102174696D01*
X148211100Y-102058581D01*
X148249804Y-102019877D01*
X148172395Y-101439305D02*
X148752966Y-101439305D01*
X148869080Y-101478010D01*
X148946490Y-101555420D01*
X148985195Y-101671534D01*
X148985195Y-101748943D01*
X148985195Y-100665210D02*
X148985195Y-101052258D01*
X148172395Y-101052258D01*
X148907785Y-99929820D02*
X148946490Y-99968524D01*
X148985195Y-100084639D01*
X148985195Y-100162048D01*
X148946490Y-100278162D01*
X148869080Y-100355572D01*
X148791671Y-100394277D01*
X148636852Y-100432981D01*
X148520738Y-100432981D01*
X148365919Y-100394277D01*
X148288509Y-100355572D01*
X148211100Y-100278162D01*
X148172395Y-100162048D01*
X148172395Y-100084639D01*
X148211100Y-99968524D01*
X148249804Y-99929820D01*
X148172395Y-99349248D02*
X148752966Y-99349248D01*
X148869080Y-99387953D01*
X148946490Y-99465362D01*
X148985195Y-99581477D01*
X148985195Y-99658886D01*
X148985195Y-98575153D02*
X148985195Y-98962201D01*
X148172395Y-98962201D01*
X148907785Y-97839762D02*
X148946490Y-97878467D01*
X148985195Y-97994581D01*
X148985195Y-98071991D01*
X148946490Y-98188105D01*
X148869080Y-98265515D01*
X148791671Y-98304220D01*
X148636852Y-98342924D01*
X148520738Y-98342924D01*
X148365919Y-98304220D01*
X148288509Y-98265515D01*
X148211100Y-98188105D01*
X148172395Y-98071991D01*
X148172395Y-97994581D01*
X148211100Y-97878467D01*
X148249804Y-97839762D01*
X148172395Y-97259191D02*
X148752966Y-97259191D01*
X148869080Y-97297896D01*
X148946490Y-97375305D01*
X148985195Y-97491420D01*
X148985195Y-97568829D01*
X148985195Y-96485096D02*
X148985195Y-96872143D01*
X148172395Y-96872143D01*
X148907785Y-95749705D02*
X148946490Y-95788410D01*
X148985195Y-95904524D01*
X148985195Y-95981934D01*
X148946490Y-96098048D01*
X148869080Y-96175458D01*
X148791671Y-96214162D01*
X148636852Y-96252867D01*
X148520738Y-96252867D01*
X148365919Y-96214162D01*
X148288509Y-96175458D01*
X148211100Y-96098048D01*
X148172395Y-95981934D01*
X148172395Y-95904524D01*
X148211100Y-95788410D01*
X148249804Y-95749705D01*
D11*
X145890095Y-81749666D02*
X145771047Y-81833000D01*
X145890095Y-81892523D02*
X145640095Y-81892523D01*
X145640095Y-81797285D01*
X145652000Y-81773476D01*
X145663904Y-81761571D01*
X145687714Y-81749666D01*
X145723428Y-81749666D01*
X145747238Y-81761571D01*
X145759142Y-81773476D01*
X145771047Y-81797285D01*
X145771047Y-81892523D01*
X145663904Y-81654428D02*
X145652000Y-81642523D01*
X145640095Y-81618714D01*
X145640095Y-81559190D01*
X145652000Y-81535380D01*
X145663904Y-81523476D01*
X145687714Y-81511571D01*
X145711523Y-81511571D01*
X145747238Y-81523476D01*
X145890095Y-81666333D01*
X145890095Y-81511571D01*
X146368095Y-77796666D02*
X146249047Y-77880000D01*
X146368095Y-77939523D02*
X146118095Y-77939523D01*
X146118095Y-77844285D01*
X146130000Y-77820476D01*
X146141904Y-77808571D01*
X146165714Y-77796666D01*
X146201428Y-77796666D01*
X146225238Y-77808571D01*
X146237142Y-77820476D01*
X146249047Y-77844285D01*
X146249047Y-77939523D01*
X146118095Y-77582380D02*
X146118095Y-77630000D01*
X146130000Y-77653809D01*
X146141904Y-77665714D01*
X146177619Y-77689523D01*
X146225238Y-77701428D01*
X146320476Y-77701428D01*
X146344285Y-77689523D01*
X146356190Y-77677619D01*
X146368095Y-77653809D01*
X146368095Y-77606190D01*
X146356190Y-77582380D01*
X146344285Y-77570476D01*
X146320476Y-77558571D01*
X146260952Y-77558571D01*
X146237142Y-77570476D01*
X146225238Y-77582380D01*
X146213333Y-77606190D01*
X146213333Y-77653809D01*
X146225238Y-77677619D01*
X146237142Y-77689523D01*
X146260952Y-77701428D01*
X149606095Y-77796666D02*
X149487047Y-77880000D01*
X149606095Y-77939523D02*
X149356095Y-77939523D01*
X149356095Y-77844285D01*
X149368000Y-77820476D01*
X149379904Y-77808571D01*
X149403714Y-77796666D01*
X149439428Y-77796666D01*
X149463238Y-77808571D01*
X149475142Y-77820476D01*
X149487047Y-77844285D01*
X149487047Y-77939523D01*
X149356095Y-77713333D02*
X149356095Y-77546666D01*
X149606095Y-77653809D01*
X143160095Y-77796666D02*
X143041047Y-77880000D01*
X143160095Y-77939523D02*
X142910095Y-77939523D01*
X142910095Y-77844285D01*
X142922000Y-77820476D01*
X142933904Y-77808571D01*
X142957714Y-77796666D01*
X142993428Y-77796666D01*
X143017238Y-77808571D01*
X143029142Y-77820476D01*
X143041047Y-77844285D01*
X143041047Y-77939523D01*
X142910095Y-77570476D02*
X142910095Y-77689523D01*
X143029142Y-77701428D01*
X143017238Y-77689523D01*
X143005333Y-77665714D01*
X143005333Y-77606190D01*
X143017238Y-77582380D01*
X143029142Y-77570476D01*
X143052952Y-77558571D01*
X143112476Y-77558571D01*
X143136285Y-77570476D01*
X143148190Y-77582380D01*
X143160095Y-77606190D01*
X143160095Y-77665714D01*
X143148190Y-77689523D01*
X143136285Y-77701428D01*
X152396095Y-81749666D02*
X152277047Y-81833000D01*
X152396095Y-81892523D02*
X152146095Y-81892523D01*
X152146095Y-81797285D01*
X152158000Y-81773476D01*
X152169904Y-81761571D01*
X152193714Y-81749666D01*
X152229428Y-81749666D01*
X152253238Y-81761571D01*
X152265142Y-81773476D01*
X152277047Y-81797285D01*
X152277047Y-81892523D01*
X152229428Y-81535380D02*
X152396095Y-81535380D01*
X152134190Y-81594904D02*
X152312761Y-81654428D01*
X152312761Y-81499666D01*
X152874095Y-77796666D02*
X152755047Y-77880000D01*
X152874095Y-77939523D02*
X152624095Y-77939523D01*
X152624095Y-77844285D01*
X152636000Y-77820476D01*
X152647904Y-77808571D01*
X152671714Y-77796666D01*
X152707428Y-77796666D01*
X152731238Y-77808571D01*
X152743142Y-77820476D01*
X152755047Y-77844285D01*
X152755047Y-77939523D01*
X152731238Y-77653809D02*
X152719333Y-77677619D01*
X152707428Y-77689523D01*
X152683619Y-77701428D01*
X152671714Y-77701428D01*
X152647904Y-77689523D01*
X152636000Y-77677619D01*
X152624095Y-77653809D01*
X152624095Y-77606190D01*
X152636000Y-77582380D01*
X152647904Y-77570476D01*
X152671714Y-77558571D01*
X152683619Y-77558571D01*
X152707428Y-77570476D01*
X152719333Y-77582380D01*
X152731238Y-77606190D01*
X152731238Y-77653809D01*
X152743142Y-77677619D01*
X152755047Y-77689523D01*
X152778857Y-77701428D01*
X152826476Y-77701428D01*
X152850285Y-77689523D01*
X152862190Y-77677619D01*
X152874095Y-77653809D01*
X152874095Y-77606190D01*
X152862190Y-77582380D01*
X152850285Y-77570476D01*
X152826476Y-77558571D01*
X152778857Y-77558571D01*
X152755047Y-77570476D01*
X152743142Y-77582380D01*
X152731238Y-77606190D01*
X149158095Y-81749666D02*
X149039047Y-81833000D01*
X149158095Y-81892523D02*
X148908095Y-81892523D01*
X148908095Y-81797285D01*
X148920000Y-81773476D01*
X148931904Y-81761571D01*
X148955714Y-81749666D01*
X148991428Y-81749666D01*
X149015238Y-81761571D01*
X149027142Y-81773476D01*
X149039047Y-81797285D01*
X149039047Y-81892523D01*
X148908095Y-81666333D02*
X148908095Y-81511571D01*
X149003333Y-81594904D01*
X149003333Y-81559190D01*
X149015238Y-81535380D01*
X149027142Y-81523476D01*
X149050952Y-81511571D01*
X149110476Y-81511571D01*
X149134285Y-81523476D01*
X149146190Y-81535380D01*
X149158095Y-81559190D01*
X149158095Y-81630619D01*
X149146190Y-81654428D01*
X149134285Y-81666333D01*
G36*
X144822758Y-109063219D02*
G01*
X144748144Y-109137967D01*
X144673530Y-109212714D01*
X144748144Y-109287462D01*
X144822758Y-109362209D01*
X144752130Y-109432837D01*
X144677382Y-109358223D01*
X144602635Y-109283609D01*
X144527887Y-109358223D01*
X144453140Y-109432837D01*
X144417826Y-109397523D01*
X144382511Y-109362209D01*
X144457126Y-109287462D01*
X144531740Y-109212714D01*
X144457126Y-109137967D01*
X144382511Y-109063219D01*
X144417826Y-109027905D01*
X144453140Y-108992591D01*
X144527887Y-109067205D01*
X144602635Y-109141819D01*
X144677382Y-109067205D01*
X144752130Y-108992591D01*
X144822758Y-109063219D01*
G37*
G36*
X144647849Y-108358050D02*
G01*
X144684567Y-108358887D01*
X144716416Y-108360197D01*
X144741204Y-108361979D01*
X144749395Y-108362924D01*
X144795829Y-108369938D01*
X144839105Y-108377670D01*
X144877873Y-108385804D01*
X144910786Y-108394019D01*
X144936492Y-108401997D01*
X144953642Y-108409421D01*
X144957742Y-108412114D01*
X144959262Y-108415552D01*
X144960545Y-108423728D01*
X144961609Y-108437334D01*
X144962470Y-108457063D01*
X144963143Y-108483605D01*
X144963646Y-108517655D01*
X144963994Y-108559904D01*
X144964203Y-108611044D01*
X144964289Y-108671768D01*
X144964294Y-108691833D01*
X144964245Y-108744376D01*
X144964103Y-108793619D01*
X144963878Y-108838594D01*
X144963580Y-108878331D01*
X144963217Y-108911859D01*
X144962800Y-108938210D01*
X144962338Y-108956414D01*
X144961840Y-108965501D01*
X144961628Y-108966367D01*
X144956218Y-108963548D01*
X144945299Y-108956338D01*
X144937255Y-108950642D01*
X144923903Y-108941626D01*
X144913740Y-108935938D01*
X144910575Y-108934918D01*
X144902790Y-108932872D01*
X144890454Y-108927882D01*
X144889085Y-108927255D01*
X144828160Y-108903602D01*
X144760117Y-108885549D01*
X144686965Y-108873533D01*
X144619165Y-108868271D01*
X144585376Y-108867309D01*
X144558331Y-108867485D01*
X144534329Y-108869042D01*
X144509670Y-108872221D01*
X144480652Y-108877263D01*
X144480267Y-108877335D01*
X144450087Y-108883644D01*
X144417420Y-108891585D01*
X144384861Y-108900420D01*
X144355003Y-108909412D01*
X144330439Y-108917822D01*
X144314668Y-108924450D01*
X144306338Y-108928610D01*
X144291438Y-108936038D01*
X144272782Y-108945330D01*
X144267183Y-108948118D01*
X144196259Y-108989091D01*
X144129609Y-109038847D01*
X144068491Y-109096129D01*
X144014160Y-109159680D01*
X143967874Y-109228244D01*
X143944931Y-109270370D01*
X143935205Y-109289854D01*
X143926775Y-109306644D01*
X143921126Y-109317788D01*
X143920275Y-109319437D01*
X143912892Y-109336867D01*
X143904368Y-109362324D01*
X143895358Y-109393507D01*
X143886515Y-109428116D01*
X143878494Y-109463848D01*
X143876657Y-109472869D01*
X143865486Y-109550701D01*
X143863694Y-109626620D01*
X143871282Y-109703394D01*
X143876657Y-109733533D01*
X143884364Y-109769184D01*
X143893059Y-109804297D01*
X143902089Y-109836573D01*
X143910799Y-109863710D01*
X143918535Y-109883407D01*
X143920275Y-109886965D01*
X143924926Y-109896094D01*
X143932756Y-109911660D01*
X143942280Y-109930711D01*
X143944931Y-109936032D01*
X143985904Y-110006956D01*
X144035660Y-110073606D01*
X144092942Y-110134724D01*
X144156493Y-110189055D01*
X144225057Y-110235341D01*
X144267183Y-110258284D01*
X144286393Y-110267850D01*
X144302647Y-110275951D01*
X144313131Y-110281183D01*
X144314668Y-110281952D01*
X144332016Y-110289165D01*
X144357060Y-110297644D01*
X144387207Y-110306649D01*
X144419863Y-110315444D01*
X144452434Y-110323289D01*
X144480267Y-110329067D01*
X144547425Y-110337365D01*
X144618731Y-110338473D01*
X144691550Y-110332712D01*
X144763246Y-110320405D01*
X144831186Y-110301872D01*
X144889085Y-110279147D01*
X144901748Y-110273939D01*
X144910489Y-110271508D01*
X144910960Y-110271484D01*
X144917771Y-110268512D01*
X144929773Y-110260836D01*
X144940306Y-110253174D01*
X144964294Y-110234863D01*
X144964294Y-110511983D01*
X144964241Y-110576011D01*
X144964072Y-110630246D01*
X144963771Y-110675378D01*
X144963322Y-110712095D01*
X144962708Y-110741087D01*
X144961915Y-110763044D01*
X144960925Y-110778654D01*
X144959723Y-110788608D01*
X144958293Y-110793594D01*
X144957742Y-110794288D01*
X144944745Y-110801165D01*
X144923013Y-110808761D01*
X144894233Y-110816681D01*
X144860095Y-110824529D01*
X144822287Y-110831909D01*
X144782496Y-110838424D01*
X144752016Y-110842548D01*
X144716997Y-110845842D01*
X144674775Y-110848269D01*
X144628601Y-110849760D01*
X144581723Y-110850247D01*
X144537392Y-110849661D01*
X144498857Y-110847933D01*
X144498367Y-110847900D01*
X144470693Y-110845685D01*
X144444418Y-110842991D01*
X144422648Y-110840172D01*
X144409263Y-110837768D01*
X144389876Y-110833627D01*
X144366717Y-110829291D01*
X144353667Y-110827109D01*
X144297243Y-110815529D01*
X144235184Y-110797959D01*
X144169795Y-110775253D01*
X144103382Y-110748265D01*
X144038251Y-110717847D01*
X143990999Y-110692943D01*
X143961015Y-110676135D01*
X143936911Y-110662156D01*
X143916378Y-110649447D01*
X143897111Y-110636445D01*
X143876802Y-110621590D01*
X143853145Y-110603321D01*
X143823833Y-110580076D01*
X143821661Y-110578343D01*
X143739982Y-110507740D01*
X143666675Y-110432691D01*
X143600747Y-110351960D01*
X143541206Y-110264317D01*
X143487061Y-110168526D01*
X143478362Y-110151424D01*
X143467277Y-110128979D01*
X143458160Y-110109908D01*
X143451926Y-110096170D01*
X143449492Y-110089724D01*
X143449486Y-110089635D01*
X143447201Y-110082506D01*
X143441681Y-110070830D01*
X143441079Y-110069689D01*
X143434941Y-110055949D01*
X143427872Y-110036955D01*
X143423168Y-110022516D01*
X143416932Y-110002023D01*
X143409126Y-109976467D01*
X143401264Y-109950803D01*
X143399947Y-109946515D01*
X143390040Y-109910411D01*
X143379813Y-109865995D01*
X143369721Y-109815412D01*
X143360222Y-109760804D01*
X143359741Y-109757823D01*
X143357838Y-109739775D01*
X143356354Y-109713333D01*
X143355291Y-109680580D01*
X143354647Y-109643598D01*
X143354424Y-109604467D01*
X143354621Y-109565269D01*
X143355237Y-109528086D01*
X143356274Y-109495000D01*
X143357730Y-109468092D01*
X143359606Y-109449443D01*
X143359741Y-109448579D01*
X143369196Y-109393817D01*
X143379268Y-109342965D01*
X143389499Y-109298167D01*
X143399435Y-109261566D01*
X143399947Y-109259887D01*
X143407658Y-109234735D01*
X143415586Y-109208791D01*
X143422220Y-109187010D01*
X143423168Y-109183886D01*
X143429750Y-109164126D01*
X143436751Y-109146062D01*
X143441079Y-109136713D01*
X143446799Y-109124848D01*
X143449463Y-109117111D01*
X143449486Y-109116767D01*
X143451928Y-109109425D01*
X143458598Y-109094694D01*
X143468589Y-109074319D01*
X143480990Y-109050046D01*
X143494891Y-109023624D01*
X143509383Y-108996798D01*
X143523558Y-108971314D01*
X143536504Y-108948920D01*
X143539514Y-108943889D01*
X143562289Y-108908790D01*
X143590644Y-108869169D01*
X143622495Y-108827662D01*
X143655761Y-108786904D01*
X143688360Y-108749529D01*
X143716532Y-108719839D01*
X143736006Y-108701427D01*
X143761385Y-108678887D01*
X143790525Y-108653987D01*
X143821279Y-108628497D01*
X143851503Y-108604187D01*
X143879051Y-108582825D01*
X143901777Y-108566180D01*
X143908144Y-108561830D01*
X143927744Y-108549572D01*
X143953893Y-108534292D01*
X143983942Y-108517433D01*
X144015244Y-108500436D01*
X144045148Y-108484743D01*
X144071005Y-108471795D01*
X144087965Y-108463964D01*
X144154881Y-108436692D01*
X144217831Y-108414372D01*
X144280073Y-108396091D01*
X144344862Y-108380936D01*
X144415455Y-108367992D01*
X144448012Y-108362937D01*
X144467923Y-108360943D01*
X144496113Y-108359420D01*
X144530393Y-108358370D01*
X144568570Y-108357791D01*
X144608452Y-108357684D01*
X144647849Y-108358050D01*
G37*
G36*
X145923477Y-109262508D02*
G01*
X145664065Y-109521959D01*
X144990501Y-109521959D01*
X144990501Y-109003057D01*
X146182888Y-109003057D01*
X145923477Y-109262508D01*
G37*
G36*
X145941822Y-109946515D02*
G01*
X146182885Y-110187621D01*
X144990501Y-110187621D01*
X144990501Y-109705409D01*
X145700758Y-109705409D01*
X145941822Y-109946515D01*
G37*
D12*
X145508500Y-81945258D02*
X145508500Y-81470742D01*
X146553500Y-81945258D02*
X146553500Y-81470742D01*
X145508500Y-77517742D02*
X145508500Y-77992258D01*
X146553500Y-77517742D02*
X146553500Y-77992258D01*
X148746500Y-77517742D02*
X148746500Y-77992258D01*
X149791500Y-77517742D02*
X149791500Y-77992258D01*
G36*
X149516220Y-89192772D02*
G01*
X149516279Y-89123507D01*
X149516556Y-89066901D01*
X149517208Y-89021451D01*
X149518388Y-88985649D01*
X149520252Y-88957991D01*
X149522953Y-88936970D01*
X149526646Y-88921081D01*
X149531486Y-88908819D01*
X149537628Y-88898677D01*
X149545226Y-88889150D01*
X149547675Y-88886341D01*
X149556347Y-88877129D01*
X149565512Y-88869608D01*
X149576629Y-88863605D01*
X149591156Y-88858951D01*
X149610551Y-88855475D01*
X149636272Y-88853006D01*
X149669778Y-88851373D01*
X149712526Y-88850405D01*
X149765974Y-88849932D01*
X149831581Y-88849781D01*
X149859751Y-88849774D01*
X149930316Y-88849846D01*
X149988174Y-88850178D01*
X150034782Y-88850940D01*
X150071598Y-88852302D01*
X150100081Y-88854436D01*
X150121689Y-88857513D01*
X150137878Y-88861703D01*
X150150109Y-88867177D01*
X150159838Y-88874106D01*
X150168525Y-88882662D01*
X150171826Y-88886341D01*
X150179859Y-88895959D01*
X150186395Y-88905761D01*
X150191587Y-88917253D01*
X150195591Y-88931938D01*
X150198560Y-88951320D01*
X150200649Y-88976902D01*
X150202011Y-89010189D01*
X150202800Y-89052685D01*
X150203171Y-89105892D01*
X150203278Y-89171315D01*
X150203281Y-89193304D01*
X150203223Y-89262642D01*
X150202947Y-89319318D01*
X150202298Y-89364836D01*
X150201122Y-89400698D01*
X150199265Y-89428411D01*
X150196573Y-89449476D01*
X150192893Y-89465398D01*
X150188069Y-89477680D01*
X150181948Y-89487827D01*
X150174375Y-89497343D01*
X150171826Y-89500267D01*
X150163195Y-89509454D01*
X150154102Y-89516959D01*
X150143099Y-89522947D01*
X150128733Y-89527584D01*
X150109556Y-89531036D01*
X150084118Y-89533469D01*
X150050968Y-89535049D01*
X150008656Y-89535940D01*
X149955733Y-89536311D01*
X149890747Y-89536325D01*
X149857115Y-89536259D01*
X149781095Y-89535903D01*
X149718552Y-89535198D01*
X149668798Y-89534120D01*
X149631147Y-89532649D01*
X149604913Y-89530760D01*
X149589409Y-89528432D01*
X149585922Y-89527313D01*
X149565714Y-89515730D01*
X149551693Y-89505012D01*
X149542756Y-89496332D01*
X149535459Y-89487080D01*
X149529635Y-89475798D01*
X149525119Y-89461031D01*
X149521746Y-89441320D01*
X149519350Y-89415209D01*
X149517765Y-89381242D01*
X149516827Y-89337961D01*
X149516369Y-89283909D01*
X149516245Y-89226275D01*
X149729862Y-89226275D01*
X149729866Y-89261955D01*
X149730285Y-89290456D01*
X149731089Y-89309235D01*
X149731917Y-89315392D01*
X149736252Y-89318824D01*
X149747306Y-89321212D01*
X149766741Y-89322651D01*
X149796219Y-89323234D01*
X149837404Y-89323056D01*
X149861362Y-89322735D01*
X149987247Y-89320800D01*
X149987247Y-89065808D01*
X149732255Y-89065808D01*
X149730306Y-89185961D01*
X149729862Y-89226275D01*
X149516245Y-89226275D01*
X149516226Y-89217631D01*
X149516220Y-89192772D01*
G37*
G36*
X145837929Y-88651223D02*
G01*
X145872035Y-88597583D01*
X145916755Y-88552096D01*
X145969815Y-88517038D01*
X145974446Y-88514706D01*
X146020412Y-88492077D01*
X151184588Y-88492077D01*
X151230555Y-88514706D01*
X151284195Y-88548812D01*
X151329681Y-88593532D01*
X151364739Y-88646592D01*
X151367071Y-88651223D01*
X151389700Y-88697189D01*
X151389700Y-91353948D01*
X151367071Y-91399914D01*
X151332965Y-91453554D01*
X151288245Y-91499040D01*
X151235186Y-91534099D01*
X151230555Y-91536431D01*
X151184589Y-91559060D01*
X148616816Y-91560377D01*
X148380574Y-91560489D01*
X148158134Y-91560575D01*
X147949135Y-91560633D01*
X147753212Y-91560662D01*
X147570003Y-91560662D01*
X147399145Y-91560632D01*
X147240273Y-91560570D01*
X147093026Y-91560475D01*
X146957039Y-91560347D01*
X146831951Y-91560183D01*
X146717397Y-91559985D01*
X146613014Y-91559749D01*
X146518440Y-91559475D01*
X146433311Y-91559163D01*
X146357264Y-91558811D01*
X146289935Y-91558417D01*
X146230963Y-91557982D01*
X146179982Y-91557504D01*
X146136632Y-91556982D01*
X146100547Y-91556414D01*
X146071366Y-91555801D01*
X146048724Y-91555140D01*
X146032259Y-91554431D01*
X146021608Y-91553673D01*
X146016668Y-91552941D01*
X145963368Y-91531457D01*
X145914514Y-91497920D01*
X145872375Y-91454272D01*
X145839221Y-91402457D01*
X145837915Y-91399839D01*
X145815300Y-91353948D01*
X145815300Y-91306520D01*
X146024252Y-91306520D01*
X146067840Y-91350108D01*
X151137161Y-91350108D01*
X151180749Y-91306520D01*
X151180749Y-88744617D01*
X151137161Y-88701029D01*
X146067840Y-88701029D01*
X146024252Y-88744617D01*
X146024252Y-91306520D01*
X145815300Y-91306520D01*
X145815300Y-88697189D01*
X145837929Y-88651223D01*
G37*
G36*
X150119952Y-91626349D02*
G01*
X150208822Y-91626444D01*
X150284810Y-91626748D01*
X150349199Y-91627294D01*
X150403270Y-91628111D01*
X150448306Y-91629230D01*
X150485590Y-91630682D01*
X150516405Y-91632499D01*
X150542032Y-91634710D01*
X150560875Y-91636948D01*
X150680293Y-91658157D01*
X150790099Y-91687926D01*
X150889850Y-91726035D01*
X150979101Y-91772265D01*
X151057410Y-91826398D01*
X151124332Y-91888213D01*
X151163053Y-91934450D01*
X151205929Y-91996246D01*
X151241401Y-92058272D01*
X151270292Y-92122906D01*
X151293420Y-92192523D01*
X151311607Y-92269501D01*
X151325674Y-92356216D01*
X151334077Y-92429715D01*
X151338479Y-92476188D01*
X151341330Y-92512750D01*
X151342626Y-92543572D01*
X151342362Y-92572827D01*
X151340537Y-92604684D01*
X151337146Y-92643315D01*
X151333874Y-92676281D01*
X151327829Y-92732388D01*
X151321869Y-92778359D01*
X151315280Y-92818203D01*
X151307344Y-92855927D01*
X151297346Y-92895540D01*
X151289868Y-92922557D01*
X151270775Y-92978530D01*
X151244719Y-93038818D01*
X151214484Y-93097453D01*
X151188148Y-93140681D01*
X151172193Y-93161943D01*
X151149854Y-93188225D01*
X151123734Y-93216831D01*
X151096434Y-93245064D01*
X151070555Y-93270227D01*
X151048698Y-93289624D01*
X151034421Y-93300034D01*
X151020724Y-93308072D01*
X150999676Y-93320680D01*
X150977538Y-93334094D01*
X150903739Y-93372326D01*
X150818188Y-93404180D01*
X150720546Y-93429759D01*
X150610476Y-93449167D01*
X150596393Y-93451089D01*
X150572057Y-93453858D01*
X150542984Y-93456261D01*
X150507950Y-93458336D01*
X150465731Y-93460123D01*
X150415103Y-93461660D01*
X150354842Y-93462988D01*
X150283722Y-93464143D01*
X150200521Y-93465167D01*
X150134221Y-93465828D01*
X149757046Y-93469302D01*
X149757046Y-93221683D01*
X150068702Y-93221683D01*
X150282966Y-93218166D01*
X150341060Y-93216954D01*
X150395733Y-93215322D01*
X150444887Y-93213367D01*
X150486421Y-93211188D01*
X150518238Y-93208881D01*
X150538237Y-93206544D01*
X150539728Y-93206269D01*
X150569750Y-93199689D01*
X150600141Y-93192007D01*
X150615052Y-93187719D01*
X150635960Y-93181715D01*
X150651628Y-93178063D01*
X150655761Y-93177548D01*
X150669594Y-93173961D01*
X150692094Y-93164325D01*
X150720061Y-93150327D01*
X150750294Y-93133656D01*
X150779594Y-93115998D01*
X150804760Y-93099043D01*
X150805140Y-93098766D01*
X150857037Y-93054308D01*
X150901174Y-93001913D01*
X150938342Y-92940244D01*
X150969333Y-92867963D01*
X150994936Y-92783736D01*
X150997426Y-92773812D01*
X151004153Y-92737544D01*
X151009566Y-92690662D01*
X151013523Y-92636672D01*
X151015881Y-92579077D01*
X151016496Y-92521381D01*
X151015226Y-92467089D01*
X151011928Y-92419705D01*
X151011879Y-92419224D01*
X150996240Y-92319786D01*
X150970735Y-92230458D01*
X150935233Y-92151058D01*
X150889604Y-92081406D01*
X150833719Y-92021321D01*
X150767446Y-91970623D01*
X150690657Y-91929132D01*
X150645975Y-91910931D01*
X150584788Y-91893274D01*
X150510507Y-91880405D01*
X150423378Y-91872344D01*
X150323645Y-91869113D01*
X150211556Y-91870734D01*
X150195018Y-91871344D01*
X150068702Y-91876330D01*
X150068702Y-93221683D01*
X149757046Y-93221683D01*
X149757046Y-91626349D01*
X150119952Y-91626349D01*
G37*
G36*
X148680414Y-89192772D02*
G01*
X148680473Y-89123507D01*
X148680750Y-89066901D01*
X148681402Y-89021451D01*
X148682582Y-88985649D01*
X148684446Y-88957991D01*
X148687147Y-88936970D01*
X148690840Y-88921081D01*
X148695681Y-88908819D01*
X148701822Y-88898677D01*
X148709420Y-88889150D01*
X148711869Y-88886341D01*
X148720541Y-88877129D01*
X148729706Y-88869608D01*
X148740823Y-88863605D01*
X148755350Y-88858951D01*
X148774745Y-88855475D01*
X148800466Y-88853006D01*
X148833972Y-88851373D01*
X148876720Y-88850405D01*
X148930168Y-88849932D01*
X148995775Y-88849781D01*
X149023945Y-88849774D01*
X149094510Y-88849846D01*
X149152368Y-88850178D01*
X149198976Y-88850940D01*
X149235793Y-88852302D01*
X149264275Y-88854436D01*
X149285883Y-88857513D01*
X149302072Y-88861703D01*
X149314303Y-88867177D01*
X149324032Y-88874106D01*
X149332719Y-88882662D01*
X149336020Y-88886341D01*
X149344053Y-88895959D01*
X149350589Y-88905761D01*
X149355781Y-88917253D01*
X149359785Y-88931938D01*
X149362754Y-88951320D01*
X149364843Y-88976902D01*
X149366205Y-89010189D01*
X149366994Y-89052685D01*
X149367365Y-89105892D01*
X149367472Y-89171315D01*
X149367475Y-89193304D01*
X149367417Y-89262642D01*
X149367141Y-89319318D01*
X149366492Y-89364836D01*
X149365316Y-89400698D01*
X149363459Y-89428411D01*
X149360768Y-89449476D01*
X149357087Y-89465398D01*
X149352263Y-89477680D01*
X149346142Y-89487827D01*
X149338570Y-89497343D01*
X149336020Y-89500267D01*
X149327389Y-89509454D01*
X149318297Y-89516959D01*
X149307293Y-89522947D01*
X149292927Y-89527584D01*
X149273751Y-89531036D01*
X149248312Y-89533469D01*
X149215162Y-89535049D01*
X149172850Y-89535940D01*
X149119927Y-89536311D01*
X149054942Y-89536325D01*
X149021309Y-89536259D01*
X148945289Y-89535903D01*
X148882746Y-89535198D01*
X148832992Y-89534120D01*
X148795341Y-89532649D01*
X148769107Y-89530760D01*
X148753603Y-89528432D01*
X148750116Y-89527313D01*
X148729908Y-89515730D01*
X148715887Y-89505012D01*
X148706950Y-89496332D01*
X148699653Y-89487080D01*
X148693829Y-89475798D01*
X148689313Y-89461031D01*
X148685940Y-89441320D01*
X148683544Y-89415209D01*
X148681960Y-89381242D01*
X148681021Y-89337961D01*
X148680563Y-89283909D01*
X148680440Y-89226275D01*
X148894057Y-89226275D01*
X148894060Y-89261955D01*
X148894480Y-89290456D01*
X148895283Y-89309235D01*
X148896112Y-89315392D01*
X148900446Y-89318824D01*
X148911500Y-89321212D01*
X148930935Y-89322651D01*
X148960413Y-89323234D01*
X149001598Y-89323056D01*
X149025556Y-89322735D01*
X149151441Y-89320800D01*
X149151441Y-89065808D01*
X148896449Y-89065808D01*
X148894500Y-89185961D01*
X148894057Y-89226275D01*
X148680440Y-89226275D01*
X148680421Y-89217631D01*
X148680414Y-89192772D01*
G37*
G36*
X147844608Y-90028578D02*
G01*
X147844667Y-89959313D01*
X147844944Y-89902707D01*
X147845596Y-89857257D01*
X147846776Y-89821455D01*
X147848640Y-89793797D01*
X147851341Y-89772776D01*
X147855034Y-89756887D01*
X147859875Y-89744625D01*
X147866016Y-89734483D01*
X147873614Y-89724956D01*
X147876063Y-89722147D01*
X147884735Y-89712935D01*
X147893900Y-89705413D01*
X147905017Y-89699411D01*
X147919544Y-89694757D01*
X147938939Y-89691281D01*
X147964661Y-89688812D01*
X147998166Y-89687179D01*
X148040914Y-89686211D01*
X148094362Y-89685738D01*
X148159969Y-89685587D01*
X148188139Y-89685580D01*
X148258704Y-89685652D01*
X148316562Y-89685984D01*
X148363170Y-89686746D01*
X148399987Y-89688108D01*
X148428469Y-89690242D01*
X148450077Y-89693319D01*
X148466267Y-89697509D01*
X148478497Y-89702983D01*
X148488227Y-89709912D01*
X148496913Y-89718467D01*
X148500214Y-89722147D01*
X148508247Y-89731765D01*
X148514783Y-89741567D01*
X148519976Y-89753059D01*
X148523979Y-89767744D01*
X148526948Y-89787126D01*
X148529037Y-89812708D01*
X148530399Y-89845995D01*
X148531188Y-89888491D01*
X148531559Y-89941698D01*
X148531666Y-90007121D01*
X148531669Y-90029110D01*
X148531611Y-90098448D01*
X148531335Y-90155124D01*
X148530686Y-90200641D01*
X148529510Y-90236504D01*
X148527653Y-90264216D01*
X148524962Y-90285282D01*
X148521281Y-90301204D01*
X148516457Y-90313486D01*
X148510336Y-90323633D01*
X148502764Y-90333149D01*
X148500214Y-90336073D01*
X148491583Y-90345260D01*
X148482491Y-90352765D01*
X148471487Y-90358753D01*
X148457121Y-90363390D01*
X148437945Y-90366842D01*
X148412506Y-90369275D01*
X148379356Y-90370854D01*
X148337045Y-90371746D01*
X148284121Y-90372116D01*
X148219136Y-90372131D01*
X148185503Y-90372065D01*
X148109483Y-90371709D01*
X148046940Y-90371003D01*
X147997186Y-90369926D01*
X147959535Y-90368455D01*
X147933301Y-90366566D01*
X147917797Y-90364238D01*
X147914310Y-90363119D01*
X147894102Y-90351536D01*
X147880081Y-90340818D01*
X147871144Y-90332138D01*
X147863847Y-90322886D01*
X147858023Y-90311604D01*
X147853507Y-90296837D01*
X147850134Y-90277126D01*
X147847738Y-90251015D01*
X147846154Y-90217048D01*
X147845215Y-90173767D01*
X147844757Y-90119715D01*
X147844634Y-90062081D01*
X148058251Y-90062081D01*
X148058254Y-90097760D01*
X148058674Y-90126262D01*
X148059477Y-90145041D01*
X148060306Y-90151197D01*
X148064640Y-90154630D01*
X148075694Y-90157018D01*
X148095129Y-90158457D01*
X148124607Y-90159040D01*
X148165792Y-90158862D01*
X148189750Y-90158541D01*
X148315635Y-90156606D01*
X148315635Y-89901614D01*
X148060643Y-89901614D01*
X148058694Y-90021767D01*
X148058251Y-90062081D01*
X147844634Y-90062081D01*
X147844615Y-90053437D01*
X147844608Y-90028578D01*
G37*
G36*
X148680414Y-90028578D02*
G01*
X148680473Y-89959313D01*
X148680750Y-89902707D01*
X148681402Y-89857257D01*
X148682582Y-89821455D01*
X148684446Y-89793797D01*
X148687147Y-89772776D01*
X148690840Y-89756887D01*
X148695681Y-89744625D01*
X148701822Y-89734483D01*
X148709420Y-89724956D01*
X148711869Y-89722147D01*
X148720541Y-89712935D01*
X148729706Y-89705413D01*
X148740823Y-89699411D01*
X148755350Y-89694757D01*
X148774745Y-89691281D01*
X148800466Y-89688812D01*
X148833972Y-89687179D01*
X148876720Y-89686211D01*
X148930168Y-89685738D01*
X148995775Y-89685587D01*
X149023945Y-89685580D01*
X149094510Y-89685652D01*
X149152368Y-89685984D01*
X149198976Y-89686746D01*
X149235793Y-89688108D01*
X149264275Y-89690242D01*
X149285883Y-89693319D01*
X149302072Y-89697509D01*
X149314303Y-89702983D01*
X149324032Y-89709912D01*
X149332719Y-89718467D01*
X149336020Y-89722147D01*
X149344053Y-89731765D01*
X149350589Y-89741567D01*
X149355781Y-89753059D01*
X149359785Y-89767744D01*
X149362754Y-89787126D01*
X149364843Y-89812708D01*
X149366205Y-89845995D01*
X149366994Y-89888491D01*
X149367365Y-89941698D01*
X149367472Y-90007121D01*
X149367475Y-90029110D01*
X149367417Y-90098448D01*
X149367141Y-90155124D01*
X149366492Y-90200641D01*
X149365316Y-90236504D01*
X149363459Y-90264216D01*
X149360768Y-90285282D01*
X149357087Y-90301204D01*
X149352263Y-90313486D01*
X149346142Y-90323633D01*
X149338570Y-90333149D01*
X149336020Y-90336073D01*
X149327389Y-90345260D01*
X149318297Y-90352765D01*
X149307293Y-90358753D01*
X149292927Y-90363390D01*
X149273751Y-90366842D01*
X149248312Y-90369275D01*
X149215162Y-90370854D01*
X149172850Y-90371746D01*
X149119927Y-90372116D01*
X149054942Y-90372131D01*
X149021309Y-90372065D01*
X148945289Y-90371709D01*
X148882746Y-90371003D01*
X148832992Y-90369926D01*
X148795341Y-90368455D01*
X148769107Y-90366566D01*
X148753603Y-90364238D01*
X148750116Y-90363119D01*
X148729908Y-90351536D01*
X148715887Y-90340818D01*
X148706950Y-90332138D01*
X148699653Y-90322886D01*
X148693829Y-90311604D01*
X148689313Y-90296837D01*
X148685940Y-90277126D01*
X148683544Y-90251015D01*
X148681960Y-90217048D01*
X148681021Y-90173767D01*
X148680563Y-90119715D01*
X148680440Y-90062081D01*
X148894057Y-90062081D01*
X148894060Y-90097760D01*
X148894480Y-90126262D01*
X148895283Y-90145041D01*
X148896112Y-90151197D01*
X148900446Y-90154630D01*
X148911500Y-90157018D01*
X148930935Y-90158457D01*
X148960413Y-90159040D01*
X149001598Y-90158862D01*
X149025556Y-90158541D01*
X149151441Y-90156606D01*
X149151441Y-89901614D01*
X148896449Y-89901614D01*
X148894500Y-90021767D01*
X148894057Y-90062081D01*
X148680440Y-90062081D01*
X148680421Y-90053437D01*
X148680414Y-90028578D01*
G37*
G36*
X150352026Y-90864384D02*
G01*
X150352084Y-90795118D01*
X150352362Y-90738513D01*
X150353014Y-90693062D01*
X150354194Y-90657261D01*
X150356058Y-90629602D01*
X150358759Y-90608582D01*
X150362452Y-90592693D01*
X150367292Y-90580430D01*
X150373434Y-90570289D01*
X150381032Y-90560762D01*
X150383481Y-90557953D01*
X150392153Y-90548741D01*
X150401318Y-90541219D01*
X150412435Y-90535217D01*
X150426962Y-90530563D01*
X150446357Y-90527087D01*
X150472078Y-90524618D01*
X150505584Y-90522985D01*
X150548332Y-90522017D01*
X150601780Y-90521543D01*
X150667387Y-90521393D01*
X150695557Y-90521385D01*
X150766122Y-90521458D01*
X150823980Y-90521790D01*
X150870588Y-90522551D01*
X150907404Y-90523914D01*
X150935887Y-90526048D01*
X150957494Y-90529125D01*
X150973684Y-90533315D01*
X150985915Y-90538789D01*
X150995644Y-90545718D01*
X151004331Y-90554273D01*
X151007632Y-90557953D01*
X151015665Y-90567571D01*
X151022201Y-90577373D01*
X151027393Y-90588865D01*
X151031397Y-90603550D01*
X151034366Y-90622932D01*
X151036455Y-90648514D01*
X151037816Y-90681801D01*
X151038606Y-90724297D01*
X151038977Y-90777504D01*
X151039083Y-90842927D01*
X151039087Y-90864916D01*
X151039029Y-90934254D01*
X151038753Y-90990930D01*
X151038104Y-91036447D01*
X151036928Y-91072310D01*
X151035071Y-91100022D01*
X151032379Y-91121087D01*
X151028699Y-91137009D01*
X151023875Y-91149292D01*
X151017754Y-91159439D01*
X151010181Y-91168954D01*
X151007632Y-91171878D01*
X150999001Y-91181066D01*
X150989908Y-91188571D01*
X150978904Y-91194559D01*
X150964539Y-91199196D01*
X150945362Y-91202648D01*
X150919924Y-91205081D01*
X150886774Y-91206660D01*
X150844462Y-91207552D01*
X150791539Y-91207922D01*
X150726553Y-91207937D01*
X150692921Y-91207871D01*
X150616901Y-91207515D01*
X150554358Y-91206809D01*
X150504604Y-91205732D01*
X150466953Y-91204261D01*
X150440718Y-91202372D01*
X150425215Y-91200043D01*
X150421728Y-91198925D01*
X150401520Y-91187342D01*
X150387498Y-91176624D01*
X150378562Y-91167944D01*
X150371265Y-91158692D01*
X150365441Y-91147410D01*
X150360925Y-91132642D01*
X150357552Y-91112932D01*
X150355156Y-91086821D01*
X150353571Y-91052854D01*
X150352633Y-91009573D01*
X150352175Y-90955521D01*
X150352051Y-90897886D01*
X150565668Y-90897886D01*
X150565672Y-90933566D01*
X150566091Y-90962068D01*
X150566894Y-90980847D01*
X150567723Y-90987003D01*
X150572058Y-90990436D01*
X150583112Y-90992824D01*
X150602546Y-90994263D01*
X150632025Y-90994846D01*
X150673210Y-90994668D01*
X150697168Y-90994347D01*
X150823052Y-90992412D01*
X150823052Y-90737420D01*
X150568061Y-90737420D01*
X150566112Y-90857573D01*
X150565668Y-90897886D01*
X150352051Y-90897886D01*
X150352032Y-90889242D01*
X150352026Y-90864384D01*
G37*
G36*
X147008803Y-90864384D02*
G01*
X147008861Y-90795118D01*
X147009138Y-90738513D01*
X147009790Y-90693062D01*
X147010970Y-90657261D01*
X147012834Y-90629602D01*
X147015535Y-90608582D01*
X147019229Y-90592693D01*
X147024069Y-90580430D01*
X147030210Y-90570289D01*
X147037808Y-90560762D01*
X147040258Y-90557953D01*
X147043626Y-90553807D01*
X147046508Y-90549986D01*
X147049469Y-90546476D01*
X147053073Y-90543265D01*
X147057885Y-90540338D01*
X147064469Y-90537684D01*
X147073390Y-90535289D01*
X147085213Y-90533139D01*
X147100502Y-90531222D01*
X147119823Y-90529524D01*
X147143738Y-90528032D01*
X147172815Y-90526732D01*
X147207616Y-90525613D01*
X147248707Y-90524659D01*
X147296652Y-90523858D01*
X147352016Y-90523198D01*
X147415363Y-90522664D01*
X147487259Y-90522243D01*
X147568267Y-90521923D01*
X147658953Y-90521690D01*
X147759881Y-90521531D01*
X147871616Y-90521432D01*
X147994723Y-90521381D01*
X148129765Y-90521364D01*
X148277308Y-90521368D01*
X148437917Y-90521379D01*
X148603032Y-90521385D01*
X148784436Y-90521404D01*
X148952109Y-90521461D01*
X149106486Y-90521559D01*
X149248002Y-90521700D01*
X149377093Y-90521887D01*
X149494193Y-90522122D01*
X149599738Y-90522408D01*
X149694163Y-90522747D01*
X149777903Y-90523141D01*
X149851393Y-90523593D01*
X149915068Y-90524106D01*
X149969364Y-90524680D01*
X150014715Y-90525321D01*
X150051557Y-90526028D01*
X150080325Y-90526806D01*
X150101454Y-90527655D01*
X150115379Y-90528580D01*
X150122535Y-90529582D01*
X150123263Y-90529820D01*
X150157296Y-90551257D01*
X150181484Y-90581515D01*
X150186192Y-90591311D01*
X150189164Y-90605700D01*
X150191669Y-90632180D01*
X150193704Y-90668682D01*
X150195272Y-90713138D01*
X150196371Y-90763480D01*
X150197001Y-90817640D01*
X150197163Y-90873550D01*
X150196857Y-90929142D01*
X150196082Y-90982347D01*
X150194839Y-91031098D01*
X150193128Y-91073327D01*
X150190948Y-91106965D01*
X150188299Y-91129944D01*
X150186192Y-91138521D01*
X150165210Y-91170842D01*
X150133709Y-91195000D01*
X150123263Y-91200011D01*
X150113896Y-91201010D01*
X150091169Y-91201945D01*
X150055881Y-91202818D01*
X150008832Y-91203629D01*
X149950821Y-91204377D01*
X149882649Y-91205063D01*
X149805115Y-91205688D01*
X149719020Y-91206252D01*
X149625163Y-91206755D01*
X149524343Y-91207196D01*
X149417362Y-91207578D01*
X149305018Y-91207899D01*
X149188111Y-91208161D01*
X149067442Y-91208363D01*
X148943809Y-91208505D01*
X148818014Y-91208589D01*
X148690855Y-91208614D01*
X148563133Y-91208580D01*
X148435647Y-91208489D01*
X148309197Y-91208339D01*
X148184584Y-91208132D01*
X148062606Y-91207868D01*
X147944064Y-91207547D01*
X147829757Y-91207169D01*
X147720486Y-91206734D01*
X147617051Y-91206244D01*
X147520250Y-91205697D01*
X147430884Y-91205095D01*
X147349753Y-91204438D01*
X147277656Y-91203726D01*
X147215394Y-91202959D01*
X147163766Y-91202137D01*
X147123572Y-91201262D01*
X147095611Y-91200332D01*
X147080685Y-91199349D01*
X147078504Y-91198925D01*
X147058296Y-91187342D01*
X147044275Y-91176624D01*
X147035338Y-91167944D01*
X147028041Y-91158692D01*
X147022217Y-91147410D01*
X147017701Y-91132642D01*
X147014328Y-91112932D01*
X147011932Y-91086821D01*
X147010348Y-91052854D01*
X147009409Y-91009573D01*
X147008952Y-90955521D01*
X147008905Y-90933526D01*
X147222436Y-90933526D01*
X147222842Y-90961992D01*
X147223628Y-90980730D01*
X147224444Y-90986857D01*
X147227088Y-90987975D01*
X147234474Y-90988995D01*
X147247123Y-90989922D01*
X147265555Y-90990757D01*
X147290293Y-90991503D01*
X147321859Y-90992164D01*
X147360772Y-90992742D01*
X147407555Y-90993240D01*
X147462729Y-90993661D01*
X147526815Y-90994006D01*
X147600336Y-90994280D01*
X147683811Y-90994485D01*
X147777763Y-90994624D01*
X147882713Y-90994699D01*
X147999183Y-90994713D01*
X148127693Y-90994669D01*
X148268765Y-90994570D01*
X148422921Y-90994419D01*
X148590682Y-90994218D01*
X148604056Y-90994200D01*
X149980163Y-90992412D01*
X149980163Y-90737420D01*
X147224837Y-90737420D01*
X147222888Y-90857573D01*
X147222442Y-90897873D01*
X147222436Y-90933526D01*
X147008905Y-90933526D01*
X147008809Y-90889242D01*
X147008803Y-90864384D01*
G37*
G36*
X147008803Y-89192772D02*
G01*
X147008861Y-89123507D01*
X147009138Y-89066901D01*
X147009790Y-89021451D01*
X147010970Y-88985649D01*
X147012834Y-88957991D01*
X147015535Y-88936970D01*
X147019229Y-88921081D01*
X147024069Y-88908819D01*
X147030210Y-88898677D01*
X147037808Y-88889150D01*
X147040258Y-88886341D01*
X147048929Y-88877129D01*
X147058094Y-88869608D01*
X147069211Y-88863605D01*
X147083738Y-88858951D01*
X147103133Y-88855475D01*
X147128855Y-88853006D01*
X147162360Y-88851373D01*
X147205108Y-88850405D01*
X147258556Y-88849932D01*
X147324163Y-88849781D01*
X147352333Y-88849774D01*
X147422899Y-88849846D01*
X147480756Y-88850178D01*
X147527364Y-88850940D01*
X147564181Y-88852302D01*
X147592663Y-88854436D01*
X147614271Y-88857513D01*
X147630461Y-88861703D01*
X147642691Y-88867177D01*
X147652421Y-88874106D01*
X147661107Y-88882662D01*
X147664408Y-88886341D01*
X147672441Y-88895959D01*
X147678977Y-88905761D01*
X147684170Y-88917253D01*
X147688173Y-88931938D01*
X147691143Y-88951320D01*
X147693231Y-88976902D01*
X147694593Y-89010189D01*
X147695382Y-89052685D01*
X147695753Y-89105892D01*
X147695860Y-89171315D01*
X147695863Y-89193304D01*
X147695805Y-89262642D01*
X147695529Y-89319318D01*
X147694880Y-89364836D01*
X147693704Y-89400698D01*
X147691847Y-89428411D01*
X147689156Y-89449476D01*
X147685475Y-89465398D01*
X147680651Y-89477680D01*
X147674530Y-89487827D01*
X147666958Y-89497343D01*
X147664408Y-89500267D01*
X147655777Y-89509454D01*
X147646685Y-89516959D01*
X147635681Y-89522947D01*
X147621316Y-89527584D01*
X147602139Y-89531036D01*
X147576700Y-89533469D01*
X147543550Y-89535049D01*
X147501239Y-89535940D01*
X147448315Y-89536311D01*
X147383330Y-89536325D01*
X147349697Y-89536259D01*
X147273678Y-89535903D01*
X147211134Y-89535198D01*
X147161380Y-89534120D01*
X147123729Y-89532649D01*
X147097495Y-89530760D01*
X147081991Y-89528432D01*
X147078504Y-89527313D01*
X147058296Y-89515730D01*
X147044275Y-89505012D01*
X147035338Y-89496332D01*
X147028041Y-89487080D01*
X147022217Y-89475798D01*
X147017701Y-89461031D01*
X147014328Y-89441320D01*
X147011932Y-89415209D01*
X147010348Y-89381242D01*
X147009409Y-89337961D01*
X147008952Y-89283909D01*
X147008828Y-89226275D01*
X147222445Y-89226275D01*
X147222448Y-89261955D01*
X147222868Y-89290456D01*
X147223671Y-89309235D01*
X147224500Y-89315392D01*
X147228834Y-89318824D01*
X147239888Y-89321212D01*
X147259323Y-89322651D01*
X147288801Y-89323234D01*
X147329986Y-89323056D01*
X147353944Y-89322735D01*
X147479829Y-89320800D01*
X147479829Y-89065808D01*
X147224837Y-89065808D01*
X147222888Y-89185961D01*
X147222445Y-89226275D01*
X147008828Y-89226275D01*
X147008809Y-89217631D01*
X147008803Y-89192772D01*
G37*
G36*
X148659217Y-91600977D02*
G01*
X148715003Y-91603034D01*
X148764825Y-91606696D01*
X148805341Y-91611966D01*
X148818535Y-91614603D01*
X148940411Y-91648481D01*
X149051736Y-91691557D01*
X149152403Y-91743780D01*
X149242306Y-91805097D01*
X149285484Y-91841203D01*
X149309693Y-91864788D01*
X149321727Y-91881187D01*
X149322703Y-91888950D01*
X149316915Y-91898283D01*
X149304512Y-91916525D01*
X149287242Y-91941154D01*
X149266856Y-91969646D01*
X149264126Y-91973421D01*
X149241358Y-92005179D01*
X149219441Y-92036284D01*
X149200904Y-92063115D01*
X149188506Y-92081690D01*
X149166719Y-92115586D01*
X149141372Y-92091653D01*
X149096984Y-92053503D01*
X149046334Y-92016134D01*
X148993929Y-91982569D01*
X148944280Y-91955831D01*
X148927342Y-91948202D01*
X148851700Y-91918894D01*
X148782954Y-91898094D01*
X148717357Y-91884962D01*
X148651162Y-91878659D01*
X148613125Y-91877799D01*
X148569481Y-91878472D01*
X148533631Y-91881055D01*
X148500465Y-91886392D01*
X148464873Y-91895327D01*
X148421744Y-91908706D01*
X148417276Y-91910171D01*
X148350777Y-91938374D01*
X148284825Y-91978116D01*
X148222412Y-92026982D01*
X148166528Y-92082557D01*
X148120163Y-92142426D01*
X148110225Y-92158087D01*
X148070759Y-92230357D01*
X148041603Y-92301126D01*
X148021828Y-92373864D01*
X148010503Y-92452042D01*
X148006696Y-92539127D01*
X148006686Y-92544188D01*
X148007478Y-92599990D01*
X148010306Y-92646207D01*
X148015854Y-92687357D01*
X148024803Y-92727958D01*
X148037835Y-92772526D01*
X148044025Y-92791519D01*
X148057476Y-92827178D01*
X148074726Y-92866023D01*
X148093903Y-92904413D01*
X148113130Y-92938706D01*
X148130534Y-92965261D01*
X148138557Y-92975148D01*
X148151722Y-92989653D01*
X148169002Y-93008945D01*
X148177514Y-93018524D01*
X148192975Y-93034684D01*
X148213058Y-93053938D01*
X148234996Y-93073854D01*
X148256020Y-93092001D01*
X148273362Y-93105946D01*
X148284253Y-93113258D01*
X148285981Y-93113800D01*
X148293864Y-93117470D01*
X148308921Y-93126750D01*
X148317091Y-93132217D01*
X148332127Y-93142171D01*
X148346101Y-93150184D01*
X148362689Y-93158006D01*
X148385568Y-93167384D01*
X148414798Y-93178685D01*
X148476261Y-93196835D01*
X148545549Y-93208258D01*
X148618548Y-93212865D01*
X148691143Y-93210564D01*
X148759221Y-93201267D01*
X148811689Y-93187376D01*
X148831590Y-93181218D01*
X148846528Y-93177796D01*
X148849257Y-93177548D01*
X148858333Y-93174564D01*
X148877064Y-93166552D01*
X148902485Y-93154926D01*
X148931634Y-93141099D01*
X148961548Y-93126484D01*
X148989261Y-93112494D01*
X149011812Y-93100540D01*
X149017694Y-93097239D01*
X149036347Y-93084982D01*
X149061508Y-93066445D01*
X149089141Y-93044805D01*
X149115205Y-93023240D01*
X149135665Y-93004928D01*
X149138421Y-93002242D01*
X149153446Y-92988483D01*
X149164701Y-92980255D01*
X149167483Y-92979222D01*
X149173617Y-92984713D01*
X149186305Y-92999846D01*
X149204046Y-93022606D01*
X149225340Y-93050980D01*
X149248687Y-93082954D01*
X149272586Y-93116514D01*
X149295539Y-93149649D01*
X149306076Y-93165254D01*
X149333367Y-93206083D01*
X149296289Y-93239419D01*
X149274360Y-93258430D01*
X149249194Y-93279161D01*
X149223371Y-93299625D01*
X149199470Y-93317835D01*
X149180069Y-93331802D01*
X149167747Y-93339539D01*
X149165177Y-93340460D01*
X149157186Y-93344117D01*
X149141600Y-93353510D01*
X149129093Y-93361709D01*
X149110363Y-93373630D01*
X149096205Y-93381340D01*
X149091461Y-93382958D01*
X149082193Y-93385925D01*
X149064720Y-93393580D01*
X149049277Y-93401059D01*
X149008312Y-93418943D01*
X148957481Y-93436950D01*
X148901009Y-93453779D01*
X148843124Y-93468130D01*
X148807910Y-93475299D01*
X148764870Y-93481283D01*
X148712778Y-93485492D01*
X148655315Y-93487905D01*
X148596163Y-93488501D01*
X148539004Y-93487257D01*
X148487518Y-93484153D01*
X148445389Y-93479166D01*
X148436047Y-93477484D01*
X148378796Y-93464538D01*
X148320697Y-93448553D01*
X148266036Y-93430861D01*
X148219096Y-93412791D01*
X148200437Y-93404312D01*
X148178521Y-93393761D01*
X148159424Y-93384753D01*
X148154397Y-93382442D01*
X148114185Y-93360746D01*
X148068544Y-93330274D01*
X148020710Y-93293459D01*
X147973916Y-93252733D01*
X147945994Y-93225725D01*
X147903254Y-93180848D01*
X147869659Y-93141598D01*
X147843016Y-93105106D01*
X147821131Y-93068505D01*
X147811672Y-93050053D01*
X147800709Y-93029107D01*
X147791481Y-93014055D01*
X147786739Y-93008734D01*
X147781780Y-93000627D01*
X147780861Y-92993215D01*
X147777415Y-92979866D01*
X147773670Y-92975614D01*
X147763567Y-92963319D01*
X147752031Y-92939288D01*
X147739707Y-92905796D01*
X147727244Y-92865121D01*
X147715288Y-92819539D01*
X147704485Y-92771325D01*
X147695483Y-92722756D01*
X147689167Y-92678190D01*
X147683204Y-92592314D01*
X147684286Y-92502126D01*
X147691972Y-92410887D01*
X147705823Y-92321856D01*
X147725401Y-92238293D01*
X147750265Y-92163458D01*
X147762361Y-92135016D01*
X147772013Y-92113464D01*
X147778706Y-92097491D01*
X147780861Y-92091101D01*
X147784502Y-92083675D01*
X147793857Y-92068491D01*
X147802110Y-92055975D01*
X147814003Y-92037484D01*
X147821715Y-92023828D01*
X147823359Y-92019453D01*
X147827375Y-92011323D01*
X147837536Y-91996552D01*
X147843579Y-91988607D01*
X147856370Y-91971277D01*
X147865008Y-91957723D01*
X147866599Y-91954320D01*
X147873668Y-91943078D01*
X147888917Y-91924484D01*
X147910149Y-91900833D01*
X147935167Y-91874417D01*
X147961777Y-91847530D01*
X147987780Y-91822465D01*
X148010982Y-91801516D01*
X148020678Y-91793435D01*
X148106166Y-91733793D01*
X148202106Y-91683394D01*
X148308037Y-91642452D01*
X148407715Y-91614749D01*
X148443224Y-91608791D01*
X148489469Y-91604434D01*
X148543110Y-91601679D01*
X148600806Y-91600526D01*
X148659217Y-91600977D01*
G37*
G36*
X149516220Y-90028578D02*
G01*
X149516279Y-89959313D01*
X149516556Y-89902707D01*
X149517208Y-89857257D01*
X149518388Y-89821455D01*
X149520252Y-89793797D01*
X149522953Y-89772776D01*
X149526646Y-89756887D01*
X149531486Y-89744625D01*
X149537628Y-89734483D01*
X149545226Y-89724956D01*
X149547675Y-89722147D01*
X149554799Y-89714326D01*
X149562059Y-89707708D01*
X149570636Y-89702192D01*
X149581710Y-89697679D01*
X149596462Y-89694067D01*
X149616075Y-89691257D01*
X149641728Y-89689148D01*
X149674603Y-89687638D01*
X149715881Y-89686629D01*
X149766744Y-89686019D01*
X149828371Y-89685708D01*
X149901944Y-89685595D01*
X149977487Y-89685580D01*
X150344943Y-89685580D01*
X150344943Y-89314582D01*
X150344964Y-89229118D01*
X150345092Y-89156646D01*
X150345427Y-89095990D01*
X150346068Y-89045975D01*
X150347113Y-89005427D01*
X150348663Y-88973170D01*
X150350816Y-88948030D01*
X150353671Y-88928831D01*
X150357328Y-88914399D01*
X150361886Y-88903559D01*
X150367443Y-88895135D01*
X150374100Y-88887953D01*
X150381511Y-88881229D01*
X150391138Y-88873188D01*
X150400952Y-88866648D01*
X150412458Y-88861453D01*
X150427161Y-88857449D01*
X150446568Y-88854482D01*
X150472184Y-88852396D01*
X150505516Y-88851037D01*
X150548067Y-88850250D01*
X150601345Y-88849882D01*
X150666855Y-88849777D01*
X150687942Y-88849774D01*
X150758578Y-88849846D01*
X150816505Y-88850176D01*
X150863179Y-88850934D01*
X150900055Y-88852291D01*
X150928592Y-88854417D01*
X150950244Y-88857483D01*
X150966469Y-88861658D01*
X150978723Y-88867114D01*
X150988461Y-88874019D01*
X150997141Y-88882546D01*
X151000549Y-88886341D01*
X151005756Y-88892262D01*
X151010354Y-88898064D01*
X151014381Y-88904619D01*
X151017876Y-88912797D01*
X151020875Y-88923469D01*
X151023417Y-88937506D01*
X151025539Y-88955779D01*
X151027279Y-88979158D01*
X151028676Y-89008515D01*
X151029766Y-89044721D01*
X151030588Y-89088646D01*
X151031180Y-89141160D01*
X151031579Y-89203136D01*
X151031823Y-89275443D01*
X151031950Y-89358954D01*
X151031998Y-89454537D01*
X151032004Y-89563065D01*
X151032004Y-89610675D01*
X151032008Y-89725521D01*
X151031990Y-89827059D01*
X151031908Y-89916149D01*
X151031719Y-89993649D01*
X151031380Y-90060419D01*
X151030847Y-90117316D01*
X151030078Y-90165201D01*
X151029030Y-90204931D01*
X151027659Y-90237366D01*
X151025924Y-90263365D01*
X151023780Y-90283786D01*
X151021185Y-90299488D01*
X151018096Y-90311331D01*
X151014469Y-90320172D01*
X151010262Y-90326871D01*
X151005433Y-90332287D01*
X150999937Y-90337278D01*
X150995436Y-90341185D01*
X150976092Y-90355109D01*
X150959069Y-90364205D01*
X150948556Y-90365683D01*
X150925101Y-90367017D01*
X150889915Y-90368209D01*
X150844209Y-90369259D01*
X150789195Y-90370170D01*
X150726084Y-90370942D01*
X150656089Y-90371575D01*
X150580419Y-90372072D01*
X150500286Y-90372431D01*
X150416903Y-90372656D01*
X150331479Y-90372746D01*
X150245227Y-90372703D01*
X150159358Y-90372527D01*
X150075084Y-90372220D01*
X149993615Y-90371783D01*
X149916164Y-90371215D01*
X149843941Y-90370519D01*
X149778158Y-90369696D01*
X149720026Y-90368746D01*
X149670758Y-90367670D01*
X149631563Y-90366469D01*
X149603654Y-90365144D01*
X149588241Y-90363697D01*
X149585922Y-90363119D01*
X149565714Y-90351536D01*
X149551693Y-90340818D01*
X149542756Y-90332138D01*
X149535459Y-90322886D01*
X149529635Y-90311604D01*
X149525119Y-90296837D01*
X149521746Y-90277126D01*
X149519350Y-90251015D01*
X149517765Y-90217048D01*
X149516827Y-90173767D01*
X149516369Y-90119715D01*
X149516322Y-90097728D01*
X149729856Y-90097728D01*
X149730264Y-90126200D01*
X149731054Y-90144945D01*
X149731871Y-90151078D01*
X149734893Y-90152823D01*
X149743074Y-90154325D01*
X149757244Y-90155593D01*
X149778231Y-90156640D01*
X149806866Y-90157476D01*
X149843977Y-90158112D01*
X149890393Y-90158560D01*
X149946943Y-90158831D01*
X150014457Y-90158936D01*
X150093764Y-90158887D01*
X150185693Y-90158694D01*
X150275678Y-90158421D01*
X150815969Y-90156606D01*
X150815969Y-89065808D01*
X150560978Y-89065808D01*
X150559150Y-89481883D01*
X150557323Y-89897958D01*
X149732255Y-89901614D01*
X149730306Y-90021767D01*
X149729860Y-90062069D01*
X149729856Y-90097728D01*
X149516322Y-90097728D01*
X149516226Y-90053437D01*
X149516220Y-90028578D01*
G37*
G36*
X146257356Y-91626349D02*
G01*
X146343298Y-91626388D01*
X146416466Y-91626530D01*
X146478254Y-91626817D01*
X146530054Y-91627289D01*
X146573259Y-91627986D01*
X146609262Y-91628948D01*
X146639455Y-91630215D01*
X146665232Y-91631829D01*
X146687986Y-91633828D01*
X146709108Y-91636254D01*
X146729992Y-91639147D01*
X146737236Y-91640237D01*
X146815682Y-91654031D01*
X146882186Y-91670019D01*
X146938916Y-91689112D01*
X146988037Y-91712218D01*
X147031716Y-91740249D01*
X147072120Y-91774114D01*
X147084471Y-91786091D01*
X147121394Y-91832140D01*
X147151472Y-91888028D01*
X147174258Y-91950954D01*
X147189304Y-92018117D01*
X147196163Y-92086718D01*
X147194388Y-92153955D01*
X147183531Y-92217028D01*
X147163144Y-92273137D01*
X147162495Y-92274453D01*
X147135415Y-92320632D01*
X147102100Y-92361302D01*
X147060792Y-92397909D01*
X147009735Y-92431899D01*
X146947171Y-92464716D01*
X146911499Y-92480930D01*
X146894190Y-92490050D01*
X146884507Y-92498247D01*
X146883693Y-92501112D01*
X146891359Y-92507179D01*
X146907762Y-92513615D01*
X146913707Y-92515278D01*
X146933145Y-92520830D01*
X146946758Y-92525789D01*
X146948596Y-92526744D01*
X146959809Y-92530804D01*
X146978344Y-92535183D01*
X146982241Y-92535918D01*
X146999271Y-92540390D01*
X147008344Y-92545497D01*
X147008803Y-92546685D01*
X147014968Y-92551868D01*
X147030035Y-92556615D01*
X147032258Y-92557059D01*
X147053617Y-92564693D01*
X147081945Y-92579812D01*
X147113909Y-92600177D01*
X147146178Y-92623547D01*
X147175418Y-92647682D01*
X147194383Y-92666029D01*
X147226951Y-92707090D01*
X147253866Y-92755515D01*
X147275210Y-92809227D01*
X147280570Y-92827419D01*
X147284324Y-92847522D01*
X147286721Y-92872408D01*
X147288012Y-92904949D01*
X147288445Y-92948015D01*
X147288448Y-92961514D01*
X147287296Y-93021121D01*
X147283534Y-93069956D01*
X147276463Y-93111287D01*
X147265383Y-93148378D01*
X147249594Y-93184495D01*
X147234841Y-93211867D01*
X147219359Y-93235097D01*
X147197948Y-93262346D01*
X147173609Y-93290279D01*
X147149341Y-93315562D01*
X147128146Y-93334858D01*
X147116953Y-93342897D01*
X147060792Y-93373672D01*
X147008041Y-93398012D01*
X146954859Y-93417195D01*
X146897403Y-93432495D01*
X146831832Y-93445191D01*
X146789226Y-93451769D01*
X146768895Y-93454221D01*
X146743544Y-93456369D01*
X146712090Y-93458244D01*
X146673445Y-93459876D01*
X146626525Y-93461296D01*
X146570243Y-93462535D01*
X146503514Y-93463623D01*
X146425252Y-93464592D01*
X146334371Y-93465471D01*
X146291639Y-93465825D01*
X145868423Y-93469189D01*
X145868423Y-92939502D01*
X146172997Y-92939502D01*
X146173116Y-93000134D01*
X146173456Y-93056285D01*
X146173990Y-93106386D01*
X146174692Y-93148869D01*
X146175534Y-93182165D01*
X146176489Y-93204705D01*
X146177530Y-93214922D01*
X146177719Y-93215325D01*
X146185675Y-93216437D01*
X146206130Y-93217449D01*
X146237418Y-93218330D01*
X146277871Y-93219049D01*
X146325822Y-93219575D01*
X146379605Y-93219876D01*
X146423856Y-93219936D01*
X146491028Y-93219823D01*
X146545870Y-93219498D01*
X146590221Y-93218876D01*
X146625917Y-93217875D01*
X146654796Y-93216410D01*
X146678694Y-93214399D01*
X146699449Y-93211758D01*
X146718897Y-93208403D01*
X146730767Y-93206000D01*
X146794701Y-93188800D01*
X146846521Y-93166328D01*
X146887595Y-93137664D01*
X146919290Y-93101888D01*
X146939778Y-93065420D01*
X146946372Y-93048646D01*
X146950788Y-93030631D01*
X146953454Y-93007995D01*
X146954799Y-92977360D01*
X146955219Y-92943806D01*
X146955113Y-92905086D01*
X146954082Y-92877469D01*
X146951758Y-92857903D01*
X146947776Y-92843339D01*
X146941771Y-92830722D01*
X146941632Y-92830476D01*
X146912542Y-92788891D01*
X146875560Y-92753720D01*
X146829761Y-92724583D01*
X146774219Y-92701099D01*
X146708009Y-92682886D01*
X146630204Y-92669565D01*
X146539878Y-92660754D01*
X146527170Y-92659920D01*
X146479916Y-92657486D01*
X146429784Y-92655793D01*
X146378952Y-92654825D01*
X146329598Y-92654563D01*
X146283898Y-92654991D01*
X146244030Y-92656092D01*
X146212172Y-92657847D01*
X146190500Y-92660240D01*
X146181851Y-92662671D01*
X146179471Y-92667398D01*
X146177524Y-92678921D01*
X146175975Y-92698314D01*
X146174790Y-92726652D01*
X146173934Y-92765010D01*
X146173373Y-92814460D01*
X146173073Y-92876079D01*
X146172997Y-92939502D01*
X145868423Y-92939502D01*
X145868423Y-92135674D01*
X146172997Y-92135674D01*
X146173109Y-92208598D01*
X146173470Y-92268430D01*
X146174113Y-92316244D01*
X146175073Y-92353111D01*
X146176385Y-92380104D01*
X146178082Y-92398297D01*
X146180199Y-92408761D01*
X146181851Y-92411963D01*
X146187316Y-92414845D01*
X146198428Y-92416933D01*
X146216664Y-92418267D01*
X146243497Y-92418886D01*
X146280401Y-92418832D01*
X146328853Y-92418143D01*
X146374865Y-92417208D01*
X146434516Y-92415737D01*
X146482226Y-92414134D01*
X146520220Y-92412226D01*
X146550724Y-92409840D01*
X146575961Y-92406802D01*
X146598158Y-92402938D01*
X146619232Y-92398152D01*
X146686390Y-92377168D01*
X146745440Y-92350084D01*
X146794940Y-92317853D01*
X146833451Y-92281427D01*
X146859531Y-92241756D01*
X146861118Y-92238290D01*
X146875902Y-92189978D01*
X146879288Y-92136607D01*
X146871656Y-92077570D01*
X146862752Y-92039468D01*
X146852947Y-92011054D01*
X146840041Y-91987911D01*
X146821832Y-91965621D01*
X146809584Y-91952947D01*
X146776854Y-91925041D01*
X146739740Y-91903410D01*
X146695791Y-91887123D01*
X146642559Y-91875248D01*
X146585309Y-91867626D01*
X146558950Y-91865583D01*
X146523645Y-91863835D01*
X146481702Y-91862398D01*
X146435430Y-91861292D01*
X146387138Y-91860535D01*
X146339134Y-91860146D01*
X146293727Y-91860145D01*
X146253226Y-91860548D01*
X146219939Y-91861375D01*
X146196174Y-91862645D01*
X146184241Y-91864376D01*
X146184201Y-91864391D01*
X146181299Y-91866752D01*
X146178939Y-91872268D01*
X146177066Y-91882256D01*
X146175625Y-91898036D01*
X146174563Y-91920927D01*
X146173823Y-91952247D01*
X146173353Y-91993316D01*
X146173098Y-92045452D01*
X146173002Y-92109975D01*
X146172997Y-92135674D01*
X145868423Y-92135674D01*
X145868423Y-91626349D01*
X146257356Y-91626349D01*
G37*
G36*
X146172334Y-89134071D02*
G01*
X146172844Y-89081094D01*
X146173784Y-89032420D01*
X146175162Y-88990096D01*
X146176982Y-88956170D01*
X146179250Y-88932689D01*
X146181432Y-88922709D01*
X146202868Y-88888675D01*
X146233126Y-88864488D01*
X146242922Y-88859780D01*
X146257311Y-88856807D01*
X146283791Y-88854303D01*
X146320293Y-88852267D01*
X146364749Y-88850700D01*
X146415091Y-88849601D01*
X146469251Y-88848970D01*
X146525161Y-88848808D01*
X146580753Y-88849115D01*
X146633959Y-88849889D01*
X146682710Y-88851132D01*
X146724938Y-88852844D01*
X146758576Y-88855024D01*
X146781555Y-88857672D01*
X146790132Y-88859780D01*
X146822453Y-88880761D01*
X146846611Y-88912263D01*
X146851623Y-88922709D01*
X146854004Y-88935476D01*
X146856016Y-88960371D01*
X146857660Y-88995357D01*
X146858936Y-89038400D01*
X146859843Y-89087466D01*
X146860381Y-89140520D01*
X146860550Y-89195526D01*
X146860351Y-89250451D01*
X146859783Y-89303259D01*
X146858847Y-89351916D01*
X146857542Y-89394387D01*
X146855868Y-89428638D01*
X146853826Y-89452633D01*
X146851623Y-89463899D01*
X146830186Y-89497933D01*
X146799928Y-89522120D01*
X146790132Y-89526828D01*
X146776596Y-89529488D01*
X146750991Y-89531749D01*
X146715351Y-89533608D01*
X146671708Y-89535063D01*
X146622094Y-89536114D01*
X146568540Y-89536758D01*
X146513079Y-89536993D01*
X146457744Y-89536817D01*
X146404566Y-89536230D01*
X146355577Y-89535228D01*
X146312810Y-89533810D01*
X146278297Y-89531975D01*
X146254070Y-89529720D01*
X146242698Y-89527313D01*
X146209243Y-89505205D01*
X146186027Y-89473632D01*
X146183037Y-89467053D01*
X146180318Y-89453372D01*
X146177982Y-89427612D01*
X146176034Y-89391822D01*
X146174481Y-89348048D01*
X146173328Y-89298338D01*
X146172582Y-89244740D01*
X146172471Y-89226275D01*
X146386639Y-89226275D01*
X146386643Y-89261955D01*
X146387062Y-89290456D01*
X146387865Y-89309235D01*
X146388694Y-89315392D01*
X146393029Y-89318824D01*
X146404082Y-89321212D01*
X146423517Y-89322651D01*
X146452995Y-89323234D01*
X146494180Y-89323056D01*
X146518138Y-89322735D01*
X146644023Y-89320800D01*
X146644023Y-89065808D01*
X146389031Y-89065808D01*
X146387082Y-89185961D01*
X146386639Y-89226275D01*
X146172471Y-89226275D01*
X146172249Y-89189302D01*
X146172334Y-89134071D01*
G37*
G36*
X147844608Y-89192772D02*
G01*
X147844667Y-89123507D01*
X147844944Y-89066901D01*
X147845596Y-89021451D01*
X147846776Y-88985649D01*
X147848640Y-88957991D01*
X147851341Y-88936970D01*
X147855034Y-88921081D01*
X147859875Y-88908819D01*
X147866016Y-88898677D01*
X147873614Y-88889150D01*
X147876063Y-88886341D01*
X147884735Y-88877129D01*
X147893900Y-88869608D01*
X147905017Y-88863605D01*
X147919544Y-88858951D01*
X147938939Y-88855475D01*
X147964661Y-88853006D01*
X147998166Y-88851373D01*
X148040914Y-88850405D01*
X148094362Y-88849932D01*
X148159969Y-88849781D01*
X148188139Y-88849774D01*
X148258704Y-88849846D01*
X148316562Y-88850178D01*
X148363170Y-88850940D01*
X148399987Y-88852302D01*
X148428469Y-88854436D01*
X148450077Y-88857513D01*
X148466267Y-88861703D01*
X148478497Y-88867177D01*
X148488227Y-88874106D01*
X148496913Y-88882662D01*
X148500214Y-88886341D01*
X148508247Y-88895959D01*
X148514783Y-88905761D01*
X148519976Y-88917253D01*
X148523979Y-88931938D01*
X148526948Y-88951320D01*
X148529037Y-88976902D01*
X148530399Y-89010189D01*
X148531188Y-89052685D01*
X148531559Y-89105892D01*
X148531666Y-89171315D01*
X148531669Y-89193304D01*
X148531611Y-89262642D01*
X148531335Y-89319318D01*
X148530686Y-89364836D01*
X148529510Y-89400698D01*
X148527653Y-89428411D01*
X148524962Y-89449476D01*
X148521281Y-89465398D01*
X148516457Y-89477680D01*
X148510336Y-89487827D01*
X148502764Y-89497343D01*
X148500214Y-89500267D01*
X148491583Y-89509454D01*
X148482491Y-89516959D01*
X148471487Y-89522947D01*
X148457121Y-89527584D01*
X148437945Y-89531036D01*
X148412506Y-89533469D01*
X148379356Y-89535049D01*
X148337045Y-89535940D01*
X148284121Y-89536311D01*
X148219136Y-89536325D01*
X148185503Y-89536259D01*
X148109483Y-89535903D01*
X148046940Y-89535198D01*
X147997186Y-89534120D01*
X147959535Y-89532649D01*
X147933301Y-89530760D01*
X147917797Y-89528432D01*
X147914310Y-89527313D01*
X147894102Y-89515730D01*
X147880081Y-89505012D01*
X147871144Y-89496332D01*
X147863847Y-89487080D01*
X147858023Y-89475798D01*
X147853507Y-89461031D01*
X147850134Y-89441320D01*
X147847738Y-89415209D01*
X147846154Y-89381242D01*
X147845215Y-89337961D01*
X147844757Y-89283909D01*
X147844634Y-89226275D01*
X148058251Y-89226275D01*
X148058254Y-89261955D01*
X148058674Y-89290456D01*
X148059477Y-89309235D01*
X148060306Y-89315392D01*
X148064640Y-89318824D01*
X148075694Y-89321212D01*
X148095129Y-89322651D01*
X148124607Y-89323234D01*
X148165792Y-89323056D01*
X148189750Y-89322735D01*
X148315635Y-89320800D01*
X148315635Y-89065808D01*
X148060643Y-89065808D01*
X148058694Y-89185961D01*
X148058251Y-89226275D01*
X147844634Y-89226275D01*
X147844615Y-89217631D01*
X147844608Y-89192772D01*
G37*
G36*
X146172334Y-90805683D02*
G01*
X146172844Y-90752706D01*
X146173784Y-90704032D01*
X146175162Y-90661708D01*
X146176982Y-90627782D01*
X146179250Y-90604301D01*
X146181432Y-90594321D01*
X146202868Y-90560287D01*
X146233126Y-90536100D01*
X146242922Y-90531392D01*
X146257311Y-90528419D01*
X146283791Y-90525915D01*
X146320293Y-90523879D01*
X146364749Y-90522312D01*
X146415091Y-90521213D01*
X146469251Y-90520582D01*
X146525161Y-90520420D01*
X146580753Y-90520726D01*
X146633959Y-90521501D01*
X146682710Y-90522744D01*
X146724938Y-90524456D01*
X146758576Y-90526636D01*
X146781555Y-90529284D01*
X146790132Y-90531392D01*
X146822453Y-90552373D01*
X146846611Y-90583875D01*
X146851623Y-90594321D01*
X146854004Y-90607088D01*
X146856016Y-90631982D01*
X146857660Y-90666969D01*
X146858936Y-90710012D01*
X146859843Y-90759078D01*
X146860381Y-90812131D01*
X146860550Y-90867138D01*
X146860351Y-90922063D01*
X146859783Y-90974871D01*
X146858847Y-91023528D01*
X146857542Y-91065999D01*
X146855868Y-91100250D01*
X146853826Y-91124245D01*
X146851623Y-91135511D01*
X146830186Y-91169545D01*
X146799928Y-91193732D01*
X146790132Y-91198440D01*
X146776596Y-91201100D01*
X146750991Y-91203361D01*
X146715351Y-91205220D01*
X146671708Y-91206675D01*
X146622094Y-91207726D01*
X146568540Y-91208370D01*
X146513079Y-91208605D01*
X146457744Y-91208429D01*
X146404566Y-91207842D01*
X146355577Y-91206840D01*
X146312810Y-91205422D01*
X146278297Y-91203587D01*
X146254070Y-91201332D01*
X146242698Y-91198925D01*
X146209243Y-91176817D01*
X146186027Y-91145243D01*
X146183037Y-91138665D01*
X146180318Y-91124984D01*
X146177982Y-91099224D01*
X146176034Y-91063434D01*
X146174481Y-91019660D01*
X146173328Y-90969950D01*
X146172582Y-90916352D01*
X146172471Y-90897886D01*
X146386639Y-90897886D01*
X146386643Y-90933566D01*
X146387062Y-90962068D01*
X146387865Y-90980847D01*
X146388694Y-90987003D01*
X146393029Y-90990436D01*
X146404082Y-90992824D01*
X146423517Y-90994263D01*
X146452995Y-90994846D01*
X146494180Y-90994668D01*
X146518138Y-90994347D01*
X146644023Y-90992412D01*
X146644023Y-90737420D01*
X146389031Y-90737420D01*
X146387082Y-90857573D01*
X146386639Y-90897886D01*
X146172471Y-90897886D01*
X146172249Y-90860914D01*
X146172334Y-90805683D01*
G37*
G36*
X146172249Y-90025108D02*
G01*
X146172334Y-89969877D01*
X146172844Y-89916900D01*
X146173784Y-89868226D01*
X146175162Y-89825902D01*
X146176982Y-89791976D01*
X146179250Y-89768495D01*
X146181432Y-89758515D01*
X146202868Y-89724481D01*
X146233126Y-89700294D01*
X146242922Y-89695586D01*
X146254411Y-89693738D01*
X146278844Y-89692056D01*
X146314998Y-89690541D01*
X146361651Y-89689193D01*
X146417582Y-89688011D01*
X146481568Y-89686996D01*
X146552388Y-89686148D01*
X146628819Y-89685466D01*
X146709640Y-89684951D01*
X146793629Y-89684602D01*
X146879564Y-89684420D01*
X146966222Y-89684405D01*
X147052382Y-89684556D01*
X147136823Y-89684874D01*
X147218321Y-89685358D01*
X147295655Y-89686009D01*
X147367604Y-89686827D01*
X147432945Y-89687811D01*
X147490456Y-89688962D01*
X147538915Y-89690280D01*
X147577100Y-89691764D01*
X147603790Y-89693414D01*
X147617763Y-89695232D01*
X147618855Y-89695586D01*
X147651176Y-89716567D01*
X147675334Y-89748069D01*
X147680345Y-89758515D01*
X147682979Y-89771973D01*
X147685160Y-89797543D01*
X147686895Y-89833176D01*
X147688190Y-89876826D01*
X147689051Y-89926444D01*
X147689483Y-89979983D01*
X147689493Y-90035396D01*
X147689087Y-90090635D01*
X147688270Y-90143652D01*
X147687048Y-90192400D01*
X147685428Y-90234831D01*
X147683414Y-90268898D01*
X147681014Y-90292553D01*
X147678774Y-90302715D01*
X147657793Y-90335036D01*
X147626291Y-90359194D01*
X147615845Y-90364205D01*
X147605332Y-90365683D01*
X147581877Y-90367017D01*
X147546691Y-90368209D01*
X147500985Y-90369259D01*
X147445971Y-90370170D01*
X147382861Y-90370942D01*
X147312865Y-90371575D01*
X147237195Y-90372072D01*
X147157063Y-90372431D01*
X147073679Y-90372656D01*
X146988255Y-90372746D01*
X146902004Y-90372703D01*
X146816135Y-90372527D01*
X146731860Y-90372220D01*
X146650392Y-90371783D01*
X146572940Y-90371215D01*
X146500717Y-90370519D01*
X146434934Y-90369696D01*
X146376803Y-90368746D01*
X146327534Y-90367670D01*
X146288339Y-90366469D01*
X146260430Y-90365144D01*
X146245018Y-90363697D01*
X146242698Y-90363119D01*
X146209243Y-90341011D01*
X146186027Y-90309438D01*
X146183037Y-90302859D01*
X146180318Y-90289178D01*
X146177982Y-90263418D01*
X146176034Y-90227628D01*
X146174481Y-90183854D01*
X146173328Y-90134144D01*
X146172821Y-90097728D01*
X146386633Y-90097728D01*
X146387041Y-90126200D01*
X146387830Y-90144945D01*
X146388648Y-90151078D01*
X146391669Y-90152823D01*
X146399850Y-90154325D01*
X146414020Y-90155593D01*
X146435008Y-90156640D01*
X146463642Y-90157476D01*
X146500753Y-90158112D01*
X146547169Y-90158560D01*
X146603719Y-90158831D01*
X146671233Y-90158936D01*
X146750540Y-90158887D01*
X146842469Y-90158694D01*
X146932454Y-90158421D01*
X147472746Y-90156606D01*
X147472746Y-89901614D01*
X146389031Y-89901614D01*
X146387082Y-90021767D01*
X146386636Y-90062069D01*
X146386633Y-90097728D01*
X146172821Y-90097728D01*
X146172582Y-90080546D01*
X146172249Y-90025108D01*
G37*
X143315500Y-81945258D02*
X143315500Y-81470742D01*
X142270500Y-81945258D02*
X142270500Y-81470742D01*
X143315500Y-77517742D02*
X143315500Y-77992258D01*
X142270500Y-77517742D02*
X142270500Y-77992258D01*
X153029500Y-81945258D02*
X153029500Y-81470742D01*
X151984500Y-81945258D02*
X151984500Y-81470742D01*
G36*
X147311576Y-111667575D02*
G01*
X147347540Y-111675945D01*
X147377631Y-111690260D01*
X147402587Y-111710820D01*
X147413076Y-111723146D01*
X147426615Y-111744792D01*
X147435890Y-111769423D01*
X147441340Y-111798780D01*
X147443399Y-111834608D01*
X147443438Y-111844397D01*
X147440514Y-111888592D01*
X147431985Y-111925723D01*
X147417564Y-111956096D01*
X147396964Y-111980020D01*
X147369898Y-111997801D01*
X147336082Y-112009747D01*
X147295228Y-112016165D01*
X147282636Y-112017006D01*
X147260809Y-112017388D01*
X147238803Y-112016616D01*
X147220933Y-112014858D01*
X147219000Y-112014542D01*
X147182832Y-112004264D01*
X147152080Y-111987356D01*
X147127440Y-111964323D01*
X147109610Y-111935674D01*
X147109102Y-111934542D01*
X147099987Y-111906485D01*
X147094426Y-111873227D01*
X147092774Y-111838073D01*
X147095196Y-111805620D01*
X147104171Y-111765603D01*
X147118575Y-111732623D01*
X147138698Y-111706445D01*
X147164829Y-111686834D01*
X147197257Y-111673556D01*
X147236273Y-111666377D01*
X147269000Y-111664852D01*
X147311576Y-111667575D01*
G37*
G36*
X147207575Y-112083839D02*
G01*
X147271016Y-112084056D01*
X147273951Y-112084068D01*
X147558349Y-112085306D01*
X147575043Y-112098041D01*
X147581630Y-112102969D01*
X147587264Y-112107409D01*
X147592024Y-112112075D01*
X147595986Y-112117678D01*
X147599227Y-112124930D01*
X147601826Y-112134543D01*
X147603860Y-112147230D01*
X147605407Y-112163701D01*
X147606543Y-112184669D01*
X147607346Y-112210847D01*
X147607895Y-112242945D01*
X147608266Y-112281677D01*
X147608537Y-112327753D01*
X147608785Y-112381886D01*
X147608910Y-112409170D01*
X147610185Y-112678488D01*
X147464454Y-112678488D01*
X147464454Y-113283033D01*
X147073545Y-113283033D01*
X147073545Y-112678488D01*
X146928090Y-112678488D01*
X146928116Y-112418261D01*
X146928209Y-112355806D01*
X146928473Y-112300737D01*
X146928903Y-112253311D01*
X146929495Y-112213787D01*
X146930245Y-112182421D01*
X146931147Y-112159472D01*
X146932198Y-112145199D01*
X146932909Y-112140864D01*
X146941187Y-112122524D01*
X146954374Y-112105121D01*
X146969772Y-112091887D01*
X146976983Y-112088038D01*
X146982745Y-112086884D01*
X146994268Y-112085922D01*
X147011967Y-112085144D01*
X147036255Y-112084546D01*
X147067546Y-112084122D01*
X147106254Y-112083867D01*
X147152792Y-112083774D01*
X147207575Y-112083839D01*
G37*
G36*
X146020571Y-112425771D02*
G01*
X146021928Y-112384338D01*
X146023833Y-112345744D01*
X146026246Y-112311892D01*
X146029129Y-112284684D01*
X146030020Y-112278488D01*
X146050731Y-112174080D01*
X146079899Y-112072964D01*
X146117452Y-111975275D01*
X146163321Y-111881150D01*
X146217436Y-111790724D01*
X146279727Y-111704131D01*
X146350125Y-111621509D01*
X146389357Y-111580714D01*
X146468065Y-111508152D01*
X146550893Y-111443563D01*
X146637649Y-111387050D01*
X146728140Y-111338720D01*
X146822174Y-111298676D01*
X146919558Y-111267022D01*
X147003090Y-111247138D01*
X147032752Y-111241387D01*
X147059145Y-111236784D01*
X147083863Y-111233207D01*
X147108500Y-111230534D01*
X147134649Y-111228643D01*
X147163905Y-111227412D01*
X147197861Y-111226718D01*
X147238111Y-111226440D01*
X147273545Y-111226431D01*
X147324474Y-111226738D01*
X147368022Y-111227608D01*
X147405888Y-111229214D01*
X147439774Y-111231730D01*
X147471380Y-111235332D01*
X147502408Y-111240192D01*
X147534557Y-111246485D01*
X147569528Y-111254385D01*
X147586323Y-111258433D01*
X147686109Y-111287462D01*
X147782396Y-111324829D01*
X147874921Y-111370375D01*
X147963422Y-111423942D01*
X148047635Y-111485374D01*
X148127299Y-111554511D01*
X148196885Y-111625381D01*
X148265287Y-111706340D01*
X148325188Y-111789810D01*
X148376842Y-111876332D01*
X148420503Y-111966448D01*
X148456425Y-112060699D01*
X148484862Y-112159628D01*
X148506069Y-112263775D01*
X148510811Y-112294397D01*
X148513087Y-112316215D01*
X148514844Y-112345454D01*
X148516091Y-112380457D01*
X148516835Y-112419571D01*
X148517086Y-112461139D01*
X148516852Y-112503507D01*
X148516141Y-112545019D01*
X148514962Y-112584020D01*
X148513324Y-112618855D01*
X148511235Y-112647869D01*
X148508883Y-112668255D01*
X148488582Y-112774157D01*
X148460687Y-112875153D01*
X148425107Y-112971400D01*
X148381748Y-113063057D01*
X148330519Y-113150281D01*
X148271328Y-113233230D01*
X148204083Y-113312062D01*
X148128692Y-113386934D01*
X148050879Y-113453394D01*
X147963968Y-113517002D01*
X147873473Y-113572285D01*
X147779530Y-113619187D01*
X147682274Y-113657653D01*
X147581838Y-113687624D01*
X147478359Y-113709045D01*
X147421113Y-113717055D01*
X147401581Y-113718800D01*
X147375783Y-113720315D01*
X147345411Y-113721574D01*
X147312159Y-113722552D01*
X147277720Y-113723226D01*
X147243785Y-113723570D01*
X147212049Y-113723560D01*
X147184203Y-113723171D01*
X147161941Y-113722379D01*
X147146955Y-113721158D01*
X147146272Y-113721063D01*
X147136696Y-113719782D01*
X147120915Y-113717776D01*
X147101750Y-113715402D01*
X147094000Y-113714457D01*
X146995529Y-113697952D01*
X146898822Y-113672638D01*
X146804217Y-113638682D01*
X146712052Y-113596254D01*
X146622667Y-113545521D01*
X146536401Y-113486653D01*
X146453592Y-113419819D01*
X146396878Y-113367424D01*
X146321117Y-113287666D01*
X146253730Y-113204410D01*
X146194730Y-113117681D01*
X146144131Y-113027505D01*
X146101943Y-112933909D01*
X146068181Y-112836917D01*
X146042856Y-112736556D01*
X146025982Y-112632851D01*
X146023340Y-112608942D01*
X146021384Y-112581848D01*
X146020168Y-112548081D01*
X146019652Y-112509545D01*
X146019702Y-112495429D01*
X146248800Y-112495429D01*
X146250070Y-112540579D01*
X146252660Y-112582009D01*
X146256568Y-112617176D01*
X146256900Y-112619397D01*
X146274979Y-112711647D01*
X146300476Y-112799300D01*
X146333657Y-112882888D01*
X146374789Y-112962940D01*
X146424136Y-113039987D01*
X146481967Y-113114560D01*
X146534897Y-113173188D01*
X146606953Y-113242334D01*
X146682119Y-113302963D01*
X146760555Y-113355161D01*
X146842424Y-113399011D01*
X146927889Y-113434597D01*
X147017111Y-113462003D01*
X147110252Y-113481314D01*
X147136159Y-113485160D01*
X147166358Y-113488222D01*
X147203126Y-113490292D01*
X147243993Y-113491370D01*
X147286492Y-113491456D01*
X147328154Y-113490551D01*
X147366511Y-113488653D01*
X147399095Y-113485764D01*
X147403994Y-113485160D01*
X147496933Y-113468746D01*
X147586573Y-113444030D01*
X147673066Y-113410933D01*
X147756563Y-113369378D01*
X147837216Y-113319290D01*
X147915175Y-113260591D01*
X147990594Y-113193203D01*
X148003291Y-113180761D01*
X148056785Y-113124233D01*
X148102924Y-113067795D01*
X148143185Y-113009403D01*
X148179050Y-112947012D01*
X148194131Y-112917124D01*
X148228989Y-112835100D01*
X148256121Y-112749238D01*
X148275533Y-112660480D01*
X148287233Y-112569766D01*
X148291229Y-112478039D01*
X148287526Y-112386239D01*
X148276132Y-112295307D01*
X148257054Y-112206185D01*
X148230300Y-112119815D01*
X148195877Y-112037136D01*
X148187344Y-112019672D01*
X148142123Y-111939308D01*
X148089466Y-111862925D01*
X148030104Y-111791186D01*
X147964769Y-111724753D01*
X147894194Y-111664288D01*
X147819108Y-111610453D01*
X147740245Y-111563911D01*
X147658336Y-111525323D01*
X147628090Y-111513450D01*
X147544462Y-111486958D01*
X147456809Y-111467896D01*
X147366413Y-111456310D01*
X147274554Y-111452246D01*
X147182513Y-111455752D01*
X147091569Y-111466873D01*
X147003005Y-111485657D01*
X146986560Y-111490094D01*
X146900082Y-111518829D01*
X146817336Y-111555701D01*
X146738130Y-111600822D01*
X146662271Y-111654305D01*
X146589564Y-111716262D01*
X146575843Y-111729238D01*
X146505340Y-111802784D01*
X146443227Y-111879792D01*
X146389514Y-111960244D01*
X146344213Y-112044120D01*
X146307332Y-112131401D01*
X146278884Y-112222066D01*
X146258877Y-112316098D01*
X146256909Y-112328488D01*
X146252903Y-112363088D01*
X146250217Y-112404141D01*
X146248849Y-112449102D01*
X146248800Y-112495429D01*
X146019702Y-112495429D01*
X146019800Y-112468141D01*
X146020571Y-112425771D01*
G37*
X153029500Y-77517742D02*
X153029500Y-77992258D01*
X151984500Y-77517742D02*
X151984500Y-77992258D01*
X148746500Y-81945258D02*
X148746500Y-81470742D01*
X149791500Y-81945258D02*
X149791500Y-81470742D01*
G36*
X152638019Y-111817823D02*
G01*
X152678112Y-111820011D01*
X152714823Y-111823417D01*
X152745684Y-111827978D01*
X152751987Y-111829246D01*
X152821517Y-111847724D01*
X152884820Y-111872158D01*
X152942993Y-111903121D01*
X152997132Y-111941181D01*
X153040675Y-111979422D01*
X153091932Y-112034945D01*
X153135711Y-112095618D01*
X153171984Y-112161385D01*
X153200722Y-112232185D01*
X153221899Y-112307962D01*
X153235131Y-112385686D01*
X153237597Y-112414943D01*
X153238840Y-112450037D01*
X153238934Y-112488748D01*
X153237954Y-112528859D01*
X153235974Y-112568151D01*
X153233069Y-112604406D01*
X153229313Y-112635404D01*
X153226144Y-112653129D01*
X153213301Y-112704911D01*
X153197765Y-112752074D01*
X153178008Y-112799017D01*
X153168682Y-112818512D01*
X153131801Y-112883390D01*
X153088101Y-112942597D01*
X153038156Y-112995707D01*
X152982539Y-113042295D01*
X152921826Y-113081936D01*
X152856588Y-113114205D01*
X152787400Y-113138677D01*
X152714837Y-113154927D01*
X152714690Y-113154951D01*
X152682698Y-113159023D01*
X152645753Y-113161950D01*
X152606845Y-113163635D01*
X152568963Y-113163981D01*
X152535096Y-113162892D01*
X152516636Y-113161366D01*
X152449909Y-113149838D01*
X152385433Y-113130645D01*
X152324203Y-113104332D01*
X152267216Y-113071442D01*
X152215467Y-113032520D01*
X152169954Y-112988109D01*
X152145940Y-112958905D01*
X152111256Y-112906423D01*
X152082662Y-112848997D01*
X152059848Y-112785852D01*
X152042503Y-112716212D01*
X152037272Y-112687830D01*
X152034406Y-112670785D01*
X152193845Y-112670785D01*
X152238222Y-112670855D01*
X152274228Y-112671083D01*
X152302583Y-112671494D01*
X152324006Y-112672114D01*
X152339216Y-112672967D01*
X152348932Y-112674079D01*
X152353874Y-112675476D01*
X152354848Y-112676467D01*
X152356273Y-112683513D01*
X152358580Y-112696828D01*
X152361300Y-112713689D01*
X152361631Y-112715815D01*
X152372358Y-112758504D01*
X152390318Y-112795864D01*
X152415252Y-112827712D01*
X152446899Y-112853862D01*
X152484999Y-112874133D01*
X152529291Y-112888339D01*
X152579514Y-112896298D01*
X152620035Y-112898058D01*
X152669403Y-112894482D01*
X152713969Y-112883601D01*
X152754070Y-112865183D01*
X152790045Y-112838997D01*
X152822233Y-112804812D01*
X152850971Y-112762395D01*
X152869254Y-112727603D01*
X152888000Y-112681919D01*
X152901808Y-112633454D01*
X152910961Y-112580730D01*
X152915740Y-112522268D01*
X152916636Y-112479015D01*
X152913819Y-112407807D01*
X152905408Y-112343191D01*
X152891464Y-112285290D01*
X152872049Y-112234228D01*
X152847223Y-112190126D01*
X152817048Y-112153109D01*
X152781585Y-112123298D01*
X152740894Y-112100816D01*
X152725470Y-112094716D01*
X152710466Y-112089658D01*
X152697166Y-112086227D01*
X152683153Y-112084116D01*
X152666007Y-112083017D01*
X152643310Y-112082621D01*
X152630272Y-112082591D01*
X152596291Y-112083193D01*
X152569430Y-112085098D01*
X152547788Y-112088472D01*
X152539363Y-112090482D01*
X152492640Y-112106647D01*
X152452997Y-112128425D01*
X152420198Y-112156028D01*
X152394007Y-112189672D01*
X152374189Y-112229571D01*
X152368417Y-112245986D01*
X152361486Y-112268030D01*
X152357990Y-112282777D01*
X152358930Y-112291691D01*
X152365310Y-112296235D01*
X152378132Y-112297871D01*
X152398400Y-112298064D01*
X152404105Y-112298058D01*
X152450665Y-112298058D01*
X152325727Y-112423058D01*
X152297933Y-112450751D01*
X152272054Y-112476315D01*
X152248811Y-112499055D01*
X152228924Y-112518277D01*
X152213111Y-112533286D01*
X152202094Y-112543388D01*
X152196591Y-112547888D01*
X152196181Y-112548058D01*
X152192089Y-112544959D01*
X152182488Y-112536236D01*
X152168238Y-112522745D01*
X152150203Y-112505346D01*
X152129244Y-112484896D01*
X152106223Y-112462254D01*
X152082002Y-112438277D01*
X152057443Y-112413823D01*
X152033407Y-112389752D01*
X152010757Y-112366920D01*
X151990355Y-112346186D01*
X151973063Y-112328408D01*
X151959742Y-112314443D01*
X151951255Y-112305151D01*
X151948454Y-112301436D01*
X151952685Y-112300045D01*
X151964122Y-112298932D01*
X151980881Y-112298232D01*
X151995875Y-112298058D01*
X152017341Y-112298137D01*
X152031554Y-112297460D01*
X152040330Y-112294659D01*
X152045487Y-112288363D01*
X152048841Y-112277203D01*
X152052209Y-112259809D01*
X152053159Y-112254876D01*
X152071099Y-112185109D01*
X152096499Y-112120100D01*
X152128957Y-112060244D01*
X152168069Y-112005936D01*
X152213434Y-111957572D01*
X152264649Y-111915548D01*
X152321311Y-111880259D01*
X152383017Y-111852101D01*
X152449365Y-111831470D01*
X152493200Y-111822542D01*
X152522135Y-111819214D01*
X152557563Y-111817361D01*
X152597013Y-111816919D01*
X152638019Y-111817823D01*
G37*
G36*
X151355816Y-112389780D02*
G01*
X151357645Y-112351835D01*
X151359967Y-112318489D01*
X151362745Y-112291594D01*
X151364043Y-112282637D01*
X151383953Y-112182151D01*
X151410061Y-112087584D01*
X151442793Y-111997832D01*
X151482573Y-111911791D01*
X151529828Y-111828356D01*
X151552815Y-111792611D01*
X151578137Y-111755421D01*
X151601731Y-111722757D01*
X151625180Y-111692713D01*
X151650064Y-111663384D01*
X151677965Y-111632863D01*
X151710466Y-111599245D01*
X151727692Y-111581921D01*
X151788820Y-111523892D01*
X151849076Y-111473155D01*
X151910360Y-111428343D01*
X151974573Y-111388089D01*
X152043613Y-111351027D01*
X152059818Y-111343080D01*
X152146316Y-111305147D01*
X152233190Y-111274940D01*
X152322326Y-111251930D01*
X152415607Y-111235586D01*
X152462090Y-111229987D01*
X152491466Y-111227749D01*
X152527662Y-111226278D01*
X152568441Y-111225555D01*
X152611568Y-111225563D01*
X152654805Y-111226283D01*
X152695916Y-111227696D01*
X152732663Y-111229785D01*
X152762090Y-111232446D01*
X152865914Y-111248511D01*
X152965320Y-111272236D01*
X153060631Y-111303786D01*
X153152168Y-111343321D01*
X153240253Y-111391005D01*
X153325207Y-111447000D01*
X153407353Y-111511469D01*
X153487010Y-111584573D01*
X153514917Y-111612804D01*
X153584715Y-111691097D01*
X153646299Y-111772833D01*
X153699824Y-111858339D01*
X153745450Y-111947942D01*
X153783333Y-112041967D01*
X153813632Y-112140743D01*
X153836504Y-112244594D01*
X153844811Y-112295785D01*
X153847161Y-112318221D01*
X153848962Y-112348057D01*
X153850223Y-112383620D01*
X153850954Y-112423237D01*
X153851166Y-112465236D01*
X153850869Y-112507942D01*
X153850073Y-112549682D01*
X153848787Y-112588784D01*
X153847022Y-112623575D01*
X153844788Y-112652380D01*
X153842548Y-112670785D01*
X153823714Y-112770108D01*
X153799136Y-112863175D01*
X153768441Y-112951067D01*
X153731253Y-113034862D01*
X153689969Y-113110983D01*
X153654804Y-113166892D01*
X153617167Y-113219490D01*
X153575446Y-113270815D01*
X153528031Y-113322905D01*
X153498757Y-113352802D01*
X153418411Y-113427464D01*
X153335417Y-113493509D01*
X153249425Y-113551119D01*
X153160081Y-113600474D01*
X153067036Y-113641753D01*
X152969936Y-113675137D01*
X152868431Y-113700805D01*
X152793016Y-113714520D01*
X152777736Y-113716243D01*
X152755512Y-113717902D01*
X152727832Y-113719458D01*
X152696184Y-113720872D01*
X152662057Y-113722105D01*
X152626939Y-113723118D01*
X152592317Y-113723871D01*
X152559682Y-113724327D01*
X152530520Y-113724446D01*
X152506320Y-113724189D01*
X152488572Y-113723518D01*
X152480272Y-113722700D01*
X152470695Y-113721307D01*
X152454912Y-113719214D01*
X152435745Y-113716794D01*
X152428000Y-113715845D01*
X152329532Y-113699341D01*
X152232826Y-113674027D01*
X152138222Y-113640072D01*
X152046060Y-113597645D01*
X151956678Y-113546916D01*
X151870416Y-113488054D01*
X151787615Y-113421226D01*
X151730883Y-113368812D01*
X151655049Y-113289084D01*
X151587719Y-113206165D01*
X151528859Y-113119986D01*
X151478434Y-113030477D01*
X151436410Y-112937568D01*
X151402753Y-112841189D01*
X151377428Y-112741271D01*
X151360401Y-112637743D01*
X151357340Y-112610330D01*
X151355409Y-112583676D01*
X151354200Y-112550512D01*
X151353674Y-112512689D01*
X151353793Y-112472058D01*
X151354116Y-112453592D01*
X151581066Y-112453592D01*
X151583587Y-112547392D01*
X151584557Y-112559421D01*
X151596923Y-112654483D01*
X151617235Y-112745351D01*
X151645621Y-112832306D01*
X151682210Y-112915630D01*
X151727132Y-112995605D01*
X151780517Y-113072512D01*
X151842494Y-113146633D01*
X151866189Y-113171916D01*
X151938510Y-113241342D01*
X152013375Y-113302111D01*
X152091072Y-113354373D01*
X152171887Y-113398277D01*
X152256107Y-113433972D01*
X152344019Y-113461609D01*
X152435909Y-113481335D01*
X152470159Y-113486548D01*
X152500358Y-113489610D01*
X152537126Y-113491680D01*
X152577993Y-113492758D01*
X152620492Y-113492844D01*
X152662154Y-113491939D01*
X152700511Y-113490041D01*
X152733095Y-113487152D01*
X152737994Y-113486548D01*
X152831305Y-113470028D01*
X152921391Y-113445094D01*
X153008341Y-113411703D01*
X153092241Y-113369810D01*
X153173179Y-113319370D01*
X153251242Y-113260341D01*
X153326517Y-113192677D01*
X153334917Y-113184421D01*
X153398289Y-113116264D01*
X153453152Y-113045741D01*
X153499929Y-112972184D01*
X153539040Y-112894923D01*
X153570910Y-112813289D01*
X153572961Y-112807149D01*
X153597455Y-112719490D01*
X153614215Y-112628987D01*
X153623261Y-112536793D01*
X153624617Y-112444061D01*
X153618304Y-112351942D01*
X153604346Y-112261589D01*
X153582763Y-112174153D01*
X153559434Y-112105549D01*
X153524147Y-112026174D01*
X153480641Y-111948793D01*
X153429721Y-111874279D01*
X153372189Y-111803510D01*
X153308848Y-111737361D01*
X153240504Y-111676708D01*
X153167959Y-111622427D01*
X153092016Y-111575393D01*
X153055272Y-111555988D01*
X152972070Y-111519462D01*
X152885066Y-111490824D01*
X152795104Y-111470149D01*
X152703027Y-111457509D01*
X152609676Y-111452979D01*
X152515894Y-111456632D01*
X152422526Y-111468540D01*
X152330412Y-111488779D01*
X152319334Y-111491812D01*
X152235923Y-111519819D01*
X152154722Y-111556376D01*
X152076225Y-111601109D01*
X152000929Y-111653640D01*
X151929327Y-111713593D01*
X151861914Y-111780592D01*
X151799185Y-111854260D01*
X151745656Y-111928171D01*
X151697662Y-112008028D01*
X151657671Y-112091840D01*
X151625849Y-112178956D01*
X151602363Y-112268721D01*
X151587380Y-112360484D01*
X151581066Y-112453592D01*
X151354116Y-112453592D01*
X151354520Y-112430471D01*
X151355816Y-112389780D01*
G37*
G36*
X148689161Y-112393687D02*
G01*
X148690630Y-112354956D01*
X148692620Y-112320761D01*
X148695122Y-112292804D01*
X148696703Y-112280761D01*
X148717288Y-112176091D01*
X148746297Y-112074809D01*
X148783673Y-111977023D01*
X148815596Y-111911217D01*
X149088755Y-111911217D01*
X149089001Y-111915125D01*
X149093770Y-111917673D01*
X149105914Y-111923488D01*
X149124514Y-111932157D01*
X149148651Y-111943268D01*
X149177407Y-111956408D01*
X149209863Y-111971163D01*
X149245099Y-111987121D01*
X149282199Y-112003869D01*
X149320242Y-112020994D01*
X149358310Y-112038083D01*
X149395485Y-112054723D01*
X149430847Y-112070501D01*
X149463478Y-112085003D01*
X149492460Y-112097818D01*
X149516874Y-112108532D01*
X149535800Y-112116733D01*
X149548321Y-112122006D01*
X149553518Y-112123940D01*
X149553554Y-112123942D01*
X149557049Y-112120023D01*
X149561296Y-112110211D01*
X149562677Y-112105956D01*
X149569634Y-112089544D01*
X149581264Y-112069072D01*
X149595896Y-112046993D01*
X149611860Y-112025760D01*
X149627486Y-112007826D01*
X149633595Y-112001822D01*
X149670060Y-111973015D01*
X149711781Y-111948224D01*
X149744434Y-111933580D01*
X149768540Y-111925289D01*
X149795221Y-111917714D01*
X149821714Y-111911503D01*
X149845259Y-111907303D01*
X149863081Y-111905761D01*
X149876909Y-111905761D01*
X149876909Y-111714852D01*
X150026909Y-111714852D01*
X150026909Y-111903921D01*
X150069121Y-111909253D01*
X150132630Y-111921329D01*
X150194974Y-111941550D01*
X150242818Y-111962805D01*
X150267244Y-111975474D01*
X150289879Y-111988276D01*
X150309383Y-112000350D01*
X150324422Y-112010834D01*
X150333656Y-112018867D01*
X150335971Y-112022850D01*
X150332934Y-112026904D01*
X150324398Y-112036566D01*
X150311204Y-112050930D01*
X150294194Y-112069089D01*
X150274208Y-112090136D01*
X150255166Y-112109975D01*
X150174390Y-112193734D01*
X150142621Y-112174861D01*
X150091138Y-112148550D01*
X150039689Y-112130665D01*
X149988819Y-112121315D01*
X149939076Y-112120608D01*
X149899889Y-112126468D01*
X149870346Y-112135724D01*
X149846001Y-112148501D01*
X149828286Y-112163914D01*
X149820899Y-112175153D01*
X149815776Y-112191091D01*
X149813567Y-112209063D01*
X149814375Y-112225689D01*
X149818304Y-112237586D01*
X149818954Y-112238490D01*
X149820181Y-112239695D01*
X149822430Y-112241297D01*
X149826067Y-112243464D01*
X149831457Y-112246360D01*
X149838965Y-112250150D01*
X149848958Y-112255001D01*
X149861800Y-112261078D01*
X149877858Y-112268547D01*
X149897496Y-112277574D01*
X149921080Y-112288323D01*
X149948977Y-112300961D01*
X149981550Y-112315654D01*
X150019167Y-112332566D01*
X150062192Y-112351864D01*
X150110991Y-112373714D01*
X150165929Y-112398280D01*
X150227372Y-112425728D01*
X150295686Y-112456225D01*
X150371236Y-112489935D01*
X150454387Y-112527025D01*
X150538272Y-112564434D01*
X150607585Y-112595303D01*
X150668988Y-112622559D01*
X150722847Y-112646358D01*
X150769523Y-112666855D01*
X150809383Y-112684206D01*
X150842789Y-112698566D01*
X150870106Y-112710091D01*
X150891699Y-112718935D01*
X150907930Y-112725254D01*
X150919164Y-112729203D01*
X150925765Y-112730937D01*
X150928057Y-112730716D01*
X150930131Y-112724067D01*
X150933231Y-112710446D01*
X150936931Y-112691857D01*
X150940705Y-112670916D01*
X150953168Y-112574541D01*
X150957541Y-112478825D01*
X150953949Y-112384434D01*
X150942515Y-112292031D01*
X150923364Y-112202281D01*
X150896620Y-112115848D01*
X150862407Y-112033395D01*
X150820851Y-111955588D01*
X150800899Y-111923942D01*
X150772757Y-111882940D01*
X150745255Y-111846391D01*
X150716265Y-111811723D01*
X150683659Y-111776358D01*
X150654383Y-111746670D01*
X150582141Y-111680569D01*
X150507362Y-111623114D01*
X150429682Y-111574124D01*
X150348739Y-111533420D01*
X150264171Y-111500820D01*
X150175614Y-111476144D01*
X150082707Y-111459212D01*
X150075226Y-111458206D01*
X150015396Y-111452698D01*
X149950257Y-111450825D01*
X149882716Y-111452461D01*
X149815676Y-111457477D01*
X149752044Y-111465747D01*
X149706768Y-111474348D01*
X149626083Y-111496509D01*
X149545619Y-111526814D01*
X149467044Y-111564428D01*
X149392023Y-111608521D01*
X149322225Y-111658260D01*
X149296533Y-111679216D01*
X149275134Y-111698201D01*
X149251928Y-111720232D01*
X149227684Y-111744434D01*
X149203172Y-111769932D01*
X149179163Y-111795851D01*
X149156425Y-111821317D01*
X149135729Y-111845454D01*
X149117844Y-111867388D01*
X149103541Y-111886243D01*
X149093588Y-111901144D01*
X149088755Y-111911217D01*
X148815596Y-111911217D01*
X148829361Y-111882841D01*
X148883306Y-111792372D01*
X148945450Y-111705724D01*
X149015740Y-111623005D01*
X149056357Y-111580714D01*
X149135065Y-111508152D01*
X149217893Y-111443563D01*
X149304649Y-111387050D01*
X149395140Y-111338720D01*
X149489174Y-111298676D01*
X149586558Y-111267022D01*
X149670090Y-111247138D01*
X149699752Y-111241387D01*
X149726145Y-111236784D01*
X149750863Y-111233207D01*
X149775500Y-111230534D01*
X149801649Y-111228643D01*
X149830905Y-111227412D01*
X149864861Y-111226718D01*
X149905111Y-111226440D01*
X149940545Y-111226431D01*
X149991474Y-111226738D01*
X150035022Y-111227608D01*
X150072888Y-111229214D01*
X150106774Y-111231730D01*
X150138380Y-111235332D01*
X150169408Y-111240192D01*
X150201557Y-111246485D01*
X150236528Y-111254385D01*
X150253323Y-111258433D01*
X150352724Y-111287381D01*
X150448864Y-111324728D01*
X150541395Y-111370262D01*
X150629970Y-111423772D01*
X150714242Y-111485044D01*
X150793864Y-111553868D01*
X150868489Y-111630031D01*
X150876453Y-111638934D01*
X150942428Y-111718911D01*
X150999932Y-111800703D01*
X151049334Y-111885096D01*
X151091001Y-111972876D01*
X151125299Y-112064826D01*
X151152596Y-112161735D01*
X151173260Y-112264385D01*
X151175524Y-112278488D01*
X151178519Y-112303910D01*
X151180897Y-112336677D01*
X151182655Y-112375067D01*
X151183791Y-112417354D01*
X151184305Y-112461815D01*
X151184194Y-112506725D01*
X151183457Y-112550360D01*
X151182092Y-112590997D01*
X151180097Y-112626911D01*
X151177471Y-112656378D01*
X151175906Y-112668255D01*
X151155724Y-112773909D01*
X151128234Y-112874241D01*
X151093272Y-112969556D01*
X151050670Y-113060158D01*
X151000263Y-113146351D01*
X150941885Y-113228439D01*
X150875371Y-113306726D01*
X150800553Y-113381516D01*
X150773283Y-113406124D01*
X150688050Y-113475675D01*
X150600222Y-113536543D01*
X150509619Y-113588811D01*
X150416059Y-113632560D01*
X150319363Y-113667873D01*
X150219349Y-113694831D01*
X150115836Y-113713517D01*
X150088113Y-113717055D01*
X150068581Y-113718800D01*
X150042783Y-113720315D01*
X150012411Y-113721574D01*
X149979159Y-113722552D01*
X149944720Y-113723226D01*
X149910785Y-113723570D01*
X149879049Y-113723560D01*
X149851203Y-113723171D01*
X149828941Y-113722379D01*
X149813955Y-113721158D01*
X149813272Y-113721063D01*
X149803696Y-113719782D01*
X149787915Y-113717776D01*
X149768750Y-113715402D01*
X149761000Y-113714457D01*
X149662396Y-113697939D01*
X149565750Y-113672625D01*
X149471327Y-113638650D01*
X149379398Y-113596150D01*
X149290230Y-113545262D01*
X149204091Y-113486121D01*
X149121250Y-113418864D01*
X149054063Y-113355851D01*
X148980193Y-113276632D01*
X148914991Y-113195149D01*
X148858208Y-113110914D01*
X148809594Y-113023437D01*
X148768902Y-112932231D01*
X148735883Y-112836806D01*
X148710288Y-112736674D01*
X148694399Y-112648942D01*
X148691914Y-112626082D01*
X148690026Y-112595853D01*
X148688723Y-112559954D01*
X148687996Y-112520087D01*
X148687834Y-112477953D01*
X148687999Y-112460002D01*
X148914216Y-112460002D01*
X148914937Y-112514189D01*
X148923156Y-112608904D01*
X148938836Y-112698827D01*
X148962261Y-112784745D01*
X148993714Y-112867447D01*
X149033481Y-112947720D01*
X149081843Y-113026352D01*
X149117466Y-113076215D01*
X149138145Y-113101865D01*
X149164134Y-113131307D01*
X149193756Y-113162864D01*
X149225338Y-113194862D01*
X149257203Y-113225622D01*
X149287676Y-113253471D01*
X149315082Y-113276730D01*
X149327675Y-113286537D01*
X149406672Y-113340712D01*
X149487379Y-113386245D01*
X149570551Y-113423424D01*
X149656944Y-113452537D01*
X149747312Y-113473873D01*
X149842410Y-113487720D01*
X149858727Y-113489315D01*
X149878792Y-113490355D01*
X149905739Y-113490624D01*
X149937397Y-113490203D01*
X149971598Y-113489176D01*
X150006172Y-113487622D01*
X150038949Y-113485624D01*
X150067760Y-113483263D01*
X150090436Y-113480620D01*
X150090545Y-113480604D01*
X150181635Y-113463065D01*
X150269115Y-113437541D01*
X150353537Y-113403798D01*
X150435450Y-113361604D01*
X150515403Y-113310727D01*
X150548556Y-113286694D01*
X150574919Y-113265586D01*
X150605215Y-113239186D01*
X150637634Y-113209250D01*
X150670367Y-113177534D01*
X150701605Y-113145794D01*
X150729539Y-113115787D01*
X150752358Y-113089268D01*
X150753748Y-113087550D01*
X150771886Y-113064234D01*
X150788788Y-113041074D01*
X150803694Y-113019264D01*
X150815845Y-112999997D01*
X150824482Y-112984467D01*
X150828845Y-112973869D01*
X150828684Y-112969678D01*
X150824155Y-112967418D01*
X150812243Y-112961883D01*
X150793873Y-112953487D01*
X150769970Y-112942646D01*
X150741459Y-112929773D01*
X150709267Y-112915281D01*
X150674318Y-112899584D01*
X150637538Y-112883098D01*
X150599854Y-112866235D01*
X150562189Y-112849410D01*
X150525469Y-112833036D01*
X150490621Y-112817527D01*
X150458569Y-112803298D01*
X150430239Y-112790763D01*
X150406557Y-112780335D01*
X150388447Y-112772428D01*
X150376836Y-112767456D01*
X150373917Y-112766263D01*
X150369717Y-112769124D01*
X150364667Y-112779550D01*
X150361004Y-112790662D01*
X150344815Y-112832626D01*
X150321291Y-112874101D01*
X150292031Y-112912905D01*
X150258631Y-112946854D01*
X150230817Y-112968505D01*
X150189891Y-112992674D01*
X150145284Y-113012824D01*
X150099940Y-113027806D01*
X150056803Y-113036474D01*
X150056454Y-113036517D01*
X150029181Y-113039884D01*
X150027955Y-113136459D01*
X150026728Y-113233033D01*
X149876909Y-113233033D01*
X149876909Y-113042848D01*
X149846227Y-113039915D01*
X149799192Y-113033849D01*
X149753065Y-113024987D01*
X149711596Y-113014069D01*
X149705626Y-113012175D01*
X149671795Y-112999218D01*
X149634229Y-112981600D01*
X149595833Y-112960868D01*
X149559510Y-112938569D01*
X149534012Y-112920729D01*
X149494283Y-112890911D01*
X149523060Y-112860836D01*
X149550948Y-112831837D01*
X149577533Y-112804472D01*
X149602095Y-112779460D01*
X149623913Y-112757522D01*
X149642266Y-112739377D01*
X149656433Y-112725744D01*
X149665695Y-112717344D01*
X149669220Y-112714852D01*
X149674278Y-112717485D01*
X149684587Y-112724529D01*
X149698309Y-112734699D01*
X149705093Y-112739942D01*
X149754240Y-112773054D01*
X149806667Y-112798332D01*
X149861354Y-112815409D01*
X149917281Y-112823917D01*
X149940545Y-112824844D01*
X149984873Y-112822371D01*
X150022217Y-112814360D01*
X150052490Y-112800875D01*
X150075607Y-112781977D01*
X150091481Y-112757730D01*
X150100028Y-112728194D01*
X150101606Y-112707684D01*
X150101252Y-112689153D01*
X150099144Y-112675882D01*
X150094345Y-112664077D01*
X150088272Y-112653670D01*
X150083453Y-112646242D01*
X150078578Y-112640140D01*
X150072414Y-112634636D01*
X150063729Y-112628999D01*
X150051290Y-112622499D01*
X150033863Y-112614408D01*
X150010217Y-112603995D01*
X149988272Y-112594489D01*
X149972980Y-112587870D01*
X149957801Y-112581281D01*
X149942243Y-112574503D01*
X149925817Y-112567318D01*
X149908032Y-112559509D01*
X149888399Y-112550857D01*
X149866427Y-112541144D01*
X149841626Y-112530154D01*
X149813505Y-112517667D01*
X149781575Y-112503466D01*
X149745346Y-112487334D01*
X149704326Y-112469051D01*
X149658027Y-112448402D01*
X149605957Y-112425166D01*
X149547627Y-112399127D01*
X149482547Y-112370068D01*
X149410226Y-112337769D01*
X149330174Y-112302013D01*
X149316614Y-112295956D01*
X149263898Y-112272419D01*
X149213596Y-112249980D01*
X149166320Y-112228912D01*
X149122686Y-112209487D01*
X149083308Y-112191979D01*
X149048801Y-112176660D01*
X149019779Y-112163804D01*
X148996857Y-112153682D01*
X148980649Y-112146569D01*
X148971770Y-112142736D01*
X148970221Y-112142124D01*
X148967511Y-112146288D01*
X148963251Y-112157703D01*
X148957894Y-112174754D01*
X148951899Y-112195824D01*
X148945721Y-112219299D01*
X148939816Y-112243564D01*
X148934641Y-112267002D01*
X148933833Y-112270955D01*
X148923838Y-112331561D01*
X148917194Y-112395931D01*
X148914216Y-112460002D01*
X148687999Y-112460002D01*
X148688226Y-112435253D01*
X148689161Y-112393687D01*
G37*
G36*
X143354541Y-112430355D02*
G01*
X143354847Y-112397468D01*
X143355420Y-112370674D01*
X143356342Y-112348473D01*
X143357692Y-112329366D01*
X143359551Y-112311854D01*
X143362000Y-112294439D01*
X143364766Y-112277651D01*
X143387532Y-112170659D01*
X143418200Y-112068127D01*
X143456871Y-111969846D01*
X143503646Y-111875609D01*
X143558627Y-111785208D01*
X143621914Y-111698434D01*
X143678665Y-111631406D01*
X143754491Y-111553572D01*
X143834254Y-111483920D01*
X143917931Y-111422465D01*
X144005496Y-111369219D01*
X144096924Y-111324196D01*
X144192190Y-111287408D01*
X144291268Y-111258869D01*
X144394135Y-111238591D01*
X144441238Y-111232214D01*
X144475933Y-111229112D01*
X144517278Y-111226958D01*
X144562884Y-111225752D01*
X144610362Y-111225493D01*
X144657320Y-111226182D01*
X144701368Y-111227818D01*
X144740117Y-111230400D01*
X144758555Y-111232253D01*
X144810179Y-111239384D01*
X144863417Y-111248710D01*
X144914872Y-111259567D01*
X144961144Y-111271291D01*
X144967415Y-111273079D01*
X145062313Y-111305269D01*
X145154812Y-111345893D01*
X145244242Y-111394458D01*
X145329932Y-111450473D01*
X145411214Y-111513446D01*
X145487417Y-111582885D01*
X145557871Y-111658300D01*
X145621906Y-111739197D01*
X145642571Y-111768560D01*
X145695341Y-111853849D01*
X145741208Y-111944619D01*
X145779875Y-112040105D01*
X145811046Y-112139544D01*
X145834424Y-112242171D01*
X145840903Y-112279924D01*
X145843943Y-112304922D01*
X145846517Y-112337101D01*
X145848587Y-112374559D01*
X145850114Y-112415395D01*
X145851060Y-112457710D01*
X145851386Y-112499602D01*
X145851053Y-112539171D01*
X145850022Y-112574515D01*
X145848254Y-112603734D01*
X145847641Y-112610378D01*
X145832669Y-112716261D01*
X145809661Y-112818588D01*
X145778735Y-112917016D01*
X145740012Y-113011202D01*
X145693610Y-113100803D01*
X145654553Y-113163726D01*
X145627325Y-113203330D01*
X145601483Y-113238139D01*
X145575016Y-113270584D01*
X145545918Y-113303096D01*
X145512180Y-113338105D01*
X145502180Y-113348136D01*
X145420978Y-113422965D01*
X145335438Y-113489869D01*
X145245759Y-113548752D01*
X145152140Y-113599518D01*
X145054779Y-113642071D01*
X144953876Y-113676314D01*
X144849629Y-113702153D01*
X144742236Y-113719490D01*
X144731545Y-113720729D01*
X144715321Y-113721960D01*
X144691896Y-113722964D01*
X144663160Y-113723731D01*
X144631001Y-113724249D01*
X144597307Y-113724508D01*
X144563966Y-113724498D01*
X144532868Y-113724207D01*
X144505900Y-113723626D01*
X144484950Y-113722744D01*
X144477000Y-113722157D01*
X144428023Y-113716002D01*
X144373694Y-113706418D01*
X144316792Y-113694044D01*
X144260095Y-113679521D01*
X144206380Y-113663489D01*
X144173571Y-113652268D01*
X144108020Y-113625583D01*
X144039937Y-113592568D01*
X143971648Y-113554574D01*
X143905477Y-113512953D01*
X143843752Y-113469058D01*
X143804272Y-113437566D01*
X143785334Y-113420971D01*
X143762407Y-113399841D01*
X143737711Y-113376281D01*
X143713467Y-113352395D01*
X143699455Y-113338161D01*
X143628065Y-113258418D01*
X143564788Y-113174671D01*
X143509563Y-113086797D01*
X143462332Y-112994677D01*
X143423034Y-112898188D01*
X143391611Y-112797209D01*
X143368004Y-112691620D01*
X143360399Y-112645833D01*
X143358033Y-112623780D01*
X143356263Y-112593133D01*
X143355086Y-112553761D01*
X143354496Y-112505531D01*
X143354433Y-112475379D01*
X143581857Y-112475379D01*
X143582709Y-112528563D01*
X143585502Y-112575737D01*
X143590590Y-112619844D01*
X143598328Y-112663824D01*
X143609071Y-112710621D01*
X143611260Y-112719218D01*
X143638942Y-112808543D01*
X143675009Y-112895000D01*
X143719061Y-112978045D01*
X143770693Y-113057137D01*
X143829504Y-113131733D01*
X143895092Y-113201292D01*
X143967053Y-113265270D01*
X144044987Y-113323126D01*
X144072854Y-113341357D01*
X144150744Y-113385388D01*
X144233444Y-113422221D01*
X144319904Y-113451605D01*
X144409071Y-113473292D01*
X144499894Y-113487031D01*
X144591322Y-113492571D01*
X144682302Y-113489664D01*
X144692909Y-113488756D01*
X144782422Y-113476267D01*
X144871973Y-113455368D01*
X144959791Y-113426556D01*
X145044104Y-113390332D01*
X145046412Y-113389209D01*
X145083570Y-113370599D01*
X145115364Y-113353463D01*
X145144483Y-113336158D01*
X145173616Y-113317042D01*
X145205450Y-113294470D01*
X145224727Y-113280255D01*
X145298248Y-113220199D01*
X145364993Y-113154732D01*
X145424651Y-113084311D01*
X145476917Y-113009399D01*
X145521480Y-112930453D01*
X145558033Y-112847935D01*
X145586268Y-112762305D01*
X145595078Y-112727651D01*
X145613354Y-112630306D01*
X145622808Y-112533558D01*
X145623594Y-112437854D01*
X145615863Y-112343641D01*
X145599766Y-112251367D01*
X145575455Y-112161479D01*
X145543082Y-112074424D01*
X145502799Y-111990651D01*
X145454757Y-111910605D01*
X145399109Y-111834736D01*
X145336006Y-111763490D01*
X145265600Y-111697314D01*
X145237658Y-111674146D01*
X145164145Y-111620233D01*
X145087283Y-111573413D01*
X145008166Y-111534260D01*
X144927887Y-111503347D01*
X144890636Y-111491987D01*
X144800892Y-111471290D01*
X144709133Y-111458527D01*
X144616405Y-111453622D01*
X144523751Y-111456500D01*
X144432215Y-111467086D01*
X144342843Y-111485305D01*
X144256678Y-111511082D01*
X144176982Y-111543313D01*
X144101633Y-111582844D01*
X144028426Y-111630517D01*
X143958217Y-111685476D01*
X143891866Y-111746863D01*
X143830230Y-111813820D01*
X143774165Y-111885490D01*
X143724530Y-111961016D01*
X143683651Y-112036507D01*
X143648938Y-112114476D01*
X143621948Y-112190372D01*
X143602236Y-112266110D01*
X143589358Y-112343608D01*
X143582869Y-112424784D01*
X143581857Y-112475379D01*
X143354433Y-112475379D01*
X143354424Y-112470833D01*
X143354541Y-112430355D01*
G37*
G36*
X144986090Y-112087426D02*
G01*
X145017006Y-112087857D01*
X145041059Y-112088861D01*
X145060470Y-112090646D01*
X145077461Y-112093419D01*
X145094254Y-112097389D01*
X145095181Y-112097637D01*
X145141307Y-112112544D01*
X145181053Y-112131229D01*
X145216791Y-112155011D01*
X145248833Y-112183177D01*
X145262544Y-112197677D01*
X145276490Y-112214189D01*
X145289444Y-112231025D01*
X145300180Y-112246497D01*
X145307473Y-112258918D01*
X145310097Y-112266600D01*
X145309981Y-112267344D01*
X145305891Y-112270263D01*
X145295221Y-112276620D01*
X145279435Y-112285619D01*
X145259998Y-112296463D01*
X145238372Y-112308357D01*
X145216024Y-112320503D01*
X145194415Y-112332105D01*
X145175012Y-112342367D01*
X145159277Y-112350492D01*
X145148676Y-112355684D01*
X145144793Y-112357197D01*
X145141844Y-112353646D01*
X145135985Y-112344586D01*
X145131955Y-112337879D01*
X145114001Y-112313329D01*
X145091224Y-112291081D01*
X145066645Y-112273941D01*
X145058818Y-112269959D01*
X145031976Y-112261735D01*
X145001113Y-112258730D01*
X144969625Y-112260906D01*
X144940908Y-112268225D01*
X144933515Y-112271336D01*
X144903969Y-112289683D01*
X144880045Y-112314550D01*
X144861442Y-112346348D01*
X144847857Y-112385490D01*
X144846962Y-112389015D01*
X144843477Y-112409686D01*
X144841356Y-112436232D01*
X144840569Y-112466079D01*
X144841085Y-112496648D01*
X144842872Y-112525362D01*
X144845898Y-112549644D01*
X144849090Y-112563821D01*
X144864171Y-112603567D01*
X144883007Y-112635518D01*
X144906127Y-112660378D01*
X144934060Y-112678851D01*
X144936282Y-112679959D01*
X144948465Y-112685262D01*
X144960446Y-112688562D01*
X144974970Y-112690304D01*
X144994782Y-112690934D01*
X145004272Y-112690974D01*
X145026833Y-112690649D01*
X145043074Y-112689376D01*
X145055753Y-112686708D01*
X145067626Y-112682200D01*
X145072454Y-112679933D01*
X145094478Y-112666116D01*
X145115893Y-112647299D01*
X145133928Y-112626239D01*
X145144841Y-112607952D01*
X145151180Y-112596606D01*
X145157319Y-112589844D01*
X145159473Y-112589015D01*
X145165665Y-112590957D01*
X145178038Y-112596265D01*
X145195054Y-112604166D01*
X145215177Y-112613884D01*
X145236870Y-112624646D01*
X145258595Y-112635676D01*
X145278817Y-112646200D01*
X145295999Y-112655443D01*
X145308603Y-112662631D01*
X145315092Y-112666989D01*
X145315636Y-112667726D01*
X145312967Y-112674431D01*
X145305845Y-112686259D01*
X145295600Y-112701317D01*
X145283560Y-112717712D01*
X145271055Y-112733552D01*
X145262031Y-112744082D01*
X145228514Y-112775998D01*
X145188717Y-112805081D01*
X145145328Y-112829703D01*
X145101034Y-112848236D01*
X145079272Y-112854741D01*
X145057595Y-112858767D01*
X145029722Y-112861786D01*
X144998501Y-112863687D01*
X144966783Y-112864359D01*
X144937416Y-112863690D01*
X144913252Y-112861570D01*
X144911269Y-112861280D01*
X144856295Y-112848773D01*
X144806114Y-112828673D01*
X144760015Y-112800619D01*
X144717284Y-112764250D01*
X144715169Y-112762154D01*
X144696132Y-112742449D01*
X144681956Y-112725695D01*
X144670530Y-112709005D01*
X144659742Y-112689498D01*
X144654969Y-112679924D01*
X144635417Y-112633648D01*
X144621916Y-112586443D01*
X144614116Y-112536405D01*
X144611669Y-112481626D01*
X144612509Y-112448106D01*
X144616377Y-112401039D01*
X144623772Y-112359541D01*
X144635451Y-112320523D01*
X144652171Y-112280896D01*
X144654833Y-112275379D01*
X144664853Y-112255842D01*
X144674496Y-112239849D01*
X144685532Y-112225033D01*
X144699735Y-112209026D01*
X144718876Y-112189462D01*
X144719960Y-112188382D01*
X144739954Y-112168959D01*
X144756268Y-112154551D01*
X144771277Y-112143391D01*
X144787358Y-112133712D01*
X144806855Y-112123763D01*
X144835497Y-112110614D01*
X144860990Y-112100936D01*
X144885685Y-112094251D01*
X144911930Y-112090084D01*
X144942077Y-112087958D01*
X144978474Y-112087396D01*
X144986090Y-112087426D01*
G37*
G36*
X144281545Y-112086071D02*
G01*
X144343435Y-112092722D01*
X144399571Y-112106354D01*
X144450132Y-112127064D01*
X144495298Y-112154945D01*
X144535252Y-112190095D01*
X144570171Y-112232607D01*
X144576771Y-112242311D01*
X144583650Y-112254442D01*
X144587175Y-112264101D01*
X144587191Y-112267311D01*
X144582897Y-112270578D01*
X144571990Y-112277239D01*
X144555924Y-112286502D01*
X144536156Y-112297572D01*
X144514140Y-112309656D01*
X144491330Y-112321960D01*
X144469184Y-112333691D01*
X144449155Y-112344055D01*
X144432698Y-112352257D01*
X144423981Y-112356334D01*
X144420108Y-112353557D01*
X144413114Y-112344920D01*
X144405213Y-112333360D01*
X144380780Y-112302281D01*
X144352551Y-112279290D01*
X144320835Y-112264555D01*
X144285942Y-112258243D01*
X144267123Y-112258316D01*
X144229966Y-112264484D01*
X144198084Y-112278014D01*
X144171534Y-112298828D01*
X144150373Y-112326844D01*
X144134656Y-112361982D01*
X144124441Y-112404161D01*
X144119783Y-112453302D01*
X144119481Y-112468560D01*
X144121472Y-112517571D01*
X144128161Y-112559668D01*
X144139872Y-112595909D01*
X144156927Y-112627348D01*
X144175115Y-112650274D01*
X144195729Y-112668843D01*
X144218602Y-112681371D01*
X144245652Y-112688580D01*
X144278796Y-112691193D01*
X144283818Y-112691233D01*
X144307056Y-112690785D01*
X144324064Y-112689097D01*
X144337666Y-112685744D01*
X144348010Y-112681569D01*
X144376394Y-112664071D01*
X144401873Y-112640014D01*
X144421145Y-112613007D01*
X144428942Y-112600317D01*
X144435498Y-112591620D01*
X144438850Y-112589015D01*
X144444585Y-112591005D01*
X144456685Y-112596431D01*
X144473549Y-112604481D01*
X144493575Y-112614339D01*
X144515159Y-112625192D01*
X144536699Y-112636227D01*
X144556594Y-112646628D01*
X144573239Y-112655583D01*
X144585034Y-112662277D01*
X144590375Y-112665896D01*
X144590476Y-112666030D01*
X144589771Y-112672665D01*
X144583986Y-112684506D01*
X144574155Y-112700032D01*
X144561313Y-112717719D01*
X144546491Y-112736043D01*
X144532097Y-112752052D01*
X144490063Y-112789736D01*
X144443022Y-112820080D01*
X144391585Y-112842891D01*
X144336362Y-112857975D01*
X144277968Y-112865137D01*
X144217012Y-112864184D01*
X144188363Y-112860979D01*
X144136160Y-112849271D01*
X144086628Y-112829718D01*
X144040833Y-112803075D01*
X143999836Y-112770096D01*
X143964704Y-112731536D01*
X143936500Y-112688149D01*
X143931900Y-112679195D01*
X143918258Y-112649933D01*
X143907968Y-112623535D01*
X143900579Y-112597837D01*
X143895645Y-112570670D01*
X143892714Y-112539868D01*
X143891340Y-112503264D01*
X143891097Y-112482197D01*
X143891134Y-112448715D01*
X143891758Y-112422366D01*
X143893101Y-112401205D01*
X143895292Y-112383284D01*
X143898465Y-112366659D01*
X143899066Y-112364015D01*
X143916363Y-112307767D01*
X143940637Y-112257095D01*
X143971442Y-112212320D01*
X144008334Y-112173766D01*
X144050870Y-112141755D01*
X144098605Y-112116611D01*
X144151094Y-112098655D01*
X144207894Y-112088212D01*
X144268561Y-112085603D01*
X144281545Y-112086071D01*
G37*
G36*
X149548190Y-109471615D02*
G01*
X149515148Y-109537497D01*
X149483806Y-109605066D01*
X149460266Y-109666918D01*
X149445117Y-109721406D01*
X149440885Y-109745278D01*
X149435356Y-109785821D01*
X149407346Y-109728385D01*
X149394470Y-109702871D01*
X149386497Y-109689328D01*
X149383088Y-109687275D01*
X149383594Y-109694600D01*
X149392964Y-109732116D01*
X149407947Y-109774973D01*
X149427201Y-109820579D01*
X149449385Y-109866346D01*
X149473158Y-109909680D01*
X149497178Y-109947994D01*
X149520105Y-109978694D01*
X149540596Y-109999192D01*
X149541738Y-110000054D01*
X149558860Y-110015402D01*
X149564578Y-110030161D01*
X149559931Y-110048803D01*
X149555333Y-110058487D01*
X149548379Y-110071059D01*
X149535475Y-110093381D01*
X149517698Y-110123659D01*
X149496121Y-110160100D01*
X149471819Y-110200908D01*
X149445869Y-110244290D01*
X149419345Y-110288451D01*
X149393321Y-110331597D01*
X149368873Y-110371932D01*
X149347077Y-110407664D01*
X149329007Y-110436997D01*
X149318429Y-110453903D01*
X149289054Y-110500330D01*
X149241186Y-110497113D01*
X149197170Y-110492809D01*
X149161077Y-110485451D01*
X149129263Y-110473449D01*
X149098083Y-110455217D01*
X149063894Y-110429166D01*
X149041628Y-110410181D01*
X149016236Y-110388157D01*
X148994627Y-110369754D01*
X148978746Y-110356604D01*
X148970540Y-110350339D01*
X148969904Y-110350040D01*
X148968558Y-110356188D01*
X148967967Y-110372223D01*
X148968205Y-110392272D01*
X148969455Y-110434504D01*
X148971977Y-110397880D01*
X148974498Y-110361256D01*
X149031541Y-110418002D01*
X149088583Y-110474748D01*
X149088583Y-110628839D01*
X149088318Y-110689312D01*
X149087015Y-110737634D01*
X149083913Y-110775166D01*
X149078252Y-110803267D01*
X149069271Y-110823300D01*
X149056208Y-110836623D01*
X149038304Y-110844598D01*
X149014797Y-110848586D01*
X148984927Y-110849946D01*
X148964869Y-110850067D01*
X148901298Y-110850067D01*
X148893012Y-110767292D01*
X148889690Y-110735473D01*
X148886665Y-110708984D01*
X148884257Y-110690475D01*
X148882789Y-110682597D01*
X148882734Y-110682516D01*
X148880566Y-110687177D01*
X148877731Y-110703400D01*
X148874479Y-110729263D01*
X148871056Y-110762844D01*
X148868333Y-110794320D01*
X148863853Y-110850067D01*
X148725203Y-110850067D01*
X148721388Y-110828106D01*
X148719011Y-110810838D01*
X148716192Y-110785121D01*
X148713473Y-110755981D01*
X148713018Y-110750532D01*
X148710380Y-110725542D01*
X148707301Y-110707178D01*
X148704316Y-110698351D01*
X148703374Y-110698064D01*
X148700594Y-110705781D01*
X148697501Y-110723719D01*
X148694609Y-110748614D01*
X148693572Y-110760434D01*
X148690861Y-110796637D01*
X148688079Y-110821567D01*
X148683098Y-110837309D01*
X148673792Y-110845946D01*
X148658032Y-110849562D01*
X148633691Y-110850242D01*
X148602071Y-110850067D01*
X148568009Y-110850247D01*
X148544475Y-110849399D01*
X148529343Y-110845439D01*
X148520485Y-110836282D01*
X148515773Y-110819845D01*
X148513079Y-110794042D01*
X148510570Y-110760434D01*
X148507917Y-110733582D01*
X148504847Y-110712305D01*
X148501872Y-110699869D01*
X148500767Y-110698064D01*
X148497946Y-110702778D01*
X148494839Y-110718069D01*
X148491982Y-110741026D01*
X148491124Y-110750532D01*
X148488485Y-110779754D01*
X148485643Y-110806498D01*
X148483142Y-110825737D01*
X148482754Y-110828106D01*
X148478939Y-110850067D01*
X148340288Y-110850067D01*
X148335809Y-110794320D01*
X148332429Y-110755904D01*
X148329019Y-110723652D01*
X148325827Y-110699487D01*
X148323102Y-110685330D01*
X148321408Y-110682516D01*
X148320011Y-110689613D01*
X148317655Y-110707513D01*
X148314660Y-110733565D01*
X148311347Y-110765118D01*
X148311129Y-110767292D01*
X148302844Y-110850067D01*
X148237919Y-110850041D01*
X148204441Y-110849442D01*
X148181049Y-110847336D01*
X148164353Y-110843215D01*
X148151916Y-110837163D01*
X148141079Y-110829456D01*
X148132614Y-110820010D01*
X148126235Y-110807168D01*
X148121654Y-110789273D01*
X148118584Y-110764668D01*
X148116736Y-110731697D01*
X148115824Y-110688701D01*
X148115560Y-110634024D01*
X148115558Y-110627613D01*
X148115558Y-110511768D01*
X148455812Y-110511768D01*
X148456352Y-110512211D01*
X148463776Y-110509516D01*
X148480696Y-110502230D01*
X148504397Y-110491547D01*
X148525461Y-110481804D01*
X148553470Y-110469203D01*
X148577803Y-110459150D01*
X148595350Y-110452878D01*
X148602071Y-110451397D01*
X148612710Y-110454147D01*
X148632422Y-110461582D01*
X148658126Y-110472476D01*
X148679523Y-110482198D01*
X148706456Y-110494530D01*
X148728422Y-110504108D01*
X148742847Y-110509840D01*
X148747235Y-110510915D01*
X148744863Y-110504444D01*
X148736814Y-110488411D01*
X148724269Y-110464897D01*
X148708408Y-110435985D01*
X148690413Y-110403756D01*
X148671464Y-110370294D01*
X148652743Y-110337680D01*
X148635430Y-110307997D01*
X148620705Y-110283327D01*
X148609750Y-110265752D01*
X148603746Y-110257354D01*
X148603207Y-110256945D01*
X148598065Y-110261880D01*
X148587670Y-110276887D01*
X148573167Y-110300133D01*
X148555702Y-110329786D01*
X148537779Y-110361555D01*
X148517785Y-110397587D01*
X148499137Y-110431002D01*
X148483188Y-110459386D01*
X148471295Y-110480326D01*
X148465519Y-110490250D01*
X148458051Y-110504209D01*
X148455812Y-110511768D01*
X148115558Y-110511768D01*
X148115558Y-110474748D01*
X148172601Y-110418002D01*
X148229643Y-110361256D01*
X148234687Y-110434504D01*
X148235937Y-110392272D01*
X148236155Y-110370397D01*
X148235487Y-110355135D01*
X148234238Y-110350040D01*
X148228355Y-110354240D01*
X148214289Y-110365751D01*
X148193985Y-110382942D01*
X148169393Y-110404178D01*
X148162514Y-110410181D01*
X148124972Y-110441406D01*
X148092521Y-110463906D01*
X148061516Y-110479270D01*
X148028312Y-110489085D01*
X147989265Y-110494938D01*
X147962956Y-110497113D01*
X147915088Y-110500330D01*
X147885712Y-110453903D01*
X147871191Y-110430630D01*
X147852128Y-110399596D01*
X147829596Y-110362594D01*
X147804672Y-110321420D01*
X147778430Y-110277867D01*
X147751945Y-110233729D01*
X147726293Y-110190802D01*
X147702548Y-110150879D01*
X147681786Y-110115755D01*
X147665081Y-110087224D01*
X147653509Y-110067081D01*
X147648809Y-110058487D01*
X147640257Y-110036997D01*
X147641648Y-110021203D01*
X147654022Y-110006633D01*
X147662404Y-110000054D01*
X147682703Y-109980263D01*
X147705520Y-109950111D01*
X147729511Y-109912188D01*
X147753338Y-109869086D01*
X147775657Y-109823394D01*
X147789116Y-109791811D01*
X147914738Y-109791811D01*
X147914786Y-109799601D01*
X147917821Y-109818322D01*
X147923327Y-109845852D01*
X147930789Y-109880072D01*
X147939692Y-109918859D01*
X147949520Y-109960092D01*
X147959760Y-110001649D01*
X147969895Y-110041410D01*
X147979411Y-110077252D01*
X147987793Y-110107056D01*
X147994524Y-110128698D01*
X147999091Y-110140059D01*
X147999424Y-110140569D01*
X148014656Y-110155287D01*
X148036961Y-110169939D01*
X148061124Y-110181668D01*
X148081929Y-110187618D01*
X148085767Y-110187869D01*
X148095567Y-110185669D01*
X148116422Y-110179434D01*
X148146669Y-110169714D01*
X148184651Y-110157057D01*
X148228706Y-110142012D01*
X148277176Y-110125129D01*
X148302252Y-110116274D01*
X148351808Y-110098606D01*
X148397267Y-110082226D01*
X148437062Y-110067714D01*
X148469624Y-110055647D01*
X148493387Y-110046603D01*
X148506783Y-110041162D01*
X148509131Y-110039948D01*
X148509083Y-110039915D01*
X148694982Y-110039915D01*
X148695011Y-110039953D01*
X148703222Y-110043987D01*
X148722354Y-110051663D01*
X148750518Y-110062317D01*
X148785823Y-110075288D01*
X148826380Y-110089913D01*
X148870300Y-110105530D01*
X148915692Y-110121477D01*
X148960667Y-110137092D01*
X149003335Y-110151712D01*
X149041807Y-110164675D01*
X149074192Y-110175319D01*
X149098601Y-110182982D01*
X149113145Y-110187001D01*
X149115869Y-110187443D01*
X149132114Y-110184648D01*
X149153326Y-110177090D01*
X149162773Y-110172666D01*
X149183291Y-110159991D01*
X149200179Y-110145839D01*
X149204717Y-110140569D01*
X149209027Y-110130413D01*
X149215555Y-110109752D01*
X149223787Y-110080707D01*
X149233208Y-110045400D01*
X149243302Y-110005951D01*
X149253555Y-109964483D01*
X149263451Y-109923116D01*
X149272476Y-109883972D01*
X149280114Y-109849173D01*
X149285849Y-109820839D01*
X149289168Y-109801092D01*
X149289555Y-109792053D01*
X149289404Y-109791811D01*
X149282673Y-109793634D01*
X149264698Y-109800178D01*
X149236704Y-109810953D01*
X149199918Y-109825474D01*
X149155566Y-109843251D01*
X149104872Y-109863796D01*
X149049064Y-109886622D01*
X148989367Y-109911240D01*
X148987986Y-109911812D01*
X148928480Y-109936591D01*
X148873140Y-109959903D01*
X148823151Y-109981229D01*
X148779700Y-110000050D01*
X148743971Y-110015848D01*
X148717152Y-110028104D01*
X148700427Y-110036299D01*
X148694982Y-110039915D01*
X148509083Y-110039915D01*
X148504109Y-110036505D01*
X148487764Y-110028464D01*
X148461283Y-110016345D01*
X148425851Y-110000665D01*
X148382653Y-109981943D01*
X148332876Y-109960697D01*
X148277706Y-109937448D01*
X148218328Y-109912712D01*
X148216156Y-109911812D01*
X148156385Y-109887159D01*
X148100476Y-109864288D01*
X148049654Y-109843686D01*
X148005145Y-109825841D01*
X147968175Y-109811241D01*
X147939969Y-109800376D01*
X147921755Y-109793731D01*
X147914757Y-109791797D01*
X147914738Y-109791811D01*
X147789116Y-109791811D01*
X147795128Y-109777703D01*
X147810410Y-109734604D01*
X147820162Y-109696688D01*
X147820548Y-109694600D01*
X147820876Y-109686933D01*
X147816940Y-109690330D01*
X147808401Y-109705274D01*
X147796795Y-109728385D01*
X147768786Y-109785821D01*
X147763256Y-109745278D01*
X147752504Y-109695071D01*
X147733068Y-109636679D01*
X147705537Y-109571750D01*
X147688994Y-109537497D01*
X147655951Y-109471615D01*
X147602018Y-109471615D01*
X147602018Y-110012184D01*
X147218327Y-110012184D01*
X147213827Y-110030114D01*
X147200888Y-110059709D01*
X147178686Y-110089020D01*
X147150843Y-110113692D01*
X147137214Y-110122242D01*
X147101234Y-110135784D01*
X147060977Y-110141248D01*
X147021394Y-110138450D01*
X146988452Y-110127734D01*
X146948925Y-110100731D01*
X146920362Y-110065998D01*
X146903242Y-110024310D01*
X146898011Y-109981366D01*
X146899696Y-109967199D01*
X146962334Y-109967199D01*
X146963719Y-109997769D01*
X146976015Y-110027644D01*
X146997032Y-110052814D01*
X147016181Y-110065699D01*
X147039856Y-110075953D01*
X147058637Y-110078932D01*
X147078856Y-110074890D01*
X147095184Y-110068851D01*
X147123815Y-110050948D01*
X147143409Y-110025589D01*
X147153484Y-109995699D01*
X147153561Y-109964203D01*
X147143158Y-109934026D01*
X147121797Y-109908094D01*
X147121612Y-109907939D01*
X147091933Y-109890784D01*
X147060026Y-109885209D01*
X147028591Y-109890211D01*
X147000327Y-109904785D01*
X146977933Y-109927926D01*
X146964107Y-109958632D01*
X146962334Y-109967199D01*
X146899696Y-109967199D01*
X146903667Y-109933803D01*
X146920760Y-109892999D01*
X146948597Y-109859893D01*
X146986485Y-109835422D01*
X147013112Y-109825462D01*
X147059019Y-109818490D01*
X147102786Y-109824166D01*
X147142711Y-109841630D01*
X147177091Y-109870023D01*
X147204223Y-109908484D01*
X147212528Y-109926158D01*
X147223036Y-109951625D01*
X147531068Y-109947991D01*
X147532844Y-109709803D01*
X147534619Y-109471615D01*
X146872625Y-109471615D01*
X146858069Y-109505450D01*
X146834338Y-109545129D01*
X146802142Y-109574471D01*
X146762335Y-109592928D01*
X146715771Y-109599948D01*
X146711121Y-109600000D01*
X146663283Y-109594221D01*
X146622543Y-109577086D01*
X146589394Y-109548899D01*
X146564328Y-109509966D01*
X146563901Y-109509055D01*
X146549398Y-109463832D01*
X146548629Y-109434525D01*
X146615479Y-109434525D01*
X146620953Y-109471838D01*
X146636615Y-109502202D01*
X146661319Y-109523901D01*
X146680634Y-109532238D01*
X146699026Y-109537146D01*
X146712694Y-109537971D01*
X146729025Y-109534732D01*
X146737609Y-109532401D01*
X146767431Y-109517366D01*
X146790152Y-109491376D01*
X146800967Y-109468003D01*
X146806039Y-109434430D01*
X146805871Y-109433783D01*
X150398739Y-109433783D01*
X150402251Y-109467229D01*
X150418414Y-109499046D01*
X150427233Y-109509568D01*
X150452359Y-109527135D01*
X150483355Y-109535341D01*
X150515955Y-109533761D01*
X150545894Y-109521972D01*
X150546754Y-109521426D01*
X150569324Y-109499289D01*
X150583864Y-109468772D01*
X150588638Y-109435878D01*
X150587396Y-109415429D01*
X150581977Y-109399910D01*
X150569901Y-109383632D01*
X150562119Y-109375064D01*
X150546486Y-109359196D01*
X150533862Y-109350690D01*
X150518820Y-109347257D01*
X150495936Y-109346609D01*
X150494661Y-109346608D01*
X150470885Y-109347301D01*
X150455216Y-109350714D01*
X150442266Y-109358853D01*
X150429524Y-109370830D01*
X150407842Y-109400915D01*
X150398739Y-109433783D01*
X146805871Y-109433783D01*
X146797739Y-109402460D01*
X146776146Y-109372380D01*
X146774618Y-109370830D01*
X146759782Y-109357165D01*
X146746761Y-109349909D01*
X146730166Y-109347061D01*
X146709481Y-109346608D01*
X146686126Y-109347187D01*
X146670853Y-109350449D01*
X146658236Y-109358683D01*
X146642850Y-109374178D01*
X146642022Y-109375064D01*
X146626247Y-109393600D01*
X146618275Y-109408959D01*
X146615616Y-109426720D01*
X146615479Y-109434525D01*
X146548629Y-109434525D01*
X146548245Y-109419902D01*
X146560285Y-109378098D01*
X146585364Y-109339250D01*
X146598399Y-109325319D01*
X146620977Y-109304995D01*
X146640506Y-109292380D01*
X146662146Y-109284447D01*
X146672264Y-109281970D01*
X146717914Y-109277876D01*
X146761549Y-109285644D01*
X146800180Y-109304690D01*
X146804273Y-109307657D01*
X146826095Y-109325361D01*
X146840845Y-109341674D01*
X146853049Y-109362146D01*
X146859446Y-109375326D01*
X146872881Y-109404044D01*
X147627465Y-109404044D01*
X147617957Y-109376445D01*
X147611789Y-109353545D01*
X147606428Y-109325205D01*
X147604270Y-109308874D01*
X147600092Y-109268901D01*
X147338704Y-109268901D01*
X147335112Y-108893881D01*
X147262888Y-108891968D01*
X147190664Y-108890054D01*
X147176372Y-108922375D01*
X147152792Y-108961918D01*
X147122800Y-108991385D01*
X147088221Y-109011131D01*
X147050880Y-109021511D01*
X147012603Y-109022879D01*
X146975215Y-109015590D01*
X146940541Y-109000000D01*
X146910406Y-108976463D01*
X146886637Y-108945334D01*
X146871057Y-108906968D01*
X146865492Y-108861931D01*
X146865783Y-108859610D01*
X146929237Y-108859610D01*
X146936511Y-108892430D01*
X146941088Y-108902479D01*
X146962035Y-108931229D01*
X146989383Y-108949959D01*
X147020487Y-108957826D01*
X147052697Y-108953987D01*
X147073335Y-108944596D01*
X147099489Y-108921856D01*
X147115735Y-108893412D01*
X147121891Y-108862142D01*
X147117774Y-108830922D01*
X147103203Y-108802629D01*
X147083511Y-108783762D01*
X147050725Y-108767928D01*
X147017144Y-108764998D01*
X146984983Y-108774712D01*
X146956455Y-108796810D01*
X146954572Y-108798904D01*
X146935214Y-108828772D01*
X146929237Y-108859610D01*
X146865783Y-108859610D01*
X146871446Y-108814463D01*
X146888525Y-108773769D01*
X146915555Y-108741019D01*
X146951360Y-108717388D01*
X146994767Y-108704048D01*
X147026198Y-108701452D01*
X147073678Y-108707295D01*
X147114662Y-108724884D01*
X147148500Y-108753783D01*
X147174542Y-108793552D01*
X147179579Y-108804713D01*
X147190015Y-108829689D01*
X147406061Y-108829689D01*
X147406061Y-109201330D01*
X147608517Y-109201330D01*
X147612747Y-109182748D01*
X147640121Y-109077169D01*
X147672086Y-108982580D01*
X147709723Y-108896920D01*
X147754116Y-108818127D01*
X147806345Y-108744141D01*
X147867494Y-108672900D01*
X147895858Y-108643542D01*
X147982535Y-108565732D01*
X148075762Y-108499687D01*
X148175723Y-108445310D01*
X148282604Y-108402502D01*
X148396589Y-108371167D01*
X148423007Y-108365731D01*
X148465712Y-108359659D01*
X148517894Y-108355649D01*
X148575674Y-108353703D01*
X148635174Y-108353820D01*
X148692515Y-108356000D01*
X148743817Y-108360243D01*
X148781134Y-108365731D01*
X148896730Y-108394521D01*
X149005180Y-108434760D01*
X149106669Y-108486548D01*
X149201382Y-108549982D01*
X149289504Y-108625158D01*
X149308284Y-108643542D01*
X149373468Y-108714247D01*
X149429282Y-108786839D01*
X149476808Y-108863379D01*
X149517128Y-108945928D01*
X149551324Y-109036547D01*
X149580479Y-109137297D01*
X149591395Y-109182748D01*
X149595624Y-109201330D01*
X149798080Y-109201330D01*
X149798080Y-108854387D01*
X150082407Y-108854387D01*
X150085439Y-108885127D01*
X150098677Y-108914275D01*
X150122574Y-108939327D01*
X150130807Y-108944998D01*
X150158279Y-108955030D01*
X150190059Y-108955670D01*
X150221037Y-108947220D01*
X150235903Y-108938792D01*
X150257562Y-108915718D01*
X150270886Y-108885659D01*
X150274156Y-108853413D01*
X150271719Y-108838823D01*
X150257447Y-108808430D01*
X150234420Y-108784509D01*
X150205709Y-108769135D01*
X150174387Y-108764379D01*
X150163263Y-108765628D01*
X150130008Y-108777677D01*
X150105145Y-108798156D01*
X150089126Y-108824561D01*
X150082407Y-108854387D01*
X149798080Y-108854387D01*
X149798080Y-108829689D01*
X150014127Y-108829689D01*
X150024562Y-108804713D01*
X150048628Y-108762389D01*
X150080646Y-108730831D01*
X150119968Y-108710476D01*
X150165942Y-108701762D01*
X150177944Y-108701452D01*
X150225624Y-108707543D01*
X150266460Y-108724681D01*
X150299276Y-108751693D01*
X150322898Y-108787405D01*
X150336151Y-108830645D01*
X150338650Y-108861931D01*
X150332421Y-108907888D01*
X150314647Y-108948552D01*
X150286694Y-108982172D01*
X150249930Y-109006998D01*
X150215932Y-109019149D01*
X150169721Y-109023839D01*
X150126255Y-109015912D01*
X150087195Y-108996224D01*
X150054205Y-108965629D01*
X150028944Y-108924982D01*
X150027769Y-108922375D01*
X150013477Y-108890054D01*
X149941254Y-108891968D01*
X149869030Y-108893881D01*
X149865438Y-109268901D01*
X149604049Y-109268901D01*
X149599871Y-109308874D01*
X149595784Y-109336605D01*
X149589907Y-109363746D01*
X149586185Y-109376445D01*
X149576676Y-109404044D01*
X150331260Y-109404044D01*
X150344696Y-109375326D01*
X150357300Y-109350807D01*
X150370241Y-109333156D01*
X150388045Y-109316825D01*
X150399869Y-109307657D01*
X150437712Y-109287317D01*
X150480912Y-109278187D01*
X150526479Y-109280850D01*
X150531877Y-109281970D01*
X150555737Y-109288898D01*
X150575475Y-109299328D01*
X150596252Y-109316288D01*
X150605742Y-109325319D01*
X150635777Y-109362813D01*
X150652833Y-109403583D01*
X150656755Y-109446797D01*
X150647387Y-109491622D01*
X150640241Y-109509055D01*
X150615346Y-109548207D01*
X150582357Y-109576617D01*
X150541769Y-109593982D01*
X150494072Y-109599998D01*
X150493021Y-109600000D01*
X150445872Y-109594073D01*
X150405400Y-109576659D01*
X150372458Y-109548307D01*
X150347902Y-109509567D01*
X150346072Y-109505450D01*
X150331517Y-109471615D01*
X149669522Y-109471615D01*
X149673074Y-109947991D01*
X149981106Y-109951625D01*
X149991614Y-109926158D01*
X150015434Y-109883978D01*
X150047170Y-109851528D01*
X150085120Y-109829668D01*
X150127581Y-109819259D01*
X150172850Y-109821160D01*
X150191029Y-109825462D01*
X150234492Y-109844430D01*
X150268309Y-109872584D01*
X150291789Y-109908986D01*
X150304239Y-109952697D01*
X150306131Y-109981366D01*
X150299745Y-110028666D01*
X150281486Y-110069710D01*
X150251831Y-110103722D01*
X150215690Y-110127734D01*
X150181459Y-110138684D01*
X150141771Y-110141196D01*
X150101579Y-110135454D01*
X150066928Y-110122242D01*
X150037711Y-110101145D01*
X150012479Y-110073416D01*
X149994853Y-110043410D01*
X149990315Y-110030114D01*
X149985815Y-110012184D01*
X149602124Y-110012184D01*
X149602124Y-109973965D01*
X150049925Y-109973965D01*
X150052445Y-110003932D01*
X150064264Y-110031934D01*
X150085691Y-110055362D01*
X150105246Y-110067053D01*
X150130398Y-110076658D01*
X150150763Y-110078532D01*
X150172484Y-110072582D01*
X150187454Y-110065835D01*
X150213579Y-110046653D01*
X150232490Y-110019828D01*
X150242008Y-109989313D01*
X150241808Y-109967199D01*
X150230220Y-109934621D01*
X150208715Y-109908796D01*
X150179979Y-109891606D01*
X150146702Y-109884933D01*
X150126651Y-109886572D01*
X150095067Y-109898334D01*
X150071545Y-109918558D01*
X150056395Y-109944638D01*
X150049925Y-109973965D01*
X149602124Y-109973965D01*
X149602124Y-109471615D01*
X149548190Y-109471615D01*
G37*
D13*
X154317500Y-112490000D02*
X154317500Y-74390000D01*
X139077500Y-112490000D02*
X139077500Y-74390000D01*
X158127500Y-113760000D02*
X158127500Y-85820000D01*
X142887500Y-113760000D02*
X142887500Y-85820000D01*
X140982500Y-113760000D02*
X140982500Y-74390000D01*
X156222500Y-113760000D02*
X156222500Y-74390000D01*
X142887500Y-85820000D02*
G75*
G03*
X140982500Y-85820000I-952500J0D01*
G01*
X158127500Y-85820000D02*
G75*
G03*
X156222500Y-85820000I-952500J0D01*
G01*
X156222500Y-113760000D02*
G75*
G03*
X158127500Y-113760000I952500J0D01*
G01*
X156222500Y-74390000D02*
G75*
G03*
X154317500Y-74390000I-952500J0D01*
G01*
X140982500Y-74390000D02*
G75*
G03*
X139077500Y-74390000I-952500J0D01*
G01*
X139077500Y-112490000D02*
G75*
G03*
X140982500Y-112490000I952500J0D01*
G01*
X154317500Y-112490000D02*
G75*
G03*
X156222500Y-112490000I952500J0D01*
G01*
X140982500Y-113760000D02*
G75*
G03*
X142887500Y-113760000I952500J0D01*
G01*
G36*
X152493018Y-108350426D02*
G01*
X152529603Y-108350613D01*
X152563636Y-108350941D01*
X152593710Y-108351410D01*
X152618419Y-108352020D01*
X152636357Y-108352771D01*
X152646119Y-108353662D01*
X152647372Y-108354025D01*
X152649406Y-108356107D01*
X152651541Y-108360328D01*
X152653963Y-108367551D01*
X152656852Y-108378639D01*
X152660394Y-108394454D01*
X152664771Y-108415861D01*
X152670166Y-108443721D01*
X152676763Y-108478897D01*
X152684744Y-108522253D01*
X152694293Y-108574651D01*
X152694797Y-108577429D01*
X152703860Y-108626157D01*
X152711594Y-108665183D01*
X152718066Y-108694811D01*
X152723345Y-108715345D01*
X152727500Y-108727086D01*
X152729215Y-108729793D01*
X152736567Y-108734404D01*
X152751786Y-108741924D01*
X152773287Y-108751705D01*
X152799481Y-108763101D01*
X152828782Y-108775464D01*
X152859603Y-108788148D01*
X152890357Y-108800505D01*
X152919456Y-108811887D01*
X152945315Y-108821649D01*
X152966345Y-108829143D01*
X152980960Y-108833721D01*
X152986865Y-108834852D01*
X152997301Y-108831951D01*
X153012731Y-108824425D01*
X153030128Y-108813786D01*
X153032951Y-108811854D01*
X153050341Y-108799819D01*
X153073072Y-108784175D01*
X153098131Y-108766991D01*
X153121339Y-108751132D01*
X153147670Y-108733156D01*
X153178522Y-108712064D01*
X153210090Y-108690460D01*
X153238567Y-108670945D01*
X153239084Y-108670590D01*
X153261309Y-108655611D01*
X153280857Y-108642933D01*
X153296110Y-108633567D01*
X153305449Y-108628525D01*
X153307305Y-108627936D01*
X153312218Y-108631395D01*
X153323193Y-108641122D01*
X153339252Y-108656140D01*
X153359420Y-108675474D01*
X153382718Y-108698146D01*
X153408170Y-108723181D01*
X153434797Y-108749603D01*
X153461622Y-108776436D01*
X153487668Y-108802703D01*
X153511958Y-108827428D01*
X153533514Y-108849635D01*
X153551359Y-108868348D01*
X153564516Y-108882591D01*
X153572007Y-108891387D01*
X153573377Y-108893683D01*
X153570612Y-108899002D01*
X153562749Y-108911652D01*
X153550433Y-108930656D01*
X153534310Y-108955036D01*
X153515026Y-108983815D01*
X153493228Y-109016015D01*
X153471595Y-109047694D01*
X153447955Y-109082306D01*
X153426140Y-109114504D01*
X153406813Y-109143289D01*
X153390637Y-109167663D01*
X153378276Y-109186626D01*
X153370394Y-109199178D01*
X153367677Y-109204173D01*
X153369054Y-109210737D01*
X153374003Y-109225297D01*
X153382035Y-109246598D01*
X153392661Y-109273386D01*
X153405392Y-109304406D01*
X153419740Y-109338404D01*
X153422272Y-109344312D01*
X153438797Y-109382740D01*
X153451910Y-109412927D01*
X153462181Y-109435917D01*
X153470179Y-109452753D01*
X153476475Y-109464479D01*
X153481638Y-109472137D01*
X153486236Y-109476771D01*
X153490841Y-109479424D01*
X153496021Y-109481140D01*
X153497148Y-109481454D01*
X153506542Y-109483593D01*
X153524503Y-109487250D01*
X153549654Y-109492163D01*
X153580619Y-109498066D01*
X153616021Y-109504696D01*
X153654486Y-109511790D01*
X153671866Y-109514961D01*
X153710851Y-109522204D01*
X153747017Y-109529217D01*
X153779060Y-109535723D01*
X153805675Y-109541448D01*
X153825556Y-109546114D01*
X153837398Y-109549447D01*
X153839802Y-109550465D01*
X153851166Y-109557499D01*
X153851088Y-109737945D01*
X153850970Y-109779804D01*
X153850667Y-109818546D01*
X153850204Y-109852992D01*
X153849605Y-109881962D01*
X153848893Y-109904275D01*
X153848094Y-109918753D01*
X153847300Y-109924139D01*
X153841234Y-109927101D01*
X153827108Y-109931307D01*
X153806817Y-109936269D01*
X153782253Y-109941498D01*
X153772880Y-109943323D01*
X153745178Y-109948595D01*
X153719015Y-109953588D01*
X153696989Y-109957804D01*
X153681701Y-109960747D01*
X153679442Y-109961185D01*
X153661180Y-109964662D01*
X153639176Y-109968747D01*
X153626409Y-109971072D01*
X153580797Y-109979533D01*
X153544808Y-109986752D01*
X153518056Y-109992818D01*
X153500152Y-109997822D01*
X153490707Y-110001853D01*
X153489579Y-110002762D01*
X153486070Y-110009089D01*
X153479531Y-110023371D01*
X153470553Y-110044139D01*
X153459726Y-110069921D01*
X153447642Y-110099245D01*
X153434892Y-110130640D01*
X153422066Y-110162636D01*
X153409754Y-110193760D01*
X153398548Y-110222542D01*
X153389039Y-110247511D01*
X153381817Y-110267194D01*
X153377473Y-110280122D01*
X153376458Y-110284473D01*
X153379240Y-110290652D01*
X153387017Y-110303847D01*
X153398984Y-110322803D01*
X153414340Y-110346265D01*
X153432281Y-110372976D01*
X153444360Y-110390633D01*
X153465739Y-110421675D01*
X153487234Y-110452895D01*
X153507505Y-110482345D01*
X153525211Y-110508079D01*
X153539012Y-110528149D01*
X153542790Y-110533648D01*
X153555359Y-110552479D01*
X153565423Y-110568575D01*
X153571775Y-110579941D01*
X153573377Y-110584191D01*
X153569919Y-110589019D01*
X153560075Y-110600119D01*
X153544642Y-110616660D01*
X153524415Y-110637808D01*
X153500189Y-110662734D01*
X153472761Y-110690604D01*
X153442927Y-110720586D01*
X153442344Y-110721169D01*
X153408151Y-110755289D01*
X153380327Y-110782879D01*
X153358135Y-110804585D01*
X153340841Y-110821056D01*
X153327705Y-110832941D01*
X153317994Y-110840887D01*
X153310969Y-110845542D01*
X153305895Y-110847556D01*
X153302035Y-110847575D01*
X153299662Y-110846750D01*
X153292675Y-110842594D01*
X153278529Y-110833432D01*
X153258358Y-110820023D01*
X153233294Y-110803129D01*
X153204471Y-110783511D01*
X153173022Y-110761930D01*
X153161744Y-110754151D01*
X153129520Y-110732029D01*
X153099387Y-110711605D01*
X153072507Y-110693645D01*
X153050039Y-110678915D01*
X153033144Y-110668180D01*
X153022981Y-110662206D01*
X153021281Y-110661402D01*
X153016089Y-110659529D01*
X153011095Y-110658728D01*
X153004996Y-110659537D01*
X152996488Y-110662494D01*
X152984270Y-110668137D01*
X152967037Y-110677004D01*
X152943487Y-110689634D01*
X152913563Y-110705887D01*
X152895872Y-110714714D01*
X152880963Y-110720713D01*
X152871449Y-110722873D01*
X152870157Y-110722672D01*
X152866454Y-110717459D01*
X152859487Y-110704049D01*
X152849787Y-110683604D01*
X152837887Y-110657288D01*
X152824318Y-110626263D01*
X152809614Y-110591693D01*
X152803357Y-110576707D01*
X152770409Y-110497299D01*
X152740263Y-110424497D01*
X152713035Y-110358587D01*
X152688844Y-110299859D01*
X152667808Y-110248599D01*
X152650044Y-110205097D01*
X152635670Y-110169640D01*
X152624804Y-110142515D01*
X152617564Y-110124012D01*
X152614067Y-110114417D01*
X152613743Y-110113127D01*
X152617619Y-110108458D01*
X152628030Y-110099621D01*
X152643143Y-110088110D01*
X152652886Y-110081120D01*
X152696920Y-110048341D01*
X152732871Y-110017228D01*
X152762224Y-109986201D01*
X152786462Y-109953680D01*
X152807067Y-109918084D01*
X152808435Y-109915390D01*
X152825980Y-109876455D01*
X152837912Y-109839236D01*
X152844966Y-109800410D01*
X152847880Y-109756655D01*
X152848048Y-109736566D01*
X152847713Y-109708284D01*
X152846713Y-109686975D01*
X152844584Y-109669512D01*
X152840864Y-109652771D01*
X152835091Y-109633623D01*
X152830977Y-109621244D01*
X152806507Y-109563600D01*
X152774403Y-109511781D01*
X152735506Y-109466329D01*
X152690652Y-109427785D01*
X152640680Y-109396693D01*
X152586430Y-109373594D01*
X152528740Y-109359030D01*
X152468449Y-109353545D01*
X152420553Y-109355874D01*
X152359087Y-109367480D01*
X152301624Y-109388062D01*
X152248871Y-109417047D01*
X152201533Y-109453862D01*
X152160316Y-109497935D01*
X152125926Y-109548694D01*
X152099068Y-109605566D01*
X152093419Y-109621244D01*
X152086495Y-109642383D01*
X152081778Y-109659503D01*
X152078841Y-109675562D01*
X152077259Y-109693522D01*
X152076605Y-109716342D01*
X152076466Y-109739092D01*
X152077625Y-109782241D01*
X152081810Y-109818892D01*
X152089773Y-109852392D01*
X152102269Y-109886084D01*
X152116363Y-109916075D01*
X152131014Y-109942860D01*
X152147226Y-109967328D01*
X152166177Y-109990679D01*
X152189050Y-110014108D01*
X152217023Y-110038815D01*
X152251278Y-110065996D01*
X152292993Y-110096850D01*
X152298213Y-110100609D01*
X152312816Y-110111103D01*
X152296872Y-110151116D01*
X152293332Y-110159959D01*
X152289141Y-110170330D01*
X152284041Y-110182859D01*
X152277771Y-110198177D01*
X152270071Y-110216912D01*
X152260680Y-110239695D01*
X152249338Y-110267155D01*
X152235786Y-110299923D01*
X152219763Y-110338627D01*
X152201008Y-110383899D01*
X152179262Y-110436368D01*
X152154264Y-110496663D01*
X152125754Y-110565414D01*
X152113746Y-110594370D01*
X152099687Y-110627731D01*
X152086518Y-110657965D01*
X152074820Y-110683823D01*
X152065169Y-110704057D01*
X152058143Y-110717418D01*
X152054325Y-110722657D01*
X152046674Y-110721698D01*
X152032933Y-110716628D01*
X152015720Y-110708459D01*
X152010881Y-110705887D01*
X151980002Y-110689118D01*
X151956697Y-110676630D01*
X151939664Y-110667885D01*
X151927598Y-110662346D01*
X151919198Y-110659475D01*
X151913160Y-110658732D01*
X151908181Y-110659580D01*
X151903162Y-110661401D01*
X151895052Y-110665784D01*
X151880032Y-110675071D01*
X151859465Y-110688373D01*
X151834714Y-110704799D01*
X151807145Y-110723461D01*
X151790478Y-110734905D01*
X151748701Y-110763728D01*
X151714447Y-110787322D01*
X151686934Y-110806207D01*
X151665379Y-110820904D01*
X151648998Y-110831931D01*
X151637010Y-110839809D01*
X151628631Y-110845058D01*
X151623079Y-110848199D01*
X151619571Y-110849750D01*
X151617325Y-110850232D01*
X151616867Y-110850247D01*
X151612094Y-110846790D01*
X151601049Y-110836951D01*
X151584565Y-110821530D01*
X151563476Y-110801323D01*
X151538615Y-110777131D01*
X151510815Y-110749750D01*
X151481086Y-110720156D01*
X151451341Y-110690237D01*
X151423990Y-110662421D01*
X151399830Y-110637542D01*
X151379659Y-110616437D01*
X151364277Y-110599940D01*
X151354480Y-110588886D01*
X151351066Y-110584119D01*
X151353783Y-110577721D01*
X151361130Y-110565070D01*
X151371900Y-110548157D01*
X151381653Y-110533648D01*
X151393706Y-110516113D01*
X151410151Y-110492208D01*
X151429647Y-110463880D01*
X151450853Y-110433077D01*
X151472429Y-110401745D01*
X151480083Y-110390633D01*
X151499224Y-110362536D01*
X151516278Y-110336911D01*
X151530443Y-110315011D01*
X151540915Y-110298093D01*
X151546890Y-110287413D01*
X151547985Y-110284473D01*
X151546150Y-110277491D01*
X151541001Y-110262664D01*
X151533126Y-110241464D01*
X151523119Y-110215361D01*
X151511568Y-110185828D01*
X151499066Y-110154336D01*
X151486203Y-110122355D01*
X151473569Y-110091356D01*
X151461755Y-110062812D01*
X151451353Y-110038194D01*
X151442953Y-110018972D01*
X151437145Y-110006617D01*
X151434864Y-110002762D01*
X151432678Y-110000942D01*
X151429206Y-109999099D01*
X151423662Y-109997070D01*
X151415260Y-109994690D01*
X151403216Y-109991795D01*
X151386743Y-109988219D01*
X151365058Y-109983799D01*
X151337374Y-109978371D01*
X151302906Y-109971768D01*
X151260869Y-109963828D01*
X151210478Y-109954386D01*
X151150947Y-109943277D01*
X151150233Y-109943144D01*
X151121751Y-109937689D01*
X151101707Y-109933378D01*
X151088571Y-109929716D01*
X151080813Y-109926207D01*
X151076903Y-109922356D01*
X151075589Y-109919003D01*
X151075019Y-109911569D01*
X151074571Y-109895272D01*
X151074255Y-109871349D01*
X151074077Y-109841037D01*
X151074046Y-109805574D01*
X151074169Y-109766196D01*
X151074394Y-109731582D01*
X151075803Y-109554874D01*
X151088430Y-109548935D01*
X151096409Y-109546584D01*
X151113017Y-109542743D01*
X151136937Y-109537682D01*
X151166852Y-109531667D01*
X151201442Y-109524968D01*
X151239392Y-109517851D01*
X151257628Y-109514509D01*
X151296852Y-109507307D01*
X151333484Y-109500459D01*
X151366176Y-109494225D01*
X151393576Y-109488868D01*
X151414337Y-109484648D01*
X151427107Y-109481829D01*
X151429877Y-109481090D01*
X151434667Y-109479161D01*
X151439177Y-109475896D01*
X151443956Y-109470251D01*
X151449557Y-109461184D01*
X151456530Y-109447650D01*
X151465427Y-109428607D01*
X151476800Y-109403012D01*
X151491200Y-109369820D01*
X151502227Y-109344182D01*
X151516793Y-109309813D01*
X151529822Y-109278202D01*
X151540825Y-109250605D01*
X151549314Y-109228280D01*
X151554800Y-109212483D01*
X151556793Y-109204472D01*
X151556753Y-109203988D01*
X151553470Y-109198013D01*
X151545114Y-109184747D01*
X151532358Y-109165206D01*
X151515875Y-109140404D01*
X151496341Y-109111359D01*
X151474428Y-109079084D01*
X151455409Y-109051288D01*
X151432019Y-109017112D01*
X151410403Y-108985326D01*
X151391247Y-108956949D01*
X151375231Y-108933003D01*
X151363040Y-108914507D01*
X151355357Y-108902481D01*
X151352910Y-108898193D01*
X151353788Y-108894016D01*
X151358759Y-108886354D01*
X151368318Y-108874667D01*
X151382958Y-108858413D01*
X151403176Y-108837051D01*
X151429464Y-108810041D01*
X151462318Y-108776842D01*
X151480355Y-108758759D01*
X151510346Y-108728911D01*
X151538240Y-108701455D01*
X151563205Y-108677188D01*
X151584408Y-108656907D01*
X151601017Y-108641406D01*
X151612198Y-108631484D01*
X151617119Y-108627937D01*
X151617138Y-108627936D01*
X151623238Y-108630667D01*
X151635990Y-108638184D01*
X151653777Y-108649475D01*
X151674981Y-108663529D01*
X151685359Y-108670590D01*
X151713734Y-108690036D01*
X151745277Y-108711624D01*
X151776182Y-108732752D01*
X151802642Y-108750816D01*
X151803105Y-108751132D01*
X151827585Y-108767862D01*
X151852599Y-108785018D01*
X151875132Y-108800530D01*
X151891492Y-108811854D01*
X151908858Y-108822826D01*
X151924765Y-108830963D01*
X151936185Y-108834750D01*
X151937466Y-108834852D01*
X151946028Y-108832984D01*
X151962232Y-108827704D01*
X151984491Y-108819659D01*
X152011220Y-108809494D01*
X152040832Y-108797855D01*
X152071743Y-108785387D01*
X152102366Y-108772736D01*
X152131115Y-108760548D01*
X152156405Y-108749469D01*
X152176650Y-108740144D01*
X152190264Y-108733218D01*
X152195264Y-108729891D01*
X152199872Y-108720758D01*
X152205320Y-108702299D01*
X152211420Y-108675241D01*
X152217051Y-108645614D01*
X152222718Y-108614075D01*
X152228707Y-108581276D01*
X152234372Y-108550716D01*
X152239069Y-108525896D01*
X152239846Y-108521872D01*
X152244915Y-108495670D01*
X152250949Y-108464352D01*
X152257021Y-108432722D01*
X152260259Y-108415807D01*
X152265097Y-108392639D01*
X152269933Y-108373191D01*
X152274187Y-108359584D01*
X152277139Y-108354013D01*
X152283535Y-108353070D01*
X152298625Y-108352268D01*
X152321003Y-108351608D01*
X152349265Y-108351089D01*
X152382003Y-108350712D01*
X152417811Y-108350475D01*
X152455285Y-108350380D01*
X152493018Y-108350426D01*
G37*
D12*
X153247000Y-74237500D02*
X153247000Y-74837500D01*
X152547000Y-75537500D02*
X151147000Y-75537500D01*
X151147000Y-73537500D02*
X152547000Y-73537500D01*
X150447000Y-74837500D02*
X150447000Y-74237500D01*
X151147000Y-73537500D02*
G75*
G03*
X150447000Y-74237500I-1J-699999D01*
G01*
X153247000Y-74237500D02*
G75*
G03*
X152547000Y-73537500I-699999J1D01*
G01*
X152547000Y-75537500D02*
G75*
G03*
X153247000Y-74837500I1J699999D01*
G01*
X150447000Y-74837500D02*
G75*
G03*
X151147000Y-75537500I699999J-1D01*
G01*
X148617500Y-104835000D02*
X146667500Y-104835000D01*
X148617500Y-94715000D02*
X150567500Y-94715000D01*
X148617500Y-104835000D02*
X150567500Y-104835000D01*
X148617500Y-94715000D02*
X145167500Y-94715000D01*
%LPC*%
D14*
X146031000Y-82533000D03*
X146031000Y-80883000D03*
D15*
X146031000Y-76930000D03*
X146031000Y-78580000D03*
X149269000Y-76930000D03*
X149269000Y-78580000D03*
D14*
X142793000Y-82533000D03*
X142793000Y-80883000D03*
D15*
X142793000Y-76930000D03*
X142793000Y-78580000D03*
D14*
X152507000Y-82533000D03*
X152507000Y-80883000D03*
D15*
X152507000Y-76930000D03*
X152507000Y-78580000D03*
D14*
X149269000Y-82533000D03*
X149269000Y-80883000D03*
D16*
X140030000Y-74390000D03*
X140030000Y-76930000D03*
X140030000Y-79470000D03*
X140030000Y-82010000D03*
X140030000Y-84550000D03*
X140030000Y-87090000D03*
X140030000Y-89630000D03*
X140030000Y-92170000D03*
X140030000Y-94710000D03*
X140030000Y-97250000D03*
X140030000Y-99790000D03*
X140030000Y-102330000D03*
X140030000Y-104870000D03*
X140030000Y-107410000D03*
X140030000Y-109950000D03*
X140030000Y-112490000D03*
D17*
X155270000Y-112490000D03*
X155270000Y-109950000D03*
X155270000Y-107410000D03*
X155270000Y-104870000D03*
X155270000Y-102330000D03*
X155270000Y-99790000D03*
X155270000Y-97250000D03*
X155270000Y-94710000D03*
X155270000Y-92170000D03*
X155270000Y-89630000D03*
X155270000Y-87090000D03*
X155270000Y-84550000D03*
X155270000Y-82010000D03*
X155270000Y-79470000D03*
X155270000Y-76930000D03*
X155270000Y-74390000D03*
D18*
X157475000Y-84250000D03*
X157475000Y-82980000D03*
X157475000Y-81710000D03*
X157475000Y-80440000D03*
X157475000Y-79170000D03*
X157475000Y-77900000D03*
X157475000Y-76630000D03*
X157475000Y-75360000D03*
D16*
X141935000Y-85820000D03*
X141935000Y-88360000D03*
X141935000Y-90900000D03*
X141935000Y-93440000D03*
X141935000Y-95980000D03*
X141935000Y-98520000D03*
X141935000Y-101060000D03*
X141935000Y-103600000D03*
X141935000Y-106140000D03*
X141935000Y-108680000D03*
X141935000Y-111220000D03*
X141935000Y-113760000D03*
D17*
X157175000Y-113760000D03*
X157175000Y-111220000D03*
X157175000Y-108680000D03*
X157175000Y-106140000D03*
X157175000Y-103600000D03*
X157175000Y-101060000D03*
X157175000Y-98520000D03*
X157175000Y-95980000D03*
X157175000Y-93440000D03*
X157175000Y-90900000D03*
X157175000Y-88360000D03*
X157175000Y-85820000D03*
D19*
X157475000Y-74090000D03*
D20*
X152497000Y-74537500D03*
D21*
X151197000Y-74537500D03*
D22*
X146142500Y-95330000D03*
X146142500Y-96600000D03*
X146142500Y-97870000D03*
X146142500Y-99140000D03*
X146142500Y-100410000D03*
X146142500Y-101680000D03*
X146142500Y-102950000D03*
X146142500Y-104220000D03*
X151092500Y-104220000D03*
X151092500Y-102950000D03*
X151092500Y-101680000D03*
X151092500Y-100410000D03*
X151092500Y-99140000D03*
X151092500Y-97870000D03*
X151092500Y-96600000D03*
X151092500Y-95330000D03*
M02*
