%TF.GenerationSoftware,KiCad,Pcbnew,(6.0.2)*%
%TF.CreationDate,2022-03-14T15:32:47-04:00*%
%TF.ProjectId,23XX-Adapter,32335858-2d41-4646-9170-7465722e6b69,2*%
%TF.SameCoordinates,Original*%
%TF.FileFunction,Legend,Bot*%
%TF.FilePolarity,Positive*%
%FSLAX46Y46*%
G04 Gerber Fmt 4.6, Leading zero omitted, Abs format (unit mm)*
G04 Created by KiCad (PCBNEW (6.0.2)) date 2022-03-14 15:32:47*
%MOMM*%
%LPD*%
G01*
G04 APERTURE LIST*
G04 Aperture macros list*
%AMFreePoly0*
4,1,22,0.500000,-0.750000,0.000000,-0.750000,0.000000,-0.745033,-0.079941,-0.743568,-0.215256,-0.701293,-0.333266,-0.622738,-0.424486,-0.514219,-0.481581,-0.384460,-0.499164,-0.250000,-0.500000,-0.250000,-0.500000,0.250000,-0.499164,0.250000,-0.499963,0.256109,-0.478152,0.396186,-0.417904,0.524511,-0.324060,0.630769,-0.204165,0.706417,-0.067858,0.745374,0.000000,0.744959,0.000000,0.750000,
0.500000,0.750000,0.500000,-0.750000,0.500000,-0.750000,$1*%
%AMFreePoly1*
4,1,20,0.000000,0.744959,0.073905,0.744508,0.209726,0.703889,0.328688,0.626782,0.421226,0.519385,0.479903,0.390333,0.500000,0.250000,0.500000,-0.250000,0.499851,-0.262216,0.476331,-0.402017,0.414519,-0.529596,0.319384,-0.634700,0.198574,-0.708877,0.061801,-0.746166,0.000000,-0.745033,0.000000,-0.750000,-0.500000,-0.750000,-0.500000,0.750000,0.000000,0.750000,0.000000,0.744959,
0.000000,0.744959,$1*%
%AMFreePoly2*
4,1,22,0.550000,-0.750000,0.000000,-0.750000,0.000000,-0.745033,-0.079941,-0.743568,-0.215256,-0.701293,-0.333266,-0.622738,-0.424486,-0.514219,-0.481581,-0.384460,-0.499164,-0.250000,-0.500000,-0.250000,-0.500000,0.250000,-0.499164,0.250000,-0.499963,0.256109,-0.478152,0.396186,-0.417904,0.524511,-0.324060,0.630769,-0.204165,0.706417,-0.067858,0.745374,0.000000,0.744959,0.000000,0.750000,
0.550000,0.750000,0.550000,-0.750000,0.550000,-0.750000,$1*%
%AMFreePoly3*
4,1,20,0.000000,0.744959,0.073905,0.744508,0.209726,0.703889,0.328688,0.626782,0.421226,0.519385,0.479903,0.390333,0.500000,0.250000,0.500000,-0.250000,0.499851,-0.262216,0.476331,-0.402017,0.414519,-0.529596,0.319384,-0.634700,0.198574,-0.708877,0.061801,-0.746166,0.000000,-0.745033,0.000000,-0.750000,-0.550000,-0.750000,-0.550000,0.750000,0.000000,0.750000,0.000000,0.744959,
0.000000,0.744959,$1*%
G04 Aperture macros list end*
%ADD10C,0.152400*%
%ADD11C,0.151400*%
%ADD12C,0.120000*%
%ADD13C,1.600000*%
%ADD14O,1.600000X1.600000*%
%ADD15O,1.000000X1.000000*%
%ADD16R,1.000000X1.000000*%
%ADD17FreePoly0,180.000000*%
%ADD18FreePoly1,180.000000*%
%ADD19FreePoly2,90.000000*%
%ADD20R,1.500000X1.000000*%
%ADD21FreePoly3,90.000000*%
%ADD22FreePoly0,270.000000*%
%ADD23FreePoly1,270.000000*%
%ADD24FreePoly0,90.000000*%
%ADD25FreePoly1,90.000000*%
G04 APERTURE END LIST*
D10*
X153154895Y-110739067D02*
X153154895Y-111280934D01*
X153967695Y-110932591D01*
X143641942Y-91833200D02*
X143680647Y-91949314D01*
X143719352Y-91988019D01*
X143796761Y-92026723D01*
X143912876Y-92026723D01*
X143990285Y-91988019D01*
X144028990Y-91949314D01*
X144067695Y-91871904D01*
X144067695Y-91562266D01*
X143254895Y-91562266D01*
X143254895Y-91833200D01*
X143293600Y-91910609D01*
X143332304Y-91949314D01*
X143409714Y-91988019D01*
X143487123Y-91988019D01*
X143564533Y-91949314D01*
X143603238Y-91910609D01*
X143641942Y-91833200D01*
X143641942Y-91562266D01*
X143760619Y-84177466D02*
X143373571Y-84177466D01*
X143838028Y-84409695D02*
X143567095Y-83596895D01*
X143296161Y-84409695D01*
X142599476Y-84409695D02*
X143063933Y-84409695D01*
X142831704Y-84409695D02*
X142831704Y-83596895D01*
X142909114Y-83713009D01*
X142986523Y-83790419D01*
X143063933Y-83829123D01*
X141825380Y-84409695D02*
X142289838Y-84409695D01*
X142057609Y-84409695D02*
X142057609Y-83596895D01*
X142135019Y-83713009D01*
X142212428Y-83790419D01*
X142289838Y-83829123D01*
X153154895Y-104783524D02*
X153154895Y-104396477D01*
X153541942Y-104357772D01*
X153503238Y-104396477D01*
X153464533Y-104473886D01*
X153464533Y-104667410D01*
X153503238Y-104744820D01*
X153541942Y-104783524D01*
X153619352Y-104822229D01*
X153812876Y-104822229D01*
X153890285Y-104783524D01*
X153928990Y-104744820D01*
X153967695Y-104667410D01*
X153967695Y-104473886D01*
X153928990Y-104396477D01*
X153890285Y-104357772D01*
X153867695Y-91982229D02*
X153867695Y-91517772D01*
X153867695Y-91750001D02*
X153054895Y-91750001D01*
X153171009Y-91672591D01*
X153248419Y-91595181D01*
X153287123Y-91517772D01*
X153232304Y-94727772D02*
X153193600Y-94766477D01*
X153154895Y-94843886D01*
X153154895Y-95037410D01*
X153193600Y-95114820D01*
X153232304Y-95153524D01*
X153309714Y-95192229D01*
X153387123Y-95192229D01*
X153503238Y-95153524D01*
X153967695Y-94689067D01*
X153967695Y-95192229D01*
X148249804Y-113263609D02*
X149062604Y-113263609D01*
X148249804Y-112915266D02*
X148675557Y-112915266D01*
X148752966Y-112953971D01*
X148791671Y-113031380D01*
X148791671Y-113147495D01*
X148752966Y-113224904D01*
X148714261Y-113263609D01*
X148791671Y-112644333D02*
X148791671Y-112334695D01*
X149062604Y-112528219D02*
X148365919Y-112528219D01*
X148288509Y-112489514D01*
X148249804Y-112412104D01*
X148249804Y-112334695D01*
X148791671Y-112179876D02*
X148791671Y-111870238D01*
X149062604Y-112063761D02*
X148365919Y-112063761D01*
X148288509Y-112025057D01*
X148249804Y-111947647D01*
X148249804Y-111870238D01*
X148791671Y-111599304D02*
X147978871Y-111599304D01*
X148752966Y-111599304D02*
X148791671Y-111521895D01*
X148791671Y-111367076D01*
X148752966Y-111289666D01*
X148714261Y-111250961D01*
X148636852Y-111212257D01*
X148404623Y-111212257D01*
X148327214Y-111250961D01*
X148288509Y-111289666D01*
X148249804Y-111367076D01*
X148249804Y-111521895D01*
X148288509Y-111599304D01*
X148288509Y-110902619D02*
X148249804Y-110825209D01*
X148249804Y-110670390D01*
X148288509Y-110592980D01*
X148365919Y-110554276D01*
X148404623Y-110554276D01*
X148482033Y-110592980D01*
X148520738Y-110670390D01*
X148520738Y-110786504D01*
X148559442Y-110863914D01*
X148636852Y-110902619D01*
X148675557Y-110902619D01*
X148752966Y-110863914D01*
X148791671Y-110786504D01*
X148791671Y-110670390D01*
X148752966Y-110592980D01*
X148327214Y-110205933D02*
X148288509Y-110167228D01*
X148249804Y-110205933D01*
X148288509Y-110244638D01*
X148327214Y-110205933D01*
X148249804Y-110205933D01*
X148752966Y-110205933D02*
X148714261Y-110167228D01*
X148675557Y-110205933D01*
X148714261Y-110244638D01*
X148752966Y-110205933D01*
X148675557Y-110205933D01*
X149101309Y-109238314D02*
X148056280Y-109935000D01*
X149101309Y-108386809D02*
X148056280Y-109083495D01*
X148791671Y-107767533D02*
X148133690Y-107767533D01*
X148056280Y-107806238D01*
X148017576Y-107844942D01*
X147978871Y-107922352D01*
X147978871Y-108038466D01*
X148017576Y-108115876D01*
X148288509Y-107767533D02*
X148249804Y-107844942D01*
X148249804Y-107999761D01*
X148288509Y-108077171D01*
X148327214Y-108115876D01*
X148404623Y-108154580D01*
X148636852Y-108154580D01*
X148714261Y-108115876D01*
X148752966Y-108077171D01*
X148791671Y-107999761D01*
X148791671Y-107844942D01*
X148752966Y-107767533D01*
X148249804Y-107380485D02*
X148791671Y-107380485D01*
X149062604Y-107380485D02*
X149023900Y-107419190D01*
X148985195Y-107380485D01*
X149023900Y-107341780D01*
X149062604Y-107380485D01*
X148985195Y-107380485D01*
X148791671Y-107109552D02*
X148791671Y-106799914D01*
X149062604Y-106993438D02*
X148365919Y-106993438D01*
X148288509Y-106954733D01*
X148249804Y-106877323D01*
X148249804Y-106799914D01*
X148249804Y-106528980D02*
X149062604Y-106528980D01*
X148249804Y-106180638D02*
X148675557Y-106180638D01*
X148752966Y-106219342D01*
X148791671Y-106296752D01*
X148791671Y-106412866D01*
X148752966Y-106490276D01*
X148714261Y-106528980D01*
X148791671Y-105445247D02*
X148249804Y-105445247D01*
X148791671Y-105793590D02*
X148365919Y-105793590D01*
X148288509Y-105754885D01*
X148249804Y-105677476D01*
X148249804Y-105561361D01*
X148288509Y-105483952D01*
X148327214Y-105445247D01*
X148249804Y-105058200D02*
X149062604Y-105058200D01*
X148752966Y-105058200D02*
X148791671Y-104980790D01*
X148791671Y-104825971D01*
X148752966Y-104748561D01*
X148714261Y-104709857D01*
X148636852Y-104671152D01*
X148404623Y-104671152D01*
X148327214Y-104709857D01*
X148288509Y-104748561D01*
X148249804Y-104825971D01*
X148249804Y-104980790D01*
X148288509Y-105058200D01*
X148327214Y-104322809D02*
X148288509Y-104284104D01*
X148249804Y-104322809D01*
X148288509Y-104361514D01*
X148327214Y-104322809D01*
X148249804Y-104322809D01*
X148288509Y-103587419D02*
X148249804Y-103664828D01*
X148249804Y-103819647D01*
X148288509Y-103897057D01*
X148327214Y-103935761D01*
X148404623Y-103974466D01*
X148636852Y-103974466D01*
X148714261Y-103935761D01*
X148752966Y-103897057D01*
X148791671Y-103819647D01*
X148791671Y-103664828D01*
X148752966Y-103587419D01*
X148249804Y-103122961D02*
X148288509Y-103200371D01*
X148327214Y-103239076D01*
X148404623Y-103277780D01*
X148636852Y-103277780D01*
X148714261Y-103239076D01*
X148752966Y-103200371D01*
X148791671Y-103122961D01*
X148791671Y-103006847D01*
X148752966Y-102929438D01*
X148714261Y-102890733D01*
X148636852Y-102852028D01*
X148404623Y-102852028D01*
X148327214Y-102890733D01*
X148288509Y-102929438D01*
X148249804Y-103006847D01*
X148249804Y-103122961D01*
X148249804Y-102503685D02*
X148791671Y-102503685D01*
X148714261Y-102503685D02*
X148752966Y-102464980D01*
X148791671Y-102387571D01*
X148791671Y-102271457D01*
X148752966Y-102194047D01*
X148675557Y-102155342D01*
X148249804Y-102155342D01*
X148675557Y-102155342D02*
X148752966Y-102116638D01*
X148791671Y-102039228D01*
X148791671Y-101923114D01*
X148752966Y-101845704D01*
X148675557Y-101807000D01*
X148249804Y-101807000D01*
X149101309Y-100839380D02*
X148056280Y-101536066D01*
X148249804Y-100568447D02*
X149062604Y-100568447D01*
X148752966Y-100568447D02*
X148791671Y-100491038D01*
X148791671Y-100336219D01*
X148752966Y-100258809D01*
X148714261Y-100220104D01*
X148636852Y-100181400D01*
X148404623Y-100181400D01*
X148327214Y-100220104D01*
X148288509Y-100258809D01*
X148249804Y-100336219D01*
X148249804Y-100491038D01*
X148288509Y-100568447D01*
X148288509Y-99523419D02*
X148249804Y-99600828D01*
X148249804Y-99755647D01*
X148288509Y-99833057D01*
X148365919Y-99871761D01*
X148675557Y-99871761D01*
X148752966Y-99833057D01*
X148791671Y-99755647D01*
X148791671Y-99600828D01*
X148752966Y-99523419D01*
X148675557Y-99484714D01*
X148598147Y-99484714D01*
X148520738Y-99871761D01*
X148249804Y-98788028D02*
X148675557Y-98788028D01*
X148752966Y-98826733D01*
X148791671Y-98904142D01*
X148791671Y-99058961D01*
X148752966Y-99136371D01*
X148288509Y-98788028D02*
X148249804Y-98865438D01*
X148249804Y-99058961D01*
X148288509Y-99136371D01*
X148365919Y-99175076D01*
X148443328Y-99175076D01*
X148520738Y-99136371D01*
X148559442Y-99058961D01*
X148559442Y-98865438D01*
X148598147Y-98788028D01*
X148791671Y-98052638D02*
X148249804Y-98052638D01*
X148791671Y-98400980D02*
X148365919Y-98400980D01*
X148288509Y-98362276D01*
X148249804Y-98284866D01*
X148249804Y-98168752D01*
X148288509Y-98091342D01*
X148327214Y-98052638D01*
X148791671Y-97665590D02*
X147978871Y-97665590D01*
X148752966Y-97665590D02*
X148791671Y-97588180D01*
X148791671Y-97433361D01*
X148752966Y-97355952D01*
X148714261Y-97317247D01*
X148636852Y-97278542D01*
X148404623Y-97278542D01*
X148327214Y-97317247D01*
X148288509Y-97355952D01*
X148249804Y-97433361D01*
X148249804Y-97588180D01*
X148288509Y-97665590D01*
X148249804Y-96930200D02*
X148791671Y-96930200D01*
X148636852Y-96930200D02*
X148714261Y-96891495D01*
X148752966Y-96852790D01*
X148791671Y-96775380D01*
X148791671Y-96697971D01*
X148288509Y-96117400D02*
X148249804Y-96194809D01*
X148249804Y-96349628D01*
X148288509Y-96427038D01*
X148365919Y-96465742D01*
X148675557Y-96465742D01*
X148752966Y-96427038D01*
X148791671Y-96349628D01*
X148791671Y-96194809D01*
X148752966Y-96117400D01*
X148675557Y-96078695D01*
X148598147Y-96078695D01*
X148520738Y-96465742D01*
X148559442Y-95730352D02*
X148559442Y-95111076D01*
X148288509Y-94375685D02*
X148249804Y-94453095D01*
X148249804Y-94607914D01*
X148288509Y-94685323D01*
X148327214Y-94724028D01*
X148404623Y-94762733D01*
X148636852Y-94762733D01*
X148714261Y-94724028D01*
X148752966Y-94685323D01*
X148791671Y-94607914D01*
X148791671Y-94453095D01*
X148752966Y-94375685D01*
X148249804Y-94027342D02*
X148791671Y-94027342D01*
X149062604Y-94027342D02*
X149023900Y-94066047D01*
X148985195Y-94027342D01*
X149023900Y-93988638D01*
X149062604Y-94027342D01*
X148985195Y-94027342D01*
X148249804Y-93640295D02*
X148791671Y-93640295D01*
X148636852Y-93640295D02*
X148714261Y-93601590D01*
X148752966Y-93562885D01*
X148791671Y-93485476D01*
X148791671Y-93408066D01*
X148288509Y-92788790D02*
X148249804Y-92866200D01*
X148249804Y-93021019D01*
X148288509Y-93098428D01*
X148327214Y-93137133D01*
X148404623Y-93175838D01*
X148636852Y-93175838D01*
X148714261Y-93137133D01*
X148752966Y-93098428D01*
X148791671Y-93021019D01*
X148791671Y-92866200D01*
X148752966Y-92788790D01*
X148791671Y-92092104D02*
X148249804Y-92092104D01*
X148791671Y-92440447D02*
X148365919Y-92440447D01*
X148288509Y-92401742D01*
X148249804Y-92324333D01*
X148249804Y-92208219D01*
X148288509Y-92130809D01*
X148327214Y-92092104D01*
X148249804Y-91705057D02*
X148791671Y-91705057D01*
X149062604Y-91705057D02*
X149023900Y-91743761D01*
X148985195Y-91705057D01*
X149023900Y-91666352D01*
X149062604Y-91705057D01*
X148985195Y-91705057D01*
X148791671Y-91434123D02*
X148791671Y-91124485D01*
X149062604Y-91318009D02*
X148365919Y-91318009D01*
X148288509Y-91279304D01*
X148249804Y-91201895D01*
X148249804Y-91124485D01*
X148559442Y-90853552D02*
X148559442Y-90234276D01*
X148249804Y-89498885D02*
X149062604Y-89498885D01*
X148288509Y-89498885D02*
X148249804Y-89576295D01*
X148249804Y-89731114D01*
X148288509Y-89808523D01*
X148327214Y-89847228D01*
X148404623Y-89885933D01*
X148636852Y-89885933D01*
X148714261Y-89847228D01*
X148752966Y-89808523D01*
X148791671Y-89731114D01*
X148791671Y-89576295D01*
X148752966Y-89498885D01*
X148288509Y-88802200D02*
X148249804Y-88879609D01*
X148249804Y-89034428D01*
X148288509Y-89111838D01*
X148365919Y-89150542D01*
X148675557Y-89150542D01*
X148752966Y-89111838D01*
X148791671Y-89034428D01*
X148791671Y-88879609D01*
X148752966Y-88802200D01*
X148675557Y-88763495D01*
X148598147Y-88763495D01*
X148520738Y-89150542D01*
X148288509Y-88453857D02*
X148249804Y-88376447D01*
X148249804Y-88221628D01*
X148288509Y-88144219D01*
X148365919Y-88105514D01*
X148404623Y-88105514D01*
X148482033Y-88144219D01*
X148520738Y-88221628D01*
X148520738Y-88337742D01*
X148559442Y-88415152D01*
X148636852Y-88453857D01*
X148675557Y-88453857D01*
X148752966Y-88415152D01*
X148791671Y-88337742D01*
X148791671Y-88221628D01*
X148752966Y-88144219D01*
X148249804Y-87757171D02*
X148791671Y-87757171D01*
X149062604Y-87757171D02*
X149023900Y-87795876D01*
X148985195Y-87757171D01*
X149023900Y-87718466D01*
X149062604Y-87757171D01*
X148985195Y-87757171D01*
X148791671Y-87021780D02*
X148133690Y-87021780D01*
X148056280Y-87060485D01*
X148017576Y-87099190D01*
X147978871Y-87176600D01*
X147978871Y-87292714D01*
X148017576Y-87370123D01*
X148288509Y-87021780D02*
X148249804Y-87099190D01*
X148249804Y-87254009D01*
X148288509Y-87331419D01*
X148327214Y-87370123D01*
X148404623Y-87408828D01*
X148636852Y-87408828D01*
X148714261Y-87370123D01*
X148752966Y-87331419D01*
X148791671Y-87254009D01*
X148791671Y-87099190D01*
X148752966Y-87021780D01*
X148791671Y-86634733D02*
X148249804Y-86634733D01*
X148714261Y-86634733D02*
X148752966Y-86596028D01*
X148791671Y-86518619D01*
X148791671Y-86402504D01*
X148752966Y-86325095D01*
X148675557Y-86286390D01*
X148249804Y-86286390D01*
X153474619Y-84177466D02*
X153087571Y-84177466D01*
X153552028Y-84409695D02*
X153281095Y-83596895D01*
X153010161Y-84409695D01*
X152313476Y-84409695D02*
X152777933Y-84409695D01*
X152545704Y-84409695D02*
X152545704Y-83596895D01*
X152623114Y-83713009D01*
X152700523Y-83790419D01*
X152777933Y-83829123D01*
X151616790Y-83867828D02*
X151616790Y-84409695D01*
X151810314Y-83558190D02*
X152003838Y-84138761D01*
X151500676Y-84138761D01*
X143990285Y-95211580D02*
X144028990Y-95172876D01*
X144067695Y-95056761D01*
X144067695Y-94979352D01*
X144028990Y-94863238D01*
X143951580Y-94785828D01*
X143874171Y-94747123D01*
X143719352Y-94708419D01*
X143603238Y-94708419D01*
X143448419Y-94747123D01*
X143371009Y-94785828D01*
X143293600Y-94863238D01*
X143254895Y-94979352D01*
X143254895Y-95056761D01*
X143293600Y-95172876D01*
X143332304Y-95211580D01*
X143332304Y-103994147D02*
X143293600Y-104032852D01*
X143254895Y-104110262D01*
X143254895Y-104303785D01*
X143293600Y-104381195D01*
X143332304Y-104419900D01*
X143409714Y-104458604D01*
X143487123Y-104458604D01*
X143603238Y-104419900D01*
X144067695Y-103955443D01*
X144067695Y-104458604D01*
X143254895Y-104961766D02*
X143254895Y-105039176D01*
X143293600Y-105116585D01*
X143332304Y-105155290D01*
X143409714Y-105193995D01*
X143564533Y-105232700D01*
X143758057Y-105232700D01*
X143912876Y-105193995D01*
X143990285Y-105155290D01*
X144028990Y-105116585D01*
X144067695Y-105039176D01*
X144067695Y-104961766D01*
X144028990Y-104884357D01*
X143990285Y-104845652D01*
X143912876Y-104806947D01*
X143758057Y-104768243D01*
X143564533Y-104768243D01*
X143409714Y-104806947D01*
X143332304Y-104845652D01*
X143293600Y-104884357D01*
X143254895Y-104961766D01*
X143760619Y-79859466D02*
X143373571Y-79859466D01*
X143838028Y-80091695D02*
X143567095Y-79278895D01*
X143296161Y-80091695D01*
X142599476Y-80091695D02*
X143063933Y-80091695D01*
X142831704Y-80091695D02*
X142831704Y-79278895D01*
X142909114Y-79395009D01*
X142986523Y-79472419D01*
X143063933Y-79511123D01*
X141864085Y-79278895D02*
X142251133Y-79278895D01*
X142289838Y-79665942D01*
X142251133Y-79627238D01*
X142173723Y-79588533D01*
X141980200Y-79588533D01*
X141902790Y-79627238D01*
X141864085Y-79665942D01*
X141825380Y-79743352D01*
X141825380Y-79936876D01*
X141864085Y-80014285D01*
X141902790Y-80052990D01*
X141980200Y-80091695D01*
X142173723Y-80091695D01*
X142251133Y-80052990D01*
X142289838Y-80014285D01*
X153154895Y-107954820D02*
X153154895Y-107800001D01*
X153193600Y-107722591D01*
X153232304Y-107683886D01*
X153348419Y-107606477D01*
X153503238Y-107567772D01*
X153812876Y-107567772D01*
X153890285Y-107606477D01*
X153928990Y-107645181D01*
X153967695Y-107722591D01*
X153967695Y-107877410D01*
X153928990Y-107954820D01*
X153890285Y-107993524D01*
X153812876Y-108032229D01*
X153619352Y-108032229D01*
X153541942Y-107993524D01*
X153503238Y-107954820D01*
X153464533Y-107877410D01*
X153464533Y-107722591D01*
X153503238Y-107645181D01*
X153541942Y-107606477D01*
X153619352Y-107567772D01*
X153325828Y-101534820D02*
X153867695Y-101534820D01*
X153016190Y-101341296D02*
X153596761Y-101147772D01*
X153596761Y-101650934D01*
X146998619Y-84177466D02*
X146611571Y-84177466D01*
X147076028Y-84409695D02*
X146805095Y-83596895D01*
X146534161Y-84409695D01*
X145837476Y-84409695D02*
X146301933Y-84409695D01*
X146069704Y-84409695D02*
X146069704Y-83596895D01*
X146147114Y-83713009D01*
X146224523Y-83790419D01*
X146301933Y-83829123D01*
X145527838Y-83674304D02*
X145489133Y-83635600D01*
X145411723Y-83596895D01*
X145218200Y-83596895D01*
X145140790Y-83635600D01*
X145102085Y-83674304D01*
X145063380Y-83751714D01*
X145063380Y-83829123D01*
X145102085Y-83945238D01*
X145566542Y-84409695D01*
X145063380Y-84409695D01*
X144067695Y-99129177D02*
X144067695Y-98664720D01*
X144067695Y-98896949D02*
X143254895Y-98896949D01*
X143371009Y-98819539D01*
X143448419Y-98742130D01*
X143487123Y-98664720D01*
X143603238Y-99593635D02*
X143564533Y-99516225D01*
X143525828Y-99477520D01*
X143448419Y-99438816D01*
X143409714Y-99438816D01*
X143332304Y-99477520D01*
X143293600Y-99516225D01*
X143254895Y-99593635D01*
X143254895Y-99748454D01*
X143293600Y-99825863D01*
X143332304Y-99864568D01*
X143409714Y-99903273D01*
X143448419Y-99903273D01*
X143525828Y-99864568D01*
X143564533Y-99825863D01*
X143603238Y-99748454D01*
X143603238Y-99593635D01*
X143641942Y-99516225D01*
X143680647Y-99477520D01*
X143758057Y-99438816D01*
X143912876Y-99438816D01*
X143990285Y-99477520D01*
X144028990Y-99516225D01*
X144067695Y-99593635D01*
X144067695Y-99748454D01*
X144028990Y-99825863D01*
X143990285Y-99864568D01*
X143912876Y-99903273D01*
X143758057Y-99903273D01*
X143680647Y-99864568D01*
X143641942Y-99825863D01*
X143603238Y-99748454D01*
X150236619Y-84177466D02*
X149849571Y-84177466D01*
X150314028Y-84409695D02*
X150043095Y-83596895D01*
X149772161Y-84409695D01*
X149075476Y-84409695D02*
X149539933Y-84409695D01*
X149307704Y-84409695D02*
X149307704Y-83596895D01*
X149385114Y-83713009D01*
X149462523Y-83790419D01*
X149539933Y-83829123D01*
X148804542Y-83596895D02*
X148301380Y-83596895D01*
X148572314Y-83906533D01*
X148456200Y-83906533D01*
X148378790Y-83945238D01*
X148340085Y-83983942D01*
X148301380Y-84061352D01*
X148301380Y-84254876D01*
X148340085Y-84332285D01*
X148378790Y-84370990D01*
X148456200Y-84409695D01*
X148688428Y-84409695D01*
X148765838Y-84370990D01*
X148804542Y-84332285D01*
X146998619Y-79859466D02*
X146611571Y-79859466D01*
X147076028Y-80091695D02*
X146805095Y-79278895D01*
X146534161Y-80091695D01*
X145837476Y-80091695D02*
X146301933Y-80091695D01*
X146069704Y-80091695D02*
X146069704Y-79278895D01*
X146147114Y-79395009D01*
X146224523Y-79472419D01*
X146301933Y-79511123D01*
X145140790Y-79278895D02*
X145295609Y-79278895D01*
X145373019Y-79317600D01*
X145411723Y-79356304D01*
X145489133Y-79472419D01*
X145527838Y-79627238D01*
X145527838Y-79936876D01*
X145489133Y-80014285D01*
X145450428Y-80052990D01*
X145373019Y-80091695D01*
X145218200Y-80091695D01*
X145140790Y-80052990D01*
X145102085Y-80014285D01*
X145063380Y-79936876D01*
X145063380Y-79743352D01*
X145102085Y-79665942D01*
X145140790Y-79627238D01*
X145218200Y-79588533D01*
X145373019Y-79588533D01*
X145450428Y-79627238D01*
X145489133Y-79665942D01*
X145527838Y-79743352D01*
X153474619Y-79859466D02*
X153087571Y-79859466D01*
X153552028Y-80091695D02*
X153281095Y-79278895D01*
X153010161Y-80091695D01*
X152313476Y-80091695D02*
X152777933Y-80091695D01*
X152545704Y-80091695D02*
X152545704Y-79278895D01*
X152623114Y-79395009D01*
X152700523Y-79472419D01*
X152777933Y-79511123D01*
X151849019Y-79627238D02*
X151926428Y-79588533D01*
X151965133Y-79549828D01*
X152003838Y-79472419D01*
X152003838Y-79433714D01*
X151965133Y-79356304D01*
X151926428Y-79317600D01*
X151849019Y-79278895D01*
X151694200Y-79278895D01*
X151616790Y-79317600D01*
X151578085Y-79356304D01*
X151539380Y-79433714D01*
X151539380Y-79472419D01*
X151578085Y-79549828D01*
X151616790Y-79588533D01*
X151694200Y-79627238D01*
X151849019Y-79627238D01*
X151926428Y-79665942D01*
X151965133Y-79704647D01*
X152003838Y-79782057D01*
X152003838Y-79936876D01*
X151965133Y-80014285D01*
X151926428Y-80052990D01*
X151849019Y-80091695D01*
X151694200Y-80091695D01*
X151616790Y-80052990D01*
X151578085Y-80014285D01*
X151539380Y-79936876D01*
X151539380Y-79782057D01*
X151578085Y-79704647D01*
X151616790Y-79665942D01*
X151694200Y-79627238D01*
X143835466Y-88346476D02*
X143835466Y-88733523D01*
X144067695Y-88269066D02*
X143254895Y-88540000D01*
X144067695Y-88810933D01*
X143332304Y-109323575D02*
X143293600Y-109362280D01*
X143254895Y-109439690D01*
X143254895Y-109633213D01*
X143293600Y-109710623D01*
X143332304Y-109749328D01*
X143409714Y-109788032D01*
X143487123Y-109788032D01*
X143603238Y-109749328D01*
X144067695Y-109284871D01*
X144067695Y-109788032D01*
X144067695Y-110562128D02*
X144067695Y-110097671D01*
X144067695Y-110329899D02*
X143254895Y-110329899D01*
X143371009Y-110252490D01*
X143448419Y-110175080D01*
X143487123Y-110097671D01*
D11*
X150236619Y-79860216D02*
X149849571Y-79860216D01*
X150314028Y-80092445D02*
X150043095Y-79279645D01*
X149772161Y-80092445D01*
X149075476Y-80092445D02*
X149539933Y-80092445D01*
X149307704Y-80092445D02*
X149307704Y-79279645D01*
X149385114Y-79395759D01*
X149462523Y-79473169D01*
X149539933Y-79511873D01*
X148804542Y-79279645D02*
X148262676Y-79279645D01*
X148611019Y-80092445D01*
D10*
X153154895Y-88501296D02*
X153154895Y-88578705D01*
X153193600Y-88656115D01*
X153232304Y-88694820D01*
X153309714Y-88733524D01*
X153464533Y-88772229D01*
X153658057Y-88772229D01*
X153812876Y-88733524D01*
X153890285Y-88694820D01*
X153928990Y-88656115D01*
X153967695Y-88578705D01*
X153967695Y-88501296D01*
X153928990Y-88423886D01*
X153890285Y-88385181D01*
X153812876Y-88346477D01*
X153658057Y-88307772D01*
X153464533Y-88307772D01*
X153309714Y-88346477D01*
X153232304Y-88385181D01*
X153193600Y-88423886D01*
X153154895Y-88501296D01*
X153154895Y-97899067D02*
X153154895Y-98402229D01*
X153464533Y-98131296D01*
X153464533Y-98247410D01*
X153503238Y-98324820D01*
X153541942Y-98363524D01*
X153619352Y-98402229D01*
X153812876Y-98402229D01*
X153890285Y-98363524D01*
X153928990Y-98324820D01*
X153967695Y-98247410D01*
X153967695Y-98015181D01*
X153928990Y-97937772D01*
X153890285Y-97899067D01*
X146854895Y-108396917D02*
X146854895Y-108900079D01*
X147164533Y-108629146D01*
X147164533Y-108745260D01*
X147203238Y-108822670D01*
X147241942Y-108861374D01*
X147319352Y-108900079D01*
X147512876Y-108900079D01*
X147590285Y-108861374D01*
X147628990Y-108822670D01*
X147667695Y-108745260D01*
X147667695Y-108513031D01*
X147628990Y-108435622D01*
X147590285Y-108396917D01*
X147667695Y-111450079D02*
X147667695Y-110985622D01*
X147667695Y-111217851D02*
X146854895Y-111217851D01*
X146971009Y-111140441D01*
X147048419Y-111063031D01*
X147087123Y-110985622D01*
X146854895Y-103067489D02*
X146854895Y-103570651D01*
X147164533Y-103299718D01*
X147164533Y-103415832D01*
X147203238Y-103493242D01*
X147241942Y-103531946D01*
X147319352Y-103570651D01*
X147512876Y-103570651D01*
X147590285Y-103531946D01*
X147628990Y-103493242D01*
X147667695Y-103415832D01*
X147667695Y-103183603D01*
X147628990Y-103106194D01*
X147590285Y-103067489D01*
X147667695Y-106120651D02*
X147667695Y-105656194D01*
X147667695Y-105888423D02*
X146854895Y-105888423D01*
X146971009Y-105811013D01*
X147048419Y-105733603D01*
X147087123Y-105656194D01*
X146854895Y-97738062D02*
X146854895Y-98241224D01*
X147164533Y-97970291D01*
X147164533Y-98086405D01*
X147203238Y-98163815D01*
X147241942Y-98202519D01*
X147319352Y-98241224D01*
X147512876Y-98241224D01*
X147590285Y-98202519D01*
X147628990Y-98163815D01*
X147667695Y-98086405D01*
X147667695Y-97854176D01*
X147628990Y-97776767D01*
X147590285Y-97738062D01*
X147667695Y-100791224D02*
X147667695Y-100326767D01*
X147667695Y-100558996D02*
X146854895Y-100558996D01*
X146971009Y-100481586D01*
X147048419Y-100404176D01*
X147087123Y-100326767D01*
D12*
X152000000Y-106800000D02*
X150600000Y-106800000D01*
X152700000Y-108100000D02*
X152700000Y-107500000D01*
X149900000Y-107500000D02*
X149900000Y-108100000D01*
X150600000Y-108800000D02*
X152000000Y-108800000D01*
X152700000Y-107500000D02*
G75*
G03*
X152000000Y-106800000I-699999J1D01*
G01*
X150600000Y-106800000D02*
G75*
G03*
X149900000Y-107500000I-1J-699999D01*
G01*
X152000000Y-108800000D02*
G75*
G03*
X152700000Y-108100000I1J699999D01*
G01*
X149900000Y-108100000D02*
G75*
G03*
X150600000Y-108800000I699999J-1D01*
G01*
X152000000Y-93960000D02*
X150600000Y-93960000D01*
X150600000Y-95960000D02*
X152000000Y-95960000D01*
X152700000Y-95260000D02*
X152700000Y-94660000D01*
X149900000Y-94660000D02*
X149900000Y-95260000D01*
X150600000Y-93960000D02*
G75*
G03*
X149900000Y-94660000I-1J-699999D01*
G01*
X149900000Y-95260000D02*
G75*
G03*
X150600000Y-95960000I699999J-1D01*
G01*
X152000000Y-95960000D02*
G75*
G03*
X152700000Y-95260000I1J699999D01*
G01*
X152700000Y-94660000D02*
G75*
G03*
X152000000Y-93960000I-699999J1D01*
G01*
X152000000Y-103590000D02*
X150600000Y-103590000D01*
X149900000Y-104290000D02*
X149900000Y-104890000D01*
X150600000Y-105590000D02*
X152000000Y-105590000D01*
X152700000Y-104890000D02*
X152700000Y-104290000D01*
X149900000Y-104890000D02*
G75*
G03*
X150600000Y-105590000I699999J-1D01*
G01*
X152000000Y-105590000D02*
G75*
G03*
X152700000Y-104890000I1J699999D01*
G01*
X150600000Y-103590000D02*
G75*
G03*
X149900000Y-104290000I-1J-699999D01*
G01*
X152700000Y-104290000D02*
G75*
G03*
X152000000Y-103590000I-699999J1D01*
G01*
X146500000Y-111342852D02*
X146500000Y-108542852D01*
X145800000Y-107892852D02*
X145200000Y-107892852D01*
X145200000Y-111992852D02*
X145800000Y-111992852D01*
X144500000Y-108542852D02*
X144500000Y-111342852D01*
X145800000Y-111992852D02*
G75*
G03*
X146500000Y-111292852I1J699999D01*
G01*
X146500000Y-108592852D02*
G75*
G03*
X145800000Y-107892852I-699999J1D01*
G01*
X145200000Y-107892852D02*
G75*
G03*
X144500000Y-108592852I-1J-699999D01*
G01*
X144500000Y-111292852D02*
G75*
G03*
X145200000Y-111992852I699999J-1D01*
G01*
X146331000Y-76180000D02*
X145731000Y-76180000D01*
X145031000Y-76880000D02*
X145031000Y-78280000D01*
X145731000Y-78980000D02*
X146331000Y-78980000D01*
X147031000Y-78280000D02*
X147031000Y-76880000D01*
X145031000Y-78280000D02*
G75*
G03*
X145731000Y-78980000I699999J-1D01*
G01*
X146331000Y-78980000D02*
G75*
G03*
X147031000Y-78280000I1J699999D01*
G01*
X145731000Y-76180000D02*
G75*
G03*
X145031000Y-76880000I-1J-699999D01*
G01*
X147031000Y-76880000D02*
G75*
G03*
X146331000Y-76180000I-699999J1D01*
G01*
X145800000Y-102563424D02*
X145200000Y-102563424D01*
X146500000Y-106013424D02*
X146500000Y-103213424D01*
X144500000Y-103213424D02*
X144500000Y-106013424D01*
X145200000Y-106663424D02*
X145800000Y-106663424D01*
X145800000Y-106663424D02*
G75*
G03*
X146500000Y-105963424I1J699999D01*
G01*
X144500000Y-105963424D02*
G75*
G03*
X145200000Y-106663424I699999J-1D01*
G01*
X146500000Y-103263424D02*
G75*
G03*
X145800000Y-102563424I-699999J1D01*
G01*
X145200000Y-102563424D02*
G75*
G03*
X144500000Y-103263424I-1J-699999D01*
G01*
X152700000Y-88840000D02*
X152700000Y-88240000D01*
X152000000Y-87540000D02*
X150600000Y-87540000D01*
X149900000Y-88240000D02*
X149900000Y-88840000D01*
X150600000Y-89540000D02*
X152000000Y-89540000D01*
X150600000Y-87540000D02*
G75*
G03*
X149900000Y-88240000I-1J-699999D01*
G01*
X149900000Y-88840000D02*
G75*
G03*
X150600000Y-89540000I699999J-1D01*
G01*
X152700000Y-88240000D02*
G75*
G03*
X152000000Y-87540000I-699999J1D01*
G01*
X152000000Y-89540000D02*
G75*
G03*
X152700000Y-88840000I1J699999D01*
G01*
X152700000Y-101680000D02*
X152700000Y-101080000D01*
X152000000Y-100380000D02*
X150600000Y-100380000D01*
X149900000Y-101080000D02*
X149900000Y-101680000D01*
X150600000Y-102380000D02*
X152000000Y-102380000D01*
X150600000Y-100380000D02*
G75*
G03*
X149900000Y-101080000I-1J-699999D01*
G01*
X152700000Y-101080000D02*
G75*
G03*
X152000000Y-100380000I-699999J1D01*
G01*
X152000000Y-102380000D02*
G75*
G03*
X152700000Y-101680000I1J699999D01*
G01*
X149900000Y-101680000D02*
G75*
G03*
X150600000Y-102380000I699999J-1D01*
G01*
X144500000Y-97883997D02*
X144500000Y-100683997D01*
X145200000Y-101333997D02*
X145800000Y-101333997D01*
X146500000Y-100683997D02*
X146500000Y-97883997D01*
X145800000Y-97233997D02*
X145200000Y-97233997D01*
X145800000Y-101333997D02*
G75*
G03*
X146500000Y-100633997I1J699999D01*
G01*
X144500000Y-100633997D02*
G75*
G03*
X145200000Y-101333997I699999J-1D01*
G01*
X145200000Y-97233997D02*
G75*
G03*
X144500000Y-97933997I-1J-699999D01*
G01*
X146500000Y-97933997D02*
G75*
G03*
X145800000Y-97233997I-699999J1D01*
G01*
X149900000Y-91450000D02*
X149900000Y-92050000D01*
X150600000Y-92750000D02*
X152000000Y-92750000D01*
X152000000Y-90750000D02*
X150600000Y-90750000D01*
X152700000Y-92050000D02*
X152700000Y-91450000D01*
X149900000Y-92050000D02*
G75*
G03*
X150600000Y-92750000I699999J-1D01*
G01*
X152700000Y-91450000D02*
G75*
G03*
X152000000Y-90750000I-699999J1D01*
G01*
X150600000Y-90750000D02*
G75*
G03*
X149900000Y-91450000I-1J-699999D01*
G01*
X152000000Y-92750000D02*
G75*
G03*
X152700000Y-92050000I1J699999D01*
G01*
X152207000Y-83283000D02*
X152807000Y-83283000D01*
X152807000Y-80483000D02*
X152207000Y-80483000D01*
X153507000Y-82583000D02*
X153507000Y-81183000D01*
X151507000Y-81183000D02*
X151507000Y-82583000D01*
X151507000Y-82583000D02*
G75*
G03*
X152207000Y-83283000I699999J-1D01*
G01*
X152207000Y-80483000D02*
G75*
G03*
X151507000Y-81183000I-1J-699999D01*
G01*
X153507000Y-81183000D02*
G75*
G03*
X152807000Y-80483000I-699999J1D01*
G01*
X152807000Y-83283000D02*
G75*
G03*
X153507000Y-82583000I1J699999D01*
G01*
X145200000Y-89540000D02*
X146600000Y-89540000D01*
X147300000Y-88840000D02*
X147300000Y-88240000D01*
X146600000Y-87540000D02*
X145200000Y-87540000D01*
X144500000Y-88240000D02*
X144500000Y-88840000D01*
X147300000Y-88240000D02*
G75*
G03*
X146600000Y-87540000I-699999J1D01*
G01*
X144500000Y-88840000D02*
G75*
G03*
X145200000Y-89540000I699999J-1D01*
G01*
X145200000Y-87540000D02*
G75*
G03*
X144500000Y-88240000I-1J-699999D01*
G01*
X146600000Y-89540000D02*
G75*
G03*
X147300000Y-88840000I1J699999D01*
G01*
X146600000Y-90775143D02*
X145200000Y-90775143D01*
X144500000Y-91475143D02*
X144500000Y-92075143D01*
X147300000Y-92075143D02*
X147300000Y-91475143D01*
X145200000Y-92775143D02*
X146600000Y-92775143D01*
X145200000Y-90775143D02*
G75*
G03*
X144500000Y-91475143I-1J-699999D01*
G01*
X147300000Y-91475143D02*
G75*
G03*
X146600000Y-90775143I-699999J1D01*
G01*
X146600000Y-92775143D02*
G75*
G03*
X147300000Y-92075143I1J699999D01*
G01*
X144500000Y-92075143D02*
G75*
G03*
X145200000Y-92775143I699999J-1D01*
G01*
X152000000Y-97170000D02*
X150600000Y-97170000D01*
X150600000Y-99170000D02*
X152000000Y-99170000D01*
X152700000Y-98470000D02*
X152700000Y-97870000D01*
X149900000Y-97870000D02*
X149900000Y-98470000D01*
X150600000Y-97170000D02*
G75*
G03*
X149900000Y-97870000I-1J-699999D01*
G01*
X149900000Y-98470000D02*
G75*
G03*
X150600000Y-99170000I699999J-1D01*
G01*
X152700000Y-97870000D02*
G75*
G03*
X152000000Y-97170000I-699999J1D01*
G01*
X152000000Y-99170000D02*
G75*
G03*
X152700000Y-98470000I1J699999D01*
G01*
X146600000Y-93960000D02*
X145200000Y-93960000D01*
X144500000Y-94660000D02*
X144500000Y-95260000D01*
X145200000Y-95960000D02*
X146600000Y-95960000D01*
X147300000Y-95260000D02*
X147300000Y-94660000D01*
X147300000Y-94660000D02*
G75*
G03*
X146600000Y-93960000I-699999J1D01*
G01*
X144500000Y-95260000D02*
G75*
G03*
X145200000Y-95960000I699999J-1D01*
G01*
X145200000Y-93960000D02*
G75*
G03*
X144500000Y-94660000I-1J-699999D01*
G01*
X146600000Y-95960000D02*
G75*
G03*
X147300000Y-95260000I1J699999D01*
G01*
X152207000Y-78980000D02*
X152807000Y-78980000D01*
X152807000Y-76180000D02*
X152207000Y-76180000D01*
X153507000Y-78280000D02*
X153507000Y-76880000D01*
X151507000Y-76880000D02*
X151507000Y-78280000D01*
X151507000Y-78280000D02*
G75*
G03*
X152207000Y-78980000I699999J-1D01*
G01*
X152207000Y-76180000D02*
G75*
G03*
X151507000Y-76880000I-1J-699999D01*
G01*
X153507000Y-76880000D02*
G75*
G03*
X152807000Y-76180000I-699999J1D01*
G01*
X152807000Y-78980000D02*
G75*
G03*
X153507000Y-78280000I1J699999D01*
G01*
X142493000Y-83283000D02*
X143093000Y-83283000D01*
X143093000Y-80483000D02*
X142493000Y-80483000D01*
X143793000Y-82583000D02*
X143793000Y-81183000D01*
X141793000Y-81183000D02*
X141793000Y-82583000D01*
X142493000Y-80483000D02*
G75*
G03*
X141793000Y-81183000I-1J-699999D01*
G01*
X143793000Y-81183000D02*
G75*
G03*
X143093000Y-80483000I-699999J1D01*
G01*
X141793000Y-82583000D02*
G75*
G03*
X142493000Y-83283000I699999J-1D01*
G01*
X143093000Y-83283000D02*
G75*
G03*
X143793000Y-82583000I1J699999D01*
G01*
X147031000Y-82583000D02*
X147031000Y-81183000D01*
X145731000Y-83283000D02*
X146331000Y-83283000D01*
X145031000Y-81183000D02*
X145031000Y-82583000D01*
X146331000Y-80483000D02*
X145731000Y-80483000D01*
X145031000Y-82583000D02*
G75*
G03*
X145731000Y-83283000I699999J-1D01*
G01*
X147031000Y-81183000D02*
G75*
G03*
X146331000Y-80483000I-699999J1D01*
G01*
X145731000Y-80483000D02*
G75*
G03*
X145031000Y-81183000I-1J-699999D01*
G01*
X146331000Y-83283000D02*
G75*
G03*
X147031000Y-82583000I1J699999D01*
G01*
X152000000Y-110010000D02*
X150600000Y-110010000D01*
X149900000Y-110710000D02*
X149900000Y-111310000D01*
X152700000Y-111310000D02*
X152700000Y-110710000D01*
X150600000Y-112010000D02*
X152000000Y-112010000D01*
X150600000Y-110010000D02*
G75*
G03*
X149900000Y-110710000I-1J-699999D01*
G01*
X149900000Y-111310000D02*
G75*
G03*
X150600000Y-112010000I699999J-1D01*
G01*
X152700000Y-110710000D02*
G75*
G03*
X152000000Y-110010000I-699999J1D01*
G01*
X152000000Y-112010000D02*
G75*
G03*
X152700000Y-111310000I1J699999D01*
G01*
X143793000Y-78280000D02*
X143793000Y-76880000D01*
X143093000Y-76180000D02*
X142493000Y-76180000D01*
X141793000Y-76880000D02*
X141793000Y-78280000D01*
X142493000Y-78980000D02*
X143093000Y-78980000D01*
X143093000Y-78980000D02*
G75*
G03*
X143793000Y-78280000I1J699999D01*
G01*
X142493000Y-76180000D02*
G75*
G03*
X141793000Y-76880000I-1J-699999D01*
G01*
X143793000Y-76880000D02*
G75*
G03*
X143093000Y-76180000I-699999J1D01*
G01*
X141793000Y-78280000D02*
G75*
G03*
X142493000Y-78980000I699999J-1D01*
G01*
X150269000Y-82583000D02*
X150269000Y-81183000D01*
X149569000Y-80483000D02*
X148969000Y-80483000D01*
X148969000Y-83283000D02*
X149569000Y-83283000D01*
X148269000Y-81183000D02*
X148269000Y-82583000D01*
X149569000Y-83283000D02*
G75*
G03*
X150269000Y-82583000I1J699999D01*
G01*
X148969000Y-80483000D02*
G75*
G03*
X148269000Y-81183000I-1J-699999D01*
G01*
X150269000Y-81183000D02*
G75*
G03*
X149569000Y-80483000I-699999J1D01*
G01*
X148269000Y-82583000D02*
G75*
G03*
X148969000Y-83283000I699999J-1D01*
G01*
X148969000Y-78980000D02*
X149569000Y-78980000D01*
X150269000Y-78280000D02*
X150269000Y-76880000D01*
X149569000Y-76180000D02*
X148969000Y-76180000D01*
X148269000Y-76880000D02*
X148269000Y-78280000D01*
X149569000Y-78980000D02*
G75*
G03*
X150269000Y-78280000I1J699999D01*
G01*
X148969000Y-76180000D02*
G75*
G03*
X148269000Y-76880000I-1J-699999D01*
G01*
X150269000Y-76880000D02*
G75*
G03*
X149569000Y-76180000I-699999J1D01*
G01*
X148269000Y-78280000D02*
G75*
G03*
X148969000Y-78980000I699999J-1D01*
G01*
%LPC*%
D13*
X140030000Y-74390000D03*
X140030000Y-76930000D03*
X140030000Y-79470000D03*
X140030000Y-82010000D03*
X140030000Y-84550000D03*
X140030000Y-87090000D03*
X140030000Y-89630000D03*
X140030000Y-92170000D03*
X140030000Y-94710000D03*
X140030000Y-97250000D03*
X140030000Y-99790000D03*
X140030000Y-102330000D03*
X140030000Y-104870000D03*
X140030000Y-107410000D03*
X140030000Y-109950000D03*
X140030000Y-112490000D03*
D14*
X155270000Y-112490000D03*
X155270000Y-109950000D03*
X155270000Y-107410000D03*
X155270000Y-104870000D03*
X155270000Y-102330000D03*
X155270000Y-99790000D03*
X155270000Y-97250000D03*
X155270000Y-94710000D03*
X155270000Y-92170000D03*
X155270000Y-89630000D03*
X155270000Y-87090000D03*
X155270000Y-84550000D03*
X155270000Y-82010000D03*
X155270000Y-79470000D03*
X155270000Y-76930000D03*
X155270000Y-74390000D03*
D15*
X157475000Y-84250000D03*
X157475000Y-82980000D03*
X157475000Y-81710000D03*
X157475000Y-80440000D03*
X157475000Y-79170000D03*
X157475000Y-77900000D03*
X157475000Y-76630000D03*
X157475000Y-75360000D03*
D13*
X141935000Y-85820000D03*
X141935000Y-88360000D03*
X141935000Y-90900000D03*
X141935000Y-93440000D03*
X141935000Y-95980000D03*
X141935000Y-98520000D03*
X141935000Y-101060000D03*
X141935000Y-103600000D03*
X141935000Y-106140000D03*
X141935000Y-108680000D03*
X141935000Y-111220000D03*
X141935000Y-113760000D03*
D14*
X157175000Y-113760000D03*
X157175000Y-111220000D03*
X157175000Y-108680000D03*
X157175000Y-106140000D03*
X157175000Y-103600000D03*
X157175000Y-101060000D03*
X157175000Y-98520000D03*
X157175000Y-95980000D03*
X157175000Y-93440000D03*
X157175000Y-90900000D03*
X157175000Y-88360000D03*
X157175000Y-85820000D03*
D16*
X157475000Y-74090000D03*
D17*
X151950000Y-107800000D03*
D18*
X150650000Y-107800000D03*
D17*
X151950000Y-94960000D03*
D18*
X150650000Y-94960000D03*
D17*
X151950000Y-104590000D03*
D18*
X150650000Y-104590000D03*
D19*
X145500000Y-111242852D03*
D20*
X145500000Y-109942852D03*
D21*
X145500000Y-108642852D03*
D22*
X146031000Y-76930000D03*
D23*
X146031000Y-78230000D03*
D19*
X145500000Y-105913424D03*
D20*
X145500000Y-104613424D03*
D21*
X145500000Y-103313424D03*
D17*
X151950000Y-88540000D03*
D18*
X150650000Y-88540000D03*
D17*
X151950000Y-101380000D03*
D18*
X150650000Y-101380000D03*
D19*
X145500000Y-100583997D03*
D20*
X145500000Y-99283997D03*
D21*
X145500000Y-97983997D03*
D17*
X151950000Y-91750000D03*
D18*
X150650000Y-91750000D03*
D24*
X152507000Y-82533000D03*
D25*
X152507000Y-81233000D03*
D17*
X146550000Y-88540000D03*
D18*
X145250000Y-88540000D03*
D17*
X146550000Y-91775143D03*
D18*
X145250000Y-91775143D03*
D17*
X151950000Y-98170000D03*
D18*
X150650000Y-98170000D03*
D17*
X146550000Y-94960000D03*
D18*
X145250000Y-94960000D03*
D22*
X152507000Y-76930000D03*
D23*
X152507000Y-78230000D03*
D24*
X142793000Y-82533000D03*
D25*
X142793000Y-81233000D03*
D24*
X146031000Y-82533000D03*
D25*
X146031000Y-81233000D03*
D17*
X151950000Y-111010000D03*
D18*
X150650000Y-111010000D03*
D22*
X142793000Y-76930000D03*
D23*
X142793000Y-78230000D03*
D24*
X149269000Y-82533000D03*
D25*
X149269000Y-81233000D03*
D22*
X149269000Y-76930000D03*
D23*
X149269000Y-78230000D03*
M02*
