%TF.GenerationSoftware,KiCad,Pcbnew,(6.0.2)*%
%TF.CreationDate,2022-03-14T15:32:47-04:00*%
%TF.ProjectId,23XX-Adapter,32335858-2d41-4646-9170-7465722e6b69,2*%
%TF.SameCoordinates,Original*%
%TF.FileFunction,Soldermask,Bot*%
%TF.FilePolarity,Negative*%
%FSLAX46Y46*%
G04 Gerber Fmt 4.6, Leading zero omitted, Abs format (unit mm)*
G04 Created by KiCad (PCBNEW (6.0.2)) date 2022-03-14 15:32:47*
%MOMM*%
%LPD*%
G01*
G04 APERTURE LIST*
G04 Aperture macros list*
%AMFreePoly0*
4,1,22,0.500000,-0.750000,0.000000,-0.750000,0.000000,-0.745033,-0.079941,-0.743568,-0.215256,-0.701293,-0.333266,-0.622738,-0.424486,-0.514219,-0.481581,-0.384460,-0.499164,-0.250000,-0.500000,-0.250000,-0.500000,0.250000,-0.499164,0.250000,-0.499963,0.256109,-0.478152,0.396186,-0.417904,0.524511,-0.324060,0.630769,-0.204165,0.706417,-0.067858,0.745374,0.000000,0.744959,0.000000,0.750000,
0.500000,0.750000,0.500000,-0.750000,0.500000,-0.750000,$1*%
%AMFreePoly1*
4,1,20,0.000000,0.744959,0.073905,0.744508,0.209726,0.703889,0.328688,0.626782,0.421226,0.519385,0.479903,0.390333,0.500000,0.250000,0.500000,-0.250000,0.499851,-0.262216,0.476331,-0.402017,0.414519,-0.529596,0.319384,-0.634700,0.198574,-0.708877,0.061801,-0.746166,0.000000,-0.745033,0.000000,-0.750000,-0.500000,-0.750000,-0.500000,0.750000,0.000000,0.750000,0.000000,0.744959,
0.000000,0.744959,$1*%
%AMFreePoly2*
4,1,22,0.550000,-0.750000,0.000000,-0.750000,0.000000,-0.745033,-0.079941,-0.743568,-0.215256,-0.701293,-0.333266,-0.622738,-0.424486,-0.514219,-0.481581,-0.384460,-0.499164,-0.250000,-0.500000,-0.250000,-0.500000,0.250000,-0.499164,0.250000,-0.499963,0.256109,-0.478152,0.396186,-0.417904,0.524511,-0.324060,0.630769,-0.204165,0.706417,-0.067858,0.745374,0.000000,0.744959,0.000000,0.750000,
0.550000,0.750000,0.550000,-0.750000,0.550000,-0.750000,$1*%
%AMFreePoly3*
4,1,20,0.000000,0.744959,0.073905,0.744508,0.209726,0.703889,0.328688,0.626782,0.421226,0.519385,0.479903,0.390333,0.500000,0.250000,0.500000,-0.250000,0.499851,-0.262216,0.476331,-0.402017,0.414519,-0.529596,0.319384,-0.634700,0.198574,-0.708877,0.061801,-0.746166,0.000000,-0.745033,0.000000,-0.750000,-0.550000,-0.750000,-0.550000,0.750000,0.000000,0.750000,0.000000,0.744959,
0.000000,0.744959,$1*%
G04 Aperture macros list end*
%ADD10C,1.600000*%
%ADD11O,1.600000X1.600000*%
%ADD12O,1.000000X1.000000*%
%ADD13R,1.000000X1.000000*%
%ADD14FreePoly0,180.000000*%
%ADD15FreePoly1,180.000000*%
%ADD16FreePoly2,90.000000*%
%ADD17R,1.500000X1.000000*%
%ADD18FreePoly3,90.000000*%
%ADD19FreePoly0,270.000000*%
%ADD20FreePoly1,270.000000*%
%ADD21FreePoly0,90.000000*%
%ADD22FreePoly1,90.000000*%
G04 APERTURE END LIST*
D10*
X140030000Y-74390000D03*
X140030000Y-76930000D03*
X140030000Y-79470000D03*
X140030000Y-82010000D03*
X140030000Y-84550000D03*
X140030000Y-87090000D03*
X140030000Y-89630000D03*
X140030000Y-92170000D03*
X140030000Y-94710000D03*
X140030000Y-97250000D03*
X140030000Y-99790000D03*
X140030000Y-102330000D03*
X140030000Y-104870000D03*
X140030000Y-107410000D03*
X140030000Y-109950000D03*
X140030000Y-112490000D03*
D11*
X155270000Y-112490000D03*
X155270000Y-109950000D03*
X155270000Y-107410000D03*
X155270000Y-104870000D03*
X155270000Y-102330000D03*
X155270000Y-99790000D03*
X155270000Y-97250000D03*
X155270000Y-94710000D03*
X155270000Y-92170000D03*
X155270000Y-89630000D03*
X155270000Y-87090000D03*
X155270000Y-84550000D03*
X155270000Y-82010000D03*
X155270000Y-79470000D03*
X155270000Y-76930000D03*
X155270000Y-74390000D03*
D12*
X157475000Y-84250000D03*
X157475000Y-82980000D03*
X157475000Y-81710000D03*
X157475000Y-80440000D03*
X157475000Y-79170000D03*
X157475000Y-77900000D03*
X157475000Y-76630000D03*
X157475000Y-75360000D03*
D10*
X141935000Y-85820000D03*
X141935000Y-88360000D03*
X141935000Y-90900000D03*
X141935000Y-93440000D03*
X141935000Y-95980000D03*
X141935000Y-98520000D03*
X141935000Y-101060000D03*
X141935000Y-103600000D03*
X141935000Y-106140000D03*
X141935000Y-108680000D03*
X141935000Y-111220000D03*
X141935000Y-113760000D03*
D11*
X157175000Y-113760000D03*
X157175000Y-111220000D03*
X157175000Y-108680000D03*
X157175000Y-106140000D03*
X157175000Y-103600000D03*
X157175000Y-101060000D03*
X157175000Y-98520000D03*
X157175000Y-95980000D03*
X157175000Y-93440000D03*
X157175000Y-90900000D03*
X157175000Y-88360000D03*
X157175000Y-85820000D03*
D13*
X157475000Y-74090000D03*
D14*
X151950000Y-107800000D03*
D15*
X150650000Y-107800000D03*
D14*
X151950000Y-94960000D03*
D15*
X150650000Y-94960000D03*
D14*
X151950000Y-104590000D03*
D15*
X150650000Y-104590000D03*
D16*
X145500000Y-111242852D03*
D17*
X145500000Y-109942852D03*
D18*
X145500000Y-108642852D03*
D19*
X146031000Y-76930000D03*
D20*
X146031000Y-78230000D03*
D16*
X145500000Y-105913424D03*
D17*
X145500000Y-104613424D03*
D18*
X145500000Y-103313424D03*
D14*
X151950000Y-88540000D03*
D15*
X150650000Y-88540000D03*
D14*
X151950000Y-101380000D03*
D15*
X150650000Y-101380000D03*
D16*
X145500000Y-100583997D03*
D17*
X145500000Y-99283997D03*
D18*
X145500000Y-97983997D03*
D14*
X151950000Y-91750000D03*
D15*
X150650000Y-91750000D03*
D21*
X152507000Y-82533000D03*
D22*
X152507000Y-81233000D03*
D14*
X146550000Y-88540000D03*
D15*
X145250000Y-88540000D03*
D14*
X146550000Y-91775143D03*
D15*
X145250000Y-91775143D03*
D14*
X151950000Y-98170000D03*
D15*
X150650000Y-98170000D03*
D14*
X146550000Y-94960000D03*
D15*
X145250000Y-94960000D03*
D19*
X152507000Y-76930000D03*
D20*
X152507000Y-78230000D03*
D21*
X142793000Y-82533000D03*
D22*
X142793000Y-81233000D03*
D21*
X146031000Y-82533000D03*
D22*
X146031000Y-81233000D03*
D14*
X151950000Y-111010000D03*
D15*
X150650000Y-111010000D03*
D19*
X142793000Y-76930000D03*
D20*
X142793000Y-78230000D03*
D21*
X149269000Y-82533000D03*
D22*
X149269000Y-81233000D03*
D19*
X149269000Y-76930000D03*
D20*
X149269000Y-78230000D03*
M02*
