%TF.GenerationSoftware,KiCad,Pcbnew,(6.0.2)*%
%TF.CreationDate,2022-03-14T15:32:47-04:00*%
%TF.ProjectId,23XX-Adapter,32335858-2d41-4646-9170-7465722e6b69,2*%
%TF.SameCoordinates,Original*%
%TF.FileFunction,Soldermask,Top*%
%TF.FilePolarity,Negative*%
%FSLAX46Y46*%
G04 Gerber Fmt 4.6, Leading zero omitted, Abs format (unit mm)*
G04 Created by KiCad (PCBNEW (6.0.2)) date 2022-03-14 15:32:47*
%MOMM*%
%LPD*%
G01*
G04 APERTURE LIST*
G04 Aperture macros list*
%AMRoundRect*
0 Rectangle with rounded corners*
0 $1 Rounding radius*
0 $2 $3 $4 $5 $6 $7 $8 $9 X,Y pos of 4 corners*
0 Add a 4 corners polygon primitive as box body*
4,1,4,$2,$3,$4,$5,$6,$7,$8,$9,$2,$3,0*
0 Add four circle primitives for the rounded corners*
1,1,$1+$1,$2,$3*
1,1,$1+$1,$4,$5*
1,1,$1+$1,$6,$7*
1,1,$1+$1,$8,$9*
0 Add four rect primitives between the rounded corners*
20,1,$1+$1,$2,$3,$4,$5,0*
20,1,$1+$1,$4,$5,$6,$7,0*
20,1,$1+$1,$6,$7,$8,$9,0*
20,1,$1+$1,$8,$9,$2,$3,0*%
%AMFreePoly0*
4,1,22,0.500000,-0.750000,0.000000,-0.750000,0.000000,-0.745033,-0.079941,-0.743568,-0.215256,-0.701293,-0.333266,-0.622738,-0.424486,-0.514219,-0.481581,-0.384460,-0.499164,-0.250000,-0.500000,-0.250000,-0.500000,0.250000,-0.499164,0.250000,-0.499963,0.256109,-0.478152,0.396186,-0.417904,0.524511,-0.324060,0.630769,-0.204165,0.706417,-0.067858,0.745374,0.000000,0.744959,0.000000,0.750000,
0.500000,0.750000,0.500000,-0.750000,0.500000,-0.750000,$1*%
%AMFreePoly1*
4,1,20,0.000000,0.744959,0.073905,0.744508,0.209726,0.703889,0.328688,0.626782,0.421226,0.519385,0.479903,0.390333,0.500000,0.250000,0.500000,-0.250000,0.499851,-0.262216,0.476331,-0.402017,0.414519,-0.529596,0.319384,-0.634700,0.198574,-0.708877,0.061801,-0.746166,0.000000,-0.745033,0.000000,-0.750000,-0.500000,-0.750000,-0.500000,0.750000,0.000000,0.750000,0.000000,0.744959,
0.000000,0.744959,$1*%
G04 Aperture macros list end*
%ADD10RoundRect,0.200000X0.275000X-0.200000X0.275000X0.200000X-0.275000X0.200000X-0.275000X-0.200000X0*%
%ADD11RoundRect,0.200000X-0.275000X0.200000X-0.275000X-0.200000X0.275000X-0.200000X0.275000X0.200000X0*%
%ADD12C,1.600000*%
%ADD13O,1.600000X1.600000*%
%ADD14O,1.000000X1.000000*%
%ADD15R,1.000000X1.000000*%
%ADD16FreePoly0,180.000000*%
%ADD17FreePoly1,180.000000*%
%ADD18RoundRect,0.150000X-0.825000X-0.150000X0.825000X-0.150000X0.825000X0.150000X-0.825000X0.150000X0*%
G04 APERTURE END LIST*
D10*
X146031000Y-82533000D03*
X146031000Y-80883000D03*
D11*
X146031000Y-76930000D03*
X146031000Y-78580000D03*
X149269000Y-76930000D03*
X149269000Y-78580000D03*
D10*
X142793000Y-82533000D03*
X142793000Y-80883000D03*
D11*
X142793000Y-76930000D03*
X142793000Y-78580000D03*
D10*
X152507000Y-82533000D03*
X152507000Y-80883000D03*
D11*
X152507000Y-76930000D03*
X152507000Y-78580000D03*
D10*
X149269000Y-82533000D03*
X149269000Y-80883000D03*
D12*
X140030000Y-74390000D03*
X140030000Y-76930000D03*
X140030000Y-79470000D03*
X140030000Y-82010000D03*
X140030000Y-84550000D03*
X140030000Y-87090000D03*
X140030000Y-89630000D03*
X140030000Y-92170000D03*
X140030000Y-94710000D03*
X140030000Y-97250000D03*
X140030000Y-99790000D03*
X140030000Y-102330000D03*
X140030000Y-104870000D03*
X140030000Y-107410000D03*
X140030000Y-109950000D03*
X140030000Y-112490000D03*
D13*
X155270000Y-112490000D03*
X155270000Y-109950000D03*
X155270000Y-107410000D03*
X155270000Y-104870000D03*
X155270000Y-102330000D03*
X155270000Y-99790000D03*
X155270000Y-97250000D03*
X155270000Y-94710000D03*
X155270000Y-92170000D03*
X155270000Y-89630000D03*
X155270000Y-87090000D03*
X155270000Y-84550000D03*
X155270000Y-82010000D03*
X155270000Y-79470000D03*
X155270000Y-76930000D03*
X155270000Y-74390000D03*
D14*
X157475000Y-84250000D03*
X157475000Y-82980000D03*
X157475000Y-81710000D03*
X157475000Y-80440000D03*
X157475000Y-79170000D03*
X157475000Y-77900000D03*
X157475000Y-76630000D03*
X157475000Y-75360000D03*
D12*
X141935000Y-85820000D03*
X141935000Y-88360000D03*
X141935000Y-90900000D03*
X141935000Y-93440000D03*
X141935000Y-95980000D03*
X141935000Y-98520000D03*
X141935000Y-101060000D03*
X141935000Y-103600000D03*
X141935000Y-106140000D03*
X141935000Y-108680000D03*
X141935000Y-111220000D03*
X141935000Y-113760000D03*
D13*
X157175000Y-113760000D03*
X157175000Y-111220000D03*
X157175000Y-108680000D03*
X157175000Y-106140000D03*
X157175000Y-103600000D03*
X157175000Y-101060000D03*
X157175000Y-98520000D03*
X157175000Y-95980000D03*
X157175000Y-93440000D03*
X157175000Y-90900000D03*
X157175000Y-88360000D03*
X157175000Y-85820000D03*
D15*
X157475000Y-74090000D03*
D16*
X152497000Y-74537500D03*
D17*
X151197000Y-74537500D03*
D18*
X146142500Y-95330000D03*
X146142500Y-96600000D03*
X146142500Y-97870000D03*
X146142500Y-99140000D03*
X146142500Y-100410000D03*
X146142500Y-101680000D03*
X146142500Y-102950000D03*
X146142500Y-104220000D03*
X151092500Y-104220000D03*
X151092500Y-102950000D03*
X151092500Y-101680000D03*
X151092500Y-100410000D03*
X151092500Y-99140000D03*
X151092500Y-97870000D03*
X151092500Y-96600000D03*
X151092500Y-95330000D03*
M02*
