M48
; DRILL file {KiCad (6.0.2)} date Mon Mar 14 15:32:54 2022
; FORMAT={-:-/ absolute / inch / decimal}
; #@! TF.CreationDate,2022-03-14T15:32:54-04:00
; #@! TF.GenerationSoftware,Kicad,Pcbnew,(6.0.2)
; #@! TF.FileFunction,Plated,1,4,PTH
FMAT,2
INCH
; #@! TA.AperFunction,Plated,PTH,ViaDrill
T1C0.0118
; #@! TA.AperFunction,Plated,PTH,ComponentDrill
T2C0.0256
; #@! TA.AperFunction,Plated,PTH,ComponentDrill
T3C0.0315
%
G90
G05
T1
X5.6791Y-3.5495
X5.6791Y-3.6759
X5.6791Y-3.8031
X5.6791Y-3.8531
X5.6791Y-3.96
X5.6791Y-4.0031
X5.6791Y-4.0675
X5.6791Y-4.2235
X5.6791Y-4.3796
X5.6855Y-3.2493
X5.7776Y-4.3285
X5.813Y-3.139
X5.813Y-3.2493
X5.815Y-3.7531
X5.8255Y-3.9339
X5.8255Y-4.1186
X5.8917Y-3.549
X5.8917Y-3.8297
X5.8917Y-3.9281
X5.8917Y-4.0031
X5.8917Y-4.0781
X5.8917Y-4.2441
X5.8917Y-4.3705
X5.9311Y-3.6587
X6.0217Y-3.7531
T2
X6.1998Y-2.9169
X6.1998Y-2.9669
X6.1998Y-3.0169
X6.1998Y-3.0669
X6.1998Y-3.1169
X6.1998Y-3.1669
X6.1998Y-3.2169
X6.1998Y-3.2669
X6.1998Y-3.3169
T3
X5.513Y-2.9287
X5.513Y-3.0287
X5.513Y-3.1287
X5.513Y-3.2287
X5.513Y-3.3287
X5.513Y-3.4287
X5.513Y-3.5287
X5.513Y-3.6287
X5.513Y-3.7287
X5.513Y-3.8287
X5.513Y-3.9287
X5.513Y-4.0287
X5.513Y-4.1287
X5.513Y-4.2287
X5.513Y-4.3287
X5.513Y-4.4287
X5.588Y-3.3787
X5.588Y-3.4787
X5.588Y-3.5787
X5.588Y-3.6787
X5.588Y-3.7787
X5.588Y-3.8787
X5.588Y-3.9787
X5.588Y-4.0787
X5.588Y-4.1787
X5.588Y-4.2787
X5.588Y-4.3787
X5.588Y-4.4787
X6.113Y-2.9287
X6.113Y-3.0287
X6.113Y-3.1287
X6.113Y-3.2287
X6.113Y-3.3287
X6.113Y-3.4287
X6.113Y-3.5287
X6.113Y-3.6287
X6.113Y-3.7287
X6.113Y-3.8287
X6.113Y-3.9287
X6.113Y-4.0287
X6.113Y-4.1287
X6.113Y-4.2287
X6.113Y-4.3287
X6.113Y-4.4287
X6.188Y-3.3787
X6.188Y-3.4787
X6.188Y-3.5787
X6.188Y-3.6787
X6.188Y-3.7787
X6.188Y-3.8787
X6.188Y-3.9787
X6.188Y-4.0787
X6.188Y-4.1787
X6.188Y-4.2787
X6.188Y-4.3787
X6.188Y-4.4787
T0
M30
