%TF.GenerationSoftware,KiCad,Pcbnew,(6.0.1)*%
%TF.CreationDate,2022-02-10T14:07:36-05:00*%
%TF.ProjectId,23XX-Adapter,32335858-2d41-4646-9170-7465722e6b69,1*%
%TF.SameCoordinates,Original*%
%TF.FileFunction,Legend,Top*%
%TF.FilePolarity,Positive*%
%FSLAX46Y46*%
G04 Gerber Fmt 4.6, Leading zero omitted, Abs format (unit mm)*
G04 Created by KiCad (PCBNEW (6.0.1)) date 2022-02-10 14:07:36*
%MOMM*%
%LPD*%
G01*
G04 APERTURE LIST*
G04 Aperture macros list*
%AMRoundRect*
0 Rectangle with rounded corners*
0 $1 Rounding radius*
0 $2 $3 $4 $5 $6 $7 $8 $9 X,Y pos of 4 corners*
0 Add a 4 corners polygon primitive as box body*
4,1,4,$2,$3,$4,$5,$6,$7,$8,$9,$2,$3,0*
0 Add four circle primitives for the rounded corners*
1,1,$1+$1,$2,$3*
1,1,$1+$1,$4,$5*
1,1,$1+$1,$6,$7*
1,1,$1+$1,$8,$9*
0 Add four rect primitives between the rounded corners*
20,1,$1+$1,$2,$3,$4,$5,0*
20,1,$1+$1,$4,$5,$6,$7,0*
20,1,$1+$1,$6,$7,$8,$9,0*
20,1,$1+$1,$8,$9,$2,$3,0*%
%AMOutline5P*
0 Free polygon, 5 corners , with rotation*
0 The origin of the aperture is its center*
0 number of corners: always 5*
0 $1 to $10 corner X, Y*
0 $11 Rotation angle, in degrees counterclockwise*
0 create outline with 5 corners*
4,1,5,$1,$2,$3,$4,$5,$6,$7,$8,$9,$10,$1,$2,$11*%
%AMOutline6P*
0 Free polygon, 6 corners , with rotation*
0 The origin of the aperture is its center*
0 number of corners: always 6*
0 $1 to $12 corner X, Y*
0 $13 Rotation angle, in degrees counterclockwise*
0 create outline with 6 corners*
4,1,6,$1,$2,$3,$4,$5,$6,$7,$8,$9,$10,$11,$12,$1,$2,$13*%
%AMOutline7P*
0 Free polygon, 7 corners , with rotation*
0 The origin of the aperture is its center*
0 number of corners: always 7*
0 $1 to $14 corner X, Y*
0 $15 Rotation angle, in degrees counterclockwise*
0 create outline with 7 corners*
4,1,7,$1,$2,$3,$4,$5,$6,$7,$8,$9,$10,$11,$12,$13,$14,$1,$2,$15*%
%AMOutline8P*
0 Free polygon, 8 corners , with rotation*
0 The origin of the aperture is its center*
0 number of corners: always 8*
0 $1 to $16 corner X, Y*
0 $17 Rotation angle, in degrees counterclockwise*
0 create outline with 8 corners*
4,1,8,$1,$2,$3,$4,$5,$6,$7,$8,$9,$10,$11,$12,$13,$14,$15,$16,$1,$2,$17*%
%AMFreePoly0*
4,1,22,0.500000,-0.750000,0.000000,-0.750000,0.000000,-0.745033,-0.079941,-0.743568,-0.215256,-0.701293,-0.333266,-0.622738,-0.424486,-0.514219,-0.481581,-0.384460,-0.499164,-0.250000,-0.500000,-0.250000,-0.500000,0.250000,-0.499164,0.250000,-0.499963,0.256109,-0.478152,0.396186,-0.417904,0.524511,-0.324060,0.630769,-0.204165,0.706417,-0.067858,0.745374,0.000000,0.744959,0.000000,0.750000,
0.500000,0.750000,0.500000,-0.750000,0.500000,-0.750000,$1*%
%AMFreePoly1*
4,1,20,0.000000,0.744959,0.073905,0.744508,0.209726,0.703889,0.328688,0.626782,0.421226,0.519385,0.479903,0.390333,0.500000,0.250000,0.500000,-0.250000,0.499851,-0.262216,0.476331,-0.402017,0.414519,-0.529596,0.319384,-0.634700,0.198574,-0.708877,0.061801,-0.746166,0.000000,-0.745033,0.000000,-0.750000,-0.500000,-0.750000,-0.500000,0.750000,0.000000,0.750000,0.000000,0.744959,
0.000000,0.744959,$1*%
G04 Aperture macros list end*
%ADD10C,0.152400*%
%ADD11C,0.100000*%
%ADD12C,0.120000*%
%ADD13RoundRect,0.200000X0.275000X-0.200000X0.275000X0.200000X-0.275000X0.200000X-0.275000X-0.200000X0*%
%ADD14FreePoly0,180.000000*%
%ADD15FreePoly1,180.000000*%
%ADD16RoundRect,0.150000X-0.825000X-0.150000X0.825000X-0.150000X0.825000X0.150000X-0.825000X0.150000X0*%
%ADD17R,1.600000X1.600000*%
%ADD18C,1.600000*%
%ADD19Outline8P,-0.800000X0.480000X-0.480000X0.800000X0.480000X0.800000X0.800000X0.480000X0.800000X-0.480000X0.480000X-0.800000X-0.480000X-0.800000X-0.800000X-0.480000X0.000000*%
%ADD20O,1.600000X1.600000*%
G04 APERTURE END LIST*
D10*
X148172395Y-103529362D02*
X148752966Y-103529362D01*
X148869080Y-103568067D01*
X148946490Y-103645477D01*
X148985195Y-103761591D01*
X148985195Y-103839001D01*
X148985195Y-102755267D02*
X148985195Y-103142315D01*
X148172395Y-103142315D01*
X148907785Y-102019877D02*
X148946490Y-102058581D01*
X148985195Y-102174696D01*
X148985195Y-102252105D01*
X148946490Y-102368220D01*
X148869080Y-102445629D01*
X148791671Y-102484334D01*
X148636852Y-102523039D01*
X148520738Y-102523039D01*
X148365919Y-102484334D01*
X148288509Y-102445629D01*
X148211100Y-102368220D01*
X148172395Y-102252105D01*
X148172395Y-102174696D01*
X148211100Y-102058581D01*
X148249804Y-102019877D01*
X148172395Y-101439305D02*
X148752966Y-101439305D01*
X148869080Y-101478010D01*
X148946490Y-101555420D01*
X148985195Y-101671534D01*
X148985195Y-101748943D01*
X148985195Y-100665210D02*
X148985195Y-101052258D01*
X148172395Y-101052258D01*
X148907785Y-99929820D02*
X148946490Y-99968524D01*
X148985195Y-100084639D01*
X148985195Y-100162048D01*
X148946490Y-100278162D01*
X148869080Y-100355572D01*
X148791671Y-100394277D01*
X148636852Y-100432981D01*
X148520738Y-100432981D01*
X148365919Y-100394277D01*
X148288509Y-100355572D01*
X148211100Y-100278162D01*
X148172395Y-100162048D01*
X148172395Y-100084639D01*
X148211100Y-99968524D01*
X148249804Y-99929820D01*
X148172395Y-99349248D02*
X148752966Y-99349248D01*
X148869080Y-99387953D01*
X148946490Y-99465362D01*
X148985195Y-99581477D01*
X148985195Y-99658886D01*
X148985195Y-98575153D02*
X148985195Y-98962201D01*
X148172395Y-98962201D01*
X148907785Y-97839762D02*
X148946490Y-97878467D01*
X148985195Y-97994581D01*
X148985195Y-98071991D01*
X148946490Y-98188105D01*
X148869080Y-98265515D01*
X148791671Y-98304220D01*
X148636852Y-98342924D01*
X148520738Y-98342924D01*
X148365919Y-98304220D01*
X148288509Y-98265515D01*
X148211100Y-98188105D01*
X148172395Y-98071991D01*
X148172395Y-97994581D01*
X148211100Y-97878467D01*
X148249804Y-97839762D01*
X148172395Y-97259191D02*
X148752966Y-97259191D01*
X148869080Y-97297896D01*
X148946490Y-97375305D01*
X148985195Y-97491420D01*
X148985195Y-97568829D01*
X148985195Y-96485096D02*
X148985195Y-96872143D01*
X148172395Y-96872143D01*
X148907785Y-95749705D02*
X148946490Y-95788410D01*
X148985195Y-95904524D01*
X148985195Y-95981934D01*
X148946490Y-96098048D01*
X148869080Y-96175458D01*
X148791671Y-96214162D01*
X148636852Y-96252867D01*
X148520738Y-96252867D01*
X148365919Y-96214162D01*
X148288509Y-96175458D01*
X148211100Y-96098048D01*
X148172395Y-95981934D01*
X148172395Y-95904524D01*
X148211100Y-95788410D01*
X148249804Y-95749705D01*
D11*
X142345000Y-75300000D02*
G75*
G03*
X142100000Y-75545000I1J-245001D01*
G01*
X141855000Y-79455000D02*
G75*
G03*
X142100000Y-79210000I-1J245001D01*
G01*
X142100000Y-79210000D02*
X142100000Y-75545000D01*
D10*
X141671006Y-79750000D02*
X141346006Y-79450000D01*
X141346006Y-79450000D02*
X141671006Y-79150000D01*
X141671006Y-79150000D02*
X141671006Y-79750000D01*
G36*
X141671006Y-79750000D02*
G01*
X141346006Y-79450000D01*
X141671006Y-79150000D01*
X141671006Y-79750000D01*
G37*
X141671006Y-79750000D02*
X141346006Y-79450000D01*
X141671006Y-79150000D01*
X141671006Y-79750000D01*
D11*
X144050000Y-75300000D02*
X142345000Y-75300000D01*
X141700000Y-79455000D02*
X141855000Y-79455000D01*
D10*
X144187200Y-75667695D02*
X144187200Y-74854895D01*
X144380723Y-74854895D01*
X144496838Y-74893600D01*
X144574247Y-74971009D01*
X144612952Y-75048419D01*
X144651657Y-75203238D01*
X144651657Y-75319352D01*
X144612952Y-75474171D01*
X144574247Y-75551580D01*
X144496838Y-75628990D01*
X144380723Y-75667695D01*
X144187200Y-75667695D01*
X145000000Y-75667695D02*
X145000000Y-74854895D01*
X145387047Y-75667695D02*
X145387047Y-74854895D01*
X145696685Y-74854895D01*
X145774095Y-74893600D01*
X145812800Y-74932304D01*
X145851504Y-75009714D01*
X145851504Y-75125828D01*
X145812800Y-75203238D01*
X145774095Y-75241942D01*
X145696685Y-75280647D01*
X145387047Y-75280647D01*
X144747023Y-85478261D02*
X144785728Y-85439557D01*
X144863138Y-85400852D01*
X145056661Y-85400852D01*
X145134071Y-85439557D01*
X145172776Y-85478261D01*
X145211480Y-85555671D01*
X145211480Y-85633080D01*
X145172776Y-85749195D01*
X144708319Y-86213652D01*
X145211480Y-86213652D01*
X145482414Y-85400852D02*
X145985576Y-85400852D01*
X145714642Y-85710490D01*
X145830757Y-85710490D01*
X145908166Y-85749195D01*
X145946871Y-85787899D01*
X145985576Y-85865309D01*
X145985576Y-86058833D01*
X145946871Y-86136242D01*
X145908166Y-86174947D01*
X145830757Y-86213652D01*
X145598528Y-86213652D01*
X145521119Y-86174947D01*
X145482414Y-86136242D01*
X146256509Y-86213652D02*
X146682261Y-85671785D01*
X146256509Y-85671785D02*
X146682261Y-86213652D01*
X146914490Y-86213652D02*
X147340242Y-85671785D01*
X146914490Y-85671785D02*
X147340242Y-86213652D01*
X148230452Y-85981423D02*
X148617500Y-85981423D01*
X148153042Y-86213652D02*
X148423976Y-85400852D01*
X148694909Y-86213652D01*
X149314185Y-86213652D02*
X149314185Y-85400852D01*
X149314185Y-86174947D02*
X149236776Y-86213652D01*
X149081957Y-86213652D01*
X149004547Y-86174947D01*
X148965842Y-86136242D01*
X148927138Y-86058833D01*
X148927138Y-85826604D01*
X148965842Y-85749195D01*
X149004547Y-85710490D01*
X149081957Y-85671785D01*
X149236776Y-85671785D01*
X149314185Y-85710490D01*
X150049576Y-86213652D02*
X150049576Y-85787899D01*
X150010871Y-85710490D01*
X149933461Y-85671785D01*
X149778642Y-85671785D01*
X149701233Y-85710490D01*
X150049576Y-86174947D02*
X149972166Y-86213652D01*
X149778642Y-86213652D01*
X149701233Y-86174947D01*
X149662528Y-86097537D01*
X149662528Y-86020128D01*
X149701233Y-85942718D01*
X149778642Y-85904014D01*
X149972166Y-85904014D01*
X150049576Y-85865309D01*
X150436623Y-85671785D02*
X150436623Y-86484585D01*
X150436623Y-85710490D02*
X150514033Y-85671785D01*
X150668852Y-85671785D01*
X150746261Y-85710490D01*
X150784966Y-85749195D01*
X150823671Y-85826604D01*
X150823671Y-86058833D01*
X150784966Y-86136242D01*
X150746261Y-86174947D01*
X150668852Y-86213652D01*
X150514033Y-86213652D01*
X150436623Y-86174947D01*
X151055900Y-85671785D02*
X151365538Y-85671785D01*
X151172014Y-85400852D02*
X151172014Y-86097537D01*
X151210719Y-86174947D01*
X151288128Y-86213652D01*
X151365538Y-86213652D01*
X151946109Y-86174947D02*
X151868700Y-86213652D01*
X151713880Y-86213652D01*
X151636471Y-86174947D01*
X151597766Y-86097537D01*
X151597766Y-85787899D01*
X151636471Y-85710490D01*
X151713880Y-85671785D01*
X151868700Y-85671785D01*
X151946109Y-85710490D01*
X151984814Y-85787899D01*
X151984814Y-85865309D01*
X151597766Y-85942718D01*
X152333157Y-86213652D02*
X152333157Y-85671785D01*
X152333157Y-85826604D02*
X152371861Y-85749195D01*
X152410566Y-85710490D01*
X152487976Y-85671785D01*
X152565385Y-85671785D01*
X146062985Y-87522260D02*
X145792052Y-87135212D01*
X145598528Y-87522260D02*
X145598528Y-86709460D01*
X145908166Y-86709460D01*
X145985576Y-86748165D01*
X146024280Y-86786869D01*
X146062985Y-86864279D01*
X146062985Y-86980393D01*
X146024280Y-87057803D01*
X145985576Y-87096507D01*
X145908166Y-87135212D01*
X145598528Y-87135212D01*
X146720966Y-87483555D02*
X146643557Y-87522260D01*
X146488738Y-87522260D01*
X146411328Y-87483555D01*
X146372623Y-87406145D01*
X146372623Y-87096507D01*
X146411328Y-87019098D01*
X146488738Y-86980393D01*
X146643557Y-86980393D01*
X146720966Y-87019098D01*
X146759671Y-87096507D01*
X146759671Y-87173917D01*
X146372623Y-87251326D01*
X147030604Y-86980393D02*
X147224128Y-87522260D01*
X147417652Y-86980393D01*
X147727290Y-87522260D02*
X147727290Y-86980393D01*
X147727290Y-86709460D02*
X147688585Y-86748165D01*
X147727290Y-86786869D01*
X147765995Y-86748165D01*
X147727290Y-86709460D01*
X147727290Y-86786869D01*
X148075633Y-87483555D02*
X148153042Y-87522260D01*
X148307861Y-87522260D01*
X148385271Y-87483555D01*
X148423976Y-87406145D01*
X148423976Y-87367441D01*
X148385271Y-87290031D01*
X148307861Y-87251326D01*
X148191747Y-87251326D01*
X148114338Y-87212622D01*
X148075633Y-87135212D01*
X148075633Y-87096507D01*
X148114338Y-87019098D01*
X148191747Y-86980393D01*
X148307861Y-86980393D01*
X148385271Y-87019098D01*
X148772319Y-87522260D02*
X148772319Y-86980393D01*
X148772319Y-86709460D02*
X148733614Y-86748165D01*
X148772319Y-86786869D01*
X148811023Y-86748165D01*
X148772319Y-86709460D01*
X148772319Y-86786869D01*
X149275480Y-87522260D02*
X149198071Y-87483555D01*
X149159366Y-87444850D01*
X149120661Y-87367441D01*
X149120661Y-87135212D01*
X149159366Y-87057803D01*
X149198071Y-87019098D01*
X149275480Y-86980393D01*
X149391595Y-86980393D01*
X149469004Y-87019098D01*
X149507709Y-87057803D01*
X149546414Y-87135212D01*
X149546414Y-87367441D01*
X149507709Y-87444850D01*
X149469004Y-87483555D01*
X149391595Y-87522260D01*
X149275480Y-87522260D01*
X149894757Y-86980393D02*
X149894757Y-87522260D01*
X149894757Y-87057803D02*
X149933461Y-87019098D01*
X150010871Y-86980393D01*
X150126985Y-86980393D01*
X150204395Y-87019098D01*
X150243100Y-87096507D01*
X150243100Y-87522260D01*
X151675176Y-87522260D02*
X151210719Y-87522260D01*
X151442947Y-87522260D02*
X151442947Y-86709460D01*
X151365538Y-86825574D01*
X151288128Y-86902984D01*
X151210719Y-86941688D01*
X149480723Y-74932304D02*
X149519428Y-74893600D01*
X149596838Y-74854895D01*
X149790361Y-74854895D01*
X149867771Y-74893600D01*
X149906476Y-74932304D01*
X149945180Y-75009714D01*
X149945180Y-75087123D01*
X149906476Y-75203238D01*
X149442019Y-75667695D01*
X149945180Y-75667695D01*
X150409638Y-75203238D02*
X150332228Y-75164533D01*
X150293523Y-75125828D01*
X150254819Y-75048419D01*
X150254819Y-75009714D01*
X150293523Y-74932304D01*
X150332228Y-74893600D01*
X150409638Y-74854895D01*
X150564457Y-74854895D01*
X150641866Y-74893600D01*
X150680571Y-74932304D01*
X150719276Y-75009714D01*
X150719276Y-75048419D01*
X150680571Y-75125828D01*
X150641866Y-75164533D01*
X150564457Y-75203238D01*
X150409638Y-75203238D01*
X150332228Y-75241942D01*
X150293523Y-75280647D01*
X150254819Y-75358057D01*
X150254819Y-75512876D01*
X150293523Y-75590285D01*
X150332228Y-75628990D01*
X150409638Y-75667695D01*
X150564457Y-75667695D01*
X150641866Y-75628990D01*
X150680571Y-75590285D01*
X150719276Y-75512876D01*
X150719276Y-75358057D01*
X150680571Y-75280647D01*
X150641866Y-75241942D01*
X150564457Y-75203238D01*
G36*
X144957639Y-109063219D02*
G01*
X144883025Y-109137967D01*
X144808411Y-109212714D01*
X144883025Y-109287462D01*
X144957639Y-109362209D01*
X144887011Y-109432837D01*
X144812263Y-109358223D01*
X144737516Y-109283609D01*
X144662768Y-109358223D01*
X144588021Y-109432837D01*
X144552707Y-109397523D01*
X144517392Y-109362209D01*
X144592007Y-109287462D01*
X144666621Y-109212714D01*
X144592007Y-109137967D01*
X144517392Y-109063219D01*
X144552707Y-109027905D01*
X144588021Y-108992591D01*
X144662768Y-109067205D01*
X144737516Y-109141819D01*
X144812263Y-109067205D01*
X144887011Y-108992591D01*
X144957639Y-109063219D01*
G37*
G36*
X144782730Y-108358050D02*
G01*
X144819448Y-108358887D01*
X144851297Y-108360197D01*
X144876085Y-108361979D01*
X144884276Y-108362924D01*
X144930710Y-108369938D01*
X144973986Y-108377670D01*
X145012754Y-108385804D01*
X145045667Y-108394019D01*
X145071373Y-108401997D01*
X145088523Y-108409421D01*
X145092623Y-108412114D01*
X145094143Y-108415552D01*
X145095426Y-108423728D01*
X145096490Y-108437334D01*
X145097351Y-108457063D01*
X145098024Y-108483605D01*
X145098527Y-108517655D01*
X145098875Y-108559904D01*
X145099084Y-108611044D01*
X145099170Y-108671768D01*
X145099175Y-108691833D01*
X145099126Y-108744376D01*
X145098984Y-108793619D01*
X145098759Y-108838594D01*
X145098461Y-108878331D01*
X145098098Y-108911859D01*
X145097681Y-108938210D01*
X145097219Y-108956414D01*
X145096721Y-108965501D01*
X145096509Y-108966367D01*
X145091099Y-108963548D01*
X145080180Y-108956338D01*
X145072136Y-108950642D01*
X145058784Y-108941626D01*
X145048621Y-108935938D01*
X145045456Y-108934918D01*
X145037671Y-108932872D01*
X145025335Y-108927882D01*
X145023966Y-108927255D01*
X144963041Y-108903602D01*
X144894998Y-108885549D01*
X144821846Y-108873533D01*
X144754046Y-108868271D01*
X144720257Y-108867309D01*
X144693212Y-108867485D01*
X144669210Y-108869042D01*
X144644551Y-108872221D01*
X144615533Y-108877263D01*
X144615148Y-108877335D01*
X144584968Y-108883644D01*
X144552301Y-108891585D01*
X144519742Y-108900420D01*
X144489884Y-108909412D01*
X144465320Y-108917822D01*
X144449549Y-108924450D01*
X144441219Y-108928610D01*
X144426319Y-108936038D01*
X144407663Y-108945330D01*
X144402064Y-108948118D01*
X144331140Y-108989091D01*
X144264490Y-109038847D01*
X144203372Y-109096129D01*
X144149041Y-109159680D01*
X144102755Y-109228244D01*
X144079812Y-109270370D01*
X144070086Y-109289854D01*
X144061656Y-109306644D01*
X144056007Y-109317788D01*
X144055156Y-109319437D01*
X144047773Y-109336867D01*
X144039249Y-109362324D01*
X144030239Y-109393507D01*
X144021396Y-109428116D01*
X144013375Y-109463848D01*
X144011538Y-109472869D01*
X144000367Y-109550701D01*
X143998575Y-109626620D01*
X144006163Y-109703394D01*
X144011538Y-109733533D01*
X144019245Y-109769184D01*
X144027940Y-109804297D01*
X144036970Y-109836573D01*
X144045680Y-109863710D01*
X144053416Y-109883407D01*
X144055156Y-109886965D01*
X144059807Y-109896094D01*
X144067637Y-109911660D01*
X144077161Y-109930711D01*
X144079812Y-109936032D01*
X144120785Y-110006956D01*
X144170541Y-110073606D01*
X144227823Y-110134724D01*
X144291374Y-110189055D01*
X144359938Y-110235341D01*
X144402064Y-110258284D01*
X144421274Y-110267850D01*
X144437528Y-110275951D01*
X144448012Y-110281183D01*
X144449549Y-110281952D01*
X144466897Y-110289165D01*
X144491941Y-110297644D01*
X144522088Y-110306649D01*
X144554744Y-110315444D01*
X144587315Y-110323289D01*
X144615148Y-110329067D01*
X144682306Y-110337365D01*
X144753612Y-110338473D01*
X144826431Y-110332712D01*
X144898127Y-110320405D01*
X144966067Y-110301872D01*
X145023966Y-110279147D01*
X145036629Y-110273939D01*
X145045370Y-110271508D01*
X145045841Y-110271484D01*
X145052652Y-110268512D01*
X145064654Y-110260836D01*
X145075187Y-110253174D01*
X145099175Y-110234863D01*
X145099175Y-110511983D01*
X145099122Y-110576011D01*
X145098953Y-110630246D01*
X145098652Y-110675378D01*
X145098203Y-110712095D01*
X145097589Y-110741087D01*
X145096796Y-110763044D01*
X145095806Y-110778654D01*
X145094604Y-110788608D01*
X145093174Y-110793594D01*
X145092623Y-110794288D01*
X145079626Y-110801165D01*
X145057894Y-110808761D01*
X145029114Y-110816681D01*
X144994976Y-110824529D01*
X144957168Y-110831909D01*
X144917377Y-110838424D01*
X144886897Y-110842548D01*
X144851878Y-110845842D01*
X144809656Y-110848269D01*
X144763482Y-110849760D01*
X144716604Y-110850247D01*
X144672273Y-110849661D01*
X144633738Y-110847933D01*
X144633248Y-110847900D01*
X144605574Y-110845685D01*
X144579299Y-110842991D01*
X144557529Y-110840172D01*
X144544144Y-110837768D01*
X144524757Y-110833627D01*
X144501598Y-110829291D01*
X144488548Y-110827109D01*
X144432124Y-110815529D01*
X144370065Y-110797959D01*
X144304676Y-110775253D01*
X144238263Y-110748265D01*
X144173132Y-110717847D01*
X144125880Y-110692943D01*
X144095896Y-110676135D01*
X144071792Y-110662156D01*
X144051259Y-110649447D01*
X144031992Y-110636445D01*
X144011683Y-110621590D01*
X143988026Y-110603321D01*
X143958714Y-110580076D01*
X143956542Y-110578343D01*
X143874863Y-110507740D01*
X143801556Y-110432691D01*
X143735628Y-110351960D01*
X143676087Y-110264317D01*
X143621942Y-110168526D01*
X143613243Y-110151424D01*
X143602158Y-110128979D01*
X143593041Y-110109908D01*
X143586807Y-110096170D01*
X143584373Y-110089724D01*
X143584367Y-110089635D01*
X143582082Y-110082506D01*
X143576562Y-110070830D01*
X143575960Y-110069689D01*
X143569822Y-110055949D01*
X143562753Y-110036955D01*
X143558049Y-110022516D01*
X143551813Y-110002023D01*
X143544007Y-109976467D01*
X143536145Y-109950803D01*
X143534828Y-109946515D01*
X143524921Y-109910411D01*
X143514694Y-109865995D01*
X143504602Y-109815412D01*
X143495103Y-109760804D01*
X143494622Y-109757823D01*
X143492719Y-109739775D01*
X143491235Y-109713333D01*
X143490172Y-109680580D01*
X143489528Y-109643598D01*
X143489305Y-109604467D01*
X143489502Y-109565269D01*
X143490118Y-109528086D01*
X143491155Y-109495000D01*
X143492611Y-109468092D01*
X143494487Y-109449443D01*
X143494622Y-109448579D01*
X143504077Y-109393817D01*
X143514149Y-109342965D01*
X143524380Y-109298167D01*
X143534316Y-109261566D01*
X143534828Y-109259887D01*
X143542539Y-109234735D01*
X143550467Y-109208791D01*
X143557101Y-109187010D01*
X143558049Y-109183886D01*
X143564631Y-109164126D01*
X143571632Y-109146062D01*
X143575960Y-109136713D01*
X143581680Y-109124848D01*
X143584344Y-109117111D01*
X143584367Y-109116767D01*
X143586809Y-109109425D01*
X143593479Y-109094694D01*
X143603470Y-109074319D01*
X143615871Y-109050046D01*
X143629772Y-109023624D01*
X143644264Y-108996798D01*
X143658439Y-108971314D01*
X143671385Y-108948920D01*
X143674395Y-108943889D01*
X143697170Y-108908790D01*
X143725525Y-108869169D01*
X143757376Y-108827662D01*
X143790642Y-108786904D01*
X143823241Y-108749529D01*
X143851413Y-108719839D01*
X143870887Y-108701427D01*
X143896266Y-108678887D01*
X143925406Y-108653987D01*
X143956160Y-108628497D01*
X143986384Y-108604187D01*
X144013932Y-108582825D01*
X144036658Y-108566180D01*
X144043025Y-108561830D01*
X144062625Y-108549572D01*
X144088774Y-108534292D01*
X144118823Y-108517433D01*
X144150125Y-108500436D01*
X144180029Y-108484743D01*
X144205886Y-108471795D01*
X144222846Y-108463964D01*
X144289762Y-108436692D01*
X144352712Y-108414372D01*
X144414954Y-108396091D01*
X144479743Y-108380936D01*
X144550336Y-108367992D01*
X144582893Y-108362937D01*
X144602804Y-108360943D01*
X144630994Y-108359420D01*
X144665274Y-108358370D01*
X144703451Y-108357791D01*
X144743333Y-108357684D01*
X144782730Y-108358050D01*
G37*
G36*
X146058358Y-109262508D02*
G01*
X145798946Y-109521959D01*
X145125382Y-109521959D01*
X145125382Y-109003057D01*
X146317769Y-109003057D01*
X146058358Y-109262508D01*
G37*
G36*
X146076703Y-109946515D02*
G01*
X146317766Y-110187621D01*
X145125382Y-110187621D01*
X145125382Y-109705409D01*
X145835639Y-109705409D01*
X146076703Y-109946515D01*
G37*
D12*
X142277500Y-78542258D02*
X142277500Y-78067742D01*
X143322500Y-78542258D02*
X143322500Y-78067742D01*
G36*
X149531220Y-89496217D02*
G01*
X149531279Y-89426952D01*
X149531556Y-89370346D01*
X149532208Y-89324896D01*
X149533388Y-89289094D01*
X149535252Y-89261436D01*
X149537953Y-89240415D01*
X149541646Y-89224526D01*
X149546486Y-89212264D01*
X149552628Y-89202122D01*
X149560226Y-89192595D01*
X149562675Y-89189786D01*
X149571347Y-89180574D01*
X149580512Y-89173053D01*
X149591629Y-89167050D01*
X149606156Y-89162396D01*
X149625551Y-89158920D01*
X149651272Y-89156451D01*
X149684778Y-89154818D01*
X149727526Y-89153850D01*
X149780974Y-89153377D01*
X149846581Y-89153226D01*
X149874751Y-89153219D01*
X149945316Y-89153291D01*
X150003174Y-89153623D01*
X150049782Y-89154385D01*
X150086598Y-89155747D01*
X150115081Y-89157881D01*
X150136689Y-89160958D01*
X150152878Y-89165148D01*
X150165109Y-89170622D01*
X150174838Y-89177551D01*
X150183525Y-89186107D01*
X150186826Y-89189786D01*
X150194859Y-89199404D01*
X150201395Y-89209206D01*
X150206587Y-89220698D01*
X150210591Y-89235383D01*
X150213560Y-89254765D01*
X150215649Y-89280347D01*
X150217011Y-89313634D01*
X150217800Y-89356130D01*
X150218171Y-89409337D01*
X150218278Y-89474760D01*
X150218281Y-89496749D01*
X150218223Y-89566087D01*
X150217947Y-89622763D01*
X150217298Y-89668281D01*
X150216122Y-89704143D01*
X150214265Y-89731856D01*
X150211573Y-89752921D01*
X150207893Y-89768843D01*
X150203069Y-89781125D01*
X150196948Y-89791272D01*
X150189375Y-89800788D01*
X150186826Y-89803712D01*
X150178195Y-89812899D01*
X150169102Y-89820404D01*
X150158099Y-89826392D01*
X150143733Y-89831029D01*
X150124556Y-89834481D01*
X150099118Y-89836914D01*
X150065968Y-89838494D01*
X150023656Y-89839385D01*
X149970733Y-89839756D01*
X149905747Y-89839770D01*
X149872115Y-89839704D01*
X149796095Y-89839348D01*
X149733552Y-89838643D01*
X149683798Y-89837565D01*
X149646147Y-89836094D01*
X149619913Y-89834205D01*
X149604409Y-89831877D01*
X149600922Y-89830758D01*
X149580714Y-89819175D01*
X149566693Y-89808457D01*
X149557756Y-89799777D01*
X149550459Y-89790525D01*
X149544635Y-89779243D01*
X149540119Y-89764476D01*
X149536746Y-89744765D01*
X149534350Y-89718654D01*
X149532765Y-89684687D01*
X149531827Y-89641406D01*
X149531369Y-89587354D01*
X149531245Y-89529720D01*
X149744862Y-89529720D01*
X149744866Y-89565400D01*
X149745285Y-89593901D01*
X149746089Y-89612680D01*
X149746917Y-89618837D01*
X149751252Y-89622269D01*
X149762306Y-89624657D01*
X149781741Y-89626096D01*
X149811219Y-89626679D01*
X149852404Y-89626501D01*
X149876362Y-89626180D01*
X150002247Y-89624245D01*
X150002247Y-89369253D01*
X149747255Y-89369253D01*
X149745306Y-89489406D01*
X149744862Y-89529720D01*
X149531245Y-89529720D01*
X149531226Y-89521076D01*
X149531220Y-89496217D01*
G37*
G36*
X145852929Y-88954668D02*
G01*
X145887035Y-88901028D01*
X145931755Y-88855541D01*
X145984815Y-88820483D01*
X145989446Y-88818151D01*
X146035412Y-88795522D01*
X151199588Y-88795522D01*
X151245555Y-88818151D01*
X151299195Y-88852257D01*
X151344681Y-88896977D01*
X151379739Y-88950037D01*
X151382071Y-88954668D01*
X151404700Y-89000634D01*
X151404700Y-91657393D01*
X151382071Y-91703359D01*
X151347965Y-91756999D01*
X151303245Y-91802485D01*
X151250186Y-91837544D01*
X151245555Y-91839876D01*
X151199589Y-91862505D01*
X148631816Y-91863822D01*
X148395574Y-91863934D01*
X148173134Y-91864020D01*
X147964135Y-91864078D01*
X147768212Y-91864107D01*
X147585003Y-91864107D01*
X147414145Y-91864077D01*
X147255273Y-91864015D01*
X147108026Y-91863920D01*
X146972039Y-91863792D01*
X146846951Y-91863628D01*
X146732397Y-91863430D01*
X146628014Y-91863194D01*
X146533440Y-91862920D01*
X146448311Y-91862608D01*
X146372264Y-91862256D01*
X146304935Y-91861862D01*
X146245963Y-91861427D01*
X146194982Y-91860949D01*
X146151632Y-91860427D01*
X146115547Y-91859859D01*
X146086366Y-91859246D01*
X146063724Y-91858585D01*
X146047259Y-91857876D01*
X146036608Y-91857118D01*
X146031668Y-91856386D01*
X145978368Y-91834902D01*
X145929514Y-91801365D01*
X145887375Y-91757717D01*
X145854221Y-91705902D01*
X145852915Y-91703284D01*
X145830300Y-91657393D01*
X145830300Y-91609965D01*
X146039252Y-91609965D01*
X146082840Y-91653553D01*
X151152161Y-91653553D01*
X151195749Y-91609965D01*
X151195749Y-89048062D01*
X151152161Y-89004474D01*
X146082840Y-89004474D01*
X146039252Y-89048062D01*
X146039252Y-91609965D01*
X145830300Y-91609965D01*
X145830300Y-89000634D01*
X145852929Y-88954668D01*
G37*
G36*
X150134952Y-91929794D02*
G01*
X150223822Y-91929889D01*
X150299810Y-91930193D01*
X150364199Y-91930739D01*
X150418270Y-91931556D01*
X150463306Y-91932675D01*
X150500590Y-91934127D01*
X150531405Y-91935944D01*
X150557032Y-91938155D01*
X150575875Y-91940393D01*
X150695293Y-91961602D01*
X150805099Y-91991371D01*
X150904850Y-92029480D01*
X150994101Y-92075710D01*
X151072410Y-92129843D01*
X151139332Y-92191658D01*
X151178053Y-92237895D01*
X151220929Y-92299691D01*
X151256401Y-92361717D01*
X151285292Y-92426351D01*
X151308420Y-92495968D01*
X151326607Y-92572946D01*
X151340674Y-92659661D01*
X151349077Y-92733160D01*
X151353479Y-92779633D01*
X151356330Y-92816195D01*
X151357626Y-92847017D01*
X151357362Y-92876272D01*
X151355537Y-92908129D01*
X151352146Y-92946760D01*
X151348874Y-92979726D01*
X151342829Y-93035833D01*
X151336869Y-93081804D01*
X151330280Y-93121648D01*
X151322344Y-93159372D01*
X151312346Y-93198985D01*
X151304868Y-93226002D01*
X151285775Y-93281975D01*
X151259719Y-93342263D01*
X151229484Y-93400898D01*
X151203148Y-93444126D01*
X151187193Y-93465388D01*
X151164854Y-93491670D01*
X151138734Y-93520276D01*
X151111434Y-93548509D01*
X151085555Y-93573672D01*
X151063698Y-93593069D01*
X151049421Y-93603479D01*
X151035724Y-93611517D01*
X151014676Y-93624125D01*
X150992538Y-93637539D01*
X150918739Y-93675771D01*
X150833188Y-93707625D01*
X150735546Y-93733204D01*
X150625476Y-93752612D01*
X150611393Y-93754534D01*
X150587057Y-93757303D01*
X150557984Y-93759706D01*
X150522950Y-93761781D01*
X150480731Y-93763568D01*
X150430103Y-93765105D01*
X150369842Y-93766433D01*
X150298722Y-93767588D01*
X150215521Y-93768612D01*
X150149221Y-93769273D01*
X149772046Y-93772747D01*
X149772046Y-93525128D01*
X150083702Y-93525128D01*
X150297966Y-93521611D01*
X150356060Y-93520399D01*
X150410733Y-93518767D01*
X150459887Y-93516812D01*
X150501421Y-93514633D01*
X150533238Y-93512326D01*
X150553237Y-93509989D01*
X150554728Y-93509714D01*
X150584750Y-93503134D01*
X150615141Y-93495452D01*
X150630052Y-93491164D01*
X150650960Y-93485160D01*
X150666628Y-93481508D01*
X150670761Y-93480993D01*
X150684594Y-93477406D01*
X150707094Y-93467770D01*
X150735061Y-93453772D01*
X150765294Y-93437101D01*
X150794594Y-93419443D01*
X150819760Y-93402488D01*
X150820140Y-93402211D01*
X150872037Y-93357753D01*
X150916174Y-93305358D01*
X150953342Y-93243689D01*
X150984333Y-93171408D01*
X151009936Y-93087181D01*
X151012426Y-93077257D01*
X151019153Y-93040989D01*
X151024566Y-92994107D01*
X151028523Y-92940117D01*
X151030881Y-92882522D01*
X151031496Y-92824826D01*
X151030226Y-92770534D01*
X151026928Y-92723150D01*
X151026879Y-92722669D01*
X151011240Y-92623231D01*
X150985735Y-92533903D01*
X150950233Y-92454503D01*
X150904604Y-92384851D01*
X150848719Y-92324766D01*
X150782446Y-92274068D01*
X150705657Y-92232577D01*
X150660975Y-92214376D01*
X150599788Y-92196719D01*
X150525507Y-92183850D01*
X150438378Y-92175789D01*
X150338645Y-92172558D01*
X150226556Y-92174179D01*
X150210018Y-92174789D01*
X150083702Y-92179775D01*
X150083702Y-93525128D01*
X149772046Y-93525128D01*
X149772046Y-91929794D01*
X150134952Y-91929794D01*
G37*
G36*
X148695414Y-89496217D02*
G01*
X148695473Y-89426952D01*
X148695750Y-89370346D01*
X148696402Y-89324896D01*
X148697582Y-89289094D01*
X148699446Y-89261436D01*
X148702147Y-89240415D01*
X148705840Y-89224526D01*
X148710681Y-89212264D01*
X148716822Y-89202122D01*
X148724420Y-89192595D01*
X148726869Y-89189786D01*
X148735541Y-89180574D01*
X148744706Y-89173053D01*
X148755823Y-89167050D01*
X148770350Y-89162396D01*
X148789745Y-89158920D01*
X148815466Y-89156451D01*
X148848972Y-89154818D01*
X148891720Y-89153850D01*
X148945168Y-89153377D01*
X149010775Y-89153226D01*
X149038945Y-89153219D01*
X149109510Y-89153291D01*
X149167368Y-89153623D01*
X149213976Y-89154385D01*
X149250793Y-89155747D01*
X149279275Y-89157881D01*
X149300883Y-89160958D01*
X149317072Y-89165148D01*
X149329303Y-89170622D01*
X149339032Y-89177551D01*
X149347719Y-89186107D01*
X149351020Y-89189786D01*
X149359053Y-89199404D01*
X149365589Y-89209206D01*
X149370781Y-89220698D01*
X149374785Y-89235383D01*
X149377754Y-89254765D01*
X149379843Y-89280347D01*
X149381205Y-89313634D01*
X149381994Y-89356130D01*
X149382365Y-89409337D01*
X149382472Y-89474760D01*
X149382475Y-89496749D01*
X149382417Y-89566087D01*
X149382141Y-89622763D01*
X149381492Y-89668281D01*
X149380316Y-89704143D01*
X149378459Y-89731856D01*
X149375768Y-89752921D01*
X149372087Y-89768843D01*
X149367263Y-89781125D01*
X149361142Y-89791272D01*
X149353570Y-89800788D01*
X149351020Y-89803712D01*
X149342389Y-89812899D01*
X149333297Y-89820404D01*
X149322293Y-89826392D01*
X149307927Y-89831029D01*
X149288751Y-89834481D01*
X149263312Y-89836914D01*
X149230162Y-89838494D01*
X149187850Y-89839385D01*
X149134927Y-89839756D01*
X149069942Y-89839770D01*
X149036309Y-89839704D01*
X148960289Y-89839348D01*
X148897746Y-89838643D01*
X148847992Y-89837565D01*
X148810341Y-89836094D01*
X148784107Y-89834205D01*
X148768603Y-89831877D01*
X148765116Y-89830758D01*
X148744908Y-89819175D01*
X148730887Y-89808457D01*
X148721950Y-89799777D01*
X148714653Y-89790525D01*
X148708829Y-89779243D01*
X148704313Y-89764476D01*
X148700940Y-89744765D01*
X148698544Y-89718654D01*
X148696960Y-89684687D01*
X148696021Y-89641406D01*
X148695563Y-89587354D01*
X148695440Y-89529720D01*
X148909057Y-89529720D01*
X148909060Y-89565400D01*
X148909480Y-89593901D01*
X148910283Y-89612680D01*
X148911112Y-89618837D01*
X148915446Y-89622269D01*
X148926500Y-89624657D01*
X148945935Y-89626096D01*
X148975413Y-89626679D01*
X149016598Y-89626501D01*
X149040556Y-89626180D01*
X149166441Y-89624245D01*
X149166441Y-89369253D01*
X148911449Y-89369253D01*
X148909500Y-89489406D01*
X148909057Y-89529720D01*
X148695440Y-89529720D01*
X148695421Y-89521076D01*
X148695414Y-89496217D01*
G37*
G36*
X147859608Y-90332023D02*
G01*
X147859667Y-90262758D01*
X147859944Y-90206152D01*
X147860596Y-90160702D01*
X147861776Y-90124900D01*
X147863640Y-90097242D01*
X147866341Y-90076221D01*
X147870034Y-90060332D01*
X147874875Y-90048070D01*
X147881016Y-90037928D01*
X147888614Y-90028401D01*
X147891063Y-90025592D01*
X147899735Y-90016380D01*
X147908900Y-90008858D01*
X147920017Y-90002856D01*
X147934544Y-89998202D01*
X147953939Y-89994726D01*
X147979661Y-89992257D01*
X148013166Y-89990624D01*
X148055914Y-89989656D01*
X148109362Y-89989183D01*
X148174969Y-89989032D01*
X148203139Y-89989025D01*
X148273704Y-89989097D01*
X148331562Y-89989429D01*
X148378170Y-89990191D01*
X148414987Y-89991553D01*
X148443469Y-89993687D01*
X148465077Y-89996764D01*
X148481267Y-90000954D01*
X148493497Y-90006428D01*
X148503227Y-90013357D01*
X148511913Y-90021912D01*
X148515214Y-90025592D01*
X148523247Y-90035210D01*
X148529783Y-90045012D01*
X148534976Y-90056504D01*
X148538979Y-90071189D01*
X148541948Y-90090571D01*
X148544037Y-90116153D01*
X148545399Y-90149440D01*
X148546188Y-90191936D01*
X148546559Y-90245143D01*
X148546666Y-90310566D01*
X148546669Y-90332555D01*
X148546611Y-90401893D01*
X148546335Y-90458569D01*
X148545686Y-90504086D01*
X148544510Y-90539949D01*
X148542653Y-90567661D01*
X148539962Y-90588727D01*
X148536281Y-90604649D01*
X148531457Y-90616931D01*
X148525336Y-90627078D01*
X148517764Y-90636594D01*
X148515214Y-90639518D01*
X148506583Y-90648705D01*
X148497491Y-90656210D01*
X148486487Y-90662198D01*
X148472121Y-90666835D01*
X148452945Y-90670287D01*
X148427506Y-90672720D01*
X148394356Y-90674299D01*
X148352045Y-90675191D01*
X148299121Y-90675561D01*
X148234136Y-90675576D01*
X148200503Y-90675510D01*
X148124483Y-90675154D01*
X148061940Y-90674448D01*
X148012186Y-90673371D01*
X147974535Y-90671900D01*
X147948301Y-90670011D01*
X147932797Y-90667683D01*
X147929310Y-90666564D01*
X147909102Y-90654981D01*
X147895081Y-90644263D01*
X147886144Y-90635583D01*
X147878847Y-90626331D01*
X147873023Y-90615049D01*
X147868507Y-90600282D01*
X147865134Y-90580571D01*
X147862738Y-90554460D01*
X147861154Y-90520493D01*
X147860215Y-90477212D01*
X147859757Y-90423160D01*
X147859634Y-90365526D01*
X148073251Y-90365526D01*
X148073254Y-90401205D01*
X148073674Y-90429707D01*
X148074477Y-90448486D01*
X148075306Y-90454642D01*
X148079640Y-90458075D01*
X148090694Y-90460463D01*
X148110129Y-90461902D01*
X148139607Y-90462485D01*
X148180792Y-90462307D01*
X148204750Y-90461986D01*
X148330635Y-90460051D01*
X148330635Y-90205059D01*
X148075643Y-90205059D01*
X148073694Y-90325212D01*
X148073251Y-90365526D01*
X147859634Y-90365526D01*
X147859615Y-90356882D01*
X147859608Y-90332023D01*
G37*
G36*
X148695414Y-90332023D02*
G01*
X148695473Y-90262758D01*
X148695750Y-90206152D01*
X148696402Y-90160702D01*
X148697582Y-90124900D01*
X148699446Y-90097242D01*
X148702147Y-90076221D01*
X148705840Y-90060332D01*
X148710681Y-90048070D01*
X148716822Y-90037928D01*
X148724420Y-90028401D01*
X148726869Y-90025592D01*
X148735541Y-90016380D01*
X148744706Y-90008858D01*
X148755823Y-90002856D01*
X148770350Y-89998202D01*
X148789745Y-89994726D01*
X148815466Y-89992257D01*
X148848972Y-89990624D01*
X148891720Y-89989656D01*
X148945168Y-89989183D01*
X149010775Y-89989032D01*
X149038945Y-89989025D01*
X149109510Y-89989097D01*
X149167368Y-89989429D01*
X149213976Y-89990191D01*
X149250793Y-89991553D01*
X149279275Y-89993687D01*
X149300883Y-89996764D01*
X149317072Y-90000954D01*
X149329303Y-90006428D01*
X149339032Y-90013357D01*
X149347719Y-90021912D01*
X149351020Y-90025592D01*
X149359053Y-90035210D01*
X149365589Y-90045012D01*
X149370781Y-90056504D01*
X149374785Y-90071189D01*
X149377754Y-90090571D01*
X149379843Y-90116153D01*
X149381205Y-90149440D01*
X149381994Y-90191936D01*
X149382365Y-90245143D01*
X149382472Y-90310566D01*
X149382475Y-90332555D01*
X149382417Y-90401893D01*
X149382141Y-90458569D01*
X149381492Y-90504086D01*
X149380316Y-90539949D01*
X149378459Y-90567661D01*
X149375768Y-90588727D01*
X149372087Y-90604649D01*
X149367263Y-90616931D01*
X149361142Y-90627078D01*
X149353570Y-90636594D01*
X149351020Y-90639518D01*
X149342389Y-90648705D01*
X149333297Y-90656210D01*
X149322293Y-90662198D01*
X149307927Y-90666835D01*
X149288751Y-90670287D01*
X149263312Y-90672720D01*
X149230162Y-90674299D01*
X149187850Y-90675191D01*
X149134927Y-90675561D01*
X149069942Y-90675576D01*
X149036309Y-90675510D01*
X148960289Y-90675154D01*
X148897746Y-90674448D01*
X148847992Y-90673371D01*
X148810341Y-90671900D01*
X148784107Y-90670011D01*
X148768603Y-90667683D01*
X148765116Y-90666564D01*
X148744908Y-90654981D01*
X148730887Y-90644263D01*
X148721950Y-90635583D01*
X148714653Y-90626331D01*
X148708829Y-90615049D01*
X148704313Y-90600282D01*
X148700940Y-90580571D01*
X148698544Y-90554460D01*
X148696960Y-90520493D01*
X148696021Y-90477212D01*
X148695563Y-90423160D01*
X148695440Y-90365526D01*
X148909057Y-90365526D01*
X148909060Y-90401205D01*
X148909480Y-90429707D01*
X148910283Y-90448486D01*
X148911112Y-90454642D01*
X148915446Y-90458075D01*
X148926500Y-90460463D01*
X148945935Y-90461902D01*
X148975413Y-90462485D01*
X149016598Y-90462307D01*
X149040556Y-90461986D01*
X149166441Y-90460051D01*
X149166441Y-90205059D01*
X148911449Y-90205059D01*
X148909500Y-90325212D01*
X148909057Y-90365526D01*
X148695440Y-90365526D01*
X148695421Y-90356882D01*
X148695414Y-90332023D01*
G37*
G36*
X150367026Y-91167829D02*
G01*
X150367084Y-91098563D01*
X150367362Y-91041958D01*
X150368014Y-90996507D01*
X150369194Y-90960706D01*
X150371058Y-90933047D01*
X150373759Y-90912027D01*
X150377452Y-90896138D01*
X150382292Y-90883875D01*
X150388434Y-90873734D01*
X150396032Y-90864207D01*
X150398481Y-90861398D01*
X150407153Y-90852186D01*
X150416318Y-90844664D01*
X150427435Y-90838662D01*
X150441962Y-90834008D01*
X150461357Y-90830532D01*
X150487078Y-90828063D01*
X150520584Y-90826430D01*
X150563332Y-90825462D01*
X150616780Y-90824988D01*
X150682387Y-90824838D01*
X150710557Y-90824830D01*
X150781122Y-90824903D01*
X150838980Y-90825235D01*
X150885588Y-90825996D01*
X150922404Y-90827359D01*
X150950887Y-90829493D01*
X150972494Y-90832570D01*
X150988684Y-90836760D01*
X151000915Y-90842234D01*
X151010644Y-90849163D01*
X151019331Y-90857718D01*
X151022632Y-90861398D01*
X151030665Y-90871016D01*
X151037201Y-90880818D01*
X151042393Y-90892310D01*
X151046397Y-90906995D01*
X151049366Y-90926377D01*
X151051455Y-90951959D01*
X151052816Y-90985246D01*
X151053606Y-91027742D01*
X151053977Y-91080949D01*
X151054083Y-91146372D01*
X151054087Y-91168361D01*
X151054029Y-91237699D01*
X151053753Y-91294375D01*
X151053104Y-91339892D01*
X151051928Y-91375755D01*
X151050071Y-91403467D01*
X151047379Y-91424532D01*
X151043699Y-91440454D01*
X151038875Y-91452737D01*
X151032754Y-91462884D01*
X151025181Y-91472399D01*
X151022632Y-91475323D01*
X151014001Y-91484511D01*
X151004908Y-91492016D01*
X150993904Y-91498004D01*
X150979539Y-91502641D01*
X150960362Y-91506093D01*
X150934924Y-91508526D01*
X150901774Y-91510105D01*
X150859462Y-91510997D01*
X150806539Y-91511367D01*
X150741553Y-91511382D01*
X150707921Y-91511316D01*
X150631901Y-91510960D01*
X150569358Y-91510254D01*
X150519604Y-91509177D01*
X150481953Y-91507706D01*
X150455718Y-91505817D01*
X150440215Y-91503488D01*
X150436728Y-91502370D01*
X150416520Y-91490787D01*
X150402498Y-91480069D01*
X150393562Y-91471389D01*
X150386265Y-91462137D01*
X150380441Y-91450855D01*
X150375925Y-91436087D01*
X150372552Y-91416377D01*
X150370156Y-91390266D01*
X150368571Y-91356299D01*
X150367633Y-91313018D01*
X150367175Y-91258966D01*
X150367051Y-91201331D01*
X150580668Y-91201331D01*
X150580672Y-91237011D01*
X150581091Y-91265513D01*
X150581894Y-91284292D01*
X150582723Y-91290448D01*
X150587058Y-91293881D01*
X150598112Y-91296269D01*
X150617546Y-91297708D01*
X150647025Y-91298291D01*
X150688210Y-91298113D01*
X150712168Y-91297792D01*
X150838052Y-91295857D01*
X150838052Y-91040865D01*
X150583061Y-91040865D01*
X150581112Y-91161018D01*
X150580668Y-91201331D01*
X150367051Y-91201331D01*
X150367032Y-91192687D01*
X150367026Y-91167829D01*
G37*
G36*
X147023803Y-91167829D02*
G01*
X147023861Y-91098563D01*
X147024138Y-91041958D01*
X147024790Y-90996507D01*
X147025970Y-90960706D01*
X147027834Y-90933047D01*
X147030535Y-90912027D01*
X147034229Y-90896138D01*
X147039069Y-90883875D01*
X147045210Y-90873734D01*
X147052808Y-90864207D01*
X147055258Y-90861398D01*
X147058626Y-90857252D01*
X147061508Y-90853431D01*
X147064469Y-90849921D01*
X147068073Y-90846710D01*
X147072885Y-90843783D01*
X147079469Y-90841129D01*
X147088390Y-90838734D01*
X147100213Y-90836584D01*
X147115502Y-90834667D01*
X147134823Y-90832969D01*
X147158738Y-90831477D01*
X147187815Y-90830177D01*
X147222616Y-90829058D01*
X147263707Y-90828104D01*
X147311652Y-90827303D01*
X147367016Y-90826643D01*
X147430363Y-90826109D01*
X147502259Y-90825688D01*
X147583267Y-90825368D01*
X147673953Y-90825135D01*
X147774881Y-90824976D01*
X147886616Y-90824877D01*
X148009723Y-90824826D01*
X148144765Y-90824809D01*
X148292308Y-90824813D01*
X148452917Y-90824824D01*
X148618032Y-90824830D01*
X148799436Y-90824849D01*
X148967109Y-90824906D01*
X149121486Y-90825004D01*
X149263002Y-90825145D01*
X149392093Y-90825332D01*
X149509193Y-90825567D01*
X149614738Y-90825853D01*
X149709163Y-90826192D01*
X149792903Y-90826586D01*
X149866393Y-90827038D01*
X149930068Y-90827551D01*
X149984364Y-90828125D01*
X150029715Y-90828766D01*
X150066557Y-90829473D01*
X150095325Y-90830251D01*
X150116454Y-90831100D01*
X150130379Y-90832025D01*
X150137535Y-90833027D01*
X150138263Y-90833265D01*
X150172296Y-90854702D01*
X150196484Y-90884960D01*
X150201192Y-90894756D01*
X150204164Y-90909145D01*
X150206669Y-90935625D01*
X150208704Y-90972127D01*
X150210272Y-91016583D01*
X150211371Y-91066925D01*
X150212001Y-91121085D01*
X150212163Y-91176995D01*
X150211857Y-91232587D01*
X150211082Y-91285792D01*
X150209839Y-91334543D01*
X150208128Y-91376772D01*
X150205948Y-91410410D01*
X150203299Y-91433389D01*
X150201192Y-91441966D01*
X150180210Y-91474287D01*
X150148709Y-91498445D01*
X150138263Y-91503456D01*
X150128896Y-91504455D01*
X150106169Y-91505390D01*
X150070881Y-91506263D01*
X150023832Y-91507074D01*
X149965821Y-91507822D01*
X149897649Y-91508508D01*
X149820115Y-91509133D01*
X149734020Y-91509697D01*
X149640163Y-91510200D01*
X149539343Y-91510641D01*
X149432362Y-91511023D01*
X149320018Y-91511344D01*
X149203111Y-91511606D01*
X149082442Y-91511808D01*
X148958809Y-91511950D01*
X148833014Y-91512034D01*
X148705855Y-91512059D01*
X148578133Y-91512025D01*
X148450647Y-91511934D01*
X148324197Y-91511784D01*
X148199584Y-91511577D01*
X148077606Y-91511313D01*
X147959064Y-91510992D01*
X147844757Y-91510614D01*
X147735486Y-91510179D01*
X147632051Y-91509689D01*
X147535250Y-91509142D01*
X147445884Y-91508540D01*
X147364753Y-91507883D01*
X147292656Y-91507171D01*
X147230394Y-91506404D01*
X147178766Y-91505582D01*
X147138572Y-91504707D01*
X147110611Y-91503777D01*
X147095685Y-91502794D01*
X147093504Y-91502370D01*
X147073296Y-91490787D01*
X147059275Y-91480069D01*
X147050338Y-91471389D01*
X147043041Y-91462137D01*
X147037217Y-91450855D01*
X147032701Y-91436087D01*
X147029328Y-91416377D01*
X147026932Y-91390266D01*
X147025348Y-91356299D01*
X147024409Y-91313018D01*
X147023952Y-91258966D01*
X147023905Y-91236971D01*
X147237436Y-91236971D01*
X147237842Y-91265437D01*
X147238628Y-91284175D01*
X147239444Y-91290302D01*
X147242088Y-91291420D01*
X147249474Y-91292440D01*
X147262123Y-91293367D01*
X147280555Y-91294202D01*
X147305293Y-91294948D01*
X147336859Y-91295609D01*
X147375772Y-91296187D01*
X147422555Y-91296685D01*
X147477729Y-91297106D01*
X147541815Y-91297451D01*
X147615336Y-91297725D01*
X147698811Y-91297930D01*
X147792763Y-91298069D01*
X147897713Y-91298144D01*
X148014183Y-91298158D01*
X148142693Y-91298114D01*
X148283765Y-91298015D01*
X148437921Y-91297864D01*
X148605682Y-91297663D01*
X148619056Y-91297645D01*
X149995163Y-91295857D01*
X149995163Y-91040865D01*
X147239837Y-91040865D01*
X147237888Y-91161018D01*
X147237442Y-91201318D01*
X147237436Y-91236971D01*
X147023905Y-91236971D01*
X147023809Y-91192687D01*
X147023803Y-91167829D01*
G37*
G36*
X147023803Y-89496217D02*
G01*
X147023861Y-89426952D01*
X147024138Y-89370346D01*
X147024790Y-89324896D01*
X147025970Y-89289094D01*
X147027834Y-89261436D01*
X147030535Y-89240415D01*
X147034229Y-89224526D01*
X147039069Y-89212264D01*
X147045210Y-89202122D01*
X147052808Y-89192595D01*
X147055258Y-89189786D01*
X147063929Y-89180574D01*
X147073094Y-89173053D01*
X147084211Y-89167050D01*
X147098738Y-89162396D01*
X147118133Y-89158920D01*
X147143855Y-89156451D01*
X147177360Y-89154818D01*
X147220108Y-89153850D01*
X147273556Y-89153377D01*
X147339163Y-89153226D01*
X147367333Y-89153219D01*
X147437899Y-89153291D01*
X147495756Y-89153623D01*
X147542364Y-89154385D01*
X147579181Y-89155747D01*
X147607663Y-89157881D01*
X147629271Y-89160958D01*
X147645461Y-89165148D01*
X147657691Y-89170622D01*
X147667421Y-89177551D01*
X147676107Y-89186107D01*
X147679408Y-89189786D01*
X147687441Y-89199404D01*
X147693977Y-89209206D01*
X147699170Y-89220698D01*
X147703173Y-89235383D01*
X147706143Y-89254765D01*
X147708231Y-89280347D01*
X147709593Y-89313634D01*
X147710382Y-89356130D01*
X147710753Y-89409337D01*
X147710860Y-89474760D01*
X147710863Y-89496749D01*
X147710805Y-89566087D01*
X147710529Y-89622763D01*
X147709880Y-89668281D01*
X147708704Y-89704143D01*
X147706847Y-89731856D01*
X147704156Y-89752921D01*
X147700475Y-89768843D01*
X147695651Y-89781125D01*
X147689530Y-89791272D01*
X147681958Y-89800788D01*
X147679408Y-89803712D01*
X147670777Y-89812899D01*
X147661685Y-89820404D01*
X147650681Y-89826392D01*
X147636316Y-89831029D01*
X147617139Y-89834481D01*
X147591700Y-89836914D01*
X147558550Y-89838494D01*
X147516239Y-89839385D01*
X147463315Y-89839756D01*
X147398330Y-89839770D01*
X147364697Y-89839704D01*
X147288678Y-89839348D01*
X147226134Y-89838643D01*
X147176380Y-89837565D01*
X147138729Y-89836094D01*
X147112495Y-89834205D01*
X147096991Y-89831877D01*
X147093504Y-89830758D01*
X147073296Y-89819175D01*
X147059275Y-89808457D01*
X147050338Y-89799777D01*
X147043041Y-89790525D01*
X147037217Y-89779243D01*
X147032701Y-89764476D01*
X147029328Y-89744765D01*
X147026932Y-89718654D01*
X147025348Y-89684687D01*
X147024409Y-89641406D01*
X147023952Y-89587354D01*
X147023828Y-89529720D01*
X147237445Y-89529720D01*
X147237448Y-89565400D01*
X147237868Y-89593901D01*
X147238671Y-89612680D01*
X147239500Y-89618837D01*
X147243834Y-89622269D01*
X147254888Y-89624657D01*
X147274323Y-89626096D01*
X147303801Y-89626679D01*
X147344986Y-89626501D01*
X147368944Y-89626180D01*
X147494829Y-89624245D01*
X147494829Y-89369253D01*
X147239837Y-89369253D01*
X147237888Y-89489406D01*
X147237445Y-89529720D01*
X147023828Y-89529720D01*
X147023809Y-89521076D01*
X147023803Y-89496217D01*
G37*
G36*
X148674217Y-91904422D02*
G01*
X148730003Y-91906479D01*
X148779825Y-91910141D01*
X148820341Y-91915411D01*
X148833535Y-91918048D01*
X148955411Y-91951926D01*
X149066736Y-91995002D01*
X149167403Y-92047225D01*
X149257306Y-92108542D01*
X149300484Y-92144648D01*
X149324693Y-92168233D01*
X149336727Y-92184632D01*
X149337703Y-92192395D01*
X149331915Y-92201728D01*
X149319512Y-92219970D01*
X149302242Y-92244599D01*
X149281856Y-92273091D01*
X149279126Y-92276866D01*
X149256358Y-92308624D01*
X149234441Y-92339729D01*
X149215904Y-92366560D01*
X149203506Y-92385135D01*
X149181719Y-92419031D01*
X149156372Y-92395098D01*
X149111984Y-92356948D01*
X149061334Y-92319579D01*
X149008929Y-92286014D01*
X148959280Y-92259276D01*
X148942342Y-92251647D01*
X148866700Y-92222339D01*
X148797954Y-92201539D01*
X148732357Y-92188407D01*
X148666162Y-92182104D01*
X148628125Y-92181244D01*
X148584481Y-92181917D01*
X148548631Y-92184500D01*
X148515465Y-92189837D01*
X148479873Y-92198772D01*
X148436744Y-92212151D01*
X148432276Y-92213616D01*
X148365777Y-92241819D01*
X148299825Y-92281561D01*
X148237412Y-92330427D01*
X148181528Y-92386002D01*
X148135163Y-92445871D01*
X148125225Y-92461532D01*
X148085759Y-92533802D01*
X148056603Y-92604571D01*
X148036828Y-92677309D01*
X148025503Y-92755487D01*
X148021696Y-92842572D01*
X148021686Y-92847633D01*
X148022478Y-92903435D01*
X148025306Y-92949652D01*
X148030854Y-92990802D01*
X148039803Y-93031403D01*
X148052835Y-93075971D01*
X148059025Y-93094964D01*
X148072476Y-93130623D01*
X148089726Y-93169468D01*
X148108903Y-93207858D01*
X148128130Y-93242151D01*
X148145534Y-93268706D01*
X148153557Y-93278593D01*
X148166722Y-93293098D01*
X148184002Y-93312390D01*
X148192514Y-93321969D01*
X148207975Y-93338129D01*
X148228058Y-93357383D01*
X148249996Y-93377299D01*
X148271020Y-93395446D01*
X148288362Y-93409391D01*
X148299253Y-93416703D01*
X148300981Y-93417245D01*
X148308864Y-93420915D01*
X148323921Y-93430195D01*
X148332091Y-93435662D01*
X148347127Y-93445616D01*
X148361101Y-93453629D01*
X148377689Y-93461451D01*
X148400568Y-93470829D01*
X148429798Y-93482130D01*
X148491261Y-93500280D01*
X148560549Y-93511703D01*
X148633548Y-93516310D01*
X148706143Y-93514009D01*
X148774221Y-93504712D01*
X148826689Y-93490821D01*
X148846590Y-93484663D01*
X148861528Y-93481241D01*
X148864257Y-93480993D01*
X148873333Y-93478009D01*
X148892064Y-93469997D01*
X148917485Y-93458371D01*
X148946634Y-93444544D01*
X148976548Y-93429929D01*
X149004261Y-93415939D01*
X149026812Y-93403985D01*
X149032694Y-93400684D01*
X149051347Y-93388427D01*
X149076508Y-93369890D01*
X149104141Y-93348250D01*
X149130205Y-93326685D01*
X149150665Y-93308373D01*
X149153421Y-93305687D01*
X149168446Y-93291928D01*
X149179701Y-93283700D01*
X149182483Y-93282667D01*
X149188617Y-93288158D01*
X149201305Y-93303291D01*
X149219046Y-93326051D01*
X149240340Y-93354425D01*
X149263687Y-93386399D01*
X149287586Y-93419959D01*
X149310539Y-93453094D01*
X149321076Y-93468699D01*
X149348367Y-93509528D01*
X149311289Y-93542864D01*
X149289360Y-93561875D01*
X149264194Y-93582606D01*
X149238371Y-93603070D01*
X149214470Y-93621280D01*
X149195069Y-93635247D01*
X149182747Y-93642984D01*
X149180177Y-93643905D01*
X149172186Y-93647562D01*
X149156600Y-93656955D01*
X149144093Y-93665154D01*
X149125363Y-93677075D01*
X149111205Y-93684785D01*
X149106461Y-93686403D01*
X149097193Y-93689370D01*
X149079720Y-93697025D01*
X149064277Y-93704504D01*
X149023312Y-93722388D01*
X148972481Y-93740395D01*
X148916009Y-93757224D01*
X148858124Y-93771575D01*
X148822910Y-93778744D01*
X148779870Y-93784728D01*
X148727778Y-93788937D01*
X148670315Y-93791350D01*
X148611163Y-93791946D01*
X148554004Y-93790702D01*
X148502518Y-93787598D01*
X148460389Y-93782611D01*
X148451047Y-93780929D01*
X148393796Y-93767983D01*
X148335697Y-93751998D01*
X148281036Y-93734306D01*
X148234096Y-93716236D01*
X148215437Y-93707757D01*
X148193521Y-93697206D01*
X148174424Y-93688198D01*
X148169397Y-93685887D01*
X148129185Y-93664191D01*
X148083544Y-93633719D01*
X148035710Y-93596904D01*
X147988916Y-93556178D01*
X147960994Y-93529170D01*
X147918254Y-93484293D01*
X147884659Y-93445043D01*
X147858016Y-93408551D01*
X147836131Y-93371950D01*
X147826672Y-93353498D01*
X147815709Y-93332552D01*
X147806481Y-93317500D01*
X147801739Y-93312179D01*
X147796780Y-93304072D01*
X147795861Y-93296660D01*
X147792415Y-93283311D01*
X147788670Y-93279059D01*
X147778567Y-93266764D01*
X147767031Y-93242733D01*
X147754707Y-93209241D01*
X147742244Y-93168566D01*
X147730288Y-93122984D01*
X147719485Y-93074770D01*
X147710483Y-93026201D01*
X147704167Y-92981635D01*
X147698204Y-92895759D01*
X147699286Y-92805571D01*
X147706972Y-92714332D01*
X147720823Y-92625301D01*
X147740401Y-92541738D01*
X147765265Y-92466903D01*
X147777361Y-92438461D01*
X147787013Y-92416909D01*
X147793706Y-92400936D01*
X147795861Y-92394546D01*
X147799502Y-92387120D01*
X147808857Y-92371936D01*
X147817110Y-92359420D01*
X147829003Y-92340929D01*
X147836715Y-92327273D01*
X147838359Y-92322898D01*
X147842375Y-92314768D01*
X147852536Y-92299997D01*
X147858579Y-92292052D01*
X147871370Y-92274722D01*
X147880008Y-92261168D01*
X147881599Y-92257765D01*
X147888668Y-92246523D01*
X147903917Y-92227929D01*
X147925149Y-92204278D01*
X147950167Y-92177862D01*
X147976777Y-92150975D01*
X148002780Y-92125910D01*
X148025982Y-92104961D01*
X148035678Y-92096880D01*
X148121166Y-92037238D01*
X148217106Y-91986839D01*
X148323037Y-91945897D01*
X148422715Y-91918194D01*
X148458224Y-91912236D01*
X148504469Y-91907879D01*
X148558110Y-91905124D01*
X148615806Y-91903971D01*
X148674217Y-91904422D01*
G37*
G36*
X149531220Y-90332023D02*
G01*
X149531279Y-90262758D01*
X149531556Y-90206152D01*
X149532208Y-90160702D01*
X149533388Y-90124900D01*
X149535252Y-90097242D01*
X149537953Y-90076221D01*
X149541646Y-90060332D01*
X149546486Y-90048070D01*
X149552628Y-90037928D01*
X149560226Y-90028401D01*
X149562675Y-90025592D01*
X149569799Y-90017771D01*
X149577059Y-90011153D01*
X149585636Y-90005637D01*
X149596710Y-90001124D01*
X149611462Y-89997512D01*
X149631075Y-89994702D01*
X149656728Y-89992593D01*
X149689603Y-89991083D01*
X149730881Y-89990074D01*
X149781744Y-89989464D01*
X149843371Y-89989153D01*
X149916944Y-89989040D01*
X149992487Y-89989025D01*
X150359943Y-89989025D01*
X150359943Y-89618027D01*
X150359964Y-89532563D01*
X150360092Y-89460091D01*
X150360427Y-89399435D01*
X150361068Y-89349420D01*
X150362113Y-89308872D01*
X150363663Y-89276615D01*
X150365816Y-89251475D01*
X150368671Y-89232276D01*
X150372328Y-89217844D01*
X150376886Y-89207004D01*
X150382443Y-89198580D01*
X150389100Y-89191398D01*
X150396511Y-89184674D01*
X150406138Y-89176633D01*
X150415952Y-89170093D01*
X150427458Y-89164898D01*
X150442161Y-89160894D01*
X150461568Y-89157927D01*
X150487184Y-89155841D01*
X150520516Y-89154482D01*
X150563067Y-89153695D01*
X150616345Y-89153327D01*
X150681855Y-89153222D01*
X150702942Y-89153219D01*
X150773578Y-89153291D01*
X150831505Y-89153621D01*
X150878179Y-89154379D01*
X150915055Y-89155736D01*
X150943592Y-89157862D01*
X150965244Y-89160928D01*
X150981469Y-89165103D01*
X150993723Y-89170559D01*
X151003461Y-89177464D01*
X151012141Y-89185991D01*
X151015549Y-89189786D01*
X151020756Y-89195707D01*
X151025354Y-89201509D01*
X151029381Y-89208064D01*
X151032876Y-89216242D01*
X151035875Y-89226914D01*
X151038417Y-89240951D01*
X151040539Y-89259224D01*
X151042279Y-89282603D01*
X151043676Y-89311960D01*
X151044766Y-89348166D01*
X151045588Y-89392091D01*
X151046180Y-89444605D01*
X151046579Y-89506581D01*
X151046823Y-89578888D01*
X151046950Y-89662399D01*
X151046998Y-89757982D01*
X151047004Y-89866510D01*
X151047004Y-89914120D01*
X151047008Y-90028966D01*
X151046990Y-90130504D01*
X151046908Y-90219594D01*
X151046719Y-90297094D01*
X151046380Y-90363864D01*
X151045847Y-90420761D01*
X151045078Y-90468646D01*
X151044030Y-90508376D01*
X151042659Y-90540811D01*
X151040924Y-90566810D01*
X151038780Y-90587231D01*
X151036185Y-90602933D01*
X151033096Y-90614776D01*
X151029469Y-90623617D01*
X151025262Y-90630316D01*
X151020433Y-90635732D01*
X151014937Y-90640723D01*
X151010436Y-90644630D01*
X150991092Y-90658554D01*
X150974069Y-90667650D01*
X150963556Y-90669128D01*
X150940101Y-90670462D01*
X150904915Y-90671654D01*
X150859209Y-90672704D01*
X150804195Y-90673615D01*
X150741084Y-90674387D01*
X150671089Y-90675020D01*
X150595419Y-90675517D01*
X150515286Y-90675876D01*
X150431903Y-90676101D01*
X150346479Y-90676191D01*
X150260227Y-90676148D01*
X150174358Y-90675972D01*
X150090084Y-90675665D01*
X150008615Y-90675228D01*
X149931164Y-90674660D01*
X149858941Y-90673964D01*
X149793158Y-90673141D01*
X149735026Y-90672191D01*
X149685758Y-90671115D01*
X149646563Y-90669914D01*
X149618654Y-90668589D01*
X149603241Y-90667142D01*
X149600922Y-90666564D01*
X149580714Y-90654981D01*
X149566693Y-90644263D01*
X149557756Y-90635583D01*
X149550459Y-90626331D01*
X149544635Y-90615049D01*
X149540119Y-90600282D01*
X149536746Y-90580571D01*
X149534350Y-90554460D01*
X149532765Y-90520493D01*
X149531827Y-90477212D01*
X149531369Y-90423160D01*
X149531322Y-90401173D01*
X149744856Y-90401173D01*
X149745264Y-90429645D01*
X149746054Y-90448390D01*
X149746871Y-90454523D01*
X149749893Y-90456268D01*
X149758074Y-90457770D01*
X149772244Y-90459038D01*
X149793231Y-90460085D01*
X149821866Y-90460921D01*
X149858977Y-90461557D01*
X149905393Y-90462005D01*
X149961943Y-90462276D01*
X150029457Y-90462381D01*
X150108764Y-90462332D01*
X150200693Y-90462139D01*
X150290678Y-90461866D01*
X150830969Y-90460051D01*
X150830969Y-89369253D01*
X150575978Y-89369253D01*
X150574150Y-89785328D01*
X150572323Y-90201403D01*
X149747255Y-90205059D01*
X149745306Y-90325212D01*
X149744860Y-90365514D01*
X149744856Y-90401173D01*
X149531322Y-90401173D01*
X149531226Y-90356882D01*
X149531220Y-90332023D01*
G37*
G36*
X146272356Y-91929794D02*
G01*
X146358298Y-91929833D01*
X146431466Y-91929975D01*
X146493254Y-91930262D01*
X146545054Y-91930734D01*
X146588259Y-91931431D01*
X146624262Y-91932393D01*
X146654455Y-91933660D01*
X146680232Y-91935274D01*
X146702986Y-91937273D01*
X146724108Y-91939699D01*
X146744992Y-91942592D01*
X146752236Y-91943682D01*
X146830682Y-91957476D01*
X146897186Y-91973464D01*
X146953916Y-91992557D01*
X147003037Y-92015663D01*
X147046716Y-92043694D01*
X147087120Y-92077559D01*
X147099471Y-92089536D01*
X147136394Y-92135585D01*
X147166472Y-92191473D01*
X147189258Y-92254399D01*
X147204304Y-92321562D01*
X147211163Y-92390163D01*
X147209388Y-92457400D01*
X147198531Y-92520473D01*
X147178144Y-92576582D01*
X147177495Y-92577898D01*
X147150415Y-92624077D01*
X147117100Y-92664747D01*
X147075792Y-92701354D01*
X147024735Y-92735344D01*
X146962171Y-92768161D01*
X146926499Y-92784375D01*
X146909190Y-92793495D01*
X146899507Y-92801692D01*
X146898693Y-92804557D01*
X146906359Y-92810624D01*
X146922762Y-92817060D01*
X146928707Y-92818723D01*
X146948145Y-92824275D01*
X146961758Y-92829234D01*
X146963596Y-92830189D01*
X146974809Y-92834249D01*
X146993344Y-92838628D01*
X146997241Y-92839363D01*
X147014271Y-92843835D01*
X147023344Y-92848942D01*
X147023803Y-92850130D01*
X147029968Y-92855313D01*
X147045035Y-92860060D01*
X147047258Y-92860504D01*
X147068617Y-92868138D01*
X147096945Y-92883257D01*
X147128909Y-92903622D01*
X147161178Y-92926992D01*
X147190418Y-92951127D01*
X147209383Y-92969474D01*
X147241951Y-93010535D01*
X147268866Y-93058960D01*
X147290210Y-93112672D01*
X147295570Y-93130864D01*
X147299324Y-93150967D01*
X147301721Y-93175853D01*
X147303012Y-93208394D01*
X147303445Y-93251460D01*
X147303448Y-93264959D01*
X147302296Y-93324566D01*
X147298534Y-93373401D01*
X147291463Y-93414732D01*
X147280383Y-93451823D01*
X147264594Y-93487940D01*
X147249841Y-93515312D01*
X147234359Y-93538542D01*
X147212948Y-93565791D01*
X147188609Y-93593724D01*
X147164341Y-93619007D01*
X147143146Y-93638303D01*
X147131953Y-93646342D01*
X147075792Y-93677117D01*
X147023041Y-93701457D01*
X146969859Y-93720640D01*
X146912403Y-93735940D01*
X146846832Y-93748636D01*
X146804226Y-93755214D01*
X146783895Y-93757666D01*
X146758544Y-93759814D01*
X146727090Y-93761689D01*
X146688445Y-93763321D01*
X146641525Y-93764741D01*
X146585243Y-93765980D01*
X146518514Y-93767068D01*
X146440252Y-93768037D01*
X146349371Y-93768916D01*
X146306639Y-93769270D01*
X145883423Y-93772634D01*
X145883423Y-93242947D01*
X146187997Y-93242947D01*
X146188116Y-93303579D01*
X146188456Y-93359730D01*
X146188990Y-93409831D01*
X146189692Y-93452314D01*
X146190534Y-93485610D01*
X146191489Y-93508150D01*
X146192530Y-93518367D01*
X146192719Y-93518770D01*
X146200675Y-93519882D01*
X146221130Y-93520894D01*
X146252418Y-93521775D01*
X146292871Y-93522494D01*
X146340822Y-93523020D01*
X146394605Y-93523321D01*
X146438856Y-93523381D01*
X146506028Y-93523268D01*
X146560870Y-93522943D01*
X146605221Y-93522321D01*
X146640917Y-93521320D01*
X146669796Y-93519855D01*
X146693694Y-93517844D01*
X146714449Y-93515203D01*
X146733897Y-93511848D01*
X146745767Y-93509445D01*
X146809701Y-93492245D01*
X146861521Y-93469773D01*
X146902595Y-93441109D01*
X146934290Y-93405333D01*
X146954778Y-93368865D01*
X146961372Y-93352091D01*
X146965788Y-93334076D01*
X146968454Y-93311440D01*
X146969799Y-93280805D01*
X146970219Y-93247251D01*
X146970113Y-93208531D01*
X146969082Y-93180914D01*
X146966758Y-93161348D01*
X146962776Y-93146784D01*
X146956771Y-93134167D01*
X146956632Y-93133921D01*
X146927542Y-93092336D01*
X146890560Y-93057165D01*
X146844761Y-93028028D01*
X146789219Y-93004544D01*
X146723009Y-92986331D01*
X146645204Y-92973010D01*
X146554878Y-92964199D01*
X146542170Y-92963365D01*
X146494916Y-92960931D01*
X146444784Y-92959238D01*
X146393952Y-92958270D01*
X146344598Y-92958008D01*
X146298898Y-92958436D01*
X146259030Y-92959537D01*
X146227172Y-92961292D01*
X146205500Y-92963685D01*
X146196851Y-92966116D01*
X146194471Y-92970843D01*
X146192524Y-92982366D01*
X146190975Y-93001759D01*
X146189790Y-93030097D01*
X146188934Y-93068455D01*
X146188373Y-93117905D01*
X146188073Y-93179524D01*
X146187997Y-93242947D01*
X145883423Y-93242947D01*
X145883423Y-92439119D01*
X146187997Y-92439119D01*
X146188109Y-92512043D01*
X146188470Y-92571875D01*
X146189113Y-92619689D01*
X146190073Y-92656556D01*
X146191385Y-92683549D01*
X146193082Y-92701742D01*
X146195199Y-92712206D01*
X146196851Y-92715408D01*
X146202316Y-92718290D01*
X146213428Y-92720378D01*
X146231664Y-92721712D01*
X146258497Y-92722331D01*
X146295401Y-92722277D01*
X146343853Y-92721588D01*
X146389865Y-92720653D01*
X146449516Y-92719182D01*
X146497226Y-92717579D01*
X146535220Y-92715671D01*
X146565724Y-92713285D01*
X146590961Y-92710247D01*
X146613158Y-92706383D01*
X146634232Y-92701597D01*
X146701390Y-92680613D01*
X146760440Y-92653529D01*
X146809940Y-92621298D01*
X146848451Y-92584872D01*
X146874531Y-92545201D01*
X146876118Y-92541735D01*
X146890902Y-92493423D01*
X146894288Y-92440052D01*
X146886656Y-92381015D01*
X146877752Y-92342913D01*
X146867947Y-92314499D01*
X146855041Y-92291356D01*
X146836832Y-92269066D01*
X146824584Y-92256392D01*
X146791854Y-92228486D01*
X146754740Y-92206855D01*
X146710791Y-92190568D01*
X146657559Y-92178693D01*
X146600309Y-92171071D01*
X146573950Y-92169028D01*
X146538645Y-92167280D01*
X146496702Y-92165843D01*
X146450430Y-92164737D01*
X146402138Y-92163980D01*
X146354134Y-92163591D01*
X146308727Y-92163590D01*
X146268226Y-92163993D01*
X146234939Y-92164820D01*
X146211174Y-92166090D01*
X146199241Y-92167821D01*
X146199201Y-92167836D01*
X146196299Y-92170197D01*
X146193939Y-92175713D01*
X146192066Y-92185701D01*
X146190625Y-92201481D01*
X146189563Y-92224372D01*
X146188823Y-92255692D01*
X146188353Y-92296761D01*
X146188098Y-92348897D01*
X146188002Y-92413420D01*
X146187997Y-92439119D01*
X145883423Y-92439119D01*
X145883423Y-91929794D01*
X146272356Y-91929794D01*
G37*
G36*
X146187334Y-89437516D02*
G01*
X146187844Y-89384539D01*
X146188784Y-89335865D01*
X146190162Y-89293541D01*
X146191982Y-89259615D01*
X146194250Y-89236134D01*
X146196432Y-89226154D01*
X146217868Y-89192120D01*
X146248126Y-89167933D01*
X146257922Y-89163225D01*
X146272311Y-89160252D01*
X146298791Y-89157748D01*
X146335293Y-89155712D01*
X146379749Y-89154145D01*
X146430091Y-89153046D01*
X146484251Y-89152415D01*
X146540161Y-89152253D01*
X146595753Y-89152560D01*
X146648959Y-89153334D01*
X146697710Y-89154577D01*
X146739938Y-89156289D01*
X146773576Y-89158469D01*
X146796555Y-89161117D01*
X146805132Y-89163225D01*
X146837453Y-89184206D01*
X146861611Y-89215708D01*
X146866623Y-89226154D01*
X146869004Y-89238921D01*
X146871016Y-89263816D01*
X146872660Y-89298802D01*
X146873936Y-89341845D01*
X146874843Y-89390911D01*
X146875381Y-89443965D01*
X146875550Y-89498971D01*
X146875351Y-89553896D01*
X146874783Y-89606704D01*
X146873847Y-89655361D01*
X146872542Y-89697832D01*
X146870868Y-89732083D01*
X146868826Y-89756078D01*
X146866623Y-89767344D01*
X146845186Y-89801378D01*
X146814928Y-89825565D01*
X146805132Y-89830273D01*
X146791596Y-89832933D01*
X146765991Y-89835194D01*
X146730351Y-89837053D01*
X146686708Y-89838508D01*
X146637094Y-89839559D01*
X146583540Y-89840203D01*
X146528079Y-89840438D01*
X146472744Y-89840262D01*
X146419566Y-89839675D01*
X146370577Y-89838673D01*
X146327810Y-89837255D01*
X146293297Y-89835420D01*
X146269070Y-89833165D01*
X146257698Y-89830758D01*
X146224243Y-89808650D01*
X146201027Y-89777077D01*
X146198037Y-89770498D01*
X146195318Y-89756817D01*
X146192982Y-89731057D01*
X146191034Y-89695267D01*
X146189481Y-89651493D01*
X146188328Y-89601783D01*
X146187582Y-89548185D01*
X146187471Y-89529720D01*
X146401639Y-89529720D01*
X146401643Y-89565400D01*
X146402062Y-89593901D01*
X146402865Y-89612680D01*
X146403694Y-89618837D01*
X146408029Y-89622269D01*
X146419082Y-89624657D01*
X146438517Y-89626096D01*
X146467995Y-89626679D01*
X146509180Y-89626501D01*
X146533138Y-89626180D01*
X146659023Y-89624245D01*
X146659023Y-89369253D01*
X146404031Y-89369253D01*
X146402082Y-89489406D01*
X146401639Y-89529720D01*
X146187471Y-89529720D01*
X146187249Y-89492747D01*
X146187334Y-89437516D01*
G37*
G36*
X147859608Y-89496217D02*
G01*
X147859667Y-89426952D01*
X147859944Y-89370346D01*
X147860596Y-89324896D01*
X147861776Y-89289094D01*
X147863640Y-89261436D01*
X147866341Y-89240415D01*
X147870034Y-89224526D01*
X147874875Y-89212264D01*
X147881016Y-89202122D01*
X147888614Y-89192595D01*
X147891063Y-89189786D01*
X147899735Y-89180574D01*
X147908900Y-89173053D01*
X147920017Y-89167050D01*
X147934544Y-89162396D01*
X147953939Y-89158920D01*
X147979661Y-89156451D01*
X148013166Y-89154818D01*
X148055914Y-89153850D01*
X148109362Y-89153377D01*
X148174969Y-89153226D01*
X148203139Y-89153219D01*
X148273704Y-89153291D01*
X148331562Y-89153623D01*
X148378170Y-89154385D01*
X148414987Y-89155747D01*
X148443469Y-89157881D01*
X148465077Y-89160958D01*
X148481267Y-89165148D01*
X148493497Y-89170622D01*
X148503227Y-89177551D01*
X148511913Y-89186107D01*
X148515214Y-89189786D01*
X148523247Y-89199404D01*
X148529783Y-89209206D01*
X148534976Y-89220698D01*
X148538979Y-89235383D01*
X148541948Y-89254765D01*
X148544037Y-89280347D01*
X148545399Y-89313634D01*
X148546188Y-89356130D01*
X148546559Y-89409337D01*
X148546666Y-89474760D01*
X148546669Y-89496749D01*
X148546611Y-89566087D01*
X148546335Y-89622763D01*
X148545686Y-89668281D01*
X148544510Y-89704143D01*
X148542653Y-89731856D01*
X148539962Y-89752921D01*
X148536281Y-89768843D01*
X148531457Y-89781125D01*
X148525336Y-89791272D01*
X148517764Y-89800788D01*
X148515214Y-89803712D01*
X148506583Y-89812899D01*
X148497491Y-89820404D01*
X148486487Y-89826392D01*
X148472121Y-89831029D01*
X148452945Y-89834481D01*
X148427506Y-89836914D01*
X148394356Y-89838494D01*
X148352045Y-89839385D01*
X148299121Y-89839756D01*
X148234136Y-89839770D01*
X148200503Y-89839704D01*
X148124483Y-89839348D01*
X148061940Y-89838643D01*
X148012186Y-89837565D01*
X147974535Y-89836094D01*
X147948301Y-89834205D01*
X147932797Y-89831877D01*
X147929310Y-89830758D01*
X147909102Y-89819175D01*
X147895081Y-89808457D01*
X147886144Y-89799777D01*
X147878847Y-89790525D01*
X147873023Y-89779243D01*
X147868507Y-89764476D01*
X147865134Y-89744765D01*
X147862738Y-89718654D01*
X147861154Y-89684687D01*
X147860215Y-89641406D01*
X147859757Y-89587354D01*
X147859634Y-89529720D01*
X148073251Y-89529720D01*
X148073254Y-89565400D01*
X148073674Y-89593901D01*
X148074477Y-89612680D01*
X148075306Y-89618837D01*
X148079640Y-89622269D01*
X148090694Y-89624657D01*
X148110129Y-89626096D01*
X148139607Y-89626679D01*
X148180792Y-89626501D01*
X148204750Y-89626180D01*
X148330635Y-89624245D01*
X148330635Y-89369253D01*
X148075643Y-89369253D01*
X148073694Y-89489406D01*
X148073251Y-89529720D01*
X147859634Y-89529720D01*
X147859615Y-89521076D01*
X147859608Y-89496217D01*
G37*
G36*
X146187334Y-91109128D02*
G01*
X146187844Y-91056151D01*
X146188784Y-91007477D01*
X146190162Y-90965153D01*
X146191982Y-90931227D01*
X146194250Y-90907746D01*
X146196432Y-90897766D01*
X146217868Y-90863732D01*
X146248126Y-90839545D01*
X146257922Y-90834837D01*
X146272311Y-90831864D01*
X146298791Y-90829360D01*
X146335293Y-90827324D01*
X146379749Y-90825757D01*
X146430091Y-90824658D01*
X146484251Y-90824027D01*
X146540161Y-90823865D01*
X146595753Y-90824171D01*
X146648959Y-90824946D01*
X146697710Y-90826189D01*
X146739938Y-90827901D01*
X146773576Y-90830081D01*
X146796555Y-90832729D01*
X146805132Y-90834837D01*
X146837453Y-90855818D01*
X146861611Y-90887320D01*
X146866623Y-90897766D01*
X146869004Y-90910533D01*
X146871016Y-90935427D01*
X146872660Y-90970414D01*
X146873936Y-91013457D01*
X146874843Y-91062523D01*
X146875381Y-91115576D01*
X146875550Y-91170583D01*
X146875351Y-91225508D01*
X146874783Y-91278316D01*
X146873847Y-91326973D01*
X146872542Y-91369444D01*
X146870868Y-91403695D01*
X146868826Y-91427690D01*
X146866623Y-91438956D01*
X146845186Y-91472990D01*
X146814928Y-91497177D01*
X146805132Y-91501885D01*
X146791596Y-91504545D01*
X146765991Y-91506806D01*
X146730351Y-91508665D01*
X146686708Y-91510120D01*
X146637094Y-91511171D01*
X146583540Y-91511815D01*
X146528079Y-91512050D01*
X146472744Y-91511874D01*
X146419566Y-91511287D01*
X146370577Y-91510285D01*
X146327810Y-91508867D01*
X146293297Y-91507032D01*
X146269070Y-91504777D01*
X146257698Y-91502370D01*
X146224243Y-91480262D01*
X146201027Y-91448688D01*
X146198037Y-91442110D01*
X146195318Y-91428429D01*
X146192982Y-91402669D01*
X146191034Y-91366879D01*
X146189481Y-91323105D01*
X146188328Y-91273395D01*
X146187582Y-91219797D01*
X146187471Y-91201331D01*
X146401639Y-91201331D01*
X146401643Y-91237011D01*
X146402062Y-91265513D01*
X146402865Y-91284292D01*
X146403694Y-91290448D01*
X146408029Y-91293881D01*
X146419082Y-91296269D01*
X146438517Y-91297708D01*
X146467995Y-91298291D01*
X146509180Y-91298113D01*
X146533138Y-91297792D01*
X146659023Y-91295857D01*
X146659023Y-91040865D01*
X146404031Y-91040865D01*
X146402082Y-91161018D01*
X146401639Y-91201331D01*
X146187471Y-91201331D01*
X146187249Y-91164359D01*
X146187334Y-91109128D01*
G37*
G36*
X146187249Y-90328553D02*
G01*
X146187334Y-90273322D01*
X146187844Y-90220345D01*
X146188784Y-90171671D01*
X146190162Y-90129347D01*
X146191982Y-90095421D01*
X146194250Y-90071940D01*
X146196432Y-90061960D01*
X146217868Y-90027926D01*
X146248126Y-90003739D01*
X146257922Y-89999031D01*
X146269411Y-89997183D01*
X146293844Y-89995501D01*
X146329998Y-89993986D01*
X146376651Y-89992638D01*
X146432582Y-89991456D01*
X146496568Y-89990441D01*
X146567388Y-89989593D01*
X146643819Y-89988911D01*
X146724640Y-89988396D01*
X146808629Y-89988047D01*
X146894564Y-89987865D01*
X146981222Y-89987850D01*
X147067382Y-89988001D01*
X147151823Y-89988319D01*
X147233321Y-89988803D01*
X147310655Y-89989454D01*
X147382604Y-89990272D01*
X147447945Y-89991256D01*
X147505456Y-89992407D01*
X147553915Y-89993725D01*
X147592100Y-89995209D01*
X147618790Y-89996859D01*
X147632763Y-89998677D01*
X147633855Y-89999031D01*
X147666176Y-90020012D01*
X147690334Y-90051514D01*
X147695345Y-90061960D01*
X147697979Y-90075418D01*
X147700160Y-90100988D01*
X147701895Y-90136621D01*
X147703190Y-90180271D01*
X147704051Y-90229889D01*
X147704483Y-90283428D01*
X147704493Y-90338841D01*
X147704087Y-90394080D01*
X147703270Y-90447097D01*
X147702048Y-90495845D01*
X147700428Y-90538276D01*
X147698414Y-90572343D01*
X147696014Y-90595998D01*
X147693774Y-90606160D01*
X147672793Y-90638481D01*
X147641291Y-90662639D01*
X147630845Y-90667650D01*
X147620332Y-90669128D01*
X147596877Y-90670462D01*
X147561691Y-90671654D01*
X147515985Y-90672704D01*
X147460971Y-90673615D01*
X147397861Y-90674387D01*
X147327865Y-90675020D01*
X147252195Y-90675517D01*
X147172063Y-90675876D01*
X147088679Y-90676101D01*
X147003255Y-90676191D01*
X146917004Y-90676148D01*
X146831135Y-90675972D01*
X146746860Y-90675665D01*
X146665392Y-90675228D01*
X146587940Y-90674660D01*
X146515717Y-90673964D01*
X146449934Y-90673141D01*
X146391803Y-90672191D01*
X146342534Y-90671115D01*
X146303339Y-90669914D01*
X146275430Y-90668589D01*
X146260018Y-90667142D01*
X146257698Y-90666564D01*
X146224243Y-90644456D01*
X146201027Y-90612883D01*
X146198037Y-90606304D01*
X146195318Y-90592623D01*
X146192982Y-90566863D01*
X146191034Y-90531073D01*
X146189481Y-90487299D01*
X146188328Y-90437589D01*
X146187821Y-90401173D01*
X146401633Y-90401173D01*
X146402041Y-90429645D01*
X146402830Y-90448390D01*
X146403648Y-90454523D01*
X146406669Y-90456268D01*
X146414850Y-90457770D01*
X146429020Y-90459038D01*
X146450008Y-90460085D01*
X146478642Y-90460921D01*
X146515753Y-90461557D01*
X146562169Y-90462005D01*
X146618719Y-90462276D01*
X146686233Y-90462381D01*
X146765540Y-90462332D01*
X146857469Y-90462139D01*
X146947454Y-90461866D01*
X147487746Y-90460051D01*
X147487746Y-90205059D01*
X146404031Y-90205059D01*
X146402082Y-90325212D01*
X146401636Y-90365514D01*
X146401633Y-90401173D01*
X146187821Y-90401173D01*
X146187582Y-90383991D01*
X146187249Y-90328553D01*
G37*
X143322500Y-82937258D02*
X143322500Y-82462742D01*
X142277500Y-82937258D02*
X142277500Y-82462742D01*
X153036500Y-78542258D02*
X153036500Y-78067742D01*
X151991500Y-78542258D02*
X151991500Y-78067742D01*
X145515500Y-78542258D02*
X145515500Y-78067742D01*
X146560500Y-78542258D02*
X146560500Y-78067742D01*
G36*
X147293771Y-111667575D02*
G01*
X147329735Y-111675945D01*
X147359826Y-111690260D01*
X147384782Y-111710820D01*
X147395271Y-111723146D01*
X147408810Y-111744792D01*
X147418085Y-111769423D01*
X147423535Y-111798780D01*
X147425594Y-111834608D01*
X147425633Y-111844397D01*
X147422709Y-111888592D01*
X147414180Y-111925723D01*
X147399759Y-111956096D01*
X147379159Y-111980020D01*
X147352093Y-111997801D01*
X147318277Y-112009747D01*
X147277423Y-112016165D01*
X147264831Y-112017006D01*
X147243004Y-112017388D01*
X147220998Y-112016616D01*
X147203128Y-112014858D01*
X147201195Y-112014542D01*
X147165027Y-112004264D01*
X147134275Y-111987356D01*
X147109635Y-111964323D01*
X147091805Y-111935674D01*
X147091297Y-111934542D01*
X147082182Y-111906485D01*
X147076621Y-111873227D01*
X147074969Y-111838073D01*
X147077391Y-111805620D01*
X147086366Y-111765603D01*
X147100770Y-111732623D01*
X147120893Y-111706445D01*
X147147024Y-111686834D01*
X147179452Y-111673556D01*
X147218468Y-111666377D01*
X147251195Y-111664852D01*
X147293771Y-111667575D01*
G37*
G36*
X147189770Y-112083839D02*
G01*
X147253211Y-112084056D01*
X147256146Y-112084068D01*
X147540544Y-112085306D01*
X147557238Y-112098041D01*
X147563825Y-112102969D01*
X147569459Y-112107409D01*
X147574219Y-112112075D01*
X147578181Y-112117678D01*
X147581422Y-112124930D01*
X147584021Y-112134543D01*
X147586055Y-112147230D01*
X147587602Y-112163701D01*
X147588738Y-112184669D01*
X147589541Y-112210847D01*
X147590090Y-112242945D01*
X147590461Y-112281677D01*
X147590732Y-112327753D01*
X147590980Y-112381886D01*
X147591105Y-112409170D01*
X147592380Y-112678488D01*
X147446649Y-112678488D01*
X147446649Y-113283033D01*
X147055740Y-113283033D01*
X147055740Y-112678488D01*
X146910285Y-112678488D01*
X146910311Y-112418261D01*
X146910404Y-112355806D01*
X146910668Y-112300737D01*
X146911098Y-112253311D01*
X146911690Y-112213787D01*
X146912440Y-112182421D01*
X146913342Y-112159472D01*
X146914393Y-112145199D01*
X146915104Y-112140864D01*
X146923382Y-112122524D01*
X146936569Y-112105121D01*
X146951967Y-112091887D01*
X146959178Y-112088038D01*
X146964940Y-112086884D01*
X146976463Y-112085922D01*
X146994162Y-112085144D01*
X147018450Y-112084546D01*
X147049741Y-112084122D01*
X147088449Y-112083867D01*
X147134987Y-112083774D01*
X147189770Y-112083839D01*
G37*
G36*
X146002766Y-112425771D02*
G01*
X146004123Y-112384338D01*
X146006028Y-112345744D01*
X146008441Y-112311892D01*
X146011324Y-112284684D01*
X146012215Y-112278488D01*
X146032926Y-112174080D01*
X146062094Y-112072964D01*
X146099647Y-111975275D01*
X146145516Y-111881150D01*
X146199631Y-111790724D01*
X146261922Y-111704131D01*
X146332320Y-111621509D01*
X146371552Y-111580714D01*
X146450260Y-111508152D01*
X146533088Y-111443563D01*
X146619844Y-111387050D01*
X146710335Y-111338720D01*
X146804369Y-111298676D01*
X146901753Y-111267022D01*
X146985285Y-111247138D01*
X147014947Y-111241387D01*
X147041340Y-111236784D01*
X147066058Y-111233207D01*
X147090695Y-111230534D01*
X147116844Y-111228643D01*
X147146100Y-111227412D01*
X147180056Y-111226718D01*
X147220306Y-111226440D01*
X147255740Y-111226431D01*
X147306669Y-111226738D01*
X147350217Y-111227608D01*
X147388083Y-111229214D01*
X147421969Y-111231730D01*
X147453575Y-111235332D01*
X147484603Y-111240192D01*
X147516752Y-111246485D01*
X147551723Y-111254385D01*
X147568518Y-111258433D01*
X147668304Y-111287462D01*
X147764591Y-111324829D01*
X147857116Y-111370375D01*
X147945617Y-111423942D01*
X148029830Y-111485374D01*
X148109494Y-111554511D01*
X148179080Y-111625381D01*
X148247482Y-111706340D01*
X148307383Y-111789810D01*
X148359037Y-111876332D01*
X148402698Y-111966448D01*
X148438620Y-112060699D01*
X148467057Y-112159628D01*
X148488264Y-112263775D01*
X148493006Y-112294397D01*
X148495282Y-112316215D01*
X148497039Y-112345454D01*
X148498286Y-112380457D01*
X148499030Y-112419571D01*
X148499281Y-112461139D01*
X148499047Y-112503507D01*
X148498336Y-112545019D01*
X148497157Y-112584020D01*
X148495519Y-112618855D01*
X148493430Y-112647869D01*
X148491078Y-112668255D01*
X148470777Y-112774157D01*
X148442882Y-112875153D01*
X148407302Y-112971400D01*
X148363943Y-113063057D01*
X148312714Y-113150281D01*
X148253523Y-113233230D01*
X148186278Y-113312062D01*
X148110887Y-113386934D01*
X148033074Y-113453394D01*
X147946163Y-113517002D01*
X147855668Y-113572285D01*
X147761725Y-113619187D01*
X147664469Y-113657653D01*
X147564033Y-113687624D01*
X147460554Y-113709045D01*
X147403308Y-113717055D01*
X147383776Y-113718800D01*
X147357978Y-113720315D01*
X147327606Y-113721574D01*
X147294354Y-113722552D01*
X147259915Y-113723226D01*
X147225980Y-113723570D01*
X147194244Y-113723560D01*
X147166398Y-113723171D01*
X147144136Y-113722379D01*
X147129150Y-113721158D01*
X147128467Y-113721063D01*
X147118891Y-113719782D01*
X147103110Y-113717776D01*
X147083945Y-113715402D01*
X147076195Y-113714457D01*
X146977724Y-113697952D01*
X146881017Y-113672638D01*
X146786412Y-113638682D01*
X146694247Y-113596254D01*
X146604862Y-113545521D01*
X146518596Y-113486653D01*
X146435787Y-113419819D01*
X146379073Y-113367424D01*
X146303312Y-113287666D01*
X146235925Y-113204410D01*
X146176925Y-113117681D01*
X146126326Y-113027505D01*
X146084138Y-112933909D01*
X146050376Y-112836917D01*
X146025051Y-112736556D01*
X146008177Y-112632851D01*
X146005535Y-112608942D01*
X146003579Y-112581848D01*
X146002363Y-112548081D01*
X146001847Y-112509545D01*
X146001897Y-112495429D01*
X146230995Y-112495429D01*
X146232265Y-112540579D01*
X146234855Y-112582009D01*
X146238763Y-112617176D01*
X146239095Y-112619397D01*
X146257174Y-112711647D01*
X146282671Y-112799300D01*
X146315852Y-112882888D01*
X146356984Y-112962940D01*
X146406331Y-113039987D01*
X146464162Y-113114560D01*
X146517092Y-113173188D01*
X146589148Y-113242334D01*
X146664314Y-113302963D01*
X146742750Y-113355161D01*
X146824619Y-113399011D01*
X146910084Y-113434597D01*
X146999306Y-113462003D01*
X147092447Y-113481314D01*
X147118354Y-113485160D01*
X147148553Y-113488222D01*
X147185321Y-113490292D01*
X147226188Y-113491370D01*
X147268687Y-113491456D01*
X147310349Y-113490551D01*
X147348706Y-113488653D01*
X147381290Y-113485764D01*
X147386189Y-113485160D01*
X147479128Y-113468746D01*
X147568768Y-113444030D01*
X147655261Y-113410933D01*
X147738758Y-113369378D01*
X147819411Y-113319290D01*
X147897370Y-113260591D01*
X147972789Y-113193203D01*
X147985486Y-113180761D01*
X148038980Y-113124233D01*
X148085119Y-113067795D01*
X148125380Y-113009403D01*
X148161245Y-112947012D01*
X148176326Y-112917124D01*
X148211184Y-112835100D01*
X148238316Y-112749238D01*
X148257728Y-112660480D01*
X148269428Y-112569766D01*
X148273424Y-112478039D01*
X148269721Y-112386239D01*
X148258327Y-112295307D01*
X148239249Y-112206185D01*
X148212495Y-112119815D01*
X148178072Y-112037136D01*
X148169539Y-112019672D01*
X148124318Y-111939308D01*
X148071661Y-111862925D01*
X148012299Y-111791186D01*
X147946964Y-111724753D01*
X147876389Y-111664288D01*
X147801303Y-111610453D01*
X147722440Y-111563911D01*
X147640531Y-111525323D01*
X147610285Y-111513450D01*
X147526657Y-111486958D01*
X147439004Y-111467896D01*
X147348608Y-111456310D01*
X147256749Y-111452246D01*
X147164708Y-111455752D01*
X147073764Y-111466873D01*
X146985200Y-111485657D01*
X146968755Y-111490094D01*
X146882277Y-111518829D01*
X146799531Y-111555701D01*
X146720325Y-111600822D01*
X146644466Y-111654305D01*
X146571759Y-111716262D01*
X146558038Y-111729238D01*
X146487535Y-111802784D01*
X146425422Y-111879792D01*
X146371709Y-111960244D01*
X146326408Y-112044120D01*
X146289527Y-112131401D01*
X146261079Y-112222066D01*
X146241072Y-112316098D01*
X146239104Y-112328488D01*
X146235098Y-112363088D01*
X146232412Y-112404141D01*
X146231044Y-112449102D01*
X146230995Y-112495429D01*
X146001897Y-112495429D01*
X146001995Y-112468141D01*
X146002766Y-112425771D01*
G37*
X146560500Y-82937258D02*
X146560500Y-82462742D01*
X145515500Y-82937258D02*
X145515500Y-82462742D01*
G36*
X152785019Y-111817823D02*
G01*
X152825112Y-111820011D01*
X152861823Y-111823417D01*
X152892684Y-111827978D01*
X152898987Y-111829246D01*
X152968517Y-111847724D01*
X153031820Y-111872158D01*
X153089993Y-111903121D01*
X153144132Y-111941181D01*
X153187675Y-111979422D01*
X153238932Y-112034945D01*
X153282711Y-112095618D01*
X153318984Y-112161385D01*
X153347722Y-112232185D01*
X153368899Y-112307962D01*
X153382131Y-112385686D01*
X153384597Y-112414943D01*
X153385840Y-112450037D01*
X153385934Y-112488748D01*
X153384954Y-112528859D01*
X153382974Y-112568151D01*
X153380069Y-112604406D01*
X153376313Y-112635404D01*
X153373144Y-112653129D01*
X153360301Y-112704911D01*
X153344765Y-112752074D01*
X153325008Y-112799017D01*
X153315682Y-112818512D01*
X153278801Y-112883390D01*
X153235101Y-112942597D01*
X153185156Y-112995707D01*
X153129539Y-113042295D01*
X153068826Y-113081936D01*
X153003588Y-113114205D01*
X152934400Y-113138677D01*
X152861837Y-113154927D01*
X152861690Y-113154951D01*
X152829698Y-113159023D01*
X152792753Y-113161950D01*
X152753845Y-113163635D01*
X152715963Y-113163981D01*
X152682096Y-113162892D01*
X152663636Y-113161366D01*
X152596909Y-113149838D01*
X152532433Y-113130645D01*
X152471203Y-113104332D01*
X152414216Y-113071442D01*
X152362467Y-113032520D01*
X152316954Y-112988109D01*
X152292940Y-112958905D01*
X152258256Y-112906423D01*
X152229662Y-112848997D01*
X152206848Y-112785852D01*
X152189503Y-112716212D01*
X152184272Y-112687830D01*
X152181406Y-112670785D01*
X152340845Y-112670785D01*
X152385222Y-112670855D01*
X152421228Y-112671083D01*
X152449583Y-112671494D01*
X152471006Y-112672114D01*
X152486216Y-112672967D01*
X152495932Y-112674079D01*
X152500874Y-112675476D01*
X152501848Y-112676467D01*
X152503273Y-112683513D01*
X152505580Y-112696828D01*
X152508300Y-112713689D01*
X152508631Y-112715815D01*
X152519358Y-112758504D01*
X152537318Y-112795864D01*
X152562252Y-112827712D01*
X152593899Y-112853862D01*
X152631999Y-112874133D01*
X152676291Y-112888339D01*
X152726514Y-112896298D01*
X152767035Y-112898058D01*
X152816403Y-112894482D01*
X152860969Y-112883601D01*
X152901070Y-112865183D01*
X152937045Y-112838997D01*
X152969233Y-112804812D01*
X152997971Y-112762395D01*
X153016254Y-112727603D01*
X153035000Y-112681919D01*
X153048808Y-112633454D01*
X153057961Y-112580730D01*
X153062740Y-112522268D01*
X153063636Y-112479015D01*
X153060819Y-112407807D01*
X153052408Y-112343191D01*
X153038464Y-112285290D01*
X153019049Y-112234228D01*
X152994223Y-112190126D01*
X152964048Y-112153109D01*
X152928585Y-112123298D01*
X152887894Y-112100816D01*
X152872470Y-112094716D01*
X152857466Y-112089658D01*
X152844166Y-112086227D01*
X152830153Y-112084116D01*
X152813007Y-112083017D01*
X152790310Y-112082621D01*
X152777272Y-112082591D01*
X152743291Y-112083193D01*
X152716430Y-112085098D01*
X152694788Y-112088472D01*
X152686363Y-112090482D01*
X152639640Y-112106647D01*
X152599997Y-112128425D01*
X152567198Y-112156028D01*
X152541007Y-112189672D01*
X152521189Y-112229571D01*
X152515417Y-112245986D01*
X152508486Y-112268030D01*
X152504990Y-112282777D01*
X152505930Y-112291691D01*
X152512310Y-112296235D01*
X152525132Y-112297871D01*
X152545400Y-112298064D01*
X152551105Y-112298058D01*
X152597665Y-112298058D01*
X152472727Y-112423058D01*
X152444933Y-112450751D01*
X152419054Y-112476315D01*
X152395811Y-112499055D01*
X152375924Y-112518277D01*
X152360111Y-112533286D01*
X152349094Y-112543388D01*
X152343591Y-112547888D01*
X152343181Y-112548058D01*
X152339089Y-112544959D01*
X152329488Y-112536236D01*
X152315238Y-112522745D01*
X152297203Y-112505346D01*
X152276244Y-112484896D01*
X152253223Y-112462254D01*
X152229002Y-112438277D01*
X152204443Y-112413823D01*
X152180407Y-112389752D01*
X152157757Y-112366920D01*
X152137355Y-112346186D01*
X152120063Y-112328408D01*
X152106742Y-112314443D01*
X152098255Y-112305151D01*
X152095454Y-112301436D01*
X152099685Y-112300045D01*
X152111122Y-112298932D01*
X152127881Y-112298232D01*
X152142875Y-112298058D01*
X152164341Y-112298137D01*
X152178554Y-112297460D01*
X152187330Y-112294659D01*
X152192487Y-112288363D01*
X152195841Y-112277203D01*
X152199209Y-112259809D01*
X152200159Y-112254876D01*
X152218099Y-112185109D01*
X152243499Y-112120100D01*
X152275957Y-112060244D01*
X152315069Y-112005936D01*
X152360434Y-111957572D01*
X152411649Y-111915548D01*
X152468311Y-111880259D01*
X152530017Y-111852101D01*
X152596365Y-111831470D01*
X152640200Y-111822542D01*
X152669135Y-111819214D01*
X152704563Y-111817361D01*
X152744013Y-111816919D01*
X152785019Y-111817823D01*
G37*
G36*
X151502816Y-112389780D02*
G01*
X151504645Y-112351835D01*
X151506967Y-112318489D01*
X151509745Y-112291594D01*
X151511043Y-112282637D01*
X151530953Y-112182151D01*
X151557061Y-112087584D01*
X151589793Y-111997832D01*
X151629573Y-111911791D01*
X151676828Y-111828356D01*
X151699815Y-111792611D01*
X151725137Y-111755421D01*
X151748731Y-111722757D01*
X151772180Y-111692713D01*
X151797064Y-111663384D01*
X151824965Y-111632863D01*
X151857466Y-111599245D01*
X151874692Y-111581921D01*
X151935820Y-111523892D01*
X151996076Y-111473155D01*
X152057360Y-111428343D01*
X152121573Y-111388089D01*
X152190613Y-111351027D01*
X152206818Y-111343080D01*
X152293316Y-111305147D01*
X152380190Y-111274940D01*
X152469326Y-111251930D01*
X152562607Y-111235586D01*
X152609090Y-111229987D01*
X152638466Y-111227749D01*
X152674662Y-111226278D01*
X152715441Y-111225555D01*
X152758568Y-111225563D01*
X152801805Y-111226283D01*
X152842916Y-111227696D01*
X152879663Y-111229785D01*
X152909090Y-111232446D01*
X153012914Y-111248511D01*
X153112320Y-111272236D01*
X153207631Y-111303786D01*
X153299168Y-111343321D01*
X153387253Y-111391005D01*
X153472207Y-111447000D01*
X153554353Y-111511469D01*
X153634010Y-111584573D01*
X153661917Y-111612804D01*
X153731715Y-111691097D01*
X153793299Y-111772833D01*
X153846824Y-111858339D01*
X153892450Y-111947942D01*
X153930333Y-112041967D01*
X153960632Y-112140743D01*
X153983504Y-112244594D01*
X153991811Y-112295785D01*
X153994161Y-112318221D01*
X153995962Y-112348057D01*
X153997223Y-112383620D01*
X153997954Y-112423237D01*
X153998166Y-112465236D01*
X153997869Y-112507942D01*
X153997073Y-112549682D01*
X153995787Y-112588784D01*
X153994022Y-112623575D01*
X153991788Y-112652380D01*
X153989548Y-112670785D01*
X153970714Y-112770108D01*
X153946136Y-112863175D01*
X153915441Y-112951067D01*
X153878253Y-113034862D01*
X153836969Y-113110983D01*
X153801804Y-113166892D01*
X153764167Y-113219490D01*
X153722446Y-113270815D01*
X153675031Y-113322905D01*
X153645757Y-113352802D01*
X153565411Y-113427464D01*
X153482417Y-113493509D01*
X153396425Y-113551119D01*
X153307081Y-113600474D01*
X153214036Y-113641753D01*
X153116936Y-113675137D01*
X153015431Y-113700805D01*
X152940016Y-113714520D01*
X152924736Y-113716243D01*
X152902512Y-113717902D01*
X152874832Y-113719458D01*
X152843184Y-113720872D01*
X152809057Y-113722105D01*
X152773939Y-113723118D01*
X152739317Y-113723871D01*
X152706682Y-113724327D01*
X152677520Y-113724446D01*
X152653320Y-113724189D01*
X152635572Y-113723518D01*
X152627272Y-113722700D01*
X152617695Y-113721307D01*
X152601912Y-113719214D01*
X152582745Y-113716794D01*
X152575000Y-113715845D01*
X152476532Y-113699341D01*
X152379826Y-113674027D01*
X152285222Y-113640072D01*
X152193060Y-113597645D01*
X152103678Y-113546916D01*
X152017416Y-113488054D01*
X151934615Y-113421226D01*
X151877883Y-113368812D01*
X151802049Y-113289084D01*
X151734719Y-113206165D01*
X151675859Y-113119986D01*
X151625434Y-113030477D01*
X151583410Y-112937568D01*
X151549753Y-112841189D01*
X151524428Y-112741271D01*
X151507401Y-112637743D01*
X151504340Y-112610330D01*
X151502409Y-112583676D01*
X151501200Y-112550512D01*
X151500674Y-112512689D01*
X151500793Y-112472058D01*
X151501116Y-112453592D01*
X151728066Y-112453592D01*
X151730587Y-112547392D01*
X151731557Y-112559421D01*
X151743923Y-112654483D01*
X151764235Y-112745351D01*
X151792621Y-112832306D01*
X151829210Y-112915630D01*
X151874132Y-112995605D01*
X151927517Y-113072512D01*
X151989494Y-113146633D01*
X152013189Y-113171916D01*
X152085510Y-113241342D01*
X152160375Y-113302111D01*
X152238072Y-113354373D01*
X152318887Y-113398277D01*
X152403107Y-113433972D01*
X152491019Y-113461609D01*
X152582909Y-113481335D01*
X152617159Y-113486548D01*
X152647358Y-113489610D01*
X152684126Y-113491680D01*
X152724993Y-113492758D01*
X152767492Y-113492844D01*
X152809154Y-113491939D01*
X152847511Y-113490041D01*
X152880095Y-113487152D01*
X152884994Y-113486548D01*
X152978305Y-113470028D01*
X153068391Y-113445094D01*
X153155341Y-113411703D01*
X153239241Y-113369810D01*
X153320179Y-113319370D01*
X153398242Y-113260341D01*
X153473517Y-113192677D01*
X153481917Y-113184421D01*
X153545289Y-113116264D01*
X153600152Y-113045741D01*
X153646929Y-112972184D01*
X153686040Y-112894923D01*
X153717910Y-112813289D01*
X153719961Y-112807149D01*
X153744455Y-112719490D01*
X153761215Y-112628987D01*
X153770261Y-112536793D01*
X153771617Y-112444061D01*
X153765304Y-112351942D01*
X153751346Y-112261589D01*
X153729763Y-112174153D01*
X153706434Y-112105549D01*
X153671147Y-112026174D01*
X153627641Y-111948793D01*
X153576721Y-111874279D01*
X153519189Y-111803510D01*
X153455848Y-111737361D01*
X153387504Y-111676708D01*
X153314959Y-111622427D01*
X153239016Y-111575393D01*
X153202272Y-111555988D01*
X153119070Y-111519462D01*
X153032066Y-111490824D01*
X152942104Y-111470149D01*
X152850027Y-111457509D01*
X152756676Y-111452979D01*
X152662894Y-111456632D01*
X152569526Y-111468540D01*
X152477412Y-111488779D01*
X152466334Y-111491812D01*
X152382923Y-111519819D01*
X152301722Y-111556376D01*
X152223225Y-111601109D01*
X152147929Y-111653640D01*
X152076327Y-111713593D01*
X152008914Y-111780592D01*
X151946185Y-111854260D01*
X151892656Y-111928171D01*
X151844662Y-112008028D01*
X151804671Y-112091840D01*
X151772849Y-112178956D01*
X151749363Y-112268721D01*
X151734380Y-112360484D01*
X151728066Y-112453592D01*
X151501116Y-112453592D01*
X151501520Y-112430471D01*
X151502816Y-112389780D01*
G37*
G36*
X148753069Y-112393687D02*
G01*
X148754538Y-112354956D01*
X148756528Y-112320761D01*
X148759030Y-112292804D01*
X148760611Y-112280761D01*
X148781196Y-112176091D01*
X148810205Y-112074809D01*
X148847581Y-111977023D01*
X148879504Y-111911217D01*
X149152663Y-111911217D01*
X149152909Y-111915125D01*
X149157678Y-111917673D01*
X149169822Y-111923488D01*
X149188422Y-111932157D01*
X149212559Y-111943268D01*
X149241315Y-111956408D01*
X149273771Y-111971163D01*
X149309007Y-111987121D01*
X149346107Y-112003869D01*
X149384150Y-112020994D01*
X149422218Y-112038083D01*
X149459393Y-112054723D01*
X149494755Y-112070501D01*
X149527386Y-112085003D01*
X149556368Y-112097818D01*
X149580782Y-112108532D01*
X149599708Y-112116733D01*
X149612229Y-112122006D01*
X149617426Y-112123940D01*
X149617462Y-112123942D01*
X149620957Y-112120023D01*
X149625204Y-112110211D01*
X149626585Y-112105956D01*
X149633542Y-112089544D01*
X149645172Y-112069072D01*
X149659804Y-112046993D01*
X149675768Y-112025760D01*
X149691394Y-112007826D01*
X149697503Y-112001822D01*
X149733968Y-111973015D01*
X149775689Y-111948224D01*
X149808342Y-111933580D01*
X149832448Y-111925289D01*
X149859129Y-111917714D01*
X149885622Y-111911503D01*
X149909167Y-111907303D01*
X149926989Y-111905761D01*
X149940817Y-111905761D01*
X149940817Y-111714852D01*
X150090817Y-111714852D01*
X150090817Y-111903921D01*
X150133029Y-111909253D01*
X150196538Y-111921329D01*
X150258882Y-111941550D01*
X150306726Y-111962805D01*
X150331152Y-111975474D01*
X150353787Y-111988276D01*
X150373291Y-112000350D01*
X150388330Y-112010834D01*
X150397564Y-112018867D01*
X150399879Y-112022850D01*
X150396842Y-112026904D01*
X150388306Y-112036566D01*
X150375112Y-112050930D01*
X150358102Y-112069089D01*
X150338116Y-112090136D01*
X150319074Y-112109975D01*
X150238298Y-112193734D01*
X150206529Y-112174861D01*
X150155046Y-112148550D01*
X150103597Y-112130665D01*
X150052727Y-112121315D01*
X150002984Y-112120608D01*
X149963797Y-112126468D01*
X149934254Y-112135724D01*
X149909909Y-112148501D01*
X149892194Y-112163914D01*
X149884807Y-112175153D01*
X149879684Y-112191091D01*
X149877475Y-112209063D01*
X149878283Y-112225689D01*
X149882212Y-112237586D01*
X149882862Y-112238490D01*
X149884089Y-112239695D01*
X149886338Y-112241297D01*
X149889975Y-112243464D01*
X149895365Y-112246360D01*
X149902873Y-112250150D01*
X149912866Y-112255001D01*
X149925708Y-112261078D01*
X149941766Y-112268547D01*
X149961404Y-112277574D01*
X149984988Y-112288323D01*
X150012885Y-112300961D01*
X150045458Y-112315654D01*
X150083075Y-112332566D01*
X150126100Y-112351864D01*
X150174899Y-112373714D01*
X150229837Y-112398280D01*
X150291280Y-112425728D01*
X150359594Y-112456225D01*
X150435144Y-112489935D01*
X150518295Y-112527025D01*
X150602180Y-112564434D01*
X150671493Y-112595303D01*
X150732896Y-112622559D01*
X150786755Y-112646358D01*
X150833431Y-112666855D01*
X150873291Y-112684206D01*
X150906697Y-112698566D01*
X150934014Y-112710091D01*
X150955607Y-112718935D01*
X150971838Y-112725254D01*
X150983072Y-112729203D01*
X150989673Y-112730937D01*
X150991965Y-112730716D01*
X150994039Y-112724067D01*
X150997139Y-112710446D01*
X151000839Y-112691857D01*
X151004613Y-112670916D01*
X151017076Y-112574541D01*
X151021449Y-112478825D01*
X151017857Y-112384434D01*
X151006423Y-112292031D01*
X150987272Y-112202281D01*
X150960528Y-112115848D01*
X150926315Y-112033395D01*
X150884759Y-111955588D01*
X150864807Y-111923942D01*
X150836665Y-111882940D01*
X150809163Y-111846391D01*
X150780173Y-111811723D01*
X150747567Y-111776358D01*
X150718291Y-111746670D01*
X150646049Y-111680569D01*
X150571270Y-111623114D01*
X150493590Y-111574124D01*
X150412647Y-111533420D01*
X150328079Y-111500820D01*
X150239522Y-111476144D01*
X150146615Y-111459212D01*
X150139134Y-111458206D01*
X150079304Y-111452698D01*
X150014165Y-111450825D01*
X149946624Y-111452461D01*
X149879584Y-111457477D01*
X149815952Y-111465747D01*
X149770676Y-111474348D01*
X149689991Y-111496509D01*
X149609527Y-111526814D01*
X149530952Y-111564428D01*
X149455931Y-111608521D01*
X149386133Y-111658260D01*
X149360441Y-111679216D01*
X149339042Y-111698201D01*
X149315836Y-111720232D01*
X149291592Y-111744434D01*
X149267080Y-111769932D01*
X149243071Y-111795851D01*
X149220333Y-111821317D01*
X149199637Y-111845454D01*
X149181752Y-111867388D01*
X149167449Y-111886243D01*
X149157496Y-111901144D01*
X149152663Y-111911217D01*
X148879504Y-111911217D01*
X148893269Y-111882841D01*
X148947214Y-111792372D01*
X149009358Y-111705724D01*
X149079648Y-111623005D01*
X149120265Y-111580714D01*
X149198973Y-111508152D01*
X149281801Y-111443563D01*
X149368557Y-111387050D01*
X149459048Y-111338720D01*
X149553082Y-111298676D01*
X149650466Y-111267022D01*
X149733998Y-111247138D01*
X149763660Y-111241387D01*
X149790053Y-111236784D01*
X149814771Y-111233207D01*
X149839408Y-111230534D01*
X149865557Y-111228643D01*
X149894813Y-111227412D01*
X149928769Y-111226718D01*
X149969019Y-111226440D01*
X150004453Y-111226431D01*
X150055382Y-111226738D01*
X150098930Y-111227608D01*
X150136796Y-111229214D01*
X150170682Y-111231730D01*
X150202288Y-111235332D01*
X150233316Y-111240192D01*
X150265465Y-111246485D01*
X150300436Y-111254385D01*
X150317231Y-111258433D01*
X150416632Y-111287381D01*
X150512772Y-111324728D01*
X150605303Y-111370262D01*
X150693878Y-111423772D01*
X150778150Y-111485044D01*
X150857772Y-111553868D01*
X150932397Y-111630031D01*
X150940361Y-111638934D01*
X151006336Y-111718911D01*
X151063840Y-111800703D01*
X151113242Y-111885096D01*
X151154909Y-111972876D01*
X151189207Y-112064826D01*
X151216504Y-112161735D01*
X151237168Y-112264385D01*
X151239432Y-112278488D01*
X151242427Y-112303910D01*
X151244805Y-112336677D01*
X151246563Y-112375067D01*
X151247699Y-112417354D01*
X151248213Y-112461815D01*
X151248102Y-112506725D01*
X151247365Y-112550360D01*
X151246000Y-112590997D01*
X151244005Y-112626911D01*
X151241379Y-112656378D01*
X151239814Y-112668255D01*
X151219632Y-112773909D01*
X151192142Y-112874241D01*
X151157180Y-112969556D01*
X151114578Y-113060158D01*
X151064171Y-113146351D01*
X151005793Y-113228439D01*
X150939279Y-113306726D01*
X150864461Y-113381516D01*
X150837191Y-113406124D01*
X150751958Y-113475675D01*
X150664130Y-113536543D01*
X150573527Y-113588811D01*
X150479967Y-113632560D01*
X150383271Y-113667873D01*
X150283257Y-113694831D01*
X150179744Y-113713517D01*
X150152021Y-113717055D01*
X150132489Y-113718800D01*
X150106691Y-113720315D01*
X150076319Y-113721574D01*
X150043067Y-113722552D01*
X150008628Y-113723226D01*
X149974693Y-113723570D01*
X149942957Y-113723560D01*
X149915111Y-113723171D01*
X149892849Y-113722379D01*
X149877863Y-113721158D01*
X149877180Y-113721063D01*
X149867604Y-113719782D01*
X149851823Y-113717776D01*
X149832658Y-113715402D01*
X149824908Y-113714457D01*
X149726304Y-113697939D01*
X149629658Y-113672625D01*
X149535235Y-113638650D01*
X149443306Y-113596150D01*
X149354138Y-113545262D01*
X149267999Y-113486121D01*
X149185158Y-113418864D01*
X149117971Y-113355851D01*
X149044101Y-113276632D01*
X148978899Y-113195149D01*
X148922116Y-113110914D01*
X148873502Y-113023437D01*
X148832810Y-112932231D01*
X148799791Y-112836806D01*
X148774196Y-112736674D01*
X148758307Y-112648942D01*
X148755822Y-112626082D01*
X148753934Y-112595853D01*
X148752631Y-112559954D01*
X148751904Y-112520087D01*
X148751742Y-112477953D01*
X148751907Y-112460002D01*
X148978124Y-112460002D01*
X148978845Y-112514189D01*
X148987064Y-112608904D01*
X149002744Y-112698827D01*
X149026169Y-112784745D01*
X149057622Y-112867447D01*
X149097389Y-112947720D01*
X149145751Y-113026352D01*
X149181374Y-113076215D01*
X149202053Y-113101865D01*
X149228042Y-113131307D01*
X149257664Y-113162864D01*
X149289246Y-113194862D01*
X149321111Y-113225622D01*
X149351584Y-113253471D01*
X149378990Y-113276730D01*
X149391583Y-113286537D01*
X149470580Y-113340712D01*
X149551287Y-113386245D01*
X149634459Y-113423424D01*
X149720852Y-113452537D01*
X149811220Y-113473873D01*
X149906318Y-113487720D01*
X149922635Y-113489315D01*
X149942700Y-113490355D01*
X149969647Y-113490624D01*
X150001305Y-113490203D01*
X150035506Y-113489176D01*
X150070080Y-113487622D01*
X150102857Y-113485624D01*
X150131668Y-113483263D01*
X150154344Y-113480620D01*
X150154453Y-113480604D01*
X150245543Y-113463065D01*
X150333023Y-113437541D01*
X150417445Y-113403798D01*
X150499358Y-113361604D01*
X150579311Y-113310727D01*
X150612464Y-113286694D01*
X150638827Y-113265586D01*
X150669123Y-113239186D01*
X150701542Y-113209250D01*
X150734275Y-113177534D01*
X150765513Y-113145794D01*
X150793447Y-113115787D01*
X150816266Y-113089268D01*
X150817656Y-113087550D01*
X150835794Y-113064234D01*
X150852696Y-113041074D01*
X150867602Y-113019264D01*
X150879753Y-112999997D01*
X150888390Y-112984467D01*
X150892753Y-112973869D01*
X150892592Y-112969678D01*
X150888063Y-112967418D01*
X150876151Y-112961883D01*
X150857781Y-112953487D01*
X150833878Y-112942646D01*
X150805367Y-112929773D01*
X150773175Y-112915281D01*
X150738226Y-112899584D01*
X150701446Y-112883098D01*
X150663762Y-112866235D01*
X150626097Y-112849410D01*
X150589377Y-112833036D01*
X150554529Y-112817527D01*
X150522477Y-112803298D01*
X150494147Y-112790763D01*
X150470465Y-112780335D01*
X150452355Y-112772428D01*
X150440744Y-112767456D01*
X150437825Y-112766263D01*
X150433625Y-112769124D01*
X150428575Y-112779550D01*
X150424912Y-112790662D01*
X150408723Y-112832626D01*
X150385199Y-112874101D01*
X150355939Y-112912905D01*
X150322539Y-112946854D01*
X150294725Y-112968505D01*
X150253799Y-112992674D01*
X150209192Y-113012824D01*
X150163848Y-113027806D01*
X150120711Y-113036474D01*
X150120362Y-113036517D01*
X150093089Y-113039884D01*
X150091863Y-113136459D01*
X150090636Y-113233033D01*
X149940817Y-113233033D01*
X149940817Y-113042848D01*
X149910135Y-113039915D01*
X149863100Y-113033849D01*
X149816973Y-113024987D01*
X149775504Y-113014069D01*
X149769534Y-113012175D01*
X149735703Y-112999218D01*
X149698137Y-112981600D01*
X149659741Y-112960868D01*
X149623418Y-112938569D01*
X149597920Y-112920729D01*
X149558191Y-112890911D01*
X149586968Y-112860836D01*
X149614856Y-112831837D01*
X149641441Y-112804472D01*
X149666003Y-112779460D01*
X149687821Y-112757522D01*
X149706174Y-112739377D01*
X149720341Y-112725744D01*
X149729603Y-112717344D01*
X149733128Y-112714852D01*
X149738186Y-112717485D01*
X149748495Y-112724529D01*
X149762217Y-112734699D01*
X149769001Y-112739942D01*
X149818148Y-112773054D01*
X149870575Y-112798332D01*
X149925262Y-112815409D01*
X149981189Y-112823917D01*
X150004453Y-112824844D01*
X150048781Y-112822371D01*
X150086125Y-112814360D01*
X150116398Y-112800875D01*
X150139515Y-112781977D01*
X150155389Y-112757730D01*
X150163936Y-112728194D01*
X150165514Y-112707684D01*
X150165160Y-112689153D01*
X150163052Y-112675882D01*
X150158253Y-112664077D01*
X150152180Y-112653670D01*
X150147361Y-112646242D01*
X150142486Y-112640140D01*
X150136322Y-112634636D01*
X150127637Y-112628999D01*
X150115198Y-112622499D01*
X150097771Y-112614408D01*
X150074125Y-112603995D01*
X150052180Y-112594489D01*
X150036888Y-112587870D01*
X150021709Y-112581281D01*
X150006151Y-112574503D01*
X149989725Y-112567318D01*
X149971940Y-112559509D01*
X149952307Y-112550857D01*
X149930335Y-112541144D01*
X149905534Y-112530154D01*
X149877413Y-112517667D01*
X149845483Y-112503466D01*
X149809254Y-112487334D01*
X149768234Y-112469051D01*
X149721935Y-112448402D01*
X149669865Y-112425166D01*
X149611535Y-112399127D01*
X149546455Y-112370068D01*
X149474134Y-112337769D01*
X149394082Y-112302013D01*
X149380522Y-112295956D01*
X149327806Y-112272419D01*
X149277504Y-112249980D01*
X149230228Y-112228912D01*
X149186594Y-112209487D01*
X149147216Y-112191979D01*
X149112709Y-112176660D01*
X149083687Y-112163804D01*
X149060765Y-112153682D01*
X149044557Y-112146569D01*
X149035678Y-112142736D01*
X149034129Y-112142124D01*
X149031419Y-112146288D01*
X149027159Y-112157703D01*
X149021802Y-112174754D01*
X149015807Y-112195824D01*
X149009629Y-112219299D01*
X149003724Y-112243564D01*
X148998549Y-112267002D01*
X148997741Y-112270955D01*
X148987746Y-112331561D01*
X148981102Y-112395931D01*
X148978124Y-112460002D01*
X148751907Y-112460002D01*
X148752134Y-112435253D01*
X148753069Y-112393687D01*
G37*
G36*
X143252541Y-112430355D02*
G01*
X143252847Y-112397468D01*
X143253420Y-112370674D01*
X143254342Y-112348473D01*
X143255692Y-112329366D01*
X143257551Y-112311854D01*
X143260000Y-112294439D01*
X143262766Y-112277651D01*
X143285532Y-112170659D01*
X143316200Y-112068127D01*
X143354871Y-111969846D01*
X143401646Y-111875609D01*
X143456627Y-111785208D01*
X143519914Y-111698434D01*
X143576665Y-111631406D01*
X143652491Y-111553572D01*
X143732254Y-111483920D01*
X143815931Y-111422465D01*
X143903496Y-111369219D01*
X143994924Y-111324196D01*
X144090190Y-111287408D01*
X144189268Y-111258869D01*
X144292135Y-111238591D01*
X144339238Y-111232214D01*
X144373933Y-111229112D01*
X144415278Y-111226958D01*
X144460884Y-111225752D01*
X144508362Y-111225493D01*
X144555320Y-111226182D01*
X144599368Y-111227818D01*
X144638117Y-111230400D01*
X144656555Y-111232253D01*
X144708179Y-111239384D01*
X144761417Y-111248710D01*
X144812872Y-111259567D01*
X144859144Y-111271291D01*
X144865415Y-111273079D01*
X144960313Y-111305269D01*
X145052812Y-111345893D01*
X145142242Y-111394458D01*
X145227932Y-111450473D01*
X145309214Y-111513446D01*
X145385417Y-111582885D01*
X145455871Y-111658300D01*
X145519906Y-111739197D01*
X145540571Y-111768560D01*
X145593341Y-111853849D01*
X145639208Y-111944619D01*
X145677875Y-112040105D01*
X145709046Y-112139544D01*
X145732424Y-112242171D01*
X145738903Y-112279924D01*
X145741943Y-112304922D01*
X145744517Y-112337101D01*
X145746587Y-112374559D01*
X145748114Y-112415395D01*
X145749060Y-112457710D01*
X145749386Y-112499602D01*
X145749053Y-112539171D01*
X145748022Y-112574515D01*
X145746254Y-112603734D01*
X145745641Y-112610378D01*
X145730669Y-112716261D01*
X145707661Y-112818588D01*
X145676735Y-112917016D01*
X145638012Y-113011202D01*
X145591610Y-113100803D01*
X145552553Y-113163726D01*
X145525325Y-113203330D01*
X145499483Y-113238139D01*
X145473016Y-113270584D01*
X145443918Y-113303096D01*
X145410180Y-113338105D01*
X145400180Y-113348136D01*
X145318978Y-113422965D01*
X145233438Y-113489869D01*
X145143759Y-113548752D01*
X145050140Y-113599518D01*
X144952779Y-113642071D01*
X144851876Y-113676314D01*
X144747629Y-113702153D01*
X144640236Y-113719490D01*
X144629545Y-113720729D01*
X144613321Y-113721960D01*
X144589896Y-113722964D01*
X144561160Y-113723731D01*
X144529001Y-113724249D01*
X144495307Y-113724508D01*
X144461966Y-113724498D01*
X144430868Y-113724207D01*
X144403900Y-113723626D01*
X144382950Y-113722744D01*
X144375000Y-113722157D01*
X144326023Y-113716002D01*
X144271694Y-113706418D01*
X144214792Y-113694044D01*
X144158095Y-113679521D01*
X144104380Y-113663489D01*
X144071571Y-113652268D01*
X144006020Y-113625583D01*
X143937937Y-113592568D01*
X143869648Y-113554574D01*
X143803477Y-113512953D01*
X143741752Y-113469058D01*
X143702272Y-113437566D01*
X143683334Y-113420971D01*
X143660407Y-113399841D01*
X143635711Y-113376281D01*
X143611467Y-113352395D01*
X143597455Y-113338161D01*
X143526065Y-113258418D01*
X143462788Y-113174671D01*
X143407563Y-113086797D01*
X143360332Y-112994677D01*
X143321034Y-112898188D01*
X143289611Y-112797209D01*
X143266004Y-112691620D01*
X143258399Y-112645833D01*
X143256033Y-112623780D01*
X143254263Y-112593133D01*
X143253086Y-112553761D01*
X143252496Y-112505531D01*
X143252433Y-112475379D01*
X143479857Y-112475379D01*
X143480709Y-112528563D01*
X143483502Y-112575737D01*
X143488590Y-112619844D01*
X143496328Y-112663824D01*
X143507071Y-112710621D01*
X143509260Y-112719218D01*
X143536942Y-112808543D01*
X143573009Y-112895000D01*
X143617061Y-112978045D01*
X143668693Y-113057137D01*
X143727504Y-113131733D01*
X143793092Y-113201292D01*
X143865053Y-113265270D01*
X143942987Y-113323126D01*
X143970854Y-113341357D01*
X144048744Y-113385388D01*
X144131444Y-113422221D01*
X144217904Y-113451605D01*
X144307071Y-113473292D01*
X144397894Y-113487031D01*
X144489322Y-113492571D01*
X144580302Y-113489664D01*
X144590909Y-113488756D01*
X144680422Y-113476267D01*
X144769973Y-113455368D01*
X144857791Y-113426556D01*
X144942104Y-113390332D01*
X144944412Y-113389209D01*
X144981570Y-113370599D01*
X145013364Y-113353463D01*
X145042483Y-113336158D01*
X145071616Y-113317042D01*
X145103450Y-113294470D01*
X145122727Y-113280255D01*
X145196248Y-113220199D01*
X145262993Y-113154732D01*
X145322651Y-113084311D01*
X145374917Y-113009399D01*
X145419480Y-112930453D01*
X145456033Y-112847935D01*
X145484268Y-112762305D01*
X145493078Y-112727651D01*
X145511354Y-112630306D01*
X145520808Y-112533558D01*
X145521594Y-112437854D01*
X145513863Y-112343641D01*
X145497766Y-112251367D01*
X145473455Y-112161479D01*
X145441082Y-112074424D01*
X145400799Y-111990651D01*
X145352757Y-111910605D01*
X145297109Y-111834736D01*
X145234006Y-111763490D01*
X145163600Y-111697314D01*
X145135658Y-111674146D01*
X145062145Y-111620233D01*
X144985283Y-111573413D01*
X144906166Y-111534260D01*
X144825887Y-111503347D01*
X144788636Y-111491987D01*
X144698892Y-111471290D01*
X144607133Y-111458527D01*
X144514405Y-111453622D01*
X144421751Y-111456500D01*
X144330215Y-111467086D01*
X144240843Y-111485305D01*
X144154678Y-111511082D01*
X144074982Y-111543313D01*
X143999633Y-111582844D01*
X143926426Y-111630517D01*
X143856217Y-111685476D01*
X143789866Y-111746863D01*
X143728230Y-111813820D01*
X143672165Y-111885490D01*
X143622530Y-111961016D01*
X143581651Y-112036507D01*
X143546938Y-112114476D01*
X143519948Y-112190372D01*
X143500236Y-112266110D01*
X143487358Y-112343608D01*
X143480869Y-112424784D01*
X143479857Y-112475379D01*
X143252433Y-112475379D01*
X143252424Y-112470833D01*
X143252541Y-112430355D01*
G37*
G36*
X144884090Y-112087426D02*
G01*
X144915006Y-112087857D01*
X144939059Y-112088861D01*
X144958470Y-112090646D01*
X144975461Y-112093419D01*
X144992254Y-112097389D01*
X144993181Y-112097637D01*
X145039307Y-112112544D01*
X145079053Y-112131229D01*
X145114791Y-112155011D01*
X145146833Y-112183177D01*
X145160544Y-112197677D01*
X145174490Y-112214189D01*
X145187444Y-112231025D01*
X145198180Y-112246497D01*
X145205473Y-112258918D01*
X145208097Y-112266600D01*
X145207981Y-112267344D01*
X145203891Y-112270263D01*
X145193221Y-112276620D01*
X145177435Y-112285619D01*
X145157998Y-112296463D01*
X145136372Y-112308357D01*
X145114024Y-112320503D01*
X145092415Y-112332105D01*
X145073012Y-112342367D01*
X145057277Y-112350492D01*
X145046676Y-112355684D01*
X145042793Y-112357197D01*
X145039844Y-112353646D01*
X145033985Y-112344586D01*
X145029955Y-112337879D01*
X145012001Y-112313329D01*
X144989224Y-112291081D01*
X144964645Y-112273941D01*
X144956818Y-112269959D01*
X144929976Y-112261735D01*
X144899113Y-112258730D01*
X144867625Y-112260906D01*
X144838908Y-112268225D01*
X144831515Y-112271336D01*
X144801969Y-112289683D01*
X144778045Y-112314550D01*
X144759442Y-112346348D01*
X144745857Y-112385490D01*
X144744962Y-112389015D01*
X144741477Y-112409686D01*
X144739356Y-112436232D01*
X144738569Y-112466079D01*
X144739085Y-112496648D01*
X144740872Y-112525362D01*
X144743898Y-112549644D01*
X144747090Y-112563821D01*
X144762171Y-112603567D01*
X144781007Y-112635518D01*
X144804127Y-112660378D01*
X144832060Y-112678851D01*
X144834282Y-112679959D01*
X144846465Y-112685262D01*
X144858446Y-112688562D01*
X144872970Y-112690304D01*
X144892782Y-112690934D01*
X144902272Y-112690974D01*
X144924833Y-112690649D01*
X144941074Y-112689376D01*
X144953753Y-112686708D01*
X144965626Y-112682200D01*
X144970454Y-112679933D01*
X144992478Y-112666116D01*
X145013893Y-112647299D01*
X145031928Y-112626239D01*
X145042841Y-112607952D01*
X145049180Y-112596606D01*
X145055319Y-112589844D01*
X145057473Y-112589015D01*
X145063665Y-112590957D01*
X145076038Y-112596265D01*
X145093054Y-112604166D01*
X145113177Y-112613884D01*
X145134870Y-112624646D01*
X145156595Y-112635676D01*
X145176817Y-112646200D01*
X145193999Y-112655443D01*
X145206603Y-112662631D01*
X145213092Y-112666989D01*
X145213636Y-112667726D01*
X145210967Y-112674431D01*
X145203845Y-112686259D01*
X145193600Y-112701317D01*
X145181560Y-112717712D01*
X145169055Y-112733552D01*
X145160031Y-112744082D01*
X145126514Y-112775998D01*
X145086717Y-112805081D01*
X145043328Y-112829703D01*
X144999034Y-112848236D01*
X144977272Y-112854741D01*
X144955595Y-112858767D01*
X144927722Y-112861786D01*
X144896501Y-112863687D01*
X144864783Y-112864359D01*
X144835416Y-112863690D01*
X144811252Y-112861570D01*
X144809269Y-112861280D01*
X144754295Y-112848773D01*
X144704114Y-112828673D01*
X144658015Y-112800619D01*
X144615284Y-112764250D01*
X144613169Y-112762154D01*
X144594132Y-112742449D01*
X144579956Y-112725695D01*
X144568530Y-112709005D01*
X144557742Y-112689498D01*
X144552969Y-112679924D01*
X144533417Y-112633648D01*
X144519916Y-112586443D01*
X144512116Y-112536405D01*
X144509669Y-112481626D01*
X144510509Y-112448106D01*
X144514377Y-112401039D01*
X144521772Y-112359541D01*
X144533451Y-112320523D01*
X144550171Y-112280896D01*
X144552833Y-112275379D01*
X144562853Y-112255842D01*
X144572496Y-112239849D01*
X144583532Y-112225033D01*
X144597735Y-112209026D01*
X144616876Y-112189462D01*
X144617960Y-112188382D01*
X144637954Y-112168959D01*
X144654268Y-112154551D01*
X144669277Y-112143391D01*
X144685358Y-112133712D01*
X144704855Y-112123763D01*
X144733497Y-112110614D01*
X144758990Y-112100936D01*
X144783685Y-112094251D01*
X144809930Y-112090084D01*
X144840077Y-112087958D01*
X144876474Y-112087396D01*
X144884090Y-112087426D01*
G37*
G36*
X144179545Y-112086071D02*
G01*
X144241435Y-112092722D01*
X144297571Y-112106354D01*
X144348132Y-112127064D01*
X144393298Y-112154945D01*
X144433252Y-112190095D01*
X144468171Y-112232607D01*
X144474771Y-112242311D01*
X144481650Y-112254442D01*
X144485175Y-112264101D01*
X144485191Y-112267311D01*
X144480897Y-112270578D01*
X144469990Y-112277239D01*
X144453924Y-112286502D01*
X144434156Y-112297572D01*
X144412140Y-112309656D01*
X144389330Y-112321960D01*
X144367184Y-112333691D01*
X144347155Y-112344055D01*
X144330698Y-112352257D01*
X144321981Y-112356334D01*
X144318108Y-112353557D01*
X144311114Y-112344920D01*
X144303213Y-112333360D01*
X144278780Y-112302281D01*
X144250551Y-112279290D01*
X144218835Y-112264555D01*
X144183942Y-112258243D01*
X144165123Y-112258316D01*
X144127966Y-112264484D01*
X144096084Y-112278014D01*
X144069534Y-112298828D01*
X144048373Y-112326844D01*
X144032656Y-112361982D01*
X144022441Y-112404161D01*
X144017783Y-112453302D01*
X144017481Y-112468560D01*
X144019472Y-112517571D01*
X144026161Y-112559668D01*
X144037872Y-112595909D01*
X144054927Y-112627348D01*
X144073115Y-112650274D01*
X144093729Y-112668843D01*
X144116602Y-112681371D01*
X144143652Y-112688580D01*
X144176796Y-112691193D01*
X144181818Y-112691233D01*
X144205056Y-112690785D01*
X144222064Y-112689097D01*
X144235666Y-112685744D01*
X144246010Y-112681569D01*
X144274394Y-112664071D01*
X144299873Y-112640014D01*
X144319145Y-112613007D01*
X144326942Y-112600317D01*
X144333498Y-112591620D01*
X144336850Y-112589015D01*
X144342585Y-112591005D01*
X144354685Y-112596431D01*
X144371549Y-112604481D01*
X144391575Y-112614339D01*
X144413159Y-112625192D01*
X144434699Y-112636227D01*
X144454594Y-112646628D01*
X144471239Y-112655583D01*
X144483034Y-112662277D01*
X144488375Y-112665896D01*
X144488476Y-112666030D01*
X144487771Y-112672665D01*
X144481986Y-112684506D01*
X144472155Y-112700032D01*
X144459313Y-112717719D01*
X144444491Y-112736043D01*
X144430097Y-112752052D01*
X144388063Y-112789736D01*
X144341022Y-112820080D01*
X144289585Y-112842891D01*
X144234362Y-112857975D01*
X144175968Y-112865137D01*
X144115012Y-112864184D01*
X144086363Y-112860979D01*
X144034160Y-112849271D01*
X143984628Y-112829718D01*
X143938833Y-112803075D01*
X143897836Y-112770096D01*
X143862704Y-112731536D01*
X143834500Y-112688149D01*
X143829900Y-112679195D01*
X143816258Y-112649933D01*
X143805968Y-112623535D01*
X143798579Y-112597837D01*
X143793645Y-112570670D01*
X143790714Y-112539868D01*
X143789340Y-112503264D01*
X143789097Y-112482197D01*
X143789134Y-112448715D01*
X143789758Y-112422366D01*
X143791101Y-112401205D01*
X143793292Y-112383284D01*
X143796465Y-112366659D01*
X143797066Y-112364015D01*
X143814363Y-112307767D01*
X143838637Y-112257095D01*
X143869442Y-112212320D01*
X143906334Y-112173766D01*
X143948870Y-112141755D01*
X143996605Y-112116611D01*
X144049094Y-112098655D01*
X144105894Y-112088212D01*
X144166561Y-112085603D01*
X144179545Y-112086071D01*
G37*
G36*
X149563190Y-109471615D02*
G01*
X149530148Y-109537497D01*
X149498806Y-109605066D01*
X149475266Y-109666918D01*
X149460117Y-109721406D01*
X149455885Y-109745278D01*
X149450356Y-109785821D01*
X149422346Y-109728385D01*
X149409470Y-109702871D01*
X149401497Y-109689328D01*
X149398088Y-109687275D01*
X149398594Y-109694600D01*
X149407964Y-109732116D01*
X149422947Y-109774973D01*
X149442201Y-109820579D01*
X149464385Y-109866346D01*
X149488158Y-109909680D01*
X149512178Y-109947994D01*
X149535105Y-109978694D01*
X149555596Y-109999192D01*
X149556738Y-110000054D01*
X149573860Y-110015402D01*
X149579578Y-110030161D01*
X149574931Y-110048803D01*
X149570333Y-110058487D01*
X149563379Y-110071059D01*
X149550475Y-110093381D01*
X149532698Y-110123659D01*
X149511121Y-110160100D01*
X149486819Y-110200908D01*
X149460869Y-110244290D01*
X149434345Y-110288451D01*
X149408321Y-110331597D01*
X149383873Y-110371932D01*
X149362077Y-110407664D01*
X149344007Y-110436997D01*
X149333429Y-110453903D01*
X149304054Y-110500330D01*
X149256186Y-110497113D01*
X149212170Y-110492809D01*
X149176077Y-110485451D01*
X149144263Y-110473449D01*
X149113083Y-110455217D01*
X149078894Y-110429166D01*
X149056628Y-110410181D01*
X149031236Y-110388157D01*
X149009627Y-110369754D01*
X148993746Y-110356604D01*
X148985540Y-110350339D01*
X148984904Y-110350040D01*
X148983558Y-110356188D01*
X148982967Y-110372223D01*
X148983205Y-110392272D01*
X148984455Y-110434504D01*
X148986977Y-110397880D01*
X148989498Y-110361256D01*
X149046541Y-110418002D01*
X149103583Y-110474748D01*
X149103583Y-110628839D01*
X149103318Y-110689312D01*
X149102015Y-110737634D01*
X149098913Y-110775166D01*
X149093252Y-110803267D01*
X149084271Y-110823300D01*
X149071208Y-110836623D01*
X149053304Y-110844598D01*
X149029797Y-110848586D01*
X148999927Y-110849946D01*
X148979869Y-110850067D01*
X148916298Y-110850067D01*
X148908012Y-110767292D01*
X148904690Y-110735473D01*
X148901665Y-110708984D01*
X148899257Y-110690475D01*
X148897789Y-110682597D01*
X148897734Y-110682516D01*
X148895566Y-110687177D01*
X148892731Y-110703400D01*
X148889479Y-110729263D01*
X148886056Y-110762844D01*
X148883333Y-110794320D01*
X148878853Y-110850067D01*
X148740203Y-110850067D01*
X148736388Y-110828106D01*
X148734011Y-110810838D01*
X148731192Y-110785121D01*
X148728473Y-110755981D01*
X148728018Y-110750532D01*
X148725380Y-110725542D01*
X148722301Y-110707178D01*
X148719316Y-110698351D01*
X148718374Y-110698064D01*
X148715594Y-110705781D01*
X148712501Y-110723719D01*
X148709609Y-110748614D01*
X148708572Y-110760434D01*
X148705861Y-110796637D01*
X148703079Y-110821567D01*
X148698098Y-110837309D01*
X148688792Y-110845946D01*
X148673032Y-110849562D01*
X148648691Y-110850242D01*
X148617071Y-110850067D01*
X148583009Y-110850247D01*
X148559475Y-110849399D01*
X148544343Y-110845439D01*
X148535485Y-110836282D01*
X148530773Y-110819845D01*
X148528079Y-110794042D01*
X148525570Y-110760434D01*
X148522917Y-110733582D01*
X148519847Y-110712305D01*
X148516872Y-110699869D01*
X148515767Y-110698064D01*
X148512946Y-110702778D01*
X148509839Y-110718069D01*
X148506982Y-110741026D01*
X148506124Y-110750532D01*
X148503485Y-110779754D01*
X148500643Y-110806498D01*
X148498142Y-110825737D01*
X148497754Y-110828106D01*
X148493939Y-110850067D01*
X148355288Y-110850067D01*
X148350809Y-110794320D01*
X148347429Y-110755904D01*
X148344019Y-110723652D01*
X148340827Y-110699487D01*
X148338102Y-110685330D01*
X148336408Y-110682516D01*
X148335011Y-110689613D01*
X148332655Y-110707513D01*
X148329660Y-110733565D01*
X148326347Y-110765118D01*
X148326129Y-110767292D01*
X148317844Y-110850067D01*
X148252919Y-110850041D01*
X148219441Y-110849442D01*
X148196049Y-110847336D01*
X148179353Y-110843215D01*
X148166916Y-110837163D01*
X148156079Y-110829456D01*
X148147614Y-110820010D01*
X148141235Y-110807168D01*
X148136654Y-110789273D01*
X148133584Y-110764668D01*
X148131736Y-110731697D01*
X148130824Y-110688701D01*
X148130560Y-110634024D01*
X148130558Y-110627613D01*
X148130558Y-110511768D01*
X148470812Y-110511768D01*
X148471352Y-110512211D01*
X148478776Y-110509516D01*
X148495696Y-110502230D01*
X148519397Y-110491547D01*
X148540461Y-110481804D01*
X148568470Y-110469203D01*
X148592803Y-110459150D01*
X148610350Y-110452878D01*
X148617071Y-110451397D01*
X148627710Y-110454147D01*
X148647422Y-110461582D01*
X148673126Y-110472476D01*
X148694523Y-110482198D01*
X148721456Y-110494530D01*
X148743422Y-110504108D01*
X148757847Y-110509840D01*
X148762235Y-110510915D01*
X148759863Y-110504444D01*
X148751814Y-110488411D01*
X148739269Y-110464897D01*
X148723408Y-110435985D01*
X148705413Y-110403756D01*
X148686464Y-110370294D01*
X148667743Y-110337680D01*
X148650430Y-110307997D01*
X148635705Y-110283327D01*
X148624750Y-110265752D01*
X148618746Y-110257354D01*
X148618207Y-110256945D01*
X148613065Y-110261880D01*
X148602670Y-110276887D01*
X148588167Y-110300133D01*
X148570702Y-110329786D01*
X148552779Y-110361555D01*
X148532785Y-110397587D01*
X148514137Y-110431002D01*
X148498188Y-110459386D01*
X148486295Y-110480326D01*
X148480519Y-110490250D01*
X148473051Y-110504209D01*
X148470812Y-110511768D01*
X148130558Y-110511768D01*
X148130558Y-110474748D01*
X148187601Y-110418002D01*
X148244643Y-110361256D01*
X148249687Y-110434504D01*
X148250937Y-110392272D01*
X148251155Y-110370397D01*
X148250487Y-110355135D01*
X148249238Y-110350040D01*
X148243355Y-110354240D01*
X148229289Y-110365751D01*
X148208985Y-110382942D01*
X148184393Y-110404178D01*
X148177514Y-110410181D01*
X148139972Y-110441406D01*
X148107521Y-110463906D01*
X148076516Y-110479270D01*
X148043312Y-110489085D01*
X148004265Y-110494938D01*
X147977956Y-110497113D01*
X147930088Y-110500330D01*
X147900712Y-110453903D01*
X147886191Y-110430630D01*
X147867128Y-110399596D01*
X147844596Y-110362594D01*
X147819672Y-110321420D01*
X147793430Y-110277867D01*
X147766945Y-110233729D01*
X147741293Y-110190802D01*
X147717548Y-110150879D01*
X147696786Y-110115755D01*
X147680081Y-110087224D01*
X147668509Y-110067081D01*
X147663809Y-110058487D01*
X147655257Y-110036997D01*
X147656648Y-110021203D01*
X147669022Y-110006633D01*
X147677404Y-110000054D01*
X147697703Y-109980263D01*
X147720520Y-109950111D01*
X147744511Y-109912188D01*
X147768338Y-109869086D01*
X147790657Y-109823394D01*
X147804116Y-109791811D01*
X147929738Y-109791811D01*
X147929786Y-109799601D01*
X147932821Y-109818322D01*
X147938327Y-109845852D01*
X147945789Y-109880072D01*
X147954692Y-109918859D01*
X147964520Y-109960092D01*
X147974760Y-110001649D01*
X147984895Y-110041410D01*
X147994411Y-110077252D01*
X148002793Y-110107056D01*
X148009524Y-110128698D01*
X148014091Y-110140059D01*
X148014424Y-110140569D01*
X148029656Y-110155287D01*
X148051961Y-110169939D01*
X148076124Y-110181668D01*
X148096929Y-110187618D01*
X148100767Y-110187869D01*
X148110567Y-110185669D01*
X148131422Y-110179434D01*
X148161669Y-110169714D01*
X148199651Y-110157057D01*
X148243706Y-110142012D01*
X148292176Y-110125129D01*
X148317252Y-110116274D01*
X148366808Y-110098606D01*
X148412267Y-110082226D01*
X148452062Y-110067714D01*
X148484624Y-110055647D01*
X148508387Y-110046603D01*
X148521783Y-110041162D01*
X148524131Y-110039948D01*
X148524083Y-110039915D01*
X148709982Y-110039915D01*
X148710011Y-110039953D01*
X148718222Y-110043987D01*
X148737354Y-110051663D01*
X148765518Y-110062317D01*
X148800823Y-110075288D01*
X148841380Y-110089913D01*
X148885300Y-110105530D01*
X148930692Y-110121477D01*
X148975667Y-110137092D01*
X149018335Y-110151712D01*
X149056807Y-110164675D01*
X149089192Y-110175319D01*
X149113601Y-110182982D01*
X149128145Y-110187001D01*
X149130869Y-110187443D01*
X149147114Y-110184648D01*
X149168326Y-110177090D01*
X149177773Y-110172666D01*
X149198291Y-110159991D01*
X149215179Y-110145839D01*
X149219717Y-110140569D01*
X149224027Y-110130413D01*
X149230555Y-110109752D01*
X149238787Y-110080707D01*
X149248208Y-110045400D01*
X149258302Y-110005951D01*
X149268555Y-109964483D01*
X149278451Y-109923116D01*
X149287476Y-109883972D01*
X149295114Y-109849173D01*
X149300849Y-109820839D01*
X149304168Y-109801092D01*
X149304555Y-109792053D01*
X149304404Y-109791811D01*
X149297673Y-109793634D01*
X149279698Y-109800178D01*
X149251704Y-109810953D01*
X149214918Y-109825474D01*
X149170566Y-109843251D01*
X149119872Y-109863796D01*
X149064064Y-109886622D01*
X149004367Y-109911240D01*
X149002986Y-109911812D01*
X148943480Y-109936591D01*
X148888140Y-109959903D01*
X148838151Y-109981229D01*
X148794700Y-110000050D01*
X148758971Y-110015848D01*
X148732152Y-110028104D01*
X148715427Y-110036299D01*
X148709982Y-110039915D01*
X148524083Y-110039915D01*
X148519109Y-110036505D01*
X148502764Y-110028464D01*
X148476283Y-110016345D01*
X148440851Y-110000665D01*
X148397653Y-109981943D01*
X148347876Y-109960697D01*
X148292706Y-109937448D01*
X148233328Y-109912712D01*
X148231156Y-109911812D01*
X148171385Y-109887159D01*
X148115476Y-109864288D01*
X148064654Y-109843686D01*
X148020145Y-109825841D01*
X147983175Y-109811241D01*
X147954969Y-109800376D01*
X147936755Y-109793731D01*
X147929757Y-109791797D01*
X147929738Y-109791811D01*
X147804116Y-109791811D01*
X147810128Y-109777703D01*
X147825410Y-109734604D01*
X147835162Y-109696688D01*
X147835548Y-109694600D01*
X147835876Y-109686933D01*
X147831940Y-109690330D01*
X147823401Y-109705274D01*
X147811795Y-109728385D01*
X147783786Y-109785821D01*
X147778256Y-109745278D01*
X147767504Y-109695071D01*
X147748068Y-109636679D01*
X147720537Y-109571750D01*
X147703994Y-109537497D01*
X147670951Y-109471615D01*
X147617018Y-109471615D01*
X147617018Y-110012184D01*
X147233327Y-110012184D01*
X147228827Y-110030114D01*
X147215888Y-110059709D01*
X147193686Y-110089020D01*
X147165843Y-110113692D01*
X147152214Y-110122242D01*
X147116234Y-110135784D01*
X147075977Y-110141248D01*
X147036394Y-110138450D01*
X147003452Y-110127734D01*
X146963925Y-110100731D01*
X146935362Y-110065998D01*
X146918242Y-110024310D01*
X146913011Y-109981366D01*
X146914696Y-109967199D01*
X146977334Y-109967199D01*
X146978719Y-109997769D01*
X146991015Y-110027644D01*
X147012032Y-110052814D01*
X147031181Y-110065699D01*
X147054856Y-110075953D01*
X147073637Y-110078932D01*
X147093856Y-110074890D01*
X147110184Y-110068851D01*
X147138815Y-110050948D01*
X147158409Y-110025589D01*
X147168484Y-109995699D01*
X147168561Y-109964203D01*
X147158158Y-109934026D01*
X147136797Y-109908094D01*
X147136612Y-109907939D01*
X147106933Y-109890784D01*
X147075026Y-109885209D01*
X147043591Y-109890211D01*
X147015327Y-109904785D01*
X146992933Y-109927926D01*
X146979107Y-109958632D01*
X146977334Y-109967199D01*
X146914696Y-109967199D01*
X146918667Y-109933803D01*
X146935760Y-109892999D01*
X146963597Y-109859893D01*
X147001485Y-109835422D01*
X147028112Y-109825462D01*
X147074019Y-109818490D01*
X147117786Y-109824166D01*
X147157711Y-109841630D01*
X147192091Y-109870023D01*
X147219223Y-109908484D01*
X147227528Y-109926158D01*
X147238036Y-109951625D01*
X147546068Y-109947991D01*
X147547844Y-109709803D01*
X147549619Y-109471615D01*
X146887625Y-109471615D01*
X146873069Y-109505450D01*
X146849338Y-109545129D01*
X146817142Y-109574471D01*
X146777335Y-109592928D01*
X146730771Y-109599948D01*
X146726121Y-109600000D01*
X146678283Y-109594221D01*
X146637543Y-109577086D01*
X146604394Y-109548899D01*
X146579328Y-109509966D01*
X146578901Y-109509055D01*
X146564398Y-109463832D01*
X146563629Y-109434525D01*
X146630479Y-109434525D01*
X146635953Y-109471838D01*
X146651615Y-109502202D01*
X146676319Y-109523901D01*
X146695634Y-109532238D01*
X146714026Y-109537146D01*
X146727694Y-109537971D01*
X146744025Y-109534732D01*
X146752609Y-109532401D01*
X146782431Y-109517366D01*
X146805152Y-109491376D01*
X146815967Y-109468003D01*
X146821039Y-109434430D01*
X146820871Y-109433783D01*
X150413739Y-109433783D01*
X150417251Y-109467229D01*
X150433414Y-109499046D01*
X150442233Y-109509568D01*
X150467359Y-109527135D01*
X150498355Y-109535341D01*
X150530955Y-109533761D01*
X150560894Y-109521972D01*
X150561754Y-109521426D01*
X150584324Y-109499289D01*
X150598864Y-109468772D01*
X150603638Y-109435878D01*
X150602396Y-109415429D01*
X150596977Y-109399910D01*
X150584901Y-109383632D01*
X150577119Y-109375064D01*
X150561486Y-109359196D01*
X150548862Y-109350690D01*
X150533820Y-109347257D01*
X150510936Y-109346609D01*
X150509661Y-109346608D01*
X150485885Y-109347301D01*
X150470216Y-109350714D01*
X150457266Y-109358853D01*
X150444524Y-109370830D01*
X150422842Y-109400915D01*
X150413739Y-109433783D01*
X146820871Y-109433783D01*
X146812739Y-109402460D01*
X146791146Y-109372380D01*
X146789618Y-109370830D01*
X146774782Y-109357165D01*
X146761761Y-109349909D01*
X146745166Y-109347061D01*
X146724481Y-109346608D01*
X146701126Y-109347187D01*
X146685853Y-109350449D01*
X146673236Y-109358683D01*
X146657850Y-109374178D01*
X146657022Y-109375064D01*
X146641247Y-109393600D01*
X146633275Y-109408959D01*
X146630616Y-109426720D01*
X146630479Y-109434525D01*
X146563629Y-109434525D01*
X146563245Y-109419902D01*
X146575285Y-109378098D01*
X146600364Y-109339250D01*
X146613399Y-109325319D01*
X146635977Y-109304995D01*
X146655506Y-109292380D01*
X146677146Y-109284447D01*
X146687264Y-109281970D01*
X146732914Y-109277876D01*
X146776549Y-109285644D01*
X146815180Y-109304690D01*
X146819273Y-109307657D01*
X146841095Y-109325361D01*
X146855845Y-109341674D01*
X146868049Y-109362146D01*
X146874446Y-109375326D01*
X146887881Y-109404044D01*
X147642465Y-109404044D01*
X147632957Y-109376445D01*
X147626789Y-109353545D01*
X147621428Y-109325205D01*
X147619270Y-109308874D01*
X147615092Y-109268901D01*
X147353704Y-109268901D01*
X147350112Y-108893881D01*
X147277888Y-108891968D01*
X147205664Y-108890054D01*
X147191372Y-108922375D01*
X147167792Y-108961918D01*
X147137800Y-108991385D01*
X147103221Y-109011131D01*
X147065880Y-109021511D01*
X147027603Y-109022879D01*
X146990215Y-109015590D01*
X146955541Y-109000000D01*
X146925406Y-108976463D01*
X146901637Y-108945334D01*
X146886057Y-108906968D01*
X146880492Y-108861931D01*
X146880783Y-108859610D01*
X146944237Y-108859610D01*
X146951511Y-108892430D01*
X146956088Y-108902479D01*
X146977035Y-108931229D01*
X147004383Y-108949959D01*
X147035487Y-108957826D01*
X147067697Y-108953987D01*
X147088335Y-108944596D01*
X147114489Y-108921856D01*
X147130735Y-108893412D01*
X147136891Y-108862142D01*
X147132774Y-108830922D01*
X147118203Y-108802629D01*
X147098511Y-108783762D01*
X147065725Y-108767928D01*
X147032144Y-108764998D01*
X146999983Y-108774712D01*
X146971455Y-108796810D01*
X146969572Y-108798904D01*
X146950214Y-108828772D01*
X146944237Y-108859610D01*
X146880783Y-108859610D01*
X146886446Y-108814463D01*
X146903525Y-108773769D01*
X146930555Y-108741019D01*
X146966360Y-108717388D01*
X147009767Y-108704048D01*
X147041198Y-108701452D01*
X147088678Y-108707295D01*
X147129662Y-108724884D01*
X147163500Y-108753783D01*
X147189542Y-108793552D01*
X147194579Y-108804713D01*
X147205015Y-108829689D01*
X147421061Y-108829689D01*
X147421061Y-109201330D01*
X147623517Y-109201330D01*
X147627747Y-109182748D01*
X147655121Y-109077169D01*
X147687086Y-108982580D01*
X147724723Y-108896920D01*
X147769116Y-108818127D01*
X147821345Y-108744141D01*
X147882494Y-108672900D01*
X147910858Y-108643542D01*
X147997535Y-108565732D01*
X148090762Y-108499687D01*
X148190723Y-108445310D01*
X148297604Y-108402502D01*
X148411589Y-108371167D01*
X148438007Y-108365731D01*
X148480712Y-108359659D01*
X148532894Y-108355649D01*
X148590674Y-108353703D01*
X148650174Y-108353820D01*
X148707515Y-108356000D01*
X148758817Y-108360243D01*
X148796134Y-108365731D01*
X148911730Y-108394521D01*
X149020180Y-108434760D01*
X149121669Y-108486548D01*
X149216382Y-108549982D01*
X149304504Y-108625158D01*
X149323284Y-108643542D01*
X149388468Y-108714247D01*
X149444282Y-108786839D01*
X149491808Y-108863379D01*
X149532128Y-108945928D01*
X149566324Y-109036547D01*
X149595479Y-109137297D01*
X149606395Y-109182748D01*
X149610624Y-109201330D01*
X149813080Y-109201330D01*
X149813080Y-108854387D01*
X150097407Y-108854387D01*
X150100439Y-108885127D01*
X150113677Y-108914275D01*
X150137574Y-108939327D01*
X150145807Y-108944998D01*
X150173279Y-108955030D01*
X150205059Y-108955670D01*
X150236037Y-108947220D01*
X150250903Y-108938792D01*
X150272562Y-108915718D01*
X150285886Y-108885659D01*
X150289156Y-108853413D01*
X150286719Y-108838823D01*
X150272447Y-108808430D01*
X150249420Y-108784509D01*
X150220709Y-108769135D01*
X150189387Y-108764379D01*
X150178263Y-108765628D01*
X150145008Y-108777677D01*
X150120145Y-108798156D01*
X150104126Y-108824561D01*
X150097407Y-108854387D01*
X149813080Y-108854387D01*
X149813080Y-108829689D01*
X150029127Y-108829689D01*
X150039562Y-108804713D01*
X150063628Y-108762389D01*
X150095646Y-108730831D01*
X150134968Y-108710476D01*
X150180942Y-108701762D01*
X150192944Y-108701452D01*
X150240624Y-108707543D01*
X150281460Y-108724681D01*
X150314276Y-108751693D01*
X150337898Y-108787405D01*
X150351151Y-108830645D01*
X150353650Y-108861931D01*
X150347421Y-108907888D01*
X150329647Y-108948552D01*
X150301694Y-108982172D01*
X150264930Y-109006998D01*
X150230932Y-109019149D01*
X150184721Y-109023839D01*
X150141255Y-109015912D01*
X150102195Y-108996224D01*
X150069205Y-108965629D01*
X150043944Y-108924982D01*
X150042769Y-108922375D01*
X150028477Y-108890054D01*
X149956254Y-108891968D01*
X149884030Y-108893881D01*
X149880438Y-109268901D01*
X149619049Y-109268901D01*
X149614871Y-109308874D01*
X149610784Y-109336605D01*
X149604907Y-109363746D01*
X149601185Y-109376445D01*
X149591676Y-109404044D01*
X150346260Y-109404044D01*
X150359696Y-109375326D01*
X150372300Y-109350807D01*
X150385241Y-109333156D01*
X150403045Y-109316825D01*
X150414869Y-109307657D01*
X150452712Y-109287317D01*
X150495912Y-109278187D01*
X150541479Y-109280850D01*
X150546877Y-109281970D01*
X150570737Y-109288898D01*
X150590475Y-109299328D01*
X150611252Y-109316288D01*
X150620742Y-109325319D01*
X150650777Y-109362813D01*
X150667833Y-109403583D01*
X150671755Y-109446797D01*
X150662387Y-109491622D01*
X150655241Y-109509055D01*
X150630346Y-109548207D01*
X150597357Y-109576617D01*
X150556769Y-109593982D01*
X150509072Y-109599998D01*
X150508021Y-109600000D01*
X150460872Y-109594073D01*
X150420400Y-109576659D01*
X150387458Y-109548307D01*
X150362902Y-109509567D01*
X150361072Y-109505450D01*
X150346517Y-109471615D01*
X149684522Y-109471615D01*
X149688074Y-109947991D01*
X149996106Y-109951625D01*
X150006614Y-109926158D01*
X150030434Y-109883978D01*
X150062170Y-109851528D01*
X150100120Y-109829668D01*
X150142581Y-109819259D01*
X150187850Y-109821160D01*
X150206029Y-109825462D01*
X150249492Y-109844430D01*
X150283309Y-109872584D01*
X150306789Y-109908986D01*
X150319239Y-109952697D01*
X150321131Y-109981366D01*
X150314745Y-110028666D01*
X150296486Y-110069710D01*
X150266831Y-110103722D01*
X150230690Y-110127734D01*
X150196459Y-110138684D01*
X150156771Y-110141196D01*
X150116579Y-110135454D01*
X150081928Y-110122242D01*
X150052711Y-110101145D01*
X150027479Y-110073416D01*
X150009853Y-110043410D01*
X150005315Y-110030114D01*
X150000815Y-110012184D01*
X149617124Y-110012184D01*
X149617124Y-109973965D01*
X150064925Y-109973965D01*
X150067445Y-110003932D01*
X150079264Y-110031934D01*
X150100691Y-110055362D01*
X150120246Y-110067053D01*
X150145398Y-110076658D01*
X150165763Y-110078532D01*
X150187484Y-110072582D01*
X150202454Y-110065835D01*
X150228579Y-110046653D01*
X150247490Y-110019828D01*
X150257008Y-109989313D01*
X150256808Y-109967199D01*
X150245220Y-109934621D01*
X150223715Y-109908796D01*
X150194979Y-109891606D01*
X150161702Y-109884933D01*
X150141651Y-109886572D01*
X150110067Y-109898334D01*
X150086545Y-109918558D01*
X150071395Y-109944638D01*
X150064925Y-109973965D01*
X149617124Y-109973965D01*
X149617124Y-109471615D01*
X149563190Y-109471615D01*
G37*
X149798500Y-82937258D02*
X149798500Y-82462742D01*
X148753500Y-82937258D02*
X148753500Y-82462742D01*
X149798500Y-78542258D02*
X149798500Y-78067742D01*
X148753500Y-78542258D02*
X148753500Y-78067742D01*
G36*
X152380796Y-108350426D02*
G01*
X152417381Y-108350613D01*
X152451414Y-108350941D01*
X152481488Y-108351410D01*
X152506197Y-108352020D01*
X152524135Y-108352771D01*
X152533897Y-108353662D01*
X152535150Y-108354025D01*
X152537184Y-108356107D01*
X152539319Y-108360328D01*
X152541741Y-108367551D01*
X152544630Y-108378639D01*
X152548172Y-108394454D01*
X152552549Y-108415861D01*
X152557944Y-108443721D01*
X152564541Y-108478897D01*
X152572522Y-108522253D01*
X152582071Y-108574651D01*
X152582575Y-108577429D01*
X152591638Y-108626157D01*
X152599372Y-108665183D01*
X152605844Y-108694811D01*
X152611123Y-108715345D01*
X152615278Y-108727086D01*
X152616993Y-108729793D01*
X152624345Y-108734404D01*
X152639564Y-108741924D01*
X152661065Y-108751705D01*
X152687259Y-108763101D01*
X152716560Y-108775464D01*
X152747381Y-108788148D01*
X152778135Y-108800505D01*
X152807234Y-108811887D01*
X152833093Y-108821649D01*
X152854123Y-108829143D01*
X152868738Y-108833721D01*
X152874643Y-108834852D01*
X152885079Y-108831951D01*
X152900509Y-108824425D01*
X152917906Y-108813786D01*
X152920729Y-108811854D01*
X152938119Y-108799819D01*
X152960850Y-108784175D01*
X152985909Y-108766991D01*
X153009117Y-108751132D01*
X153035448Y-108733156D01*
X153066300Y-108712064D01*
X153097868Y-108690460D01*
X153126345Y-108670945D01*
X153126862Y-108670590D01*
X153149087Y-108655611D01*
X153168635Y-108642933D01*
X153183888Y-108633567D01*
X153193227Y-108628525D01*
X153195083Y-108627936D01*
X153199996Y-108631395D01*
X153210971Y-108641122D01*
X153227030Y-108656140D01*
X153247198Y-108675474D01*
X153270496Y-108698146D01*
X153295948Y-108723181D01*
X153322575Y-108749603D01*
X153349400Y-108776436D01*
X153375446Y-108802703D01*
X153399736Y-108827428D01*
X153421292Y-108849635D01*
X153439137Y-108868348D01*
X153452294Y-108882591D01*
X153459785Y-108891387D01*
X153461155Y-108893683D01*
X153458390Y-108899002D01*
X153450527Y-108911652D01*
X153438211Y-108930656D01*
X153422088Y-108955036D01*
X153402804Y-108983815D01*
X153381006Y-109016015D01*
X153359373Y-109047694D01*
X153335733Y-109082306D01*
X153313918Y-109114504D01*
X153294591Y-109143289D01*
X153278415Y-109167663D01*
X153266054Y-109186626D01*
X153258172Y-109199178D01*
X153255455Y-109204173D01*
X153256832Y-109210737D01*
X153261781Y-109225297D01*
X153269813Y-109246598D01*
X153280439Y-109273386D01*
X153293170Y-109304406D01*
X153307518Y-109338404D01*
X153310050Y-109344312D01*
X153326575Y-109382740D01*
X153339688Y-109412927D01*
X153349959Y-109435917D01*
X153357957Y-109452753D01*
X153364253Y-109464479D01*
X153369416Y-109472137D01*
X153374014Y-109476771D01*
X153378619Y-109479424D01*
X153383799Y-109481140D01*
X153384926Y-109481454D01*
X153394320Y-109483593D01*
X153412281Y-109487250D01*
X153437432Y-109492163D01*
X153468397Y-109498066D01*
X153503799Y-109504696D01*
X153542264Y-109511790D01*
X153559644Y-109514961D01*
X153598629Y-109522204D01*
X153634795Y-109529217D01*
X153666838Y-109535723D01*
X153693453Y-109541448D01*
X153713334Y-109546114D01*
X153725176Y-109549447D01*
X153727580Y-109550465D01*
X153738944Y-109557499D01*
X153738866Y-109737945D01*
X153738748Y-109779804D01*
X153738445Y-109818546D01*
X153737982Y-109852992D01*
X153737383Y-109881962D01*
X153736671Y-109904275D01*
X153735872Y-109918753D01*
X153735078Y-109924139D01*
X153729012Y-109927101D01*
X153714886Y-109931307D01*
X153694595Y-109936269D01*
X153670031Y-109941498D01*
X153660658Y-109943323D01*
X153632956Y-109948595D01*
X153606793Y-109953588D01*
X153584767Y-109957804D01*
X153569479Y-109960747D01*
X153567220Y-109961185D01*
X153548958Y-109964662D01*
X153526954Y-109968747D01*
X153514187Y-109971072D01*
X153468575Y-109979533D01*
X153432586Y-109986752D01*
X153405834Y-109992818D01*
X153387930Y-109997822D01*
X153378485Y-110001853D01*
X153377357Y-110002762D01*
X153373848Y-110009089D01*
X153367309Y-110023371D01*
X153358331Y-110044139D01*
X153347504Y-110069921D01*
X153335420Y-110099245D01*
X153322670Y-110130640D01*
X153309844Y-110162636D01*
X153297532Y-110193760D01*
X153286326Y-110222542D01*
X153276817Y-110247511D01*
X153269595Y-110267194D01*
X153265251Y-110280122D01*
X153264236Y-110284473D01*
X153267018Y-110290652D01*
X153274795Y-110303847D01*
X153286762Y-110322803D01*
X153302118Y-110346265D01*
X153320059Y-110372976D01*
X153332138Y-110390633D01*
X153353517Y-110421675D01*
X153375012Y-110452895D01*
X153395283Y-110482345D01*
X153412989Y-110508079D01*
X153426790Y-110528149D01*
X153430568Y-110533648D01*
X153443137Y-110552479D01*
X153453201Y-110568575D01*
X153459553Y-110579941D01*
X153461155Y-110584191D01*
X153457697Y-110589019D01*
X153447853Y-110600119D01*
X153432420Y-110616660D01*
X153412193Y-110637808D01*
X153387967Y-110662734D01*
X153360539Y-110690604D01*
X153330705Y-110720586D01*
X153330122Y-110721169D01*
X153295929Y-110755289D01*
X153268105Y-110782879D01*
X153245913Y-110804585D01*
X153228619Y-110821056D01*
X153215483Y-110832941D01*
X153205772Y-110840887D01*
X153198747Y-110845542D01*
X153193673Y-110847556D01*
X153189813Y-110847575D01*
X153187440Y-110846750D01*
X153180453Y-110842594D01*
X153166307Y-110833432D01*
X153146136Y-110820023D01*
X153121072Y-110803129D01*
X153092249Y-110783511D01*
X153060800Y-110761930D01*
X153049522Y-110754151D01*
X153017298Y-110732029D01*
X152987165Y-110711605D01*
X152960285Y-110693645D01*
X152937817Y-110678915D01*
X152920922Y-110668180D01*
X152910759Y-110662206D01*
X152909059Y-110661402D01*
X152903867Y-110659529D01*
X152898873Y-110658728D01*
X152892774Y-110659537D01*
X152884266Y-110662494D01*
X152872048Y-110668137D01*
X152854815Y-110677004D01*
X152831265Y-110689634D01*
X152801341Y-110705887D01*
X152783650Y-110714714D01*
X152768741Y-110720713D01*
X152759227Y-110722873D01*
X152757935Y-110722672D01*
X152754232Y-110717459D01*
X152747265Y-110704049D01*
X152737565Y-110683604D01*
X152725665Y-110657288D01*
X152712096Y-110626263D01*
X152697392Y-110591693D01*
X152691135Y-110576707D01*
X152658187Y-110497299D01*
X152628041Y-110424497D01*
X152600813Y-110358587D01*
X152576622Y-110299859D01*
X152555586Y-110248599D01*
X152537822Y-110205097D01*
X152523448Y-110169640D01*
X152512582Y-110142515D01*
X152505342Y-110124012D01*
X152501845Y-110114417D01*
X152501521Y-110113127D01*
X152505397Y-110108458D01*
X152515808Y-110099621D01*
X152530921Y-110088110D01*
X152540664Y-110081120D01*
X152584698Y-110048341D01*
X152620649Y-110017228D01*
X152650002Y-109986201D01*
X152674240Y-109953680D01*
X152694845Y-109918084D01*
X152696213Y-109915390D01*
X152713758Y-109876455D01*
X152725690Y-109839236D01*
X152732744Y-109800410D01*
X152735658Y-109756655D01*
X152735826Y-109736566D01*
X152735491Y-109708284D01*
X152734491Y-109686975D01*
X152732362Y-109669512D01*
X152728642Y-109652771D01*
X152722869Y-109633623D01*
X152718755Y-109621244D01*
X152694285Y-109563600D01*
X152662181Y-109511781D01*
X152623284Y-109466329D01*
X152578430Y-109427785D01*
X152528458Y-109396693D01*
X152474208Y-109373594D01*
X152416518Y-109359030D01*
X152356227Y-109353545D01*
X152308331Y-109355874D01*
X152246865Y-109367480D01*
X152189402Y-109388062D01*
X152136649Y-109417047D01*
X152089311Y-109453862D01*
X152048094Y-109497935D01*
X152013704Y-109548694D01*
X151986846Y-109605566D01*
X151981197Y-109621244D01*
X151974273Y-109642383D01*
X151969556Y-109659503D01*
X151966619Y-109675562D01*
X151965037Y-109693522D01*
X151964383Y-109716342D01*
X151964244Y-109739092D01*
X151965403Y-109782241D01*
X151969588Y-109818892D01*
X151977551Y-109852392D01*
X151990047Y-109886084D01*
X152004141Y-109916075D01*
X152018792Y-109942860D01*
X152035004Y-109967328D01*
X152053955Y-109990679D01*
X152076828Y-110014108D01*
X152104801Y-110038815D01*
X152139056Y-110065996D01*
X152180771Y-110096850D01*
X152185991Y-110100609D01*
X152200594Y-110111103D01*
X152184650Y-110151116D01*
X152181110Y-110159959D01*
X152176919Y-110170330D01*
X152171819Y-110182859D01*
X152165549Y-110198177D01*
X152157849Y-110216912D01*
X152148458Y-110239695D01*
X152137116Y-110267155D01*
X152123564Y-110299923D01*
X152107541Y-110338627D01*
X152088786Y-110383899D01*
X152067040Y-110436368D01*
X152042042Y-110496663D01*
X152013532Y-110565414D01*
X152001524Y-110594370D01*
X151987465Y-110627731D01*
X151974296Y-110657965D01*
X151962598Y-110683823D01*
X151952947Y-110704057D01*
X151945921Y-110717418D01*
X151942103Y-110722657D01*
X151934452Y-110721698D01*
X151920711Y-110716628D01*
X151903498Y-110708459D01*
X151898659Y-110705887D01*
X151867780Y-110689118D01*
X151844475Y-110676630D01*
X151827442Y-110667885D01*
X151815376Y-110662346D01*
X151806976Y-110659475D01*
X151800938Y-110658732D01*
X151795959Y-110659580D01*
X151790940Y-110661401D01*
X151782830Y-110665784D01*
X151767810Y-110675071D01*
X151747243Y-110688373D01*
X151722492Y-110704799D01*
X151694923Y-110723461D01*
X151678256Y-110734905D01*
X151636479Y-110763728D01*
X151602225Y-110787322D01*
X151574712Y-110806207D01*
X151553157Y-110820904D01*
X151536776Y-110831931D01*
X151524788Y-110839809D01*
X151516409Y-110845058D01*
X151510857Y-110848199D01*
X151507349Y-110849750D01*
X151505103Y-110850232D01*
X151504645Y-110850247D01*
X151499872Y-110846790D01*
X151488827Y-110836951D01*
X151472343Y-110821530D01*
X151451254Y-110801323D01*
X151426393Y-110777131D01*
X151398593Y-110749750D01*
X151368864Y-110720156D01*
X151339119Y-110690237D01*
X151311768Y-110662421D01*
X151287608Y-110637542D01*
X151267437Y-110616437D01*
X151252055Y-110599940D01*
X151242258Y-110588886D01*
X151238844Y-110584119D01*
X151241561Y-110577721D01*
X151248908Y-110565070D01*
X151259678Y-110548157D01*
X151269431Y-110533648D01*
X151281484Y-110516113D01*
X151297929Y-110492208D01*
X151317425Y-110463880D01*
X151338631Y-110433077D01*
X151360207Y-110401745D01*
X151367861Y-110390633D01*
X151387002Y-110362536D01*
X151404056Y-110336911D01*
X151418221Y-110315011D01*
X151428693Y-110298093D01*
X151434668Y-110287413D01*
X151435763Y-110284473D01*
X151433928Y-110277491D01*
X151428779Y-110262664D01*
X151420904Y-110241464D01*
X151410897Y-110215361D01*
X151399346Y-110185828D01*
X151386844Y-110154336D01*
X151373981Y-110122355D01*
X151361347Y-110091356D01*
X151349533Y-110062812D01*
X151339131Y-110038194D01*
X151330731Y-110018972D01*
X151324923Y-110006617D01*
X151322642Y-110002762D01*
X151320456Y-110000942D01*
X151316984Y-109999099D01*
X151311440Y-109997070D01*
X151303038Y-109994690D01*
X151290994Y-109991795D01*
X151274521Y-109988219D01*
X151252836Y-109983799D01*
X151225152Y-109978371D01*
X151190684Y-109971768D01*
X151148647Y-109963828D01*
X151098256Y-109954386D01*
X151038725Y-109943277D01*
X151038011Y-109943144D01*
X151009529Y-109937689D01*
X150989485Y-109933378D01*
X150976349Y-109929716D01*
X150968591Y-109926207D01*
X150964681Y-109922356D01*
X150963367Y-109919003D01*
X150962797Y-109911569D01*
X150962349Y-109895272D01*
X150962033Y-109871349D01*
X150961855Y-109841037D01*
X150961824Y-109805574D01*
X150961947Y-109766196D01*
X150962172Y-109731582D01*
X150963581Y-109554874D01*
X150976208Y-109548935D01*
X150984187Y-109546584D01*
X151000795Y-109542743D01*
X151024715Y-109537682D01*
X151054630Y-109531667D01*
X151089220Y-109524968D01*
X151127170Y-109517851D01*
X151145406Y-109514509D01*
X151184630Y-109507307D01*
X151221262Y-109500459D01*
X151253954Y-109494225D01*
X151281354Y-109488868D01*
X151302115Y-109484648D01*
X151314885Y-109481829D01*
X151317655Y-109481090D01*
X151322445Y-109479161D01*
X151326955Y-109475896D01*
X151331734Y-109470251D01*
X151337335Y-109461184D01*
X151344308Y-109447650D01*
X151353205Y-109428607D01*
X151364578Y-109403012D01*
X151378978Y-109369820D01*
X151390005Y-109344182D01*
X151404571Y-109309813D01*
X151417600Y-109278202D01*
X151428603Y-109250605D01*
X151437092Y-109228280D01*
X151442578Y-109212483D01*
X151444571Y-109204472D01*
X151444531Y-109203988D01*
X151441248Y-109198013D01*
X151432892Y-109184747D01*
X151420136Y-109165206D01*
X151403653Y-109140404D01*
X151384119Y-109111359D01*
X151362206Y-109079084D01*
X151343187Y-109051288D01*
X151319797Y-109017112D01*
X151298181Y-108985326D01*
X151279025Y-108956949D01*
X151263009Y-108933003D01*
X151250818Y-108914507D01*
X151243135Y-108902481D01*
X151240688Y-108898193D01*
X151241566Y-108894016D01*
X151246537Y-108886354D01*
X151256096Y-108874667D01*
X151270736Y-108858413D01*
X151290954Y-108837051D01*
X151317242Y-108810041D01*
X151350096Y-108776842D01*
X151368133Y-108758759D01*
X151398124Y-108728911D01*
X151426018Y-108701455D01*
X151450983Y-108677188D01*
X151472186Y-108656907D01*
X151488795Y-108641406D01*
X151499976Y-108631484D01*
X151504897Y-108627937D01*
X151504916Y-108627936D01*
X151511016Y-108630667D01*
X151523768Y-108638184D01*
X151541555Y-108649475D01*
X151562759Y-108663529D01*
X151573137Y-108670590D01*
X151601512Y-108690036D01*
X151633055Y-108711624D01*
X151663960Y-108732752D01*
X151690420Y-108750816D01*
X151690883Y-108751132D01*
X151715363Y-108767862D01*
X151740377Y-108785018D01*
X151762910Y-108800530D01*
X151779270Y-108811854D01*
X151796636Y-108822826D01*
X151812543Y-108830963D01*
X151823963Y-108834750D01*
X151825244Y-108834852D01*
X151833806Y-108832984D01*
X151850010Y-108827704D01*
X151872269Y-108819659D01*
X151898998Y-108809494D01*
X151928610Y-108797855D01*
X151959521Y-108785387D01*
X151990144Y-108772736D01*
X152018893Y-108760548D01*
X152044183Y-108749469D01*
X152064428Y-108740144D01*
X152078042Y-108733218D01*
X152083042Y-108729891D01*
X152087650Y-108720758D01*
X152093098Y-108702299D01*
X152099198Y-108675241D01*
X152104829Y-108645614D01*
X152110496Y-108614075D01*
X152116485Y-108581276D01*
X152122150Y-108550716D01*
X152126847Y-108525896D01*
X152127624Y-108521872D01*
X152132693Y-108495670D01*
X152138727Y-108464352D01*
X152144799Y-108432722D01*
X152148037Y-108415807D01*
X152152875Y-108392639D01*
X152157711Y-108373191D01*
X152161965Y-108359584D01*
X152164917Y-108354013D01*
X152171313Y-108353070D01*
X152186403Y-108352268D01*
X152208781Y-108351608D01*
X152237043Y-108351089D01*
X152269781Y-108350712D01*
X152305589Y-108350475D01*
X152343063Y-108350380D01*
X152380796Y-108350426D01*
G37*
X149057000Y-75000000D02*
X149057000Y-75600000D01*
X148357000Y-76300000D02*
X146957000Y-76300000D01*
X146957000Y-74300000D02*
X148357000Y-74300000D01*
X146257000Y-75600000D02*
X146257000Y-75000000D01*
X146957000Y-74300000D02*
G75*
G03*
X146257000Y-75000000I-1J-699999D01*
G01*
X149057000Y-75000000D02*
G75*
G03*
X148357000Y-74300000I-699999J1D01*
G01*
X148357000Y-76300000D02*
G75*
G03*
X149057000Y-75600000I1J699999D01*
G01*
X146257000Y-75600000D02*
G75*
G03*
X146957000Y-76300000I699999J-1D01*
G01*
X153036500Y-82937258D02*
X153036500Y-82462742D01*
X151991500Y-82937258D02*
X151991500Y-82462742D01*
X148617500Y-104835000D02*
X146667500Y-104835000D01*
X148617500Y-94715000D02*
X150567500Y-94715000D01*
X148617500Y-104835000D02*
X150567500Y-104835000D01*
X148617500Y-94715000D02*
X145167500Y-94715000D01*
X154125000Y-113865000D02*
X154125000Y-73045000D01*
X156615000Y-72985000D02*
X148665000Y-72985000D01*
X140620000Y-115075000D02*
X158520000Y-115075000D01*
X143110000Y-84475000D02*
X143110000Y-115075000D01*
X156615000Y-84475000D02*
X158520000Y-84475000D01*
X156615000Y-84475000D02*
X156615000Y-72985000D01*
X141205000Y-73045000D02*
X141205000Y-84475000D01*
X156030000Y-113865000D02*
X154125000Y-113865000D01*
X146665000Y-72985000D02*
X138715000Y-72985000D01*
X138715000Y-72985000D02*
X138715000Y-113865000D01*
X143110000Y-84475000D02*
X141205000Y-84475000D01*
X158520000Y-115075000D02*
X158520000Y-84475000D01*
X138715000Y-113865000D02*
X140620000Y-113865000D01*
X156030000Y-115075000D02*
X156030000Y-113865000D01*
X140620000Y-115075000D02*
X140620000Y-113865000D01*
X146665000Y-72985000D02*
G75*
G03*
X148665000Y-72985000I1000000J0D01*
G01*
%LPC*%
D13*
X142800000Y-79130000D03*
X142800000Y-77480000D03*
X142800000Y-83525000D03*
X142800000Y-81875000D03*
X152514000Y-79130000D03*
X152514000Y-77480000D03*
X146038000Y-79130000D03*
X146038000Y-77480000D03*
X146038000Y-83525000D03*
X146038000Y-81875000D03*
X149276000Y-83525000D03*
X149276000Y-81875000D03*
X149276000Y-79130000D03*
X149276000Y-77480000D03*
D14*
X148307000Y-75300000D03*
D15*
X147007000Y-75300000D03*
D13*
X152514000Y-83525000D03*
X152514000Y-81875000D03*
D16*
X146142500Y-95330000D03*
X146142500Y-96600000D03*
X146142500Y-97870000D03*
X146142500Y-99140000D03*
X146142500Y-100410000D03*
X146142500Y-101680000D03*
X146142500Y-102950000D03*
X146142500Y-104220000D03*
X151092500Y-104220000D03*
X151092500Y-102950000D03*
X151092500Y-101680000D03*
X151092500Y-100410000D03*
X151092500Y-99140000D03*
X151092500Y-97870000D03*
X151092500Y-96600000D03*
X151092500Y-95330000D03*
D17*
X140045000Y-74375000D03*
D18*
X140045000Y-76915000D03*
D19*
X140045000Y-79455000D03*
D18*
X140045000Y-81995000D03*
X140045000Y-84535000D03*
X140045000Y-87075000D03*
X140045000Y-89615000D03*
X140045000Y-92155000D03*
X140045000Y-94695000D03*
X140045000Y-97235000D03*
X140045000Y-99775000D03*
X140045000Y-102315000D03*
X140045000Y-104855000D03*
X140045000Y-107395000D03*
X140045000Y-109935000D03*
X140045000Y-112475000D03*
D20*
X155285000Y-112475000D03*
X155285000Y-109935000D03*
X155285000Y-107395000D03*
X155285000Y-104855000D03*
X155285000Y-102315000D03*
X155285000Y-99775000D03*
X155285000Y-97235000D03*
X155285000Y-94695000D03*
X155285000Y-92155000D03*
X155285000Y-89615000D03*
X155285000Y-87075000D03*
X155285000Y-84535000D03*
X155285000Y-81995000D03*
X155285000Y-79455000D03*
X155285000Y-76915000D03*
X155285000Y-74375000D03*
D19*
X141950000Y-85805000D03*
D18*
X141950000Y-88345000D03*
X141950000Y-90885000D03*
X141950000Y-93425000D03*
X141950000Y-95965000D03*
X141950000Y-98505000D03*
X141950000Y-101045000D03*
X141950000Y-103585000D03*
X141950000Y-106125000D03*
X141950000Y-108665000D03*
X141950000Y-111205000D03*
X141950000Y-113745000D03*
D20*
X157190000Y-113745000D03*
X157190000Y-111205000D03*
X157190000Y-108665000D03*
X157190000Y-106125000D03*
X157190000Y-103585000D03*
X157190000Y-101045000D03*
X157190000Y-98505000D03*
X157190000Y-95965000D03*
X157190000Y-93425000D03*
X157190000Y-90885000D03*
X157190000Y-88345000D03*
X157190000Y-85805000D03*
M02*
