%TF.GenerationSoftware,KiCad,Pcbnew,(6.0.1)*%
%TF.CreationDate,2022-02-10T14:07:36-05:00*%
%TF.ProjectId,23XX-Adapter,32335858-2d41-4646-9170-7465722e6b69,1*%
%TF.SameCoordinates,Original*%
%TF.FileFunction,Soldermask,Top*%
%TF.FilePolarity,Negative*%
%FSLAX46Y46*%
G04 Gerber Fmt 4.6, Leading zero omitted, Abs format (unit mm)*
G04 Created by KiCad (PCBNEW (6.0.1)) date 2022-02-10 14:07:36*
%MOMM*%
%LPD*%
G01*
G04 APERTURE LIST*
G04 Aperture macros list*
%AMRoundRect*
0 Rectangle with rounded corners*
0 $1 Rounding radius*
0 $2 $3 $4 $5 $6 $7 $8 $9 X,Y pos of 4 corners*
0 Add a 4 corners polygon primitive as box body*
4,1,4,$2,$3,$4,$5,$6,$7,$8,$9,$2,$3,0*
0 Add four circle primitives for the rounded corners*
1,1,$1+$1,$2,$3*
1,1,$1+$1,$4,$5*
1,1,$1+$1,$6,$7*
1,1,$1+$1,$8,$9*
0 Add four rect primitives between the rounded corners*
20,1,$1+$1,$2,$3,$4,$5,0*
20,1,$1+$1,$4,$5,$6,$7,0*
20,1,$1+$1,$6,$7,$8,$9,0*
20,1,$1+$1,$8,$9,$2,$3,0*%
%AMOutline5P*
0 Free polygon, 5 corners , with rotation*
0 The origin of the aperture is its center*
0 number of corners: always 5*
0 $1 to $10 corner X, Y*
0 $11 Rotation angle, in degrees counterclockwise*
0 create outline with 5 corners*
4,1,5,$1,$2,$3,$4,$5,$6,$7,$8,$9,$10,$1,$2,$11*%
%AMOutline6P*
0 Free polygon, 6 corners , with rotation*
0 The origin of the aperture is its center*
0 number of corners: always 6*
0 $1 to $12 corner X, Y*
0 $13 Rotation angle, in degrees counterclockwise*
0 create outline with 6 corners*
4,1,6,$1,$2,$3,$4,$5,$6,$7,$8,$9,$10,$11,$12,$1,$2,$13*%
%AMOutline7P*
0 Free polygon, 7 corners , with rotation*
0 The origin of the aperture is its center*
0 number of corners: always 7*
0 $1 to $14 corner X, Y*
0 $15 Rotation angle, in degrees counterclockwise*
0 create outline with 7 corners*
4,1,7,$1,$2,$3,$4,$5,$6,$7,$8,$9,$10,$11,$12,$13,$14,$1,$2,$15*%
%AMOutline8P*
0 Free polygon, 8 corners , with rotation*
0 The origin of the aperture is its center*
0 number of corners: always 8*
0 $1 to $16 corner X, Y*
0 $17 Rotation angle, in degrees counterclockwise*
0 create outline with 8 corners*
4,1,8,$1,$2,$3,$4,$5,$6,$7,$8,$9,$10,$11,$12,$13,$14,$15,$16,$1,$2,$17*%
%AMFreePoly0*
4,1,22,0.500000,-0.750000,0.000000,-0.750000,0.000000,-0.745033,-0.079941,-0.743568,-0.215256,-0.701293,-0.333266,-0.622738,-0.424486,-0.514219,-0.481581,-0.384460,-0.499164,-0.250000,-0.500000,-0.250000,-0.500000,0.250000,-0.499164,0.250000,-0.499963,0.256109,-0.478152,0.396186,-0.417904,0.524511,-0.324060,0.630769,-0.204165,0.706417,-0.067858,0.745374,0.000000,0.744959,0.000000,0.750000,
0.500000,0.750000,0.500000,-0.750000,0.500000,-0.750000,$1*%
%AMFreePoly1*
4,1,20,0.000000,0.744959,0.073905,0.744508,0.209726,0.703889,0.328688,0.626782,0.421226,0.519385,0.479903,0.390333,0.500000,0.250000,0.500000,-0.250000,0.499851,-0.262216,0.476331,-0.402017,0.414519,-0.529596,0.319384,-0.634700,0.198574,-0.708877,0.061801,-0.746166,0.000000,-0.745033,0.000000,-0.750000,-0.500000,-0.750000,-0.500000,0.750000,0.000000,0.750000,0.000000,0.744959,
0.000000,0.744959,$1*%
G04 Aperture macros list end*
%ADD10RoundRect,0.200000X0.275000X-0.200000X0.275000X0.200000X-0.275000X0.200000X-0.275000X-0.200000X0*%
%ADD11FreePoly0,180.000000*%
%ADD12FreePoly1,180.000000*%
%ADD13RoundRect,0.150000X-0.825000X-0.150000X0.825000X-0.150000X0.825000X0.150000X-0.825000X0.150000X0*%
%ADD14R,1.600000X1.600000*%
%ADD15C,1.600000*%
%ADD16Outline8P,-0.800000X0.480000X-0.480000X0.800000X0.480000X0.800000X0.800000X0.480000X0.800000X-0.480000X0.480000X-0.800000X-0.480000X-0.800000X-0.800000X-0.480000X0.000000*%
%ADD17O,1.600000X1.600000*%
G04 APERTURE END LIST*
D10*
X142800000Y-79130000D03*
X142800000Y-77480000D03*
X142800000Y-83525000D03*
X142800000Y-81875000D03*
X152514000Y-79130000D03*
X152514000Y-77480000D03*
X146038000Y-79130000D03*
X146038000Y-77480000D03*
X146038000Y-83525000D03*
X146038000Y-81875000D03*
X149276000Y-83525000D03*
X149276000Y-81875000D03*
X149276000Y-79130000D03*
X149276000Y-77480000D03*
D11*
X148307000Y-75300000D03*
D12*
X147007000Y-75300000D03*
D10*
X152514000Y-83525000D03*
X152514000Y-81875000D03*
D13*
X146142500Y-95330000D03*
X146142500Y-96600000D03*
X146142500Y-97870000D03*
X146142500Y-99140000D03*
X146142500Y-100410000D03*
X146142500Y-101680000D03*
X146142500Y-102950000D03*
X146142500Y-104220000D03*
X151092500Y-104220000D03*
X151092500Y-102950000D03*
X151092500Y-101680000D03*
X151092500Y-100410000D03*
X151092500Y-99140000D03*
X151092500Y-97870000D03*
X151092500Y-96600000D03*
X151092500Y-95330000D03*
D14*
X140045000Y-74375000D03*
D15*
X140045000Y-76915000D03*
D16*
X140045000Y-79455000D03*
D15*
X140045000Y-81995000D03*
X140045000Y-84535000D03*
X140045000Y-87075000D03*
X140045000Y-89615000D03*
X140045000Y-92155000D03*
X140045000Y-94695000D03*
X140045000Y-97235000D03*
X140045000Y-99775000D03*
X140045000Y-102315000D03*
X140045000Y-104855000D03*
X140045000Y-107395000D03*
X140045000Y-109935000D03*
X140045000Y-112475000D03*
D17*
X155285000Y-112475000D03*
X155285000Y-109935000D03*
X155285000Y-107395000D03*
X155285000Y-104855000D03*
X155285000Y-102315000D03*
X155285000Y-99775000D03*
X155285000Y-97235000D03*
X155285000Y-94695000D03*
X155285000Y-92155000D03*
X155285000Y-89615000D03*
X155285000Y-87075000D03*
X155285000Y-84535000D03*
X155285000Y-81995000D03*
X155285000Y-79455000D03*
X155285000Y-76915000D03*
X155285000Y-74375000D03*
D16*
X141950000Y-85805000D03*
D15*
X141950000Y-88345000D03*
X141950000Y-90885000D03*
X141950000Y-93425000D03*
X141950000Y-95965000D03*
X141950000Y-98505000D03*
X141950000Y-101045000D03*
X141950000Y-103585000D03*
X141950000Y-106125000D03*
X141950000Y-108665000D03*
X141950000Y-111205000D03*
X141950000Y-113745000D03*
D17*
X157190000Y-113745000D03*
X157190000Y-111205000D03*
X157190000Y-108665000D03*
X157190000Y-106125000D03*
X157190000Y-103585000D03*
X157190000Y-101045000D03*
X157190000Y-98505000D03*
X157190000Y-95965000D03*
X157190000Y-93425000D03*
X157190000Y-90885000D03*
X157190000Y-88345000D03*
X157190000Y-85805000D03*
M02*
