M48
; DRILL file {KiCad (6.0.1)} date Thu Feb 10 14:07:40 2022
; FORMAT={-:-/ absolute / metric / decimal}
; #@! TF.CreationDate,2022-02-10T14:07:40-05:00
; #@! TF.GenerationSoftware,Kicad,Pcbnew,(6.0.1)
; #@! TF.FileFunction,Plated,1,4,PTH
FMAT,2
METRIC
; #@! TA.AperFunction,Plated,PTH,ViaDrill
T1C0.300
; #@! TA.AperFunction,Plated,PTH,ComponentDrill
T2C0.800
%
G90
G05
T1
X144.132Y-90.158
X144.132Y-93.368
X144.132Y-96.6
X144.132Y-97.87
X144.132Y-100.584
X144.132Y-101.68
X144.132Y-103.313
X144.132Y-107.278
X144.132Y-111.243
X144.4Y-81.962
X144.419Y-77.48
X144.419Y-79.042
X144.419Y-83.438
X147.337Y-109.305
X147.657Y-77.567
X147.657Y-79.042
X147.657Y-81.962
X147.657Y-83.438
X147.7Y-95.33
X147.969Y-99.921
X147.969Y-103.976
X149.517Y-90.145
X149.517Y-97.275
X149.517Y-99.515
X149.517Y-101.68
X149.517Y-103.77
X149.517Y-107.8
X149.517Y-111.01
X150.65Y-93.0
X150.895Y-77.48
X150.895Y-79.042
X150.895Y-81.962
X150.895Y-83.438
X152.952Y-95.33
T2
X140.045Y-74.375
X140.045Y-76.915
X140.045Y-79.455
X140.045Y-81.995
X140.045Y-84.535
X140.045Y-87.075
X140.045Y-89.615
X140.045Y-92.155
X140.045Y-94.695
X140.045Y-97.235
X140.045Y-99.775
X140.045Y-102.315
X140.045Y-104.855
X140.045Y-107.395
X140.045Y-109.935
X140.045Y-112.475
X141.95Y-85.805
X141.95Y-88.345
X141.95Y-90.885
X141.95Y-93.425
X141.95Y-95.965
X141.95Y-98.505
X141.95Y-101.045
X141.95Y-103.585
X141.95Y-106.125
X141.95Y-108.665
X141.95Y-111.205
X141.95Y-113.745
X155.285Y-74.375
X155.285Y-76.915
X155.285Y-79.455
X155.285Y-81.995
X155.285Y-84.535
X155.285Y-87.075
X155.285Y-89.615
X155.285Y-92.155
X155.285Y-94.695
X155.285Y-97.235
X155.285Y-99.775
X155.285Y-102.315
X155.285Y-104.855
X155.285Y-107.395
X155.285Y-109.935
X155.285Y-112.475
X157.19Y-85.805
X157.19Y-88.345
X157.19Y-90.885
X157.19Y-93.425
X157.19Y-95.965
X157.19Y-98.505
X157.19Y-101.045
X157.19Y-103.585
X157.19Y-106.125
X157.19Y-108.665
X157.19Y-111.205
X157.19Y-113.745
T0
M30
