%FSLAX45Y45*%
G04 Gerber Fmt 4.5, Leading zero omitted, Abs format (unit mm)*
G04 Created by KiCad (PCBNEW (6.0.1)) date 2022-02-10 14:07:41*
%MOMM*%
%LPD*%
G01*
G04 APERTURE LIST*
%TA.AperFunction,Profile*%
%ADD10C,0.050000*%
%TD*%
%ADD11C,0.200000*%
G04 APERTURE END LIST*
D10*
X15670000Y-8439000D02*
X15860500Y-8439000D01*
X13863000Y-11395000D02*
X13863000Y-7290000D01*
X14053500Y-11395000D02*
X13863000Y-11395000D01*
X14856500Y-7298500D02*
X14856500Y-7290000D01*
X14676500Y-7298500D02*
G75*
G03*
X14856500Y-7298500I90000J0D01*
G01*
X15670000Y-7290000D02*
X15670000Y-8439000D01*
X15860500Y-8439000D02*
X15860500Y-11516000D01*
X14676500Y-7290000D02*
X14676500Y-7298500D01*
X14856500Y-7290000D02*
X15670000Y-7290000D01*
X15860500Y-11516000D02*
X14053500Y-11516000D01*
X13863000Y-7290000D02*
X14676500Y-7290000D01*
X14053500Y-11516000D02*
X14053500Y-11395000D01*
D11*
X14118119Y-11828976D02*
X14118119Y-11628976D01*
X14165738Y-11628976D01*
X14194309Y-11638500D01*
X14213357Y-11657548D01*
X14222881Y-11676595D01*
X14232405Y-11714690D01*
X14232405Y-11743262D01*
X14222881Y-11781357D01*
X14213357Y-11800405D01*
X14194309Y-11819452D01*
X14165738Y-11828976D01*
X14118119Y-11828976D01*
X14318119Y-11828976D02*
X14318119Y-11695643D01*
X14318119Y-11733738D02*
X14327643Y-11714690D01*
X14337167Y-11705167D01*
X14356214Y-11695643D01*
X14375262Y-11695643D01*
X14441928Y-11828976D02*
X14441928Y-11695643D01*
X14441928Y-11628976D02*
X14432405Y-11638500D01*
X14441928Y-11648024D01*
X14451452Y-11638500D01*
X14441928Y-11628976D01*
X14441928Y-11648024D01*
X14565738Y-11828976D02*
X14546690Y-11819452D01*
X14537167Y-11800405D01*
X14537167Y-11628976D01*
X14670500Y-11828976D02*
X14651452Y-11819452D01*
X14641928Y-11800405D01*
X14641928Y-11628976D01*
X14899071Y-11828976D02*
X14899071Y-11628976D01*
X14965738Y-11771833D01*
X15032405Y-11628976D01*
X15032405Y-11828976D01*
X15213357Y-11828976D02*
X15213357Y-11724214D01*
X15203833Y-11705167D01*
X15184786Y-11695643D01*
X15146690Y-11695643D01*
X15127643Y-11705167D01*
X15213357Y-11819452D02*
X15194309Y-11828976D01*
X15146690Y-11828976D01*
X15127643Y-11819452D01*
X15118119Y-11800405D01*
X15118119Y-11781357D01*
X15127643Y-11762309D01*
X15146690Y-11752786D01*
X15194309Y-11752786D01*
X15213357Y-11743262D01*
X15308595Y-11695643D02*
X15308595Y-11895643D01*
X15308595Y-11705167D02*
X15327643Y-11695643D01*
X15365738Y-11695643D01*
X15384786Y-11705167D01*
X15394309Y-11714690D01*
X15403833Y-11733738D01*
X15403833Y-11790881D01*
X15394309Y-11809928D01*
X15384786Y-11819452D01*
X15365738Y-11828976D01*
X15327643Y-11828976D01*
X15308595Y-11819452D01*
X15489548Y-11809928D02*
X15499071Y-11819452D01*
X15489548Y-11828976D01*
X15480024Y-11819452D01*
X15489548Y-11809928D01*
X15489548Y-11828976D01*
X15489548Y-11705167D02*
X15499071Y-11714690D01*
X15489548Y-11724214D01*
X15480024Y-11714690D01*
X15489548Y-11705167D01*
X15489548Y-11724214D01*
M02*
